G04 EAGLE Gerber RS-274X export*
G75*
%MOMM*%
%FSLAX34Y34*%
%LPD*%
%INTop Copper*%
%IPPOS*%
%AMOC8*
5,1,8,0,0,1.08239X$1,22.5*%
G01*
%ADD10R,0.700000X0.900000*%
%ADD11R,1.100000X1.000000*%
%ADD12R,1.000000X1.100000*%
%ADD13R,1.300000X1.500000*%
%ADD14R,0.900000X0.700000*%
%ADD15R,1.000000X0.700000*%
%ADD16R,0.600000X0.700000*%
%ADD17R,1.350000X0.400000*%
%ADD18R,1.900000X1.800000*%
%ADD19R,2.250000X2.250000*%
%ADD20C,1.275000*%
%ADD21R,1.290000X1.290000*%
%ADD22C,1.290000*%
%ADD23C,1.778000*%
%ADD24R,0.965200X0.939800*%
%ADD25R,1.200000X1.200000*%
%ADD26R,0.900000X1.000000*%
%ADD27C,1.000000*%
%ADD28R,1.346200X0.279400*%
%ADD29R,0.279400X1.346200*%
%ADD30R,1.900000X1.100000*%
%ADD31C,3.750000*%
%ADD32C,0.230000*%
%ADD33C,0.254000*%
%ADD34C,0.600000*%
%ADD35C,0.400000*%
%ADD36C,0.400000*%
%ADD37C,0.500000*%
%ADD38C,0.550000*%
%ADD39C,0.100000*%
%ADD40C,0.165000*%
%ADD41C,1.500000*%


D10*
X291500Y50000D03*
X278500Y50000D03*
X174500Y52000D03*
X161500Y52000D03*
X257500Y113500D03*
X270500Y113500D03*
D11*
X276500Y130000D03*
X293500Y130000D03*
D10*
X291500Y75500D03*
X278500Y75500D03*
X257500Y102000D03*
X270500Y102000D03*
D12*
X382500Y38000D03*
X382500Y55000D03*
D13*
X59500Y60000D03*
X40500Y60000D03*
D14*
X144000Y28000D03*
X144000Y15000D03*
X320000Y129800D03*
X320000Y142800D03*
X126000Y64500D03*
X126000Y51500D03*
D10*
X181500Y38000D03*
X168500Y38000D03*
D15*
X72500Y108250D03*
D16*
X89500Y108250D03*
X89500Y128250D03*
X70500Y128250D03*
D17*
X41250Y128000D03*
X41250Y121500D03*
X41250Y115000D03*
X41250Y108500D03*
X41250Y102000D03*
D18*
X14500Y126500D03*
X14500Y103500D03*
D19*
X14500Y150125D03*
X14500Y79875D03*
D20*
X44500Y139250D03*
X44500Y90750D03*
D21*
X90000Y210500D03*
D22*
X110000Y210500D03*
D23*
X165100Y216600D03*
X190500Y216600D03*
X215900Y216600D03*
X241300Y216600D03*
X266700Y216600D03*
X292100Y216600D03*
X317500Y216600D03*
X342900Y216600D03*
X368300Y216600D03*
X393700Y216600D03*
X419100Y216600D03*
X444500Y216600D03*
X165100Y13400D03*
X190500Y13400D03*
X215900Y13400D03*
X241300Y13400D03*
X266700Y13400D03*
X292100Y13400D03*
X317500Y13400D03*
X342900Y13400D03*
X368300Y13400D03*
X393700Y13400D03*
X419100Y13400D03*
X444500Y13400D03*
D24*
X292493Y148000D03*
X277507Y148000D03*
D25*
X25500Y173000D03*
X46500Y173000D03*
D16*
X50000Y44000D03*
X60000Y44000D03*
X132000Y28000D03*
X122000Y28000D03*
D26*
X64500Y28000D03*
X105500Y28000D03*
X64500Y12000D03*
X105500Y12000D03*
D27*
X201000Y40000D03*
X216000Y40000D03*
D28*
X221783Y87500D03*
X221783Y92500D03*
X221783Y97500D03*
X221783Y102500D03*
X221783Y107500D03*
X221783Y112500D03*
X221783Y117500D03*
X221783Y122500D03*
X221783Y127500D03*
X221783Y132500D03*
X221783Y137500D03*
X221783Y142500D03*
D29*
X207500Y156783D03*
X202500Y156783D03*
X197500Y156783D03*
X192500Y156783D03*
X187500Y156783D03*
X182500Y156783D03*
X177500Y156783D03*
X172500Y156783D03*
X167500Y156783D03*
X162500Y156783D03*
X157500Y156783D03*
X152500Y156783D03*
D28*
X138217Y142500D03*
X138217Y137500D03*
X138217Y132500D03*
X138217Y127500D03*
X138217Y122500D03*
X138217Y117500D03*
X138217Y112500D03*
X138217Y107500D03*
X138217Y102500D03*
X138217Y97500D03*
X138217Y92500D03*
X138217Y87500D03*
D29*
X152500Y73217D03*
X157500Y73217D03*
X162500Y73217D03*
X167500Y73217D03*
X172500Y73217D03*
X177500Y73217D03*
X182500Y73217D03*
X187500Y73217D03*
X192500Y73217D03*
X197500Y73217D03*
X202500Y73217D03*
X207500Y73217D03*
D30*
X257500Y75500D03*
X257500Y50500D03*
D31*
X25400Y26100D03*
X25400Y203900D03*
D32*
X132000Y28000D02*
X144000Y28000D01*
X144000Y54000D01*
X150000Y60000D01*
X164000Y60000D01*
X167500Y63500D02*
X167500Y73217D01*
X167500Y63500D02*
X164000Y60000D01*
D33*
X320000Y142800D02*
X320000Y165000D01*
D34*
X55000Y102000D03*
D35*
X320000Y165000D03*
X370000Y115000D03*
X395000Y65000D03*
X370000Y175000D03*
X395000Y55000D03*
X370000Y55000D03*
X395000Y115000D03*
X395000Y135000D03*
X395000Y155000D03*
X395000Y175000D03*
X370000Y155000D03*
X370000Y135000D03*
X370000Y65000D03*
X320000Y185000D03*
D36*
X55000Y102000D02*
X41250Y102000D01*
D37*
X40500Y60000D02*
X25000Y60000D01*
D34*
X25000Y60000D03*
D37*
X45000Y44000D02*
X50000Y44000D01*
X45000Y44000D02*
X40500Y48500D01*
X40500Y60000D01*
D38*
X72000Y56000D03*
D33*
X64500Y12000D02*
X105500Y12000D01*
D38*
X134000Y15500D03*
D33*
X143500Y15500D01*
X144000Y15000D01*
D38*
X53000Y15500D03*
D33*
X56500Y12000D01*
X64500Y12000D01*
X291500Y62500D02*
X291500Y75500D01*
D35*
X291500Y62500D03*
D33*
X291500Y50000D01*
X382500Y55000D02*
X395000Y55000D01*
D35*
X152000Y45000D03*
D33*
X152000Y50000D01*
X154000Y52000D01*
X161500Y52000D01*
X168500Y38000D02*
X154000Y38000D01*
X152000Y40000D01*
X152000Y45000D01*
X210000Y107500D02*
X221783Y107500D01*
D35*
X210000Y107500D03*
D33*
X138217Y92500D02*
X126317Y92500D01*
X126015Y92802D01*
D35*
X126015Y92802D03*
D33*
X177500Y82500D02*
X177500Y73217D01*
X174000Y86000D02*
X158000Y86000D01*
D35*
X158000Y86000D03*
D33*
X174000Y86000D02*
X177500Y82500D01*
X182500Y143500D02*
X182500Y156783D01*
X182500Y143500D02*
X189000Y137000D01*
D35*
X189000Y137000D03*
X188000Y182000D03*
D33*
X270500Y113500D02*
X270500Y102000D01*
X270500Y113500D02*
X299000Y113500D01*
D35*
X299000Y113500D03*
D33*
X293500Y130000D02*
X305000Y130000D01*
D35*
X305000Y130000D03*
X114000Y109000D03*
D33*
X126000Y51500D02*
X126000Y41000D01*
D35*
X126000Y41000D03*
D39*
X261500Y191690D02*
X261500Y191714D01*
X362687Y191714D01*
X365131Y192726D01*
X367002Y194597D01*
X367002Y194597D01*
X373938Y201533D01*
X374851Y203738D01*
X376451Y204401D01*
X380499Y208449D01*
X381000Y209658D01*
X381501Y208449D01*
X385549Y204401D01*
X390838Y202210D01*
X396562Y202210D01*
X401851Y204401D01*
X405899Y208449D01*
X406400Y209658D01*
X406901Y208449D01*
X409000Y206350D01*
X409000Y44621D01*
X393000Y44639D01*
X393000Y45778D01*
X389934Y48844D01*
X390000Y49003D01*
X390000Y54500D01*
X383000Y54500D01*
X383000Y55500D01*
X390000Y55500D01*
X390000Y60997D01*
X389619Y61916D01*
X388916Y62619D01*
X387997Y63000D01*
X383000Y63000D01*
X383000Y55500D01*
X382000Y55500D01*
X382000Y63000D01*
X377003Y63000D01*
X376084Y62619D01*
X375381Y61916D01*
X375000Y60997D01*
X375000Y55500D01*
X382000Y55500D01*
X382000Y54500D01*
X375000Y54500D01*
X375000Y49003D01*
X375066Y48844D01*
X372000Y45778D01*
X372000Y44640D01*
X348287Y44617D01*
X341150Y51755D01*
X341150Y79823D01*
X340138Y82267D01*
X327767Y94638D01*
X325323Y95650D01*
X275685Y95650D01*
X276119Y96084D01*
X276500Y97003D01*
X276500Y101500D01*
X271000Y101500D01*
X271000Y102500D01*
X276500Y102500D01*
X276500Y106997D01*
X276188Y107750D01*
X276500Y108503D01*
X276500Y113000D01*
X271000Y113000D01*
X271000Y114000D01*
X276500Y114000D01*
X276500Y118497D01*
X276119Y119416D01*
X276035Y119500D01*
X284278Y119500D01*
X287344Y122566D01*
X287503Y122500D01*
X293000Y122500D01*
X293000Y129500D01*
X294000Y129500D01*
X294000Y122500D01*
X299497Y122500D01*
X300416Y122881D01*
X301119Y123584D01*
X301500Y124503D01*
X301500Y127136D01*
X302237Y126399D01*
X303263Y125807D01*
X304408Y125500D01*
X305000Y125500D01*
X305000Y130000D01*
X305000Y130000D01*
X305000Y125500D01*
X305592Y125500D01*
X306737Y125807D01*
X307763Y126399D01*
X308601Y127237D01*
X309193Y128263D01*
X309500Y129408D01*
X309500Y130000D01*
X305000Y130000D01*
X305000Y130000D01*
X309500Y130000D01*
X309500Y130592D01*
X309193Y131737D01*
X308601Y132763D01*
X307763Y133601D01*
X306737Y134193D01*
X305592Y134500D01*
X305000Y134500D01*
X305000Y130000D01*
X305000Y130000D01*
X305000Y134500D01*
X304408Y134500D01*
X303263Y134193D01*
X302237Y133601D01*
X301500Y132864D01*
X301500Y135497D01*
X301119Y136416D01*
X300416Y137119D01*
X299497Y137500D01*
X294000Y137500D01*
X294000Y130500D01*
X293000Y130500D01*
X293000Y137500D01*
X287503Y137500D01*
X287344Y137434D01*
X286977Y137801D01*
X299597Y137801D01*
X302651Y140855D01*
X303508Y140500D01*
X306492Y140500D01*
X309248Y141642D01*
X311358Y143752D01*
X312500Y146508D01*
X312500Y149492D01*
X311358Y152248D01*
X309248Y154358D01*
X306492Y155500D01*
X303508Y155500D01*
X302651Y155145D01*
X299597Y158199D01*
X285389Y158199D01*
X285008Y157818D01*
X284992Y157818D01*
X284611Y158199D01*
X270403Y158199D01*
X267181Y154977D01*
X267181Y141023D01*
X268213Y139991D01*
X266030Y137808D01*
X265358Y139430D01*
X263248Y141540D01*
X260492Y142682D01*
X257508Y142682D01*
X255456Y141832D01*
X254236Y141832D01*
X255638Y143233D01*
X256650Y145677D01*
X256650Y174456D01*
X257500Y176508D01*
X257500Y179492D01*
X256358Y182248D01*
X254248Y184358D01*
X251492Y185500D01*
X248508Y185500D01*
X245752Y184358D01*
X243642Y182248D01*
X242500Y179492D01*
X242500Y176508D01*
X243350Y174456D01*
X243350Y149755D01*
X242745Y149150D01*
X231039Y149150D01*
X230792Y149397D01*
X214397Y149397D01*
X214397Y163350D01*
X216456Y163350D01*
X218508Y162500D01*
X221492Y162500D01*
X224248Y163642D01*
X226358Y165752D01*
X227500Y168508D01*
X227500Y171492D01*
X226358Y174248D01*
X224248Y176358D01*
X222764Y176973D01*
X223400Y178508D01*
X223400Y181350D01*
X227456Y181350D01*
X229508Y180500D01*
X232492Y180500D01*
X235248Y181642D01*
X237358Y183752D01*
X238500Y186508D01*
X238500Y186532D01*
X250456Y186532D01*
X252508Y185682D01*
X255492Y185682D01*
X258248Y186824D01*
X260358Y188934D01*
X261500Y191690D01*
X299000Y118000D02*
X299000Y113500D01*
X299000Y113500D01*
X299000Y118000D01*
X298408Y118000D01*
X297263Y117693D01*
X296237Y117101D01*
X295399Y116263D01*
X294807Y115237D01*
X294500Y114092D01*
X294500Y113500D01*
X299000Y113500D01*
X299000Y113500D01*
X294500Y113500D01*
X294500Y112908D01*
X294807Y111763D01*
X295399Y110737D01*
X296237Y109899D01*
X297263Y109307D01*
X298408Y109000D01*
X299000Y109000D01*
X299000Y113500D01*
X299000Y113500D01*
X299000Y109000D01*
X299592Y109000D01*
X300737Y109307D01*
X301763Y109899D01*
X302601Y110737D01*
X303193Y111763D01*
X303500Y112908D01*
X303500Y113500D01*
X299000Y113500D01*
X299000Y113500D01*
X303500Y113500D01*
X303500Y114092D01*
X303193Y115237D01*
X302601Y116263D01*
X301763Y117101D01*
X300737Y117693D01*
X299592Y118000D01*
X299000Y118000D01*
X320000Y185000D02*
X320000Y189500D01*
X320000Y185000D02*
X320000Y185000D01*
X320000Y189500D01*
X319408Y189500D01*
X318263Y189193D01*
X317237Y188601D01*
X316399Y187763D01*
X315807Y186737D01*
X315500Y185592D01*
X315500Y185000D01*
X320000Y185000D01*
X320000Y185000D01*
X315500Y185000D01*
X315500Y184408D01*
X315807Y183263D01*
X316399Y182237D01*
X317237Y181399D01*
X318263Y180807D01*
X319408Y180500D01*
X320000Y180500D01*
X320000Y185000D01*
X320000Y185000D01*
X320000Y180500D01*
X320592Y180500D01*
X321737Y180807D01*
X322763Y181399D01*
X323601Y182237D01*
X324193Y183263D01*
X324500Y184408D01*
X324500Y185000D01*
X320000Y185000D01*
X320000Y185000D01*
X324500Y185000D01*
X324500Y185592D01*
X324193Y186737D01*
X323601Y187763D01*
X322763Y188601D01*
X321737Y189193D01*
X320592Y189500D01*
X320000Y189500D01*
X370000Y139500D02*
X370000Y135000D01*
X370000Y135000D01*
X370000Y139500D01*
X369408Y139500D01*
X368263Y139193D01*
X367237Y138601D01*
X366399Y137763D01*
X365807Y136737D01*
X365500Y135592D01*
X365500Y135000D01*
X370000Y135000D01*
X370000Y135000D01*
X365500Y135000D01*
X365500Y134408D01*
X365807Y133263D01*
X366399Y132237D01*
X367237Y131399D01*
X368263Y130807D01*
X369408Y130500D01*
X370000Y130500D01*
X370000Y135000D01*
X370000Y135000D01*
X370000Y130500D01*
X370592Y130500D01*
X371737Y130807D01*
X372763Y131399D01*
X373601Y132237D01*
X374193Y133263D01*
X374500Y134408D01*
X374500Y135000D01*
X370000Y135000D01*
X370000Y135000D01*
X374500Y135000D01*
X374500Y135592D01*
X374193Y136737D01*
X373601Y137763D01*
X372763Y138601D01*
X371737Y139193D01*
X370592Y139500D01*
X370000Y139500D01*
X395000Y175000D02*
X395000Y179500D01*
X395000Y175000D02*
X395000Y175000D01*
X395000Y179500D01*
X394408Y179500D01*
X393263Y179193D01*
X392237Y178601D01*
X391399Y177763D01*
X390807Y176737D01*
X390500Y175592D01*
X390500Y175000D01*
X395000Y175000D01*
X395000Y175000D01*
X390500Y175000D01*
X390500Y174408D01*
X390807Y173263D01*
X391399Y172237D01*
X392237Y171399D01*
X393263Y170807D01*
X394408Y170500D01*
X395000Y170500D01*
X395000Y175000D01*
X395000Y175000D01*
X395000Y170500D01*
X395592Y170500D01*
X396737Y170807D01*
X397763Y171399D01*
X398601Y172237D01*
X399193Y173263D01*
X399500Y174408D01*
X399500Y175000D01*
X395000Y175000D01*
X395000Y175000D01*
X399500Y175000D01*
X399500Y175592D01*
X399193Y176737D01*
X398601Y177763D01*
X397763Y178601D01*
X396737Y179193D01*
X395592Y179500D01*
X395000Y179500D01*
X395000Y139500D02*
X395000Y135000D01*
X395000Y135000D01*
X395000Y139500D01*
X394408Y139500D01*
X393263Y139193D01*
X392237Y138601D01*
X391399Y137763D01*
X390807Y136737D01*
X390500Y135592D01*
X390500Y135000D01*
X395000Y135000D01*
X395000Y135000D01*
X390500Y135000D01*
X390500Y134408D01*
X390807Y133263D01*
X391399Y132237D01*
X392237Y131399D01*
X393263Y130807D01*
X394408Y130500D01*
X395000Y130500D01*
X395000Y135000D01*
X395000Y135000D01*
X395000Y130500D01*
X395592Y130500D01*
X396737Y130807D01*
X397763Y131399D01*
X398601Y132237D01*
X399193Y133263D01*
X399500Y134408D01*
X399500Y135000D01*
X395000Y135000D01*
X395000Y135000D01*
X399500Y135000D01*
X399500Y135592D01*
X399193Y136737D01*
X398601Y137763D01*
X397763Y138601D01*
X396737Y139193D01*
X395592Y139500D01*
X395000Y139500D01*
X370000Y59500D02*
X370000Y55000D01*
X370000Y55000D01*
X370000Y59500D01*
X369408Y59500D01*
X368263Y59193D01*
X367237Y58601D01*
X366399Y57763D01*
X365807Y56737D01*
X365500Y55592D01*
X365500Y55000D01*
X370000Y55000D01*
X370000Y55000D01*
X365500Y55000D01*
X365500Y54408D01*
X365807Y53263D01*
X366399Y52237D01*
X367237Y51399D01*
X368263Y50807D01*
X369408Y50500D01*
X370000Y50500D01*
X370000Y55000D01*
X370000Y55000D01*
X370000Y50500D01*
X370592Y50500D01*
X371737Y50807D01*
X372763Y51399D01*
X373601Y52237D01*
X374193Y53263D01*
X374500Y54408D01*
X374500Y55000D01*
X370000Y55000D01*
X370000Y55000D01*
X374500Y55000D01*
X374500Y55592D01*
X374193Y56737D01*
X373601Y57763D01*
X372763Y58601D01*
X371737Y59193D01*
X370592Y59500D01*
X370000Y59500D01*
X370000Y175000D02*
X370000Y179500D01*
X370000Y175000D02*
X370000Y175000D01*
X370000Y179500D01*
X369408Y179500D01*
X368263Y179193D01*
X367237Y178601D01*
X366399Y177763D01*
X365807Y176737D01*
X365500Y175592D01*
X365500Y175000D01*
X370000Y175000D01*
X370000Y175000D01*
X365500Y175000D01*
X365500Y174408D01*
X365807Y173263D01*
X366399Y172237D01*
X367237Y171399D01*
X368263Y170807D01*
X369408Y170500D01*
X370000Y170500D01*
X370000Y175000D01*
X370000Y175000D01*
X370000Y170500D01*
X370592Y170500D01*
X371737Y170807D01*
X372763Y171399D01*
X373601Y172237D01*
X374193Y173263D01*
X374500Y174408D01*
X374500Y175000D01*
X370000Y175000D01*
X370000Y175000D01*
X374500Y175000D01*
X374500Y175592D01*
X374193Y176737D01*
X373601Y177763D01*
X372763Y178601D01*
X371737Y179193D01*
X370592Y179500D01*
X370000Y179500D01*
X370000Y119500D02*
X370000Y115000D01*
X370000Y115000D01*
X370000Y119500D01*
X369408Y119500D01*
X368263Y119193D01*
X367237Y118601D01*
X366399Y117763D01*
X365807Y116737D01*
X365500Y115592D01*
X365500Y115000D01*
X370000Y115000D01*
X370000Y115000D01*
X365500Y115000D01*
X365500Y114408D01*
X365807Y113263D01*
X366399Y112237D01*
X367237Y111399D01*
X368263Y110807D01*
X369408Y110500D01*
X370000Y110500D01*
X370000Y115000D01*
X370000Y115000D01*
X370000Y110500D01*
X370592Y110500D01*
X371737Y110807D01*
X372763Y111399D01*
X373601Y112237D01*
X374193Y113263D01*
X374500Y114408D01*
X374500Y115000D01*
X370000Y115000D01*
X370000Y115000D01*
X374500Y115000D01*
X374500Y115592D01*
X374193Y116737D01*
X373601Y117763D01*
X372763Y118601D01*
X371737Y119193D01*
X370592Y119500D01*
X370000Y119500D01*
X320000Y165000D02*
X320000Y169500D01*
X320000Y165000D02*
X320000Y165000D01*
X320000Y169500D01*
X319408Y169500D01*
X318263Y169193D01*
X317237Y168601D01*
X316399Y167763D01*
X315807Y166737D01*
X315500Y165592D01*
X315500Y165000D01*
X320000Y165000D01*
X320000Y165000D01*
X315500Y165000D01*
X315500Y164408D01*
X315807Y163263D01*
X316399Y162237D01*
X317237Y161399D01*
X318263Y160807D01*
X319408Y160500D01*
X320000Y160500D01*
X320000Y165000D01*
X320000Y165000D01*
X320000Y160500D01*
X320592Y160500D01*
X321737Y160807D01*
X322763Y161399D01*
X323601Y162237D01*
X324193Y163263D01*
X324500Y164408D01*
X324500Y165000D01*
X320000Y165000D01*
X320000Y165000D01*
X324500Y165000D01*
X324500Y165592D01*
X324193Y166737D01*
X323601Y167763D01*
X322763Y168601D01*
X321737Y169193D01*
X320592Y169500D01*
X320000Y169500D01*
X395000Y69500D02*
X395000Y65000D01*
X395000Y65000D01*
X395000Y69500D01*
X394408Y69500D01*
X393263Y69193D01*
X392237Y68601D01*
X391399Y67763D01*
X390807Y66737D01*
X390500Y65592D01*
X390500Y65000D01*
X395000Y65000D01*
X395000Y65000D01*
X390500Y65000D01*
X390500Y64408D01*
X390807Y63263D01*
X391399Y62237D01*
X392237Y61399D01*
X393263Y60807D01*
X394408Y60500D01*
X395000Y60500D01*
X395000Y65000D01*
X395000Y65000D01*
X395000Y60500D01*
X395592Y60500D01*
X396737Y60807D01*
X397763Y61399D01*
X398601Y62237D01*
X399193Y63263D01*
X399500Y64408D01*
X399500Y65000D01*
X395000Y65000D01*
X395000Y65000D01*
X399500Y65000D01*
X399500Y65592D01*
X399193Y66737D01*
X398601Y67763D01*
X397763Y68601D01*
X396737Y69193D01*
X395592Y69500D01*
X395000Y69500D01*
X395000Y59500D02*
X395000Y55000D01*
X395000Y55000D01*
X395000Y59500D01*
X394408Y59500D01*
X393263Y59193D01*
X392237Y58601D01*
X391399Y57763D01*
X390807Y56737D01*
X390500Y55592D01*
X390500Y55000D01*
X395000Y55000D01*
X395000Y55000D01*
X390500Y55000D01*
X390500Y54408D01*
X390807Y53263D01*
X391399Y52237D01*
X392237Y51399D01*
X393263Y50807D01*
X394408Y50500D01*
X395000Y50500D01*
X395000Y55000D01*
X395000Y55000D01*
X395000Y50500D01*
X395592Y50500D01*
X396737Y50807D01*
X397763Y51399D01*
X398601Y52237D01*
X399193Y53263D01*
X399500Y54408D01*
X399500Y55000D01*
X395000Y55000D01*
X395000Y55000D01*
X399500Y55000D01*
X399500Y55592D01*
X399193Y56737D01*
X398601Y57763D01*
X397763Y58601D01*
X396737Y59193D01*
X395592Y59500D01*
X395000Y59500D01*
X395000Y115000D02*
X395000Y119500D01*
X395000Y115000D02*
X395000Y115000D01*
X395000Y119500D01*
X394408Y119500D01*
X393263Y119193D01*
X392237Y118601D01*
X391399Y117763D01*
X390807Y116737D01*
X390500Y115592D01*
X390500Y115000D01*
X395000Y115000D01*
X395000Y115000D01*
X390500Y115000D01*
X390500Y114408D01*
X390807Y113263D01*
X391399Y112237D01*
X392237Y111399D01*
X393263Y110807D01*
X394408Y110500D01*
X395000Y110500D01*
X395000Y115000D01*
X395000Y115000D01*
X395000Y110500D01*
X395592Y110500D01*
X396737Y110807D01*
X397763Y111399D01*
X398601Y112237D01*
X399193Y113263D01*
X399500Y114408D01*
X399500Y115000D01*
X395000Y115000D01*
X395000Y115000D01*
X399500Y115000D01*
X399500Y115592D01*
X399193Y116737D01*
X398601Y117763D01*
X397763Y118601D01*
X396737Y119193D01*
X395592Y119500D01*
X395000Y119500D01*
X395000Y155000D02*
X395000Y159500D01*
X395000Y155000D02*
X395000Y155000D01*
X395000Y159500D01*
X394408Y159500D01*
X393263Y159193D01*
X392237Y158601D01*
X391399Y157763D01*
X390807Y156737D01*
X390500Y155592D01*
X390500Y155000D01*
X395000Y155000D01*
X395000Y155000D01*
X390500Y155000D01*
X390500Y154408D01*
X390807Y153263D01*
X391399Y152237D01*
X392237Y151399D01*
X393263Y150807D01*
X394408Y150500D01*
X395000Y150500D01*
X395000Y155000D01*
X395000Y155000D01*
X395000Y150500D01*
X395592Y150500D01*
X396737Y150807D01*
X397763Y151399D01*
X398601Y152237D01*
X399193Y153263D01*
X399500Y154408D01*
X399500Y155000D01*
X395000Y155000D01*
X395000Y155000D01*
X399500Y155000D01*
X399500Y155592D01*
X399193Y156737D01*
X398601Y157763D01*
X397763Y158601D01*
X396737Y159193D01*
X395592Y159500D01*
X395000Y159500D01*
X370000Y159500D02*
X370000Y155000D01*
X370000Y155000D01*
X370000Y159500D01*
X369408Y159500D01*
X368263Y159193D01*
X367237Y158601D01*
X366399Y157763D01*
X365807Y156737D01*
X365500Y155592D01*
X365500Y155000D01*
X370000Y155000D01*
X370000Y155000D01*
X365500Y155000D01*
X365500Y154408D01*
X365807Y153263D01*
X366399Y152237D01*
X367237Y151399D01*
X368263Y150807D01*
X369408Y150500D01*
X370000Y150500D01*
X370000Y155000D01*
X370000Y155000D01*
X370000Y150500D01*
X370592Y150500D01*
X371737Y150807D01*
X372763Y151399D01*
X373601Y152237D01*
X374193Y153263D01*
X374500Y154408D01*
X374500Y155000D01*
X370000Y155000D01*
X370000Y155000D01*
X374500Y155000D01*
X374500Y155592D01*
X374193Y156737D01*
X373601Y157763D01*
X372763Y158601D01*
X371737Y159193D01*
X370592Y159500D01*
X370000Y159500D01*
X370000Y69500D02*
X370000Y65000D01*
X370000Y65000D01*
X370000Y69500D01*
X369408Y69500D01*
X368263Y69193D01*
X367237Y68601D01*
X366399Y67763D01*
X365807Y66737D01*
X365500Y65592D01*
X365500Y65000D01*
X370000Y65000D01*
X370000Y65000D01*
X365500Y65000D01*
X365500Y64408D01*
X365807Y63263D01*
X366399Y62237D01*
X367237Y61399D01*
X368263Y60807D01*
X369408Y60500D01*
X370000Y60500D01*
X370000Y65000D01*
X370000Y65000D01*
X370000Y60500D01*
X370592Y60500D01*
X371737Y60807D01*
X372763Y61399D01*
X373601Y62237D01*
X374193Y63263D01*
X374500Y64408D01*
X374500Y65000D01*
X370000Y65000D01*
X370000Y65000D01*
X374500Y65000D01*
X374500Y65592D01*
X374193Y66737D01*
X373601Y67763D01*
X372763Y68601D01*
X371737Y69193D01*
X370592Y69500D01*
X370000Y69500D01*
X327500Y103508D02*
X327500Y106492D01*
X326770Y108254D01*
X326770Y120800D01*
X326778Y120800D01*
X330000Y124022D01*
X330000Y135578D01*
X326934Y138644D01*
X327000Y138803D01*
X327000Y142300D01*
X320500Y142300D01*
X320500Y143300D01*
X327000Y143300D01*
X327000Y146797D01*
X326619Y147716D01*
X325916Y148419D01*
X324997Y148800D01*
X320500Y148800D01*
X320500Y143300D01*
X319500Y143300D01*
X319500Y148800D01*
X315003Y148800D01*
X314084Y148419D01*
X313381Y147716D01*
X313000Y146797D01*
X313000Y143300D01*
X319500Y143300D01*
X319500Y142300D01*
X313000Y142300D01*
X313000Y138803D01*
X313066Y138644D01*
X310000Y135578D01*
X310000Y124022D01*
X313222Y120800D01*
X313230Y120800D01*
X313230Y108254D01*
X312500Y106492D01*
X312500Y103508D01*
X313642Y100752D01*
X315752Y98642D01*
X318508Y97500D01*
X321492Y97500D01*
X324248Y98642D01*
X326358Y100752D01*
X327500Y103508D01*
X98566Y17656D02*
X95500Y20722D01*
X98566Y17656D02*
X98500Y17497D01*
X98500Y12500D01*
X105000Y12500D01*
X105000Y11500D01*
X98500Y11500D01*
X98500Y6503D01*
X98881Y5584D01*
X98965Y5500D01*
X71035Y5500D01*
X71119Y5584D01*
X71500Y6503D01*
X71500Y11500D01*
X65000Y11500D01*
X65000Y12500D01*
X71500Y12500D01*
X71500Y17497D01*
X71434Y17656D01*
X74500Y20722D01*
X74500Y21350D01*
X95500Y21350D01*
X95500Y20722D01*
X300500Y129500D02*
X300500Y130000D01*
X300500Y129500D02*
X294000Y129500D01*
X294000Y130500D01*
X300500Y130500D01*
X300500Y130000D01*
X305000Y130000D01*
X305000Y130000D01*
X300500Y130000D01*
X158000Y90500D02*
X158000Y86000D01*
X158000Y86000D01*
X158000Y90500D01*
X157408Y90500D01*
X156263Y90193D01*
X155237Y89601D01*
X154399Y88763D01*
X153807Y87737D01*
X153500Y86592D01*
X153500Y86000D01*
X158000Y86000D01*
X158000Y86000D01*
X153500Y86000D01*
X153500Y85448D01*
X150448Y85448D01*
X150448Y91175D01*
X149123Y92500D01*
X150448Y93825D01*
X150448Y100148D01*
X158362Y92233D01*
X160233Y90362D01*
X162677Y89350D01*
X190456Y89350D01*
X192508Y88500D01*
X195492Y88500D01*
X198248Y89642D01*
X200358Y91752D01*
X201500Y94508D01*
X201500Y97492D01*
X200869Y99016D01*
X201500Y100540D01*
X201500Y103524D01*
X200869Y105048D01*
X201500Y106572D01*
X201500Y109556D01*
X200358Y112312D01*
X198248Y114422D01*
X195492Y115564D01*
X193500Y115564D01*
X193500Y117918D01*
X194544Y118350D01*
X198323Y118350D01*
X200767Y119362D01*
X209552Y128148D01*
X209552Y112000D01*
X209408Y112000D01*
X208263Y111693D01*
X207237Y111101D01*
X206399Y110263D01*
X205807Y109237D01*
X205500Y108092D01*
X205500Y107500D01*
X210000Y107500D01*
X210000Y107500D01*
X205500Y107500D01*
X205500Y106908D01*
X205807Y105763D01*
X206399Y104737D01*
X207237Y103899D01*
X208263Y103307D01*
X209408Y103000D01*
X209552Y103000D01*
X209552Y85448D01*
X178825Y85448D01*
X177500Y84123D01*
X176175Y85448D01*
X162500Y85448D01*
X162500Y86000D01*
X158000Y86000D01*
X158000Y86000D01*
X162500Y86000D01*
X162500Y86592D01*
X162193Y87737D01*
X161601Y88763D01*
X160763Y89601D01*
X159737Y90193D01*
X158592Y90500D01*
X158000Y90500D01*
X189508Y132500D02*
X192492Y132500D01*
X189508Y132500D02*
X186752Y131358D01*
X184642Y129248D01*
X184150Y128061D01*
X184150Y144552D01*
X200000Y144552D01*
X200000Y143508D01*
X201142Y140752D01*
X202244Y139649D01*
X194333Y131737D01*
X192492Y132500D01*
X189000Y137000D02*
X189000Y141500D01*
X189000Y137000D02*
X189000Y137000D01*
X189000Y141500D01*
X188408Y141500D01*
X187263Y141193D01*
X186237Y140601D01*
X185399Y139763D01*
X184807Y138737D01*
X184500Y137592D01*
X184500Y137000D01*
X189000Y137000D01*
X189000Y137000D01*
X184500Y137000D01*
X184500Y136408D01*
X184807Y135263D01*
X185399Y134237D01*
X186237Y133399D01*
X187263Y132807D01*
X188408Y132500D01*
X189000Y132500D01*
X189000Y137000D01*
X189000Y137000D01*
X189000Y132500D01*
X189592Y132500D01*
X190737Y132807D01*
X191763Y133399D01*
X192601Y134237D01*
X193193Y135263D01*
X193500Y136408D01*
X193500Y137000D01*
X189000Y137000D01*
X189000Y137000D01*
X193500Y137000D01*
X193500Y137592D01*
X193193Y138737D01*
X192601Y139763D01*
X191763Y140601D01*
X190737Y141193D01*
X189592Y141500D01*
X189000Y141500D01*
X229101Y21551D02*
X228600Y20342D01*
X228099Y21551D01*
X224051Y25599D01*
X218762Y27790D01*
X213038Y27790D01*
X207749Y25599D01*
X203701Y21551D01*
X203200Y20342D01*
X202699Y21551D01*
X198651Y25599D01*
X193362Y27790D01*
X187638Y27790D01*
X182349Y25599D01*
X178301Y21551D01*
X177800Y20342D01*
X177299Y21551D01*
X173251Y25599D01*
X167962Y27790D01*
X162238Y27790D01*
X156949Y25599D01*
X154000Y22650D01*
X154000Y33778D01*
X150778Y37000D01*
X150650Y37000D01*
X150650Y40703D01*
X151408Y40500D01*
X152000Y40500D01*
X152000Y45000D01*
X152000Y45000D01*
X152000Y40500D01*
X152592Y40500D01*
X153737Y40807D01*
X154763Y41399D01*
X155601Y42237D01*
X156193Y43263D01*
X156500Y44408D01*
X156500Y45000D01*
X152000Y45000D01*
X152000Y45000D01*
X156500Y45000D01*
X156500Y45465D01*
X156584Y45381D01*
X157503Y45000D01*
X161000Y45000D01*
X161000Y51500D01*
X162000Y51500D01*
X162000Y45000D01*
X165497Y45000D01*
X165656Y45066D01*
X165722Y45000D01*
X164503Y45000D01*
X163584Y44619D01*
X162881Y43916D01*
X162500Y42997D01*
X162500Y38500D01*
X168000Y38500D01*
X168000Y37500D01*
X162500Y37500D01*
X162500Y33003D01*
X162881Y32084D01*
X163584Y31381D01*
X164503Y31000D01*
X168000Y31000D01*
X168000Y37500D01*
X169000Y37500D01*
X169000Y31000D01*
X172497Y31000D01*
X172656Y31066D01*
X175722Y28000D01*
X187278Y28000D01*
X190500Y31222D01*
X190500Y37426D01*
X190642Y37568D01*
X192099Y34052D01*
X195052Y31099D01*
X198911Y29500D01*
X203089Y29500D01*
X206948Y31099D01*
X208500Y32651D01*
X210052Y31099D01*
X213911Y29500D01*
X218089Y29500D01*
X221948Y31099D01*
X222222Y31373D01*
X223733Y29862D01*
X230573Y23023D01*
X229101Y21551D01*
X270000Y109000D02*
X270000Y113000D01*
X271000Y113000D01*
X271000Y102500D01*
X270000Y102500D01*
X270000Y109000D01*
X64079Y100393D02*
X62000Y102472D01*
X64079Y100393D02*
X62436Y98750D01*
X59474Y98750D01*
X60125Y99877D01*
X60500Y101276D01*
X60500Y101500D01*
X55500Y101500D01*
X55500Y102500D01*
X60500Y102500D01*
X60500Y102724D01*
X60125Y104123D01*
X59401Y105377D01*
X58377Y106401D01*
X57123Y107125D01*
X55724Y107500D01*
X55500Y107500D01*
X55500Y102500D01*
X54500Y102500D01*
X54500Y107500D01*
X54276Y107500D01*
X53500Y107292D01*
X53500Y109065D01*
X54883Y109638D01*
X55445Y110200D01*
X62000Y110200D01*
X62000Y102472D01*
X82000Y101472D02*
X82933Y100539D01*
X81642Y99248D01*
X80500Y96492D01*
X80500Y93508D01*
X81642Y90752D01*
X83752Y88642D01*
X86508Y87500D01*
X89492Y87500D01*
X92248Y88642D01*
X94358Y90752D01*
X95500Y93508D01*
X95500Y96492D01*
X94358Y99248D01*
X94357Y99250D01*
X94416Y99250D01*
X97943Y95723D01*
X97944Y95723D01*
X99723Y93944D01*
X100753Y92913D01*
X103078Y91950D01*
X121585Y91950D01*
X121822Y91065D01*
X122067Y90641D01*
X120261Y88835D01*
X119230Y86347D01*
X119230Y81254D01*
X118500Y79492D01*
X118500Y76508D01*
X119230Y74746D01*
X119230Y73500D01*
X119222Y73500D01*
X116000Y70278D01*
X116000Y59659D01*
X115994Y59673D01*
X113673Y61994D01*
X110641Y63250D01*
X107359Y63250D01*
X104327Y61994D01*
X102006Y59673D01*
X100750Y56641D01*
X100750Y53359D01*
X102006Y50327D01*
X104327Y48006D01*
X107359Y46750D01*
X110641Y46750D01*
X113673Y48006D01*
X115994Y50327D01*
X117250Y53359D01*
X117250Y56641D01*
X116662Y58059D01*
X119066Y55656D01*
X119000Y55497D01*
X119000Y52000D01*
X125500Y52000D01*
X125500Y51000D01*
X119000Y51000D01*
X119000Y47503D01*
X119381Y46584D01*
X120084Y45881D01*
X121003Y45500D01*
X125500Y45500D01*
X125500Y51000D01*
X126500Y51000D01*
X126500Y45500D01*
X130997Y45500D01*
X131916Y45881D01*
X132619Y46584D01*
X133000Y47503D01*
X133000Y51000D01*
X126500Y51000D01*
X126500Y52000D01*
X133000Y52000D01*
X133000Y55497D01*
X132934Y55656D01*
X136000Y58722D01*
X136000Y70278D01*
X132778Y73500D01*
X132770Y73500D01*
X132770Y74746D01*
X133500Y76508D01*
X133500Y79492D01*
X133040Y80603D01*
X145603Y80603D01*
X145603Y65007D01*
X144362Y63767D01*
X138362Y57767D01*
X137350Y55323D01*
X137350Y37000D01*
X128072Y37000D01*
X128763Y37399D01*
X129601Y38237D01*
X130193Y39263D01*
X130500Y40408D01*
X130500Y41000D01*
X126000Y41000D01*
X126000Y41000D01*
X130500Y41000D01*
X130500Y41592D01*
X130193Y42737D01*
X129601Y43763D01*
X128763Y44601D01*
X127737Y45193D01*
X126592Y45500D01*
X126000Y45500D01*
X126000Y41000D01*
X126000Y41000D01*
X126000Y45500D01*
X125408Y45500D01*
X124263Y45193D01*
X123237Y44601D01*
X122399Y43763D01*
X121807Y42737D01*
X121500Y41592D01*
X121500Y41000D01*
X126000Y41000D01*
X126000Y41000D01*
X121500Y41000D01*
X121500Y40408D01*
X121807Y39263D01*
X122399Y38237D01*
X123237Y37399D01*
X123928Y37000D01*
X116722Y37000D01*
X115250Y35528D01*
X112278Y38500D01*
X98722Y38500D01*
X95500Y35278D01*
X95500Y34650D01*
X74500Y34650D01*
X74500Y35278D01*
X71278Y38500D01*
X68500Y38500D01*
X68500Y47222D01*
X71500Y50222D01*
X71500Y50750D01*
X71625Y50750D01*
X71625Y55625D01*
X72375Y55625D01*
X72375Y50750D01*
X72691Y50750D01*
X74026Y51108D01*
X75224Y51799D01*
X76201Y52776D01*
X76892Y53974D01*
X77250Y55309D01*
X77250Y55625D01*
X72375Y55625D01*
X72375Y56375D01*
X77250Y56375D01*
X77250Y56691D01*
X76892Y58026D01*
X76201Y59224D01*
X75224Y60201D01*
X74026Y60892D01*
X72691Y61250D01*
X72375Y61250D01*
X72375Y56375D01*
X71625Y56375D01*
X71625Y61250D01*
X71500Y61250D01*
X71500Y69778D01*
X68278Y73000D01*
X67500Y73000D01*
X67500Y82816D01*
X70282Y83968D01*
X79282Y92968D01*
X80500Y95909D01*
X80500Y99972D01*
X82000Y101472D01*
X50722Y73000D02*
X47656Y69934D01*
X47497Y70000D01*
X41000Y70000D01*
X41000Y60500D01*
X40000Y60500D01*
X40000Y70000D01*
X33503Y70000D01*
X32584Y69619D01*
X31881Y68916D01*
X31500Y67997D01*
X31500Y60500D01*
X40000Y60500D01*
X40000Y59500D01*
X31500Y59500D01*
X31500Y52003D01*
X31881Y51084D01*
X32160Y50805D01*
X23032Y51651D01*
X13962Y49070D01*
X6437Y43387D01*
X5500Y41874D01*
X5500Y63125D01*
X20453Y63125D01*
X19875Y62123D01*
X19500Y60724D01*
X19500Y60500D01*
X24500Y60500D01*
X24500Y59500D01*
X19500Y59500D01*
X19500Y59276D01*
X19875Y57877D01*
X20599Y56623D01*
X21623Y55599D01*
X22877Y54875D01*
X24276Y54500D01*
X24500Y54500D01*
X24500Y59500D01*
X25500Y59500D01*
X25500Y54500D01*
X25724Y54500D01*
X27123Y54875D01*
X28377Y55599D01*
X29401Y56623D01*
X30125Y57877D01*
X30500Y59276D01*
X30500Y59500D01*
X25500Y59500D01*
X25500Y60500D01*
X30500Y60500D01*
X30500Y60724D01*
X30125Y62123D01*
X29401Y63377D01*
X28841Y63938D01*
X31250Y66347D01*
X31250Y71875D01*
X35216Y71875D01*
X38157Y73093D01*
X43939Y78875D01*
X46862Y78875D01*
X51227Y80683D01*
X51500Y80956D01*
X51500Y73000D01*
X50722Y73000D01*
X98000Y134028D02*
X94778Y137250D01*
X87857Y137250D01*
X85748Y139358D01*
X82992Y140500D01*
X80008Y140500D01*
X79000Y140082D01*
X79000Y142691D01*
X77706Y145815D01*
X75315Y148206D01*
X72901Y149206D01*
X57692Y164414D01*
X58000Y164722D01*
X58000Y181278D01*
X54778Y184500D01*
X54751Y184500D01*
X55206Y185599D01*
X78050Y208443D01*
X78050Y201772D01*
X81272Y198550D01*
X98728Y198550D01*
X101950Y201772D01*
X101950Y206547D01*
X102069Y206261D01*
X103048Y204795D01*
X104295Y203548D01*
X105761Y202569D01*
X107389Y201894D01*
X109118Y201550D01*
X109500Y201550D01*
X109500Y210000D01*
X110500Y210000D01*
X110500Y201550D01*
X110882Y201550D01*
X112611Y201894D01*
X114239Y202569D01*
X115705Y203548D01*
X116952Y204795D01*
X117931Y206261D01*
X118606Y207889D01*
X118847Y209100D01*
X134653Y209100D01*
X132803Y208334D01*
X130932Y206463D01*
X119901Y195432D01*
X118030Y193561D01*
X117018Y191117D01*
X117018Y173500D01*
X116508Y173500D01*
X113752Y172358D01*
X111642Y170248D01*
X110500Y167492D01*
X110500Y166158D01*
X108570Y165358D01*
X106460Y163248D01*
X105321Y160500D01*
X105294Y160500D01*
X102538Y159358D01*
X100428Y157248D01*
X99286Y154492D01*
X99286Y151508D01*
X100136Y149456D01*
X100136Y126300D01*
X98000Y126300D01*
X98000Y134028D01*
X49500Y43500D02*
X49500Y38000D01*
X49500Y43500D02*
X50500Y43500D01*
X50500Y38000D01*
X51722Y38000D01*
X54500Y35222D01*
X54500Y20722D01*
X54758Y20464D01*
X53691Y20750D01*
X53375Y20750D01*
X53375Y15875D01*
X52625Y15875D01*
X52625Y20750D01*
X52309Y20750D01*
X50974Y20392D01*
X50027Y19845D01*
X50623Y21385D01*
X50623Y30815D01*
X47840Y38000D01*
X49500Y38000D01*
X53375Y10250D02*
X53691Y10250D01*
X55026Y10608D01*
X56224Y11299D01*
X57201Y12276D01*
X57500Y12794D01*
X57500Y12500D01*
X64000Y12500D01*
X64000Y11500D01*
X57500Y11500D01*
X57500Y6503D01*
X57881Y5584D01*
X57965Y5500D01*
X40617Y5500D01*
X40864Y5623D01*
X47217Y12592D01*
X47883Y14312D01*
X48108Y13474D01*
X48799Y12276D01*
X49776Y11299D01*
X50974Y10608D01*
X52309Y10250D01*
X52625Y10250D01*
X52625Y15125D01*
X53375Y15125D01*
X53375Y10250D01*
X40000Y50000D02*
X40000Y59500D01*
X41000Y59500D01*
X41000Y50000D01*
X47497Y50000D01*
X47656Y50066D01*
X47722Y50000D01*
X46503Y50000D01*
X45584Y49619D01*
X44881Y48916D01*
X44500Y47997D01*
X44500Y44500D01*
X49500Y44500D01*
X49500Y43500D01*
X44500Y43500D01*
X44500Y42588D01*
X40864Y46577D01*
X33989Y50000D01*
X40000Y50000D01*
X137000Y15875D02*
X137000Y15500D01*
X143500Y15500D01*
X143500Y14500D01*
X139167Y14500D01*
X139250Y14809D01*
X139250Y15125D01*
X134375Y15125D01*
X134375Y15875D01*
X137000Y15875D01*
X112500Y17497D02*
X112500Y12500D01*
X112500Y17497D02*
X112434Y17656D01*
X115250Y20472D01*
X116722Y19000D01*
X130075Y19000D01*
X129799Y18724D01*
X129108Y17526D01*
X128750Y16191D01*
X128750Y15875D01*
X133625Y15875D01*
X133625Y15125D01*
X128750Y15125D01*
X128750Y14809D01*
X129108Y13474D01*
X129799Y12276D01*
X130776Y11299D01*
X131974Y10608D01*
X133309Y10250D01*
X133625Y10250D01*
X133625Y15125D01*
X134375Y15125D01*
X134375Y10250D01*
X134691Y10250D01*
X136026Y10608D01*
X137000Y11170D01*
X137000Y11003D01*
X137381Y10084D01*
X138084Y9381D01*
X139003Y9000D01*
X143500Y9000D01*
X143500Y14500D01*
X144500Y14500D01*
X144500Y9000D01*
X148997Y9000D01*
X149916Y9381D01*
X150619Y10084D01*
X150759Y10420D01*
X152797Y5500D01*
X112035Y5500D01*
X112119Y5584D01*
X112500Y6503D01*
X112500Y11500D01*
X106000Y11500D01*
X106000Y12500D01*
X112500Y12500D01*
X151408Y49500D02*
X152000Y49500D01*
X151408Y49500D02*
X150650Y49297D01*
X150650Y51245D01*
X152755Y53350D01*
X155500Y53350D01*
X155500Y52500D01*
X161000Y52500D01*
X161000Y51500D01*
X155500Y51500D01*
X155500Y47864D01*
X154763Y48601D01*
X153737Y49193D01*
X152592Y49500D01*
X152000Y49500D01*
X152000Y45000D01*
X152000Y45000D01*
X152000Y49500D01*
X327850Y50323D02*
X327850Y47677D01*
X328862Y45233D01*
X338946Y35150D01*
X237255Y35150D01*
X234150Y38255D01*
X234150Y46446D01*
X235733Y44862D01*
X238177Y43850D01*
X242500Y43850D01*
X242500Y42722D01*
X245722Y39500D01*
X269278Y39500D01*
X271250Y41472D01*
X272722Y40000D01*
X284278Y40000D01*
X287344Y43066D01*
X287503Y43000D01*
X291000Y43000D01*
X291000Y49500D01*
X292000Y49500D01*
X292000Y43000D01*
X295497Y43000D01*
X296416Y43381D01*
X297119Y44084D01*
X297500Y45003D01*
X297500Y49500D01*
X292000Y49500D01*
X292000Y50500D01*
X297500Y50500D01*
X297500Y54997D01*
X297119Y55916D01*
X296416Y56619D01*
X295497Y57000D01*
X292000Y57000D01*
X292000Y50500D01*
X291000Y50500D01*
X291000Y57000D01*
X287503Y57000D01*
X287344Y56934D01*
X284278Y60000D01*
X272722Y60000D01*
X271750Y59028D01*
X269278Y61500D01*
X245722Y61500D01*
X242500Y58278D01*
X242500Y57150D01*
X242255Y57150D01*
X241650Y57755D01*
X241650Y69068D01*
X242177Y68850D01*
X242500Y68850D01*
X242500Y67722D01*
X245722Y64500D01*
X269278Y64500D01*
X271500Y66722D01*
X272722Y65500D01*
X284278Y65500D01*
X287344Y68566D01*
X287503Y68500D01*
X291000Y68500D01*
X291000Y75000D01*
X292000Y75000D01*
X292000Y68500D01*
X295497Y68500D01*
X296416Y68881D01*
X297119Y69584D01*
X297500Y70503D01*
X297500Y75000D01*
X292000Y75000D01*
X292000Y76000D01*
X297500Y76000D01*
X297500Y80497D01*
X297119Y81416D01*
X296416Y82119D01*
X295859Y82350D01*
X321245Y82350D01*
X327850Y75745D01*
X327850Y50323D01*
X291500Y62500D02*
X291500Y67000D01*
X291500Y62500D02*
X291500Y62500D01*
X291500Y67000D01*
X290908Y67000D01*
X289763Y66693D01*
X288737Y66101D01*
X287899Y65263D01*
X287307Y64237D01*
X287000Y63092D01*
X287000Y62500D01*
X291500Y62500D01*
X291500Y62500D01*
X287000Y62500D01*
X287000Y61908D01*
X287307Y60763D01*
X287899Y59737D01*
X288737Y58899D01*
X289763Y58307D01*
X290908Y58000D01*
X291500Y58000D01*
X291500Y62500D01*
X291500Y62500D01*
X291500Y58000D01*
X292092Y58000D01*
X293237Y58307D01*
X294263Y58899D01*
X295101Y59737D01*
X295693Y60763D01*
X296000Y61908D01*
X296000Y62500D01*
X291500Y62500D01*
X291500Y62500D01*
X296000Y62500D01*
X296000Y63092D01*
X295693Y64237D01*
X295101Y65263D01*
X294263Y66101D01*
X293237Y66693D01*
X292092Y67000D01*
X291500Y67000D01*
X57500Y8000D02*
X43031Y8000D01*
X71500Y8000D02*
X98500Y8000D01*
X112500Y8000D02*
X151761Y8000D01*
X49075Y12000D02*
X46677Y12000D01*
X52625Y12000D02*
X53375Y12000D01*
X56925Y12000D02*
X64000Y12000D01*
X65000Y12000D02*
X105000Y12000D01*
X106000Y12000D02*
X130075Y12000D01*
X133625Y12000D02*
X134375Y12000D01*
X143500Y12000D02*
X144500Y12000D01*
X53375Y16000D02*
X52625Y16000D01*
X71500Y16000D02*
X98500Y16000D01*
X112500Y16000D02*
X128750Y16000D01*
X50294Y20000D02*
X50086Y20000D01*
X52625Y20000D02*
X53375Y20000D01*
X73778Y20000D02*
X96222Y20000D01*
X114778Y20000D02*
X115722Y20000D01*
X54500Y24000D02*
X50623Y24000D01*
X154000Y24000D02*
X155350Y24000D01*
X174850Y24000D02*
X180750Y24000D01*
X200250Y24000D02*
X206150Y24000D01*
X225650Y24000D02*
X229595Y24000D01*
X54500Y28000D02*
X50623Y28000D01*
X154000Y28000D02*
X175722Y28000D01*
X187278Y28000D02*
X225595Y28000D01*
X54500Y32000D02*
X50164Y32000D01*
X154000Y32000D02*
X162964Y32000D01*
X168000Y32000D02*
X169000Y32000D01*
X190500Y32000D02*
X194151Y32000D01*
X207849Y32000D02*
X209151Y32000D01*
X53722Y36000D02*
X48614Y36000D01*
X73778Y36000D02*
X96222Y36000D01*
X114778Y36000D02*
X115722Y36000D01*
X151778Y36000D02*
X162500Y36000D01*
X168000Y36000D02*
X169000Y36000D01*
X190500Y36000D02*
X191292Y36000D01*
X236404Y36000D02*
X338095Y36000D01*
X50500Y40000D02*
X49500Y40000D01*
X68500Y40000D02*
X121609Y40000D01*
X130391Y40000D02*
X137350Y40000D01*
X150650Y40000D02*
X162500Y40000D01*
X234150Y40000D02*
X245222Y40000D01*
X269778Y40000D02*
X272722Y40000D01*
X284278Y40000D02*
X334095Y40000D01*
X7249Y44000D02*
X5500Y44000D01*
X43213Y44000D02*
X49500Y44000D01*
X68500Y44000D02*
X122636Y44000D01*
X126000Y44000D02*
X126000Y44000D01*
X129364Y44000D02*
X137350Y44000D01*
X152000Y44000D02*
X152000Y44000D01*
X156391Y44000D02*
X162964Y44000D01*
X234150Y44000D02*
X237815Y44000D01*
X291000Y44000D02*
X292000Y44000D01*
X297036Y44000D02*
X330095Y44000D01*
X12546Y48000D02*
X5500Y48000D01*
X38006Y48000D02*
X44501Y48000D01*
X69278Y48000D02*
X104341Y48000D01*
X113659Y48000D02*
X119000Y48000D01*
X125500Y48000D02*
X126500Y48000D01*
X133000Y48000D02*
X137350Y48000D01*
X152000Y48000D02*
X152000Y48000D01*
X155364Y48000D02*
X155500Y48000D01*
X161000Y48000D02*
X162000Y48000D01*
X291000Y48000D02*
X292000Y48000D01*
X297500Y48000D02*
X327850Y48000D01*
X344904Y48000D02*
X374222Y48000D01*
X390778Y48000D02*
X409000Y48000D01*
X31501Y52000D02*
X5500Y52000D01*
X40000Y52000D02*
X41000Y52000D01*
X71625Y52000D02*
X72375Y52000D01*
X75425Y52000D02*
X101313Y52000D01*
X116687Y52000D02*
X119000Y52000D01*
X133000Y52000D02*
X137350Y52000D01*
X151405Y52000D02*
X161000Y52000D01*
X291000Y52000D02*
X292000Y52000D01*
X297500Y52000D02*
X327850Y52000D01*
X341150Y52000D02*
X366636Y52000D01*
X370000Y52000D02*
X370000Y52000D01*
X373364Y52000D02*
X375000Y52000D01*
X390000Y52000D02*
X391636Y52000D01*
X395000Y52000D02*
X395000Y52000D01*
X398364Y52000D02*
X409000Y52000D01*
X21222Y56000D02*
X5500Y56000D01*
X24500Y56000D02*
X25500Y56000D01*
X28778Y56000D02*
X31500Y56000D01*
X40000Y56000D02*
X41000Y56000D01*
X72375Y56000D02*
X100750Y56000D01*
X117250Y56000D02*
X118722Y56000D01*
X133278Y56000D02*
X137631Y56000D01*
X291000Y56000D02*
X292000Y56000D01*
X297036Y56000D02*
X327850Y56000D01*
X341150Y56000D02*
X365609Y56000D01*
X370000Y56000D02*
X370000Y56000D01*
X374391Y56000D02*
X375000Y56000D01*
X382000Y56000D02*
X383000Y56000D01*
X390000Y56000D02*
X390609Y56000D01*
X395000Y56000D02*
X395000Y56000D01*
X399391Y56000D02*
X409000Y56000D01*
X24500Y60000D02*
X5500Y60000D01*
X25500Y60000D02*
X40000Y60000D01*
X71625Y60000D02*
X72375Y60000D01*
X75425Y60000D02*
X102333Y60000D01*
X115667Y60000D02*
X116000Y60000D01*
X136000Y60000D02*
X140596Y60000D01*
X241650Y60000D02*
X244222Y60000D01*
X270778Y60000D02*
X287747Y60000D01*
X291500Y60000D02*
X291500Y60000D01*
X295253Y60000D02*
X327850Y60000D01*
X341150Y60000D02*
X375000Y60000D01*
X382000Y60000D02*
X383000Y60000D01*
X390000Y60000D02*
X409000Y60000D01*
X31500Y64000D02*
X28903Y64000D01*
X40000Y64000D02*
X41000Y64000D01*
X71500Y64000D02*
X116000Y64000D01*
X136000Y64000D02*
X144596Y64000D01*
X241650Y64000D02*
X287243Y64000D01*
X291500Y64000D02*
X291500Y64000D01*
X295757Y64000D02*
X327850Y64000D01*
X341150Y64000D02*
X365609Y64000D01*
X370000Y64000D02*
X370000Y64000D01*
X374391Y64000D02*
X390609Y64000D01*
X395000Y64000D02*
X395000Y64000D01*
X399391Y64000D02*
X409000Y64000D01*
X31501Y68000D02*
X31250Y68000D01*
X40000Y68000D02*
X41000Y68000D01*
X71500Y68000D02*
X116000Y68000D01*
X136000Y68000D02*
X145603Y68000D01*
X241650Y68000D02*
X242500Y68000D01*
X286778Y68000D02*
X327850Y68000D01*
X341150Y68000D02*
X366636Y68000D01*
X370000Y68000D02*
X370000Y68000D01*
X373364Y68000D02*
X391636Y68000D01*
X395000Y68000D02*
X395000Y68000D01*
X398364Y68000D02*
X409000Y68000D01*
X49722Y72000D02*
X35518Y72000D01*
X69278Y72000D02*
X117722Y72000D01*
X134278Y72000D02*
X145603Y72000D01*
X291000Y72000D02*
X292000Y72000D01*
X297500Y72000D02*
X327850Y72000D01*
X341150Y72000D02*
X409000Y72000D01*
X51500Y76000D02*
X41064Y76000D01*
X67500Y76000D02*
X118710Y76000D01*
X133289Y76000D02*
X145603Y76000D01*
X297500Y76000D02*
X327595Y76000D01*
X341150Y76000D02*
X409000Y76000D01*
X51500Y80000D02*
X49578Y80000D01*
X67500Y80000D02*
X118711Y80000D01*
X133290Y80000D02*
X145603Y80000D01*
X297500Y80000D02*
X323595Y80000D01*
X341077Y80000D02*
X409000Y80000D01*
X119230Y84000D02*
X70314Y84000D01*
X338404Y84000D02*
X409000Y84000D01*
X85301Y88000D02*
X74314Y88000D01*
X90699Y88000D02*
X119915Y88000D01*
X150448Y88000D02*
X153959Y88000D01*
X158000Y88000D02*
X158000Y88000D01*
X162041Y88000D02*
X209552Y88000D01*
X334404Y88000D02*
X409000Y88000D01*
X81125Y92000D02*
X78314Y92000D01*
X94875Y92000D02*
X102957Y92000D01*
X149623Y92000D02*
X158595Y92000D01*
X200461Y92000D02*
X209552Y92000D01*
X330404Y92000D02*
X409000Y92000D01*
X80500Y96000D02*
X80500Y96000D01*
X95500Y96000D02*
X97666Y96000D01*
X150448Y96000D02*
X154595Y96000D01*
X201500Y96000D02*
X209552Y96000D01*
X276036Y96000D02*
X409000Y96000D01*
X63686Y100000D02*
X60158Y100000D01*
X80528Y100000D02*
X82393Y100000D01*
X150448Y100000D02*
X150595Y100000D01*
X201276Y100000D02*
X209552Y100000D01*
X276500Y100000D02*
X314393Y100000D01*
X325607Y100000D02*
X409000Y100000D01*
X55500Y104000D02*
X54500Y104000D01*
X60158Y104000D02*
X62000Y104000D01*
X201303Y104000D02*
X207136Y104000D01*
X270000Y104000D02*
X271000Y104000D01*
X276500Y104000D02*
X312500Y104000D01*
X327500Y104000D02*
X409000Y104000D01*
X62000Y108000D02*
X53500Y108000D01*
X201500Y108000D02*
X205500Y108000D01*
X270000Y108000D02*
X271000Y108000D01*
X276292Y108000D02*
X313125Y108000D01*
X326875Y108000D02*
X409000Y108000D01*
X209552Y112000D02*
X200488Y112000D01*
X270000Y112000D02*
X271000Y112000D01*
X276500Y112000D02*
X294743Y112000D01*
X299000Y112000D02*
X299000Y112000D01*
X303257Y112000D02*
X313230Y112000D01*
X326770Y112000D02*
X366636Y112000D01*
X370000Y112000D02*
X370000Y112000D01*
X373364Y112000D02*
X391636Y112000D01*
X395000Y112000D02*
X395000Y112000D01*
X398364Y112000D02*
X409000Y112000D01*
X209552Y116000D02*
X193500Y116000D01*
X276500Y116000D02*
X295247Y116000D01*
X299000Y116000D02*
X299000Y116000D01*
X302753Y116000D02*
X313230Y116000D01*
X326770Y116000D02*
X365609Y116000D01*
X370000Y116000D02*
X370000Y116000D01*
X374391Y116000D02*
X390609Y116000D01*
X395000Y116000D02*
X395000Y116000D01*
X399391Y116000D02*
X409000Y116000D01*
X209552Y120000D02*
X201404Y120000D01*
X284778Y120000D02*
X313230Y120000D01*
X326770Y120000D02*
X409000Y120000D01*
X209552Y124000D02*
X205404Y124000D01*
X293000Y124000D02*
X294000Y124000D01*
X301292Y124000D02*
X310022Y124000D01*
X329978Y124000D02*
X409000Y124000D01*
X100136Y128000D02*
X98000Y128000D01*
X209404Y128000D02*
X209552Y128000D01*
X293000Y128000D02*
X294000Y128000D01*
X305000Y128000D02*
X305000Y128000D01*
X309041Y128000D02*
X310000Y128000D01*
X330000Y128000D02*
X409000Y128000D01*
X100136Y132000D02*
X98000Y132000D01*
X184150Y132000D02*
X188301Y132000D01*
X193699Y132000D02*
X194596Y132000D01*
X293000Y132000D02*
X294000Y132000D01*
X305000Y132000D02*
X305000Y132000D01*
X309041Y132000D02*
X310000Y132000D01*
X330000Y132000D02*
X366636Y132000D01*
X370000Y132000D02*
X370000Y132000D01*
X373364Y132000D02*
X391636Y132000D01*
X395000Y132000D02*
X395000Y132000D01*
X398364Y132000D02*
X409000Y132000D01*
X100136Y136000D02*
X96028Y136000D01*
X184150Y136000D02*
X184609Y136000D01*
X189000Y136000D02*
X189000Y136000D01*
X193391Y136000D02*
X198596Y136000D01*
X293000Y136000D02*
X294000Y136000D01*
X301292Y136000D02*
X310422Y136000D01*
X329578Y136000D02*
X365609Y136000D01*
X370000Y136000D02*
X370000Y136000D01*
X374391Y136000D02*
X390609Y136000D01*
X395000Y136000D02*
X395000Y136000D01*
X399391Y136000D02*
X409000Y136000D01*
X100136Y140000D02*
X84199Y140000D01*
X184150Y140000D02*
X185636Y140000D01*
X189000Y140000D02*
X189000Y140000D01*
X192364Y140000D02*
X201893Y140000D01*
X264789Y140000D02*
X268204Y140000D01*
X301796Y140000D02*
X313000Y140000D01*
X327000Y140000D02*
X409000Y140000D01*
X100136Y144000D02*
X78458Y144000D01*
X184150Y144000D02*
X200000Y144000D01*
X255955Y144000D02*
X267181Y144000D01*
X311461Y144000D02*
X313000Y144000D01*
X319500Y144000D02*
X320500Y144000D01*
X327000Y144000D02*
X409000Y144000D01*
X100136Y148000D02*
X75521Y148000D01*
X256650Y148000D02*
X267181Y148000D01*
X312500Y148000D02*
X313664Y148000D01*
X319500Y148000D02*
X320500Y148000D01*
X326336Y148000D02*
X409000Y148000D01*
X99286Y152000D02*
X70107Y152000D01*
X214397Y152000D02*
X243350Y152000D01*
X256650Y152000D02*
X267181Y152000D01*
X311461Y152000D02*
X366636Y152000D01*
X370000Y152000D02*
X370000Y152000D01*
X373364Y152000D02*
X391636Y152000D01*
X395000Y152000D02*
X395000Y152000D01*
X398364Y152000D02*
X409000Y152000D01*
X99911Y156000D02*
X66107Y156000D01*
X214397Y156000D02*
X243350Y156000D01*
X256650Y156000D02*
X268204Y156000D01*
X301796Y156000D02*
X365609Y156000D01*
X370000Y156000D02*
X370000Y156000D01*
X374391Y156000D02*
X390609Y156000D01*
X395000Y156000D02*
X395000Y156000D01*
X399391Y156000D02*
X409000Y156000D01*
X104087Y160000D02*
X62107Y160000D01*
X214397Y160000D02*
X243350Y160000D01*
X256650Y160000D02*
X409000Y160000D01*
X107211Y164000D02*
X58107Y164000D01*
X224607Y164000D02*
X243350Y164000D01*
X256650Y164000D02*
X315609Y164000D01*
X320000Y164000D02*
X320000Y164000D01*
X324391Y164000D02*
X409000Y164000D01*
X110711Y168000D02*
X58000Y168000D01*
X227289Y168000D02*
X243350Y168000D01*
X256650Y168000D02*
X316636Y168000D01*
X320000Y168000D02*
X320000Y168000D01*
X323364Y168000D02*
X409000Y168000D01*
X113393Y172000D02*
X58000Y172000D01*
X227290Y172000D02*
X243350Y172000D01*
X256650Y172000D02*
X366636Y172000D01*
X370000Y172000D02*
X370000Y172000D01*
X373364Y172000D02*
X391636Y172000D01*
X395000Y172000D02*
X395000Y172000D01*
X398364Y172000D02*
X409000Y172000D01*
X117018Y176000D02*
X58000Y176000D01*
X224607Y176000D02*
X242710Y176000D01*
X257289Y176000D02*
X365609Y176000D01*
X370000Y176000D02*
X370000Y176000D01*
X374391Y176000D02*
X390609Y176000D01*
X395000Y176000D02*
X395000Y176000D01*
X399391Y176000D02*
X409000Y176000D01*
X117018Y180000D02*
X58000Y180000D01*
X223400Y180000D02*
X242711Y180000D01*
X257290Y180000D02*
X409000Y180000D01*
X117018Y184000D02*
X55278Y184000D01*
X237461Y184000D02*
X245393Y184000D01*
X254607Y184000D02*
X315609Y184000D01*
X320000Y184000D02*
X320000Y184000D01*
X324391Y184000D02*
X409000Y184000D01*
X117018Y188000D02*
X57607Y188000D01*
X259425Y188000D02*
X316636Y188000D01*
X320000Y188000D02*
X320000Y188000D01*
X323364Y188000D02*
X409000Y188000D01*
X117384Y192000D02*
X61607Y192000D01*
X363377Y192000D02*
X409000Y192000D01*
X120469Y196000D02*
X65607Y196000D01*
X368404Y196000D02*
X409000Y196000D01*
X79822Y200000D02*
X69607Y200000D01*
X100178Y200000D02*
X124469Y200000D01*
X372404Y200000D02*
X409000Y200000D01*
X78050Y204000D02*
X73607Y204000D01*
X101950Y204000D02*
X103843Y204000D01*
X109500Y204000D02*
X110500Y204000D01*
X116157Y204000D02*
X128469Y204000D01*
X375484Y204000D02*
X386516Y204000D01*
X400884Y204000D02*
X409000Y204000D01*
X78050Y208000D02*
X77607Y208000D01*
X109500Y208000D02*
X110500Y208000D01*
X118628Y208000D02*
X132469Y208000D01*
X380051Y208000D02*
X381949Y208000D01*
X405451Y208000D02*
X407349Y208000D01*
X8000Y63125D02*
X8000Y44567D01*
X12000Y47588D02*
X12000Y63125D01*
X16000Y63125D02*
X16000Y49650D01*
X20000Y50788D02*
X20000Y57660D01*
X20000Y59500D02*
X20000Y60500D01*
X20000Y62340D02*
X20000Y63125D01*
X24000Y54574D02*
X24000Y51561D01*
X24000Y59500D02*
X24000Y60500D01*
X28000Y55381D02*
X28000Y51190D01*
X28000Y59500D02*
X28000Y60500D01*
X32000Y50964D02*
X32000Y50820D01*
X32000Y59500D02*
X32000Y60500D01*
X32000Y69036D02*
X32000Y71875D01*
X36000Y50000D02*
X36000Y48999D01*
X36000Y59500D02*
X36000Y60500D01*
X36000Y70000D02*
X36000Y72200D01*
X40000Y50000D02*
X40000Y47007D01*
X40000Y70000D02*
X40000Y74936D01*
X44000Y9063D02*
X44000Y5500D01*
X44000Y43137D02*
X44000Y50000D01*
X44000Y70000D02*
X44000Y78875D01*
X48000Y13876D02*
X48000Y5500D01*
X48000Y37586D02*
X48000Y38000D01*
X48000Y43500D02*
X48000Y44500D01*
X48000Y70278D02*
X48000Y79346D01*
X52000Y10333D02*
X52000Y5500D01*
X52000Y20667D02*
X52000Y37722D01*
X56000Y11170D02*
X56000Y5500D01*
X56000Y101500D02*
X56000Y102500D01*
X56000Y107426D02*
X56000Y110200D01*
X56000Y183278D02*
X56000Y186393D01*
X60000Y12500D02*
X60000Y11500D01*
X60000Y98750D02*
X60000Y99660D01*
X60000Y101500D02*
X60000Y102500D01*
X60000Y104340D02*
X60000Y110200D01*
X60000Y162107D02*
X60000Y190393D01*
X64000Y100472D02*
X64000Y100314D01*
X64000Y158107D02*
X64000Y194393D01*
X68000Y12500D02*
X68000Y11500D01*
X68000Y73000D02*
X68000Y83023D01*
X68000Y154107D02*
X68000Y198393D01*
X72000Y18222D02*
X72000Y5500D01*
X72000Y37778D02*
X72000Y55625D01*
X72000Y56375D02*
X72000Y85686D01*
X72000Y150107D02*
X72000Y202393D01*
X76000Y21350D02*
X76000Y5500D01*
X76000Y34650D02*
X76000Y52575D01*
X76000Y55625D02*
X76000Y56375D01*
X76000Y59425D02*
X76000Y89686D01*
X76000Y147521D02*
X76000Y206393D01*
X80000Y21350D02*
X80000Y5500D01*
X80000Y34650D02*
X80000Y94702D01*
X80000Y140497D02*
X80000Y199822D01*
X84000Y21350D02*
X84000Y5500D01*
X84000Y34650D02*
X84000Y88539D01*
X84000Y140082D02*
X84000Y198550D01*
X88000Y21350D02*
X88000Y5500D01*
X88000Y34650D02*
X88000Y87500D01*
X88000Y137250D02*
X88000Y198550D01*
X92000Y21350D02*
X92000Y5500D01*
X92000Y34650D02*
X92000Y88539D01*
X92000Y137250D02*
X92000Y198550D01*
X96000Y20222D02*
X96000Y5500D01*
X96000Y35778D02*
X96000Y97666D01*
X96000Y136028D02*
X96000Y198550D01*
X100000Y12500D02*
X100000Y11500D01*
X100000Y38500D02*
X100000Y93666D01*
X100000Y126300D02*
X100000Y149784D01*
X100000Y156216D02*
X100000Y199822D01*
X104000Y12500D02*
X104000Y11500D01*
X104000Y38500D02*
X104000Y48333D01*
X104000Y61667D02*
X104000Y91950D01*
X104000Y159964D02*
X104000Y203843D01*
X108000Y12500D02*
X108000Y11500D01*
X108000Y38500D02*
X108000Y46750D01*
X108000Y63250D02*
X108000Y91950D01*
X108000Y164789D02*
X108000Y201773D01*
X112000Y12500D02*
X112000Y11500D01*
X112000Y38500D02*
X112000Y47313D01*
X112000Y62687D02*
X112000Y91950D01*
X112000Y170607D02*
X112000Y201772D01*
X116000Y19722D02*
X116000Y5500D01*
X116000Y36278D02*
X116000Y50341D01*
X116000Y70278D02*
X116000Y91950D01*
X116000Y173290D02*
X116000Y203843D01*
X120000Y19000D02*
X120000Y5500D01*
X120000Y37000D02*
X120000Y45964D01*
X120000Y51000D02*
X120000Y52000D01*
X120000Y88206D02*
X120000Y91950D01*
X120000Y195531D02*
X120000Y209100D01*
X124000Y19000D02*
X124000Y5500D01*
X124000Y41000D02*
X124000Y41000D01*
X124000Y45041D02*
X124000Y45500D01*
X124000Y51000D02*
X124000Y52000D01*
X124000Y199531D02*
X124000Y209100D01*
X128000Y19000D02*
X128000Y5500D01*
X128000Y41000D02*
X128000Y41000D01*
X128000Y45041D02*
X128000Y45500D01*
X128000Y51000D02*
X128000Y52000D01*
X128000Y203531D02*
X128000Y209100D01*
X132000Y10601D02*
X132000Y5500D01*
X132000Y15125D02*
X132000Y15875D01*
X132000Y37000D02*
X132000Y45964D01*
X132000Y51000D02*
X132000Y52000D01*
X132000Y207531D02*
X132000Y209100D01*
X136000Y10601D02*
X136000Y5500D01*
X136000Y15125D02*
X136000Y15875D01*
X136000Y37000D02*
X136000Y80603D01*
X140000Y9000D02*
X140000Y5500D01*
X140000Y14500D02*
X140000Y15500D01*
X140000Y59405D02*
X140000Y80603D01*
X144000Y14500D02*
X144000Y5500D01*
X144000Y63405D02*
X144000Y80603D01*
X148000Y9000D02*
X148000Y5500D01*
X152000Y5500D02*
X152000Y7423D01*
X152000Y35778D02*
X152000Y45000D01*
X152000Y52596D01*
X152000Y85448D02*
X152000Y98596D01*
X156000Y42928D02*
X156000Y24651D01*
X156000Y45000D02*
X156000Y45000D01*
X156000Y51500D02*
X156000Y52500D01*
X156000Y86000D02*
X156000Y86000D01*
X156000Y90041D02*
X156000Y94596D01*
X160000Y45000D02*
X160000Y26863D01*
X160000Y51500D02*
X160000Y52500D01*
X160000Y86000D02*
X160000Y86000D01*
X160000Y90041D02*
X160000Y90595D01*
X164000Y31208D02*
X164000Y27790D01*
X164000Y37500D02*
X164000Y38500D01*
X164000Y44792D02*
X164000Y45000D01*
X164000Y85448D02*
X164000Y89350D01*
X168000Y31000D02*
X168000Y27774D01*
X168000Y85448D02*
X168000Y89350D01*
X172000Y31000D02*
X172000Y26118D01*
X172000Y85448D02*
X172000Y89350D01*
X176000Y28000D02*
X176000Y22850D01*
X176000Y85448D02*
X176000Y89350D01*
X180000Y28000D02*
X180000Y23251D01*
X180000Y85448D02*
X180000Y89350D01*
X184000Y28000D02*
X184000Y26283D01*
X184000Y85448D02*
X184000Y89350D01*
X188000Y28722D02*
X188000Y27790D01*
X188000Y85448D02*
X188000Y89350D01*
X188000Y131875D02*
X188000Y132609D01*
X188000Y137000D02*
X188000Y137000D01*
X188000Y141391D02*
X188000Y144552D01*
X192000Y34290D02*
X192000Y27790D01*
X192000Y85448D02*
X192000Y88711D01*
X192000Y132500D02*
X192000Y133636D01*
X192000Y137000D02*
X192000Y137000D01*
X192000Y140364D02*
X192000Y144552D01*
X196000Y30706D02*
X196000Y26697D01*
X196000Y85448D02*
X196000Y88710D01*
X196000Y115353D02*
X196000Y118350D01*
X196000Y133405D02*
X196000Y144552D01*
X200000Y29500D02*
X200000Y24250D01*
X200000Y85448D02*
X200000Y91393D01*
X200000Y112671D02*
X200000Y119045D01*
X200000Y137405D02*
X200000Y143508D01*
X204000Y29878D02*
X204000Y21851D01*
X204000Y85448D02*
X204000Y122596D01*
X208000Y32151D02*
X208000Y25703D01*
X208000Y85448D02*
X208000Y103459D01*
X208000Y107500D02*
X208000Y107500D01*
X208000Y111541D02*
X208000Y126596D01*
X212000Y30292D02*
X212000Y27360D01*
X216000Y27790D02*
X216000Y29500D01*
X216000Y149397D02*
X216000Y163350D01*
X220000Y30292D02*
X220000Y27277D01*
X220000Y149397D02*
X220000Y162500D01*
X224000Y29595D02*
X224000Y25620D01*
X224000Y149397D02*
X224000Y163539D01*
X224000Y176461D02*
X224000Y181350D01*
X228000Y25595D02*
X228000Y21650D01*
X228000Y149397D02*
X228000Y181125D01*
X232000Y180500D02*
X232000Y149150D01*
X236000Y44752D02*
X236000Y36404D01*
X236000Y149150D02*
X236000Y182393D01*
X240000Y43850D02*
X240000Y35150D01*
X240000Y149150D02*
X240000Y186532D01*
X244000Y41222D02*
X244000Y35150D01*
X244000Y59778D02*
X244000Y66222D01*
X244000Y182607D02*
X244000Y186532D01*
X248000Y39500D02*
X248000Y35150D01*
X248000Y61500D02*
X248000Y64500D01*
X248000Y185290D02*
X248000Y186532D01*
X252000Y39500D02*
X252000Y35150D01*
X252000Y61500D02*
X252000Y64500D01*
X252000Y185289D02*
X252000Y185893D01*
X256000Y39500D02*
X256000Y35150D01*
X256000Y61500D02*
X256000Y64500D01*
X256000Y142057D02*
X256000Y144108D01*
X256000Y182607D02*
X256000Y185892D01*
X260000Y39500D02*
X260000Y35150D01*
X260000Y61500D02*
X260000Y64500D01*
X260000Y142682D02*
X260000Y188575D01*
X264000Y39500D02*
X264000Y35150D01*
X264000Y61500D02*
X264000Y64500D01*
X264000Y140789D02*
X264000Y191714D01*
X268000Y39500D02*
X268000Y35150D01*
X268000Y61500D02*
X268000Y64500D01*
X268000Y139778D02*
X268000Y140204D01*
X268000Y155796D02*
X268000Y191714D01*
X272000Y40722D02*
X272000Y35150D01*
X272000Y59278D02*
X272000Y66222D01*
X272000Y101500D02*
X272000Y102500D01*
X272000Y113000D02*
X272000Y114000D01*
X272000Y158199D02*
X272000Y191714D01*
X276000Y40000D02*
X276000Y35150D01*
X276000Y60000D02*
X276000Y65500D01*
X276000Y95650D02*
X276000Y95964D01*
X276000Y101500D02*
X276000Y102500D01*
X276000Y113000D02*
X276000Y114000D01*
X276000Y158199D02*
X276000Y191714D01*
X280000Y40000D02*
X280000Y35150D01*
X280000Y60000D02*
X280000Y65500D01*
X280000Y95650D02*
X280000Y119500D01*
X280000Y158199D02*
X280000Y191714D01*
X284000Y40000D02*
X284000Y35150D01*
X284000Y60000D02*
X284000Y65500D01*
X284000Y95650D02*
X284000Y119500D01*
X284000Y158199D02*
X284000Y191714D01*
X288000Y43000D02*
X288000Y35150D01*
X288000Y57000D02*
X288000Y59636D01*
X288000Y62500D02*
X288000Y62500D01*
X288000Y65364D02*
X288000Y68500D01*
X288000Y95650D02*
X288000Y122500D01*
X288000Y137500D02*
X288000Y137801D01*
X288000Y158199D02*
X288000Y191714D01*
X292000Y43000D02*
X292000Y35150D01*
X292000Y57000D02*
X292000Y58000D01*
X292000Y62500D02*
X292000Y62500D01*
X292000Y67000D02*
X292000Y68500D01*
X292000Y95650D02*
X292000Y122500D01*
X292000Y137500D02*
X292000Y137801D01*
X292000Y158199D02*
X292000Y191714D01*
X296000Y43208D02*
X296000Y35150D01*
X296000Y49500D02*
X296000Y50500D01*
X296000Y56792D02*
X296000Y68708D01*
X296000Y75000D02*
X296000Y76000D01*
X296000Y82292D02*
X296000Y82350D01*
X296000Y95650D02*
X296000Y110136D01*
X296000Y113500D02*
X296000Y113500D01*
X296000Y116864D02*
X296000Y122500D01*
X296000Y129500D02*
X296000Y130500D01*
X296000Y137500D02*
X296000Y137801D01*
X296000Y158199D02*
X296000Y191714D01*
X300000Y82350D02*
X300000Y35150D01*
X300000Y95650D02*
X300000Y109109D01*
X300000Y113500D02*
X300000Y113500D01*
X300000Y117891D02*
X300000Y122708D01*
X300000Y129500D02*
X300000Y130500D01*
X300000Y137292D02*
X300000Y138204D01*
X300000Y157796D02*
X300000Y191714D01*
X304000Y82350D02*
X304000Y35150D01*
X304000Y95650D02*
X304000Y125609D01*
X304000Y130000D02*
X304000Y130000D01*
X304000Y134391D02*
X304000Y140500D01*
X304000Y155500D02*
X304000Y191714D01*
X308000Y82350D02*
X308000Y35150D01*
X308000Y95650D02*
X308000Y126636D01*
X308000Y130000D02*
X308000Y130000D01*
X308000Y133364D02*
X308000Y141125D01*
X308000Y154875D02*
X308000Y191714D01*
X312000Y82350D02*
X312000Y35150D01*
X312000Y95650D02*
X312000Y122022D01*
X312000Y137578D02*
X312000Y145301D01*
X312000Y150699D02*
X312000Y191714D01*
X316000Y82350D02*
X316000Y35150D01*
X316000Y95650D02*
X316000Y98539D01*
X316000Y142300D02*
X316000Y143300D01*
X316000Y148800D02*
X316000Y162928D01*
X316000Y165000D02*
X316000Y165000D01*
X316000Y167072D02*
X316000Y182928D01*
X316000Y185000D02*
X316000Y185000D01*
X316000Y187072D02*
X316000Y191714D01*
X320000Y82350D02*
X320000Y35150D01*
X320000Y95650D02*
X320000Y97500D01*
X320000Y143300D02*
X320000Y165000D01*
X320000Y185000D01*
X320000Y191714D01*
X324000Y79595D02*
X324000Y35150D01*
X324000Y95650D02*
X324000Y98539D01*
X324000Y142300D02*
X324000Y143300D01*
X324000Y148800D02*
X324000Y162928D01*
X324000Y165000D02*
X324000Y165000D01*
X324000Y167072D02*
X324000Y182928D01*
X324000Y185000D02*
X324000Y185000D01*
X324000Y187072D02*
X324000Y191714D01*
X328000Y47315D02*
X328000Y35150D01*
X328000Y94404D02*
X328000Y122022D01*
X328000Y137578D02*
X328000Y191714D01*
X332000Y42096D02*
X332000Y35150D01*
X332000Y90404D02*
X332000Y191714D01*
X336000Y38096D02*
X336000Y35150D01*
X336000Y86404D02*
X336000Y191714D01*
X340000Y191714D02*
X340000Y82404D01*
X344000Y48904D02*
X344000Y191714D01*
X348000Y191714D02*
X348000Y44904D01*
X352000Y44621D02*
X352000Y191714D01*
X356000Y191714D02*
X356000Y44625D01*
X360000Y44629D02*
X360000Y191714D01*
X364000Y192258D02*
X364000Y44632D01*
X368000Y44636D02*
X368000Y50959D01*
X368000Y55000D02*
X368000Y55000D01*
X368000Y59041D02*
X368000Y60959D01*
X368000Y65000D02*
X368000Y65000D01*
X368000Y69041D02*
X368000Y110959D01*
X368000Y115000D02*
X368000Y115000D01*
X368000Y119041D02*
X368000Y130959D01*
X368000Y135000D02*
X368000Y135000D01*
X368000Y139041D02*
X368000Y150959D01*
X368000Y155000D02*
X368000Y155000D01*
X368000Y159041D02*
X368000Y170959D01*
X368000Y175000D02*
X368000Y175000D01*
X368000Y179041D02*
X368000Y195596D01*
X372000Y50959D02*
X372000Y45778D01*
X372000Y55000D02*
X372000Y55000D01*
X372000Y59041D02*
X372000Y60959D01*
X372000Y65000D02*
X372000Y65000D01*
X372000Y69041D02*
X372000Y110959D01*
X372000Y115000D02*
X372000Y115000D01*
X372000Y119041D02*
X372000Y130959D01*
X372000Y135000D02*
X372000Y135000D01*
X372000Y139041D02*
X372000Y150959D01*
X372000Y155000D02*
X372000Y155000D01*
X372000Y159041D02*
X372000Y170959D01*
X372000Y175000D02*
X372000Y175000D01*
X372000Y179041D02*
X372000Y199596D01*
X376000Y55500D02*
X376000Y54500D01*
X376000Y62536D02*
X376000Y204214D01*
X380000Y55500D02*
X380000Y54500D01*
X380000Y63000D02*
X380000Y207950D01*
X384000Y55500D02*
X384000Y54500D01*
X384000Y63000D02*
X384000Y205949D01*
X388000Y55500D02*
X388000Y54500D01*
X388000Y62999D02*
X388000Y203385D01*
X392000Y51636D02*
X392000Y46778D01*
X392000Y55000D02*
X392000Y55000D01*
X392000Y58364D02*
X392000Y61636D01*
X392000Y65000D02*
X392000Y65000D01*
X392000Y68364D02*
X392000Y111636D01*
X392000Y115000D02*
X392000Y115000D01*
X392000Y118364D02*
X392000Y131636D01*
X392000Y135000D02*
X392000Y135000D01*
X392000Y138364D02*
X392000Y151636D01*
X392000Y155000D02*
X392000Y155000D01*
X392000Y158364D02*
X392000Y171636D01*
X392000Y175000D02*
X392000Y175000D01*
X392000Y178364D02*
X392000Y202210D01*
X396000Y50609D02*
X396000Y44635D01*
X396000Y55000D02*
X396000Y55000D01*
X396000Y59391D02*
X396000Y60609D01*
X396000Y65000D02*
X396000Y65000D01*
X396000Y69391D02*
X396000Y110609D01*
X396000Y115000D02*
X396000Y115000D01*
X396000Y119391D02*
X396000Y130609D01*
X396000Y135000D02*
X396000Y135000D01*
X396000Y139391D02*
X396000Y150609D01*
X396000Y155000D02*
X396000Y155000D01*
X396000Y159391D02*
X396000Y170609D01*
X396000Y175000D02*
X396000Y175000D01*
X396000Y179391D02*
X396000Y202210D01*
X400000Y203634D02*
X400000Y44631D01*
X404000Y44627D02*
X404000Y206550D01*
X408000Y207350D02*
X408000Y44622D01*
D32*
X232500Y87500D02*
X221783Y87500D01*
X235000Y85000D02*
X235000Y55000D01*
X239500Y50500D01*
X257500Y50500D01*
X235000Y85000D02*
X232500Y87500D01*
X257500Y50500D02*
X278000Y50500D01*
X278500Y50000D01*
X239332Y79668D02*
X239332Y86794D01*
X233626Y92500D02*
X221783Y92500D01*
X233626Y92500D02*
X239332Y86794D01*
X243500Y75500D02*
X257500Y75500D01*
X243500Y75500D02*
X239332Y79668D01*
X257500Y75500D02*
X278500Y75500D01*
X192500Y73217D02*
X192500Y60500D01*
X201000Y52000D01*
X201000Y40000D01*
X203706Y56168D02*
X210832Y56168D01*
X197500Y62374D02*
X197500Y73217D01*
X197500Y62374D02*
X203706Y56168D01*
X216000Y51000D02*
X216000Y40000D01*
X216000Y51000D02*
X210832Y56168D01*
X172500Y115000D02*
X172500Y156783D01*
D35*
X172500Y115000D03*
D32*
X177500Y120500D02*
X177500Y156783D01*
X177500Y120500D02*
X181000Y117000D01*
X186000Y117000D01*
D35*
X186000Y117000D03*
D32*
X167079Y156362D02*
X167500Y156783D01*
X167079Y156362D02*
X167079Y148734D01*
X163345Y145000D01*
X158000Y145000D01*
D35*
X158000Y145000D03*
D32*
X209500Y137500D02*
X221783Y137500D01*
X197000Y125000D02*
X191000Y125000D01*
D35*
X191000Y125000D03*
D32*
X197000Y125000D02*
X209500Y137500D01*
X207500Y145000D02*
X207500Y156783D01*
D35*
X207500Y145000D03*
D32*
X202500Y156783D02*
X202500Y167500D01*
D35*
X220000Y170000D03*
D32*
X205000Y170000D02*
X202500Y167500D01*
X205000Y170000D02*
X220000Y170000D01*
X221783Y97500D02*
X241000Y97500D01*
X241500Y97000D01*
D35*
X241500Y97000D03*
D32*
X245698Y117500D02*
X221783Y117500D01*
X245698Y117500D02*
X246000Y117802D01*
D35*
X246000Y117802D03*
D32*
X240500Y122500D02*
X221783Y122500D01*
X242000Y124000D02*
X250000Y124000D01*
D35*
X250000Y124000D03*
D32*
X242000Y124000D02*
X240500Y122500D01*
X236500Y127500D02*
X221783Y127500D01*
X236500Y127500D02*
X239000Y130000D01*
X254000Y130000D01*
D35*
X254000Y130000D03*
D32*
X235374Y132500D02*
X221783Y132500D01*
X238056Y135182D02*
X259000Y135182D01*
D35*
X259000Y135182D03*
D32*
X238056Y135182D02*
X235374Y132500D01*
X202500Y73217D02*
X202500Y63500D01*
X234500Y28500D02*
X383500Y28500D01*
X393700Y18300D01*
X393700Y13400D01*
X205500Y60500D02*
X202500Y63500D01*
X227500Y35500D02*
X234500Y28500D01*
X222000Y60500D02*
X205500Y60500D01*
X222000Y60500D02*
X227500Y55000D01*
X227500Y35500D01*
D33*
X257500Y102000D02*
X256500Y102500D01*
D32*
X221783Y102500D01*
X257500Y102000D02*
X258000Y101000D01*
X258000Y93500D01*
X262500Y89000D01*
X334500Y78500D02*
X334500Y49000D01*
X345535Y37965D01*
X382500Y38000D01*
X324000Y89000D02*
X262500Y89000D01*
X324000Y89000D02*
X334500Y78500D01*
X382500Y38000D02*
X411531Y37969D01*
X419100Y30400D02*
X419100Y13400D01*
X419100Y30400D02*
X411531Y37969D01*
X192500Y156783D02*
X192500Y171500D01*
D35*
X199000Y181000D03*
D32*
X199000Y178000D01*
X192500Y171500D01*
D35*
X215900Y180000D03*
D32*
X210900Y175000D01*
X202874Y175000D01*
X197500Y169626D01*
X197500Y156783D01*
X157500Y156783D02*
X157500Y173500D01*
X172000Y188000D01*
D35*
X231000Y188000D03*
D32*
X172000Y188000D01*
X152500Y174626D02*
X152500Y156783D01*
X152500Y174626D02*
X171056Y193182D01*
D35*
X254000Y193182D03*
D32*
X171056Y193182D01*
X138217Y122500D02*
X128000Y122500D01*
X123668Y189794D02*
X136570Y202696D01*
X123668Y126832D02*
X128000Y122500D01*
X123668Y126832D02*
X123668Y189794D01*
X292100Y207100D02*
X292100Y216600D01*
X287696Y202696D02*
X136570Y202696D01*
X287696Y202696D02*
X292100Y207100D01*
D35*
X118000Y166000D03*
D32*
X118000Y126374D02*
X126874Y117500D01*
X138217Y117500D01*
X118000Y126374D02*
X118000Y166000D01*
X221783Y142500D02*
X245500Y142500D01*
X250000Y147000D01*
X250000Y178000D01*
D35*
X250000Y178000D03*
D32*
X138217Y132500D02*
X129500Y132500D01*
X128000Y134000D01*
X138364Y198364D02*
X361364Y198364D01*
X128000Y188000D02*
X128000Y134000D01*
X128000Y188000D02*
X138364Y198364D01*
X368300Y205300D02*
X368300Y216600D01*
X368300Y205300D02*
X361364Y198364D01*
X150500Y137500D02*
X138217Y137500D01*
D35*
X194000Y102032D03*
D32*
X155332Y132668D02*
X150500Y137500D01*
X155332Y132668D02*
X155332Y111000D01*
X164300Y102032D01*
X194000Y102032D01*
X159664Y113000D02*
X159664Y134462D01*
X159664Y113000D02*
X164600Y108064D01*
X194000Y108064D01*
D35*
X194000Y108064D03*
D32*
X151626Y142500D02*
X138217Y142500D01*
X151626Y142500D02*
X159664Y134462D01*
X148500Y127500D02*
X138217Y127500D01*
X151000Y125000D02*
X151000Y109000D01*
X164000Y96000D01*
X194000Y96000D01*
D35*
X194000Y96000D03*
D32*
X151000Y125000D02*
X148500Y127500D01*
D35*
X112818Y159000D03*
D32*
X112818Y125429D01*
X125747Y112500D02*
X138217Y112500D01*
X125747Y112500D02*
X112818Y125429D01*
D35*
X106786Y153000D03*
D32*
X106786Y125335D01*
X124621Y107500D02*
X138217Y107500D01*
X124621Y107500D02*
X106786Y125335D01*
X105500Y28000D02*
X64500Y28000D01*
X105500Y28000D02*
X122000Y28000D01*
D35*
X320000Y105000D03*
D33*
X320000Y129800D01*
D38*
X109000Y55000D03*
D33*
X187500Y50000D02*
X187500Y73217D01*
D35*
X187500Y50000D03*
D33*
X187500Y44000D02*
X181500Y38000D01*
X187500Y44000D02*
X187500Y50000D01*
X187500Y156783D02*
X187500Y175000D01*
D35*
X187500Y175000D03*
D33*
X292493Y148000D02*
X305000Y148000D01*
D35*
X305000Y148000D03*
D33*
X138217Y87500D02*
X128500Y87500D01*
X126000Y85000D01*
X126000Y78000D01*
X126000Y64500D01*
D35*
X88000Y95000D03*
X81500Y133000D03*
X126000Y78000D03*
D40*
X51300Y115000D02*
X41250Y115000D01*
X51300Y115000D02*
X52825Y116525D01*
X89000Y116525D01*
X97475Y116525D01*
X89500Y116025D02*
X89500Y108250D01*
X89500Y116025D02*
X89000Y116525D01*
X97475Y116525D02*
X99000Y115000D01*
X128186Y97500D02*
X138217Y97500D01*
X128186Y97500D02*
X127411Y98275D01*
X104336Y98275D02*
X103306Y99306D01*
X104336Y98275D02*
X127411Y98275D01*
X99000Y103611D02*
X99000Y115000D01*
X103306Y99306D02*
X103306Y99306D01*
X99000Y103611D01*
X51300Y121500D02*
X41250Y121500D01*
X51300Y121500D02*
X52825Y119975D01*
X89000Y119975D01*
X98904Y119975D01*
X89500Y120475D02*
X89500Y128250D01*
X89500Y120475D02*
X89000Y119975D01*
X98904Y119975D02*
X102450Y116429D01*
X128186Y102500D02*
X138217Y102500D01*
X128186Y102500D02*
X127411Y101725D01*
X105765Y101725D02*
X103674Y103817D01*
X105765Y101725D02*
X127411Y101725D01*
X103674Y103817D02*
X102450Y105040D01*
X102450Y116429D01*
D33*
X70500Y128250D02*
X70250Y128000D01*
D34*
X47000Y188000D03*
D36*
X47000Y173500D02*
X46500Y173000D01*
X47000Y173500D02*
X47000Y188000D01*
X41250Y128000D02*
X70250Y128000D01*
X70500Y128250D02*
X70500Y141000D01*
D34*
X70500Y141000D03*
D36*
X47000Y164500D01*
X47000Y173500D01*
X118724Y216600D02*
X165100Y216600D01*
X118724Y216600D02*
X114342Y220982D01*
X79982Y220982D02*
X47000Y188000D01*
X79982Y220982D02*
X114342Y220982D01*
D33*
X14500Y126500D02*
X22228Y118772D01*
D37*
X14500Y103500D02*
X14500Y79875D01*
X14500Y103500D02*
X14500Y126500D01*
X14500Y150125D01*
X14500Y79875D02*
X33625Y79875D01*
X44500Y90750D01*
X33625Y150125D02*
X14500Y150125D01*
X33625Y150125D02*
X44500Y139250D01*
X44500Y90750D02*
X60000Y90750D01*
X65750Y90750D01*
X72500Y97500D02*
X72500Y108250D01*
X72500Y97500D02*
X65750Y90750D01*
X59500Y90250D02*
X59500Y60000D01*
X59500Y90250D02*
X60000Y90750D01*
D33*
X59500Y60000D02*
X60000Y59500D01*
D37*
X60000Y44000D01*
D41*
X14000Y127000D03*
X14000Y103000D03*
D33*
X182500Y73217D02*
X182500Y54000D01*
X180500Y52000D01*
X174500Y52000D01*
X221783Y112500D02*
X256500Y112500D01*
X257500Y113500D01*
X262000Y130000D02*
X276500Y130000D01*
X257500Y125500D02*
X257500Y113500D01*
X257500Y125500D02*
X262000Y130000D01*
X277507Y131007D02*
X277507Y148000D01*
X277507Y131007D02*
X276500Y130000D01*
D35*
X13000Y173000D03*
D32*
X25500Y173000D01*
M02*
