G04 EAGLE Gerber RS-274X export*
G75*
%MOMM*%
%FSLAX34Y34*%
%LPD*%
%INCopper Layer 2*%
%IPPOS*%
%AMOC8*
5,1,8,0,0,1.08239X$1,22.5*%
G01*
%ADD10C,2.250000*%
%ADD11C,1.275000*%
%ADD12C,1.290000*%
%ADD13C,1.778000*%
%ADD14C,3.750000*%
%ADD15C,0.600000*%
%ADD16C,0.400000*%
%ADD17C,0.550000*%
%ADD18C,0.230000*%
%ADD19C,1.500000*%

G36*
X157691Y2551D02*
X157691Y2551D01*
X157770Y2551D01*
X157848Y2571D01*
X157927Y2581D01*
X158001Y2610D01*
X158079Y2630D01*
X158149Y2668D01*
X158223Y2698D01*
X158287Y2744D01*
X158357Y2783D01*
X158416Y2837D01*
X158480Y2884D01*
X158531Y2946D01*
X158589Y3000D01*
X158632Y3068D01*
X158683Y3129D01*
X158717Y3202D01*
X158760Y3269D01*
X158785Y3345D01*
X158819Y3417D01*
X158834Y3495D01*
X158858Y3571D01*
X158863Y3651D01*
X158878Y3729D01*
X158874Y3809D01*
X158879Y3889D01*
X158864Y3967D01*
X158859Y4047D01*
X158834Y4123D01*
X158819Y4201D01*
X158785Y4273D01*
X158761Y4349D01*
X158718Y4417D01*
X158684Y4489D01*
X158633Y4551D01*
X158591Y4618D01*
X158533Y4673D01*
X158482Y4734D01*
X158360Y4835D01*
X158359Y4836D01*
X158358Y4836D01*
X158358Y4837D01*
X158005Y5093D01*
X156793Y6305D01*
X155785Y7692D01*
X155007Y9219D01*
X154477Y10850D01*
X154476Y10861D01*
X163830Y10861D01*
X163948Y10876D01*
X164067Y10883D01*
X164105Y10896D01*
X164145Y10901D01*
X164256Y10944D01*
X164369Y10981D01*
X164403Y11003D01*
X164441Y11018D01*
X164537Y11088D01*
X164638Y11151D01*
X164666Y11181D01*
X164698Y11204D01*
X164774Y11296D01*
X164856Y11383D01*
X164875Y11418D01*
X164901Y11449D01*
X164952Y11557D01*
X165009Y11661D01*
X165020Y11701D01*
X165037Y11737D01*
X165059Y11854D01*
X165089Y11969D01*
X165093Y12030D01*
X165097Y12050D01*
X165095Y12070D01*
X165099Y12130D01*
X165099Y13401D01*
X165101Y13401D01*
X165101Y12130D01*
X165116Y12012D01*
X165123Y11893D01*
X165136Y11855D01*
X165141Y11814D01*
X165185Y11704D01*
X165221Y11591D01*
X165243Y11556D01*
X165258Y11519D01*
X165328Y11423D01*
X165391Y11322D01*
X165421Y11294D01*
X165445Y11261D01*
X165536Y11186D01*
X165623Y11104D01*
X165658Y11084D01*
X165690Y11059D01*
X165797Y11008D01*
X165902Y10950D01*
X165941Y10940D01*
X165977Y10923D01*
X166094Y10901D01*
X166209Y10871D01*
X166270Y10867D01*
X166290Y10863D01*
X166310Y10865D01*
X166370Y10861D01*
X175724Y10861D01*
X175723Y10850D01*
X175193Y9219D01*
X174415Y7692D01*
X173407Y6305D01*
X172195Y5093D01*
X171842Y4837D01*
X171784Y4782D01*
X171720Y4736D01*
X171669Y4674D01*
X171610Y4619D01*
X171568Y4552D01*
X171517Y4491D01*
X171483Y4418D01*
X171440Y4351D01*
X171415Y4275D01*
X171381Y4203D01*
X171366Y4124D01*
X171342Y4048D01*
X171337Y3969D01*
X171322Y3890D01*
X171327Y3811D01*
X171321Y3731D01*
X171336Y3653D01*
X171341Y3573D01*
X171366Y3497D01*
X171381Y3418D01*
X171415Y3346D01*
X171439Y3271D01*
X171482Y3203D01*
X171516Y3131D01*
X171567Y3069D01*
X171609Y3002D01*
X171668Y2947D01*
X171719Y2885D01*
X171783Y2839D01*
X171841Y2784D01*
X171911Y2745D01*
X171976Y2698D01*
X172050Y2669D01*
X172120Y2630D01*
X172197Y2610D01*
X172271Y2581D01*
X172350Y2571D01*
X172428Y2551D01*
X172585Y2541D01*
X172587Y2541D01*
X172588Y2541D01*
X182130Y2541D01*
X182267Y2558D01*
X182406Y2571D01*
X182425Y2578D01*
X182445Y2581D01*
X182574Y2632D01*
X182705Y2679D01*
X182722Y2690D01*
X182741Y2698D01*
X182853Y2779D01*
X182968Y2857D01*
X182982Y2873D01*
X182998Y2884D01*
X183087Y2992D01*
X183179Y3096D01*
X183188Y3114D01*
X183201Y3129D01*
X183260Y3255D01*
X183323Y3379D01*
X183328Y3399D01*
X183336Y3417D01*
X183363Y3553D01*
X183393Y3689D01*
X183392Y3710D01*
X183396Y3729D01*
X183388Y3868D01*
X183383Y4007D01*
X183378Y4027D01*
X183376Y4047D01*
X183334Y4179D01*
X183295Y4313D01*
X183285Y4330D01*
X183278Y4349D01*
X183204Y4467D01*
X183133Y4587D01*
X183115Y4608D01*
X183108Y4618D01*
X183093Y4632D01*
X183027Y4707D01*
X180809Y6925D01*
X179069Y11126D01*
X179069Y15674D01*
X180809Y19875D01*
X184025Y23091D01*
X188226Y24831D01*
X192774Y24831D01*
X196975Y23091D01*
X200191Y19875D01*
X201931Y15674D01*
X201931Y11126D01*
X200191Y6925D01*
X197973Y4707D01*
X197888Y4598D01*
X197799Y4491D01*
X197790Y4472D01*
X197778Y4456D01*
X197723Y4328D01*
X197664Y4203D01*
X197660Y4183D01*
X197652Y4164D01*
X197630Y4026D01*
X197604Y3890D01*
X197605Y3870D01*
X197602Y3850D01*
X197615Y3711D01*
X197624Y3573D01*
X197630Y3554D01*
X197632Y3534D01*
X197679Y3402D01*
X197722Y3271D01*
X197732Y3253D01*
X197739Y3234D01*
X197817Y3119D01*
X197892Y3002D01*
X197906Y2988D01*
X197918Y2971D01*
X198022Y2879D01*
X198123Y2784D01*
X198141Y2774D01*
X198156Y2761D01*
X198280Y2697D01*
X198402Y2630D01*
X198421Y2625D01*
X198439Y2616D01*
X198575Y2586D01*
X198710Y2551D01*
X198738Y2549D01*
X198750Y2546D01*
X198770Y2547D01*
X198870Y2541D01*
X207530Y2541D01*
X207667Y2558D01*
X207806Y2571D01*
X207825Y2578D01*
X207845Y2581D01*
X207974Y2632D01*
X208105Y2679D01*
X208122Y2690D01*
X208141Y2698D01*
X208253Y2779D01*
X208368Y2857D01*
X208382Y2873D01*
X208398Y2884D01*
X208487Y2992D01*
X208579Y3096D01*
X208588Y3114D01*
X208601Y3129D01*
X208660Y3255D01*
X208723Y3379D01*
X208728Y3399D01*
X208736Y3417D01*
X208763Y3553D01*
X208793Y3689D01*
X208792Y3710D01*
X208796Y3729D01*
X208788Y3868D01*
X208783Y4007D01*
X208778Y4027D01*
X208776Y4047D01*
X208734Y4179D01*
X208695Y4313D01*
X208685Y4330D01*
X208678Y4349D01*
X208604Y4467D01*
X208533Y4587D01*
X208515Y4608D01*
X208508Y4618D01*
X208493Y4632D01*
X208427Y4707D01*
X206209Y6925D01*
X204469Y11126D01*
X204469Y15674D01*
X206209Y19875D01*
X209425Y23091D01*
X213626Y24831D01*
X218174Y24831D01*
X222375Y23091D01*
X225591Y19875D01*
X227331Y15674D01*
X227331Y11126D01*
X225591Y6925D01*
X223373Y4707D01*
X223288Y4598D01*
X223199Y4491D01*
X223190Y4472D01*
X223178Y4456D01*
X223123Y4328D01*
X223064Y4203D01*
X223060Y4183D01*
X223052Y4164D01*
X223030Y4026D01*
X223004Y3890D01*
X223005Y3870D01*
X223002Y3850D01*
X223015Y3711D01*
X223024Y3573D01*
X223030Y3554D01*
X223032Y3534D01*
X223079Y3402D01*
X223122Y3271D01*
X223132Y3253D01*
X223139Y3234D01*
X223217Y3119D01*
X223292Y3002D01*
X223306Y2988D01*
X223318Y2971D01*
X223422Y2879D01*
X223523Y2784D01*
X223541Y2774D01*
X223556Y2761D01*
X223680Y2697D01*
X223802Y2630D01*
X223821Y2625D01*
X223839Y2616D01*
X223975Y2586D01*
X224110Y2551D01*
X224138Y2549D01*
X224150Y2546D01*
X224170Y2547D01*
X224270Y2541D01*
X232930Y2541D01*
X233067Y2558D01*
X233206Y2571D01*
X233225Y2578D01*
X233245Y2581D01*
X233374Y2632D01*
X233505Y2679D01*
X233522Y2690D01*
X233541Y2698D01*
X233653Y2779D01*
X233768Y2857D01*
X233782Y2873D01*
X233798Y2884D01*
X233887Y2992D01*
X233979Y3096D01*
X233988Y3114D01*
X234001Y3129D01*
X234060Y3255D01*
X234123Y3379D01*
X234128Y3399D01*
X234136Y3417D01*
X234163Y3553D01*
X234193Y3689D01*
X234192Y3710D01*
X234196Y3729D01*
X234188Y3868D01*
X234183Y4007D01*
X234178Y4027D01*
X234176Y4047D01*
X234134Y4179D01*
X234095Y4313D01*
X234085Y4330D01*
X234078Y4349D01*
X234004Y4467D01*
X233933Y4587D01*
X233915Y4608D01*
X233908Y4618D01*
X233893Y4632D01*
X233827Y4707D01*
X231609Y6925D01*
X229869Y11126D01*
X229869Y15674D01*
X231609Y19875D01*
X234825Y23091D01*
X239026Y24831D01*
X243574Y24831D01*
X247775Y23091D01*
X250991Y19875D01*
X252731Y15674D01*
X252731Y11126D01*
X250991Y6925D01*
X248773Y4707D01*
X248688Y4598D01*
X248599Y4491D01*
X248590Y4472D01*
X248578Y4456D01*
X248523Y4328D01*
X248464Y4203D01*
X248460Y4183D01*
X248452Y4164D01*
X248430Y4026D01*
X248404Y3890D01*
X248405Y3870D01*
X248402Y3850D01*
X248415Y3711D01*
X248424Y3573D01*
X248430Y3554D01*
X248432Y3534D01*
X248479Y3402D01*
X248522Y3271D01*
X248532Y3253D01*
X248539Y3234D01*
X248617Y3119D01*
X248692Y3002D01*
X248706Y2988D01*
X248718Y2971D01*
X248822Y2879D01*
X248923Y2784D01*
X248941Y2774D01*
X248956Y2761D01*
X249080Y2697D01*
X249202Y2630D01*
X249221Y2625D01*
X249239Y2616D01*
X249375Y2586D01*
X249510Y2551D01*
X249538Y2549D01*
X249550Y2546D01*
X249570Y2547D01*
X249670Y2541D01*
X258330Y2541D01*
X258467Y2558D01*
X258606Y2571D01*
X258625Y2578D01*
X258645Y2581D01*
X258774Y2632D01*
X258905Y2679D01*
X258922Y2690D01*
X258941Y2698D01*
X259053Y2779D01*
X259168Y2857D01*
X259182Y2873D01*
X259198Y2884D01*
X259287Y2992D01*
X259379Y3096D01*
X259388Y3114D01*
X259401Y3129D01*
X259460Y3255D01*
X259523Y3379D01*
X259528Y3399D01*
X259536Y3417D01*
X259563Y3553D01*
X259593Y3689D01*
X259592Y3710D01*
X259596Y3729D01*
X259588Y3868D01*
X259583Y4007D01*
X259578Y4027D01*
X259576Y4047D01*
X259534Y4179D01*
X259495Y4313D01*
X259485Y4330D01*
X259478Y4349D01*
X259404Y4467D01*
X259333Y4587D01*
X259315Y4608D01*
X259308Y4618D01*
X259293Y4632D01*
X259227Y4707D01*
X257009Y6925D01*
X255269Y11126D01*
X255269Y15674D01*
X257009Y19875D01*
X260225Y23091D01*
X264426Y24831D01*
X268974Y24831D01*
X273175Y23091D01*
X276391Y19875D01*
X278131Y15674D01*
X278131Y11126D01*
X276391Y6925D01*
X274173Y4707D01*
X274088Y4598D01*
X273999Y4491D01*
X273990Y4472D01*
X273978Y4456D01*
X273923Y4328D01*
X273864Y4203D01*
X273860Y4183D01*
X273852Y4164D01*
X273830Y4026D01*
X273804Y3890D01*
X273805Y3870D01*
X273802Y3850D01*
X273815Y3711D01*
X273824Y3573D01*
X273830Y3554D01*
X273832Y3534D01*
X273879Y3402D01*
X273922Y3271D01*
X273932Y3253D01*
X273939Y3234D01*
X274017Y3119D01*
X274092Y3002D01*
X274106Y2988D01*
X274118Y2971D01*
X274222Y2879D01*
X274323Y2784D01*
X274341Y2774D01*
X274356Y2761D01*
X274480Y2697D01*
X274602Y2630D01*
X274621Y2625D01*
X274639Y2616D01*
X274775Y2586D01*
X274910Y2551D01*
X274938Y2549D01*
X274950Y2546D01*
X274970Y2547D01*
X275070Y2541D01*
X283730Y2541D01*
X283867Y2558D01*
X284006Y2571D01*
X284025Y2578D01*
X284045Y2581D01*
X284174Y2632D01*
X284305Y2679D01*
X284322Y2690D01*
X284341Y2698D01*
X284453Y2779D01*
X284568Y2857D01*
X284582Y2873D01*
X284598Y2884D01*
X284687Y2992D01*
X284779Y3096D01*
X284788Y3114D01*
X284801Y3129D01*
X284860Y3255D01*
X284923Y3379D01*
X284928Y3399D01*
X284936Y3417D01*
X284963Y3553D01*
X284993Y3689D01*
X284992Y3710D01*
X284996Y3729D01*
X284988Y3868D01*
X284983Y4007D01*
X284978Y4027D01*
X284976Y4047D01*
X284934Y4179D01*
X284895Y4313D01*
X284885Y4330D01*
X284878Y4349D01*
X284804Y4467D01*
X284733Y4587D01*
X284715Y4608D01*
X284708Y4618D01*
X284693Y4632D01*
X284627Y4707D01*
X282409Y6925D01*
X280669Y11126D01*
X280669Y15674D01*
X282409Y19875D01*
X285625Y23091D01*
X289826Y24831D01*
X294374Y24831D01*
X298575Y23091D01*
X301791Y19875D01*
X303531Y15674D01*
X303531Y11126D01*
X301791Y6925D01*
X299573Y4707D01*
X299488Y4598D01*
X299399Y4491D01*
X299390Y4472D01*
X299378Y4456D01*
X299323Y4328D01*
X299264Y4203D01*
X299260Y4183D01*
X299252Y4164D01*
X299230Y4026D01*
X299204Y3890D01*
X299205Y3870D01*
X299202Y3850D01*
X299215Y3711D01*
X299224Y3573D01*
X299230Y3554D01*
X299232Y3534D01*
X299279Y3402D01*
X299322Y3271D01*
X299332Y3253D01*
X299339Y3234D01*
X299417Y3119D01*
X299492Y3002D01*
X299506Y2988D01*
X299518Y2971D01*
X299622Y2879D01*
X299723Y2784D01*
X299741Y2774D01*
X299756Y2761D01*
X299880Y2697D01*
X300002Y2630D01*
X300021Y2625D01*
X300039Y2616D01*
X300175Y2586D01*
X300310Y2551D01*
X300338Y2549D01*
X300350Y2546D01*
X300370Y2547D01*
X300470Y2541D01*
X309130Y2541D01*
X309267Y2558D01*
X309406Y2571D01*
X309425Y2578D01*
X309445Y2581D01*
X309574Y2632D01*
X309705Y2679D01*
X309722Y2690D01*
X309741Y2698D01*
X309853Y2779D01*
X309968Y2857D01*
X309982Y2873D01*
X309998Y2884D01*
X310087Y2992D01*
X310179Y3096D01*
X310188Y3114D01*
X310201Y3129D01*
X310260Y3255D01*
X310323Y3379D01*
X310328Y3399D01*
X310336Y3417D01*
X310363Y3553D01*
X310393Y3689D01*
X310392Y3710D01*
X310396Y3729D01*
X310388Y3868D01*
X310383Y4007D01*
X310378Y4027D01*
X310376Y4047D01*
X310334Y4179D01*
X310295Y4313D01*
X310285Y4330D01*
X310278Y4349D01*
X310204Y4467D01*
X310133Y4587D01*
X310115Y4608D01*
X310108Y4618D01*
X310093Y4632D01*
X310027Y4707D01*
X307809Y6925D01*
X306069Y11126D01*
X306069Y15674D01*
X307809Y19875D01*
X311025Y23091D01*
X315226Y24831D01*
X319774Y24831D01*
X323975Y23091D01*
X327191Y19875D01*
X328931Y15674D01*
X328931Y11126D01*
X327191Y6925D01*
X324973Y4707D01*
X324888Y4598D01*
X324799Y4491D01*
X324790Y4472D01*
X324778Y4456D01*
X324723Y4328D01*
X324664Y4203D01*
X324660Y4183D01*
X324652Y4164D01*
X324630Y4026D01*
X324604Y3890D01*
X324605Y3870D01*
X324602Y3850D01*
X324615Y3711D01*
X324624Y3573D01*
X324630Y3554D01*
X324632Y3534D01*
X324679Y3402D01*
X324722Y3271D01*
X324732Y3253D01*
X324739Y3234D01*
X324817Y3119D01*
X324892Y3002D01*
X324906Y2988D01*
X324918Y2971D01*
X325022Y2879D01*
X325123Y2784D01*
X325141Y2774D01*
X325156Y2761D01*
X325280Y2697D01*
X325402Y2630D01*
X325421Y2625D01*
X325439Y2616D01*
X325575Y2586D01*
X325710Y2551D01*
X325738Y2549D01*
X325750Y2546D01*
X325770Y2547D01*
X325870Y2541D01*
X334530Y2541D01*
X334667Y2558D01*
X334806Y2571D01*
X334825Y2578D01*
X334845Y2581D01*
X334974Y2632D01*
X335105Y2679D01*
X335122Y2690D01*
X335141Y2698D01*
X335253Y2779D01*
X335368Y2857D01*
X335382Y2873D01*
X335398Y2884D01*
X335487Y2992D01*
X335579Y3096D01*
X335588Y3114D01*
X335601Y3129D01*
X335660Y3255D01*
X335723Y3379D01*
X335728Y3399D01*
X335736Y3417D01*
X335763Y3553D01*
X335793Y3689D01*
X335792Y3710D01*
X335796Y3729D01*
X335788Y3868D01*
X335783Y4007D01*
X335778Y4027D01*
X335776Y4047D01*
X335734Y4179D01*
X335695Y4313D01*
X335685Y4330D01*
X335678Y4349D01*
X335604Y4467D01*
X335533Y4587D01*
X335515Y4608D01*
X335508Y4618D01*
X335493Y4632D01*
X335427Y4707D01*
X333209Y6925D01*
X331469Y11126D01*
X331469Y15674D01*
X333209Y19875D01*
X336425Y23091D01*
X340626Y24831D01*
X345174Y24831D01*
X349375Y23091D01*
X352591Y19875D01*
X354331Y15674D01*
X354331Y11126D01*
X352591Y6925D01*
X350373Y4707D01*
X350288Y4598D01*
X350199Y4491D01*
X350190Y4472D01*
X350178Y4456D01*
X350123Y4328D01*
X350064Y4203D01*
X350060Y4183D01*
X350052Y4164D01*
X350030Y4026D01*
X350004Y3890D01*
X350005Y3870D01*
X350002Y3850D01*
X350015Y3711D01*
X350024Y3573D01*
X350030Y3554D01*
X350032Y3534D01*
X350079Y3402D01*
X350122Y3271D01*
X350132Y3253D01*
X350139Y3234D01*
X350217Y3119D01*
X350292Y3002D01*
X350306Y2988D01*
X350318Y2971D01*
X350422Y2879D01*
X350523Y2784D01*
X350541Y2774D01*
X350556Y2761D01*
X350680Y2697D01*
X350802Y2630D01*
X350821Y2625D01*
X350839Y2616D01*
X350975Y2586D01*
X351110Y2551D01*
X351138Y2549D01*
X351150Y2546D01*
X351170Y2547D01*
X351270Y2541D01*
X359930Y2541D01*
X360067Y2558D01*
X360206Y2571D01*
X360225Y2578D01*
X360245Y2581D01*
X360374Y2632D01*
X360505Y2679D01*
X360522Y2690D01*
X360541Y2698D01*
X360653Y2779D01*
X360768Y2857D01*
X360782Y2873D01*
X360798Y2884D01*
X360887Y2992D01*
X360979Y3096D01*
X360988Y3114D01*
X361001Y3129D01*
X361060Y3255D01*
X361123Y3379D01*
X361128Y3399D01*
X361136Y3417D01*
X361163Y3553D01*
X361193Y3689D01*
X361192Y3710D01*
X361196Y3729D01*
X361188Y3868D01*
X361183Y4007D01*
X361178Y4027D01*
X361176Y4047D01*
X361134Y4179D01*
X361095Y4313D01*
X361085Y4330D01*
X361078Y4349D01*
X361004Y4467D01*
X360933Y4587D01*
X360915Y4608D01*
X360908Y4618D01*
X360893Y4632D01*
X360827Y4707D01*
X358609Y6925D01*
X356869Y11126D01*
X356869Y15674D01*
X358609Y19875D01*
X361825Y23091D01*
X366026Y24831D01*
X370574Y24831D01*
X374775Y23091D01*
X377991Y19875D01*
X379731Y15674D01*
X379731Y11126D01*
X377991Y6925D01*
X375773Y4707D01*
X375688Y4598D01*
X375599Y4491D01*
X375590Y4472D01*
X375578Y4456D01*
X375523Y4328D01*
X375464Y4203D01*
X375460Y4183D01*
X375452Y4164D01*
X375430Y4026D01*
X375404Y3890D01*
X375405Y3870D01*
X375402Y3850D01*
X375415Y3711D01*
X375424Y3573D01*
X375430Y3554D01*
X375432Y3534D01*
X375479Y3402D01*
X375522Y3271D01*
X375532Y3253D01*
X375539Y3234D01*
X375617Y3119D01*
X375692Y3002D01*
X375706Y2988D01*
X375718Y2971D01*
X375822Y2879D01*
X375923Y2784D01*
X375941Y2774D01*
X375956Y2761D01*
X376080Y2697D01*
X376202Y2630D01*
X376221Y2625D01*
X376239Y2616D01*
X376375Y2586D01*
X376510Y2551D01*
X376538Y2549D01*
X376550Y2546D01*
X376570Y2547D01*
X376670Y2541D01*
X385330Y2541D01*
X385467Y2558D01*
X385606Y2571D01*
X385625Y2578D01*
X385645Y2581D01*
X385774Y2632D01*
X385905Y2679D01*
X385922Y2690D01*
X385941Y2698D01*
X386053Y2779D01*
X386168Y2857D01*
X386182Y2873D01*
X386198Y2884D01*
X386287Y2992D01*
X386379Y3096D01*
X386388Y3114D01*
X386401Y3129D01*
X386460Y3255D01*
X386523Y3379D01*
X386528Y3399D01*
X386536Y3417D01*
X386563Y3553D01*
X386593Y3689D01*
X386592Y3710D01*
X386596Y3729D01*
X386588Y3868D01*
X386583Y4007D01*
X386578Y4027D01*
X386576Y4047D01*
X386534Y4179D01*
X386495Y4313D01*
X386485Y4330D01*
X386478Y4349D01*
X386404Y4467D01*
X386333Y4587D01*
X386315Y4608D01*
X386308Y4618D01*
X386293Y4632D01*
X386227Y4707D01*
X384009Y6925D01*
X382269Y11126D01*
X382269Y15674D01*
X384009Y19875D01*
X387225Y23091D01*
X391426Y24831D01*
X395974Y24831D01*
X400175Y23091D01*
X403391Y19875D01*
X405131Y15674D01*
X405131Y11126D01*
X403391Y6925D01*
X401173Y4707D01*
X401088Y4598D01*
X400999Y4491D01*
X400990Y4472D01*
X400978Y4456D01*
X400923Y4328D01*
X400864Y4203D01*
X400860Y4183D01*
X400852Y4164D01*
X400830Y4026D01*
X400804Y3890D01*
X400805Y3870D01*
X400802Y3850D01*
X400815Y3711D01*
X400824Y3573D01*
X400830Y3554D01*
X400832Y3534D01*
X400879Y3402D01*
X400922Y3271D01*
X400932Y3253D01*
X400939Y3234D01*
X401017Y3119D01*
X401092Y3002D01*
X401106Y2988D01*
X401118Y2971D01*
X401222Y2879D01*
X401323Y2784D01*
X401341Y2774D01*
X401356Y2761D01*
X401480Y2697D01*
X401602Y2630D01*
X401621Y2625D01*
X401639Y2616D01*
X401775Y2586D01*
X401910Y2551D01*
X401938Y2549D01*
X401950Y2546D01*
X401970Y2547D01*
X402070Y2541D01*
X410730Y2541D01*
X410867Y2558D01*
X411006Y2571D01*
X411025Y2578D01*
X411045Y2581D01*
X411174Y2632D01*
X411305Y2679D01*
X411322Y2690D01*
X411341Y2698D01*
X411453Y2779D01*
X411568Y2857D01*
X411582Y2873D01*
X411598Y2884D01*
X411687Y2992D01*
X411779Y3096D01*
X411788Y3114D01*
X411801Y3129D01*
X411860Y3255D01*
X411923Y3379D01*
X411928Y3399D01*
X411936Y3417D01*
X411963Y3553D01*
X411993Y3689D01*
X411992Y3710D01*
X411996Y3729D01*
X411988Y3868D01*
X411983Y4007D01*
X411978Y4027D01*
X411976Y4047D01*
X411934Y4179D01*
X411895Y4313D01*
X411885Y4330D01*
X411878Y4349D01*
X411804Y4467D01*
X411733Y4587D01*
X411715Y4608D01*
X411708Y4618D01*
X411693Y4632D01*
X411627Y4707D01*
X409409Y6925D01*
X407669Y11126D01*
X407669Y15674D01*
X409409Y19875D01*
X412625Y23091D01*
X416826Y24831D01*
X421374Y24831D01*
X425575Y23091D01*
X428791Y19875D01*
X430531Y15674D01*
X430531Y11126D01*
X428791Y6925D01*
X426573Y4707D01*
X426488Y4598D01*
X426399Y4491D01*
X426390Y4472D01*
X426378Y4456D01*
X426323Y4328D01*
X426264Y4203D01*
X426260Y4183D01*
X426252Y4164D01*
X426230Y4026D01*
X426204Y3890D01*
X426205Y3870D01*
X426202Y3850D01*
X426215Y3711D01*
X426224Y3573D01*
X426230Y3554D01*
X426232Y3534D01*
X426279Y3402D01*
X426322Y3271D01*
X426332Y3253D01*
X426339Y3234D01*
X426417Y3119D01*
X426492Y3002D01*
X426506Y2988D01*
X426518Y2971D01*
X426622Y2879D01*
X426723Y2784D01*
X426741Y2774D01*
X426756Y2761D01*
X426880Y2697D01*
X427002Y2630D01*
X427021Y2625D01*
X427039Y2616D01*
X427175Y2586D01*
X427310Y2551D01*
X427338Y2549D01*
X427350Y2546D01*
X427370Y2547D01*
X427470Y2541D01*
X436130Y2541D01*
X436267Y2558D01*
X436406Y2571D01*
X436425Y2578D01*
X436445Y2581D01*
X436574Y2632D01*
X436705Y2679D01*
X436722Y2690D01*
X436741Y2698D01*
X436853Y2779D01*
X436968Y2857D01*
X436982Y2873D01*
X436998Y2884D01*
X437087Y2992D01*
X437179Y3096D01*
X437188Y3114D01*
X437201Y3129D01*
X437260Y3255D01*
X437323Y3379D01*
X437328Y3399D01*
X437336Y3417D01*
X437363Y3553D01*
X437393Y3689D01*
X437392Y3710D01*
X437396Y3729D01*
X437388Y3868D01*
X437383Y4007D01*
X437378Y4027D01*
X437376Y4047D01*
X437334Y4179D01*
X437295Y4313D01*
X437285Y4330D01*
X437278Y4349D01*
X437204Y4467D01*
X437133Y4587D01*
X437115Y4608D01*
X437108Y4618D01*
X437093Y4632D01*
X437027Y4707D01*
X434809Y6925D01*
X433069Y11126D01*
X433069Y15674D01*
X434809Y19875D01*
X438025Y23091D01*
X442226Y24831D01*
X446774Y24831D01*
X450975Y23091D01*
X454191Y19875D01*
X455931Y15674D01*
X455931Y11126D01*
X454191Y6925D01*
X451973Y4707D01*
X451888Y4598D01*
X451799Y4491D01*
X451790Y4472D01*
X451778Y4456D01*
X451723Y4328D01*
X451664Y4203D01*
X451660Y4183D01*
X451652Y4164D01*
X451630Y4026D01*
X451604Y3890D01*
X451605Y3870D01*
X451602Y3850D01*
X451615Y3711D01*
X451624Y3573D01*
X451630Y3554D01*
X451632Y3534D01*
X451679Y3402D01*
X451722Y3271D01*
X451732Y3253D01*
X451739Y3234D01*
X451817Y3119D01*
X451892Y3002D01*
X451906Y2988D01*
X451918Y2971D01*
X452022Y2879D01*
X452123Y2784D01*
X452141Y2774D01*
X452156Y2761D01*
X452280Y2697D01*
X452402Y2630D01*
X452421Y2625D01*
X452439Y2616D01*
X452575Y2586D01*
X452710Y2551D01*
X452738Y2549D01*
X452750Y2546D01*
X452770Y2547D01*
X452870Y2541D01*
X506190Y2541D01*
X506308Y2556D01*
X506427Y2563D01*
X506465Y2576D01*
X506506Y2581D01*
X506616Y2624D01*
X506729Y2661D01*
X506764Y2683D01*
X506801Y2698D01*
X506897Y2767D01*
X506998Y2831D01*
X507026Y2861D01*
X507059Y2884D01*
X507135Y2976D01*
X507216Y3063D01*
X507236Y3098D01*
X507261Y3129D01*
X507312Y3237D01*
X507370Y3341D01*
X507380Y3381D01*
X507397Y3417D01*
X507419Y3534D01*
X507449Y3649D01*
X507453Y3709D01*
X507457Y3729D01*
X507455Y3750D01*
X507459Y3810D01*
X507459Y226190D01*
X507444Y226308D01*
X507437Y226427D01*
X507424Y226465D01*
X507419Y226506D01*
X507376Y226616D01*
X507339Y226729D01*
X507317Y226764D01*
X507302Y226801D01*
X507233Y226897D01*
X507169Y226998D01*
X507139Y227026D01*
X507116Y227059D01*
X507024Y227135D01*
X506937Y227216D01*
X506902Y227236D01*
X506871Y227261D01*
X506763Y227312D01*
X506659Y227370D01*
X506619Y227380D01*
X506583Y227397D01*
X506466Y227419D01*
X506351Y227449D01*
X506291Y227453D01*
X506271Y227457D01*
X506250Y227455D01*
X506190Y227459D01*
X452870Y227459D01*
X452733Y227442D01*
X452594Y227429D01*
X452575Y227422D01*
X452555Y227419D01*
X452426Y227368D01*
X452295Y227321D01*
X452278Y227310D01*
X452259Y227302D01*
X452147Y227221D01*
X452032Y227143D01*
X452018Y227127D01*
X452002Y227116D01*
X451913Y227008D01*
X451821Y226904D01*
X451812Y226886D01*
X451799Y226871D01*
X451740Y226745D01*
X451677Y226621D01*
X451672Y226601D01*
X451664Y226583D01*
X451637Y226447D01*
X451607Y226311D01*
X451608Y226290D01*
X451604Y226271D01*
X451612Y226132D01*
X451617Y225993D01*
X451622Y225973D01*
X451624Y225953D01*
X451666Y225821D01*
X451705Y225687D01*
X451715Y225670D01*
X451722Y225651D01*
X451796Y225533D01*
X451867Y225413D01*
X451885Y225392D01*
X451892Y225382D01*
X451907Y225368D01*
X451973Y225293D01*
X454191Y223075D01*
X455931Y218874D01*
X455931Y214326D01*
X454191Y210125D01*
X450975Y206909D01*
X446774Y205169D01*
X442226Y205169D01*
X438025Y206909D01*
X434809Y210125D01*
X433069Y214326D01*
X433069Y218874D01*
X434809Y223075D01*
X437027Y225293D01*
X437112Y225402D01*
X437201Y225509D01*
X437210Y225528D01*
X437222Y225544D01*
X437277Y225672D01*
X437336Y225797D01*
X437340Y225817D01*
X437348Y225836D01*
X437370Y225974D01*
X437396Y226110D01*
X437395Y226130D01*
X437398Y226150D01*
X437385Y226289D01*
X437376Y226427D01*
X437370Y226446D01*
X437368Y226466D01*
X437321Y226598D01*
X437278Y226729D01*
X437268Y226747D01*
X437261Y226766D01*
X437183Y226881D01*
X437108Y226998D01*
X437094Y227012D01*
X437082Y227029D01*
X436978Y227121D01*
X436877Y227216D01*
X436859Y227226D01*
X436844Y227239D01*
X436720Y227303D01*
X436598Y227370D01*
X436579Y227375D01*
X436561Y227384D01*
X436425Y227414D01*
X436290Y227449D01*
X436262Y227451D01*
X436250Y227454D01*
X436230Y227453D01*
X436130Y227459D01*
X427470Y227459D01*
X427333Y227442D01*
X427194Y227429D01*
X427175Y227422D01*
X427155Y227419D01*
X427026Y227368D01*
X426895Y227321D01*
X426878Y227310D01*
X426859Y227302D01*
X426747Y227221D01*
X426632Y227143D01*
X426618Y227127D01*
X426602Y227116D01*
X426513Y227008D01*
X426421Y226904D01*
X426412Y226886D01*
X426399Y226871D01*
X426340Y226745D01*
X426277Y226621D01*
X426272Y226601D01*
X426264Y226583D01*
X426237Y226447D01*
X426207Y226311D01*
X426208Y226290D01*
X426204Y226271D01*
X426212Y226132D01*
X426217Y225993D01*
X426222Y225973D01*
X426224Y225953D01*
X426266Y225821D01*
X426305Y225687D01*
X426315Y225670D01*
X426322Y225651D01*
X426396Y225533D01*
X426467Y225413D01*
X426485Y225392D01*
X426492Y225382D01*
X426507Y225368D01*
X426573Y225293D01*
X428791Y223075D01*
X430531Y218874D01*
X430531Y214326D01*
X428791Y210125D01*
X425575Y206909D01*
X423574Y206081D01*
X423549Y206066D01*
X423521Y206057D01*
X423411Y205988D01*
X423298Y205923D01*
X423277Y205903D01*
X423252Y205887D01*
X423163Y205792D01*
X423070Y205702D01*
X423054Y205677D01*
X423034Y205655D01*
X422971Y205541D01*
X422903Y205431D01*
X422895Y205403D01*
X422880Y205377D01*
X422848Y205251D01*
X422810Y205127D01*
X422808Y205097D01*
X422801Y205069D01*
X422791Y204908D01*
X422791Y199571D01*
X413865Y190645D01*
X323841Y190645D01*
X323703Y190628D01*
X323564Y190615D01*
X323545Y190608D01*
X323525Y190605D01*
X323396Y190554D01*
X323265Y190507D01*
X323248Y190496D01*
X323229Y190488D01*
X323117Y190407D01*
X323002Y190329D01*
X322988Y190313D01*
X322972Y190302D01*
X322883Y190194D01*
X322791Y190090D01*
X322782Y190072D01*
X322769Y190057D01*
X322710Y189931D01*
X322647Y189807D01*
X322642Y189787D01*
X322634Y189769D01*
X322608Y189632D01*
X322577Y189497D01*
X322578Y189476D01*
X322574Y189457D01*
X322582Y189318D01*
X322587Y189179D01*
X322592Y189159D01*
X322594Y189139D01*
X322636Y189007D01*
X322675Y188873D01*
X322685Y188856D01*
X322692Y188837D01*
X322766Y188719D01*
X322837Y188599D01*
X322855Y188578D01*
X322862Y188568D01*
X322877Y188554D01*
X322943Y188479D01*
X324541Y186881D01*
X324541Y183119D01*
X321881Y180459D01*
X318119Y180459D01*
X315459Y183119D01*
X315459Y186881D01*
X317057Y188479D01*
X317142Y188588D01*
X317231Y188695D01*
X317239Y188714D01*
X317252Y188730D01*
X317307Y188858D01*
X317366Y188983D01*
X317370Y189003D01*
X317378Y189022D01*
X317400Y189160D01*
X317426Y189296D01*
X317425Y189316D01*
X317428Y189336D01*
X317415Y189475D01*
X317406Y189613D01*
X317400Y189632D01*
X317398Y189652D01*
X317351Y189784D01*
X317308Y189915D01*
X317298Y189933D01*
X317291Y189952D01*
X317213Y190067D01*
X317138Y190184D01*
X317123Y190198D01*
X317112Y190215D01*
X317008Y190307D01*
X316907Y190402D01*
X316889Y190412D01*
X316874Y190425D01*
X316750Y190489D01*
X316628Y190556D01*
X316609Y190561D01*
X316590Y190570D01*
X316455Y190600D01*
X316320Y190635D01*
X316292Y190637D01*
X316280Y190640D01*
X316260Y190639D01*
X316159Y190645D01*
X267390Y190645D01*
X267292Y190633D01*
X267193Y190630D01*
X267135Y190613D01*
X267075Y190605D01*
X266983Y190569D01*
X266888Y190541D01*
X266836Y190511D01*
X266779Y190488D01*
X266699Y190430D01*
X266614Y190380D01*
X266539Y190314D01*
X266522Y190302D01*
X266514Y190292D01*
X266493Y190274D01*
X260529Y184309D01*
X253177Y184309D01*
X253039Y184292D01*
X252900Y184279D01*
X252881Y184272D01*
X252861Y184269D01*
X252732Y184218D01*
X252601Y184171D01*
X252584Y184160D01*
X252565Y184152D01*
X252453Y184071D01*
X252338Y183993D01*
X252324Y183977D01*
X252308Y183966D01*
X252219Y183858D01*
X252127Y183754D01*
X252118Y183736D01*
X252105Y183721D01*
X252046Y183595D01*
X251983Y183471D01*
X251978Y183451D01*
X251970Y183433D01*
X251944Y183297D01*
X251913Y183161D01*
X251914Y183140D01*
X251910Y183121D01*
X251918Y182982D01*
X251923Y182843D01*
X251928Y182823D01*
X251930Y182803D01*
X251972Y182671D01*
X252011Y182537D01*
X252021Y182520D01*
X252028Y182501D01*
X252102Y182383D01*
X252173Y182263D01*
X252191Y182242D01*
X252198Y182232D01*
X252213Y182218D01*
X252279Y182143D01*
X254541Y179881D01*
X254541Y176119D01*
X251881Y173459D01*
X248119Y173459D01*
X245459Y176119D01*
X245459Y179881D01*
X248282Y182704D01*
X248355Y182798D01*
X248434Y182887D01*
X248452Y182923D01*
X248477Y182955D01*
X248524Y183064D01*
X248578Y183170D01*
X248587Y183209D01*
X248603Y183247D01*
X248622Y183364D01*
X248648Y183480D01*
X248647Y183521D01*
X248653Y183561D01*
X248642Y183679D01*
X248638Y183798D01*
X248627Y183837D01*
X248623Y183877D01*
X248583Y183990D01*
X248550Y184104D01*
X248529Y184139D01*
X248516Y184177D01*
X248449Y184275D01*
X248388Y184378D01*
X248349Y184423D01*
X248337Y184440D01*
X248322Y184453D01*
X248282Y184499D01*
X242507Y190274D01*
X242429Y190334D01*
X242357Y190402D01*
X242304Y190431D01*
X242256Y190468D01*
X242165Y190508D01*
X242078Y190556D01*
X242020Y190571D01*
X241964Y190595D01*
X241866Y190610D01*
X241770Y190635D01*
X241670Y190641D01*
X241650Y190645D01*
X241637Y190643D01*
X241609Y190645D01*
X236810Y190645D01*
X236692Y190630D01*
X236573Y190623D01*
X236535Y190610D01*
X236494Y190605D01*
X236384Y190562D01*
X236271Y190525D01*
X236236Y190503D01*
X236199Y190488D01*
X236103Y190419D01*
X236002Y190355D01*
X235974Y190325D01*
X235941Y190302D01*
X235865Y190210D01*
X235784Y190123D01*
X235764Y190088D01*
X235739Y190057D01*
X235688Y189949D01*
X235630Y189845D01*
X235620Y189805D01*
X235603Y189769D01*
X235581Y189652D01*
X235551Y189537D01*
X235547Y189477D01*
X235543Y189457D01*
X235545Y189436D01*
X235541Y189376D01*
X235541Y186119D01*
X232881Y183459D01*
X229119Y183459D01*
X226459Y186119D01*
X226459Y189376D01*
X226444Y189494D01*
X226437Y189613D01*
X226424Y189651D01*
X226419Y189692D01*
X226376Y189802D01*
X226339Y189915D01*
X226317Y189950D01*
X226302Y189987D01*
X226233Y190083D01*
X226169Y190184D01*
X226139Y190212D01*
X226116Y190245D01*
X226024Y190321D01*
X225937Y190402D01*
X225902Y190422D01*
X225871Y190447D01*
X225763Y190498D01*
X225659Y190556D01*
X225619Y190566D01*
X225583Y190583D01*
X225466Y190605D01*
X225351Y190635D01*
X225291Y190639D01*
X225271Y190643D01*
X225250Y190641D01*
X225190Y190645D01*
X137643Y190645D01*
X137545Y190633D01*
X137446Y190630D01*
X137388Y190613D01*
X137328Y190605D01*
X137236Y190569D01*
X137141Y190541D01*
X137088Y190511D01*
X137032Y190488D01*
X136952Y190430D01*
X136867Y190380D01*
X136791Y190314D01*
X136775Y190302D01*
X136767Y190292D01*
X136746Y190274D01*
X132394Y185922D01*
X132334Y185844D01*
X132266Y185772D01*
X132237Y185719D01*
X132200Y185671D01*
X132160Y185580D01*
X132112Y185493D01*
X132097Y185435D01*
X132073Y185379D01*
X132058Y185281D01*
X132033Y185185D01*
X132027Y185085D01*
X132023Y185065D01*
X132025Y185053D01*
X132023Y185025D01*
X132023Y161348D01*
X119984Y149309D01*
X110043Y149309D01*
X109944Y149297D01*
X109845Y149294D01*
X109787Y149277D01*
X109727Y149269D01*
X109635Y149233D01*
X109540Y149205D01*
X109488Y149175D01*
X109431Y149152D01*
X109351Y149094D01*
X109266Y149044D01*
X109191Y148978D01*
X109174Y148966D01*
X109166Y148956D01*
X109145Y148938D01*
X108667Y148459D01*
X104905Y148459D01*
X102245Y151119D01*
X102245Y154881D01*
X104905Y157541D01*
X107008Y157541D01*
X107126Y157556D01*
X107245Y157563D01*
X107283Y157576D01*
X107324Y157581D01*
X107434Y157624D01*
X107547Y157661D01*
X107582Y157683D01*
X107619Y157698D01*
X107715Y157767D01*
X107816Y157831D01*
X107844Y157861D01*
X107877Y157884D01*
X107953Y157976D01*
X108034Y158063D01*
X108054Y158098D01*
X108079Y158129D01*
X108130Y158237D01*
X108188Y158341D01*
X108198Y158381D01*
X108215Y158417D01*
X108237Y158534D01*
X108267Y158649D01*
X108271Y158709D01*
X108275Y158729D01*
X108273Y158750D01*
X108277Y158810D01*
X108277Y160881D01*
X110937Y163541D01*
X112190Y163541D01*
X112308Y163556D01*
X112427Y163563D01*
X112465Y163576D01*
X112506Y163581D01*
X112616Y163624D01*
X112729Y163661D01*
X112764Y163683D01*
X112801Y163698D01*
X112897Y163767D01*
X112998Y163831D01*
X113026Y163861D01*
X113059Y163884D01*
X113135Y163976D01*
X113216Y164063D01*
X113236Y164098D01*
X113261Y164129D01*
X113312Y164237D01*
X113370Y164341D01*
X113380Y164381D01*
X113397Y164417D01*
X113419Y164534D01*
X113449Y164649D01*
X113453Y164709D01*
X113457Y164729D01*
X113455Y164750D01*
X113459Y164810D01*
X113459Y167881D01*
X113938Y168359D01*
X113998Y168437D01*
X114066Y168509D01*
X114095Y168562D01*
X114132Y168610D01*
X114172Y168701D01*
X114220Y168788D01*
X114235Y168847D01*
X114259Y168902D01*
X114274Y169000D01*
X114299Y169096D01*
X114305Y169196D01*
X114309Y169216D01*
X114307Y169229D01*
X114309Y169257D01*
X114309Y190529D01*
X130471Y206691D01*
X155780Y206691D01*
X155918Y206708D01*
X156056Y206721D01*
X156075Y206728D01*
X156095Y206731D01*
X156224Y206782D01*
X156355Y206829D01*
X156372Y206840D01*
X156391Y206848D01*
X156503Y206929D01*
X156618Y207007D01*
X156632Y207023D01*
X156648Y207034D01*
X156737Y207142D01*
X156829Y207246D01*
X156838Y207264D01*
X156851Y207279D01*
X156910Y207405D01*
X156973Y207529D01*
X156978Y207549D01*
X156986Y207567D01*
X157013Y207704D01*
X157043Y207839D01*
X157042Y207860D01*
X157046Y207879D01*
X157038Y208018D01*
X157033Y208157D01*
X157028Y208177D01*
X157026Y208197D01*
X156984Y208329D01*
X156945Y208463D01*
X156935Y208480D01*
X156928Y208499D01*
X156854Y208617D01*
X156783Y208737D01*
X156765Y208758D01*
X156758Y208768D01*
X156743Y208782D01*
X156677Y208857D01*
X155409Y210125D01*
X153669Y214326D01*
X153669Y218874D01*
X155409Y223075D01*
X157627Y225293D01*
X157712Y225402D01*
X157801Y225509D01*
X157810Y225528D01*
X157822Y225544D01*
X157877Y225672D01*
X157936Y225797D01*
X157940Y225817D01*
X157948Y225836D01*
X157970Y225974D01*
X157996Y226110D01*
X157995Y226130D01*
X157998Y226150D01*
X157985Y226289D01*
X157976Y226427D01*
X157970Y226446D01*
X157968Y226466D01*
X157921Y226598D01*
X157878Y226729D01*
X157868Y226747D01*
X157861Y226766D01*
X157783Y226881D01*
X157708Y226998D01*
X157694Y227012D01*
X157682Y227029D01*
X157578Y227121D01*
X157477Y227216D01*
X157459Y227226D01*
X157444Y227239D01*
X157320Y227303D01*
X157198Y227370D01*
X157179Y227375D01*
X157161Y227384D01*
X157025Y227414D01*
X156890Y227449D01*
X156862Y227451D01*
X156850Y227454D01*
X156830Y227453D01*
X156730Y227459D01*
X30539Y227459D01*
X30470Y227451D01*
X30400Y227452D01*
X30313Y227431D01*
X30224Y227419D01*
X30159Y227394D01*
X30091Y227377D01*
X30011Y227335D01*
X29928Y227302D01*
X29872Y227261D01*
X29810Y227229D01*
X29743Y227168D01*
X29671Y227116D01*
X29626Y227062D01*
X29574Y227015D01*
X29525Y226940D01*
X29468Y226871D01*
X29438Y226807D01*
X29400Y226749D01*
X29370Y226664D01*
X29332Y226583D01*
X29319Y226514D01*
X29296Y226448D01*
X29289Y226359D01*
X29272Y226271D01*
X29277Y226201D01*
X29271Y226131D01*
X29287Y226043D01*
X29292Y225953D01*
X29314Y225887D01*
X29326Y225818D01*
X29363Y225736D01*
X29390Y225651D01*
X29428Y225592D01*
X29456Y225528D01*
X29512Y225458D01*
X29560Y225382D01*
X29611Y225334D01*
X29655Y225280D01*
X29727Y225225D01*
X29792Y225164D01*
X29853Y225130D01*
X29909Y225088D01*
X30053Y225017D01*
X37460Y221949D01*
X43449Y215960D01*
X46691Y208135D01*
X46691Y199665D01*
X44881Y195296D01*
X44868Y195248D01*
X44847Y195203D01*
X44826Y195095D01*
X44797Y194989D01*
X44796Y194939D01*
X44787Y194890D01*
X44794Y194781D01*
X44792Y194671D01*
X44803Y194623D01*
X44807Y194573D01*
X44840Y194469D01*
X44866Y194362D01*
X44889Y194318D01*
X44905Y194271D01*
X44963Y194178D01*
X45015Y194081D01*
X45048Y194044D01*
X45075Y194002D01*
X45155Y193927D01*
X45229Y193845D01*
X45270Y193818D01*
X45306Y193784D01*
X45402Y193731D01*
X45494Y193671D01*
X45541Y193654D01*
X45585Y193630D01*
X45691Y193603D01*
X45795Y193567D01*
X45845Y193563D01*
X45893Y193551D01*
X46054Y193541D01*
X48102Y193541D01*
X50139Y192697D01*
X51697Y191139D01*
X52541Y189102D01*
X52541Y186898D01*
X51697Y184861D01*
X50139Y183303D01*
X48102Y182459D01*
X45898Y182459D01*
X43861Y183303D01*
X42303Y184861D01*
X41440Y186945D01*
X41429Y187062D01*
X41422Y187081D01*
X41419Y187101D01*
X41368Y187230D01*
X41321Y187361D01*
X41310Y187378D01*
X41302Y187397D01*
X41221Y187509D01*
X41143Y187624D01*
X41127Y187638D01*
X41116Y187654D01*
X41008Y187743D01*
X40904Y187835D01*
X40886Y187844D01*
X40871Y187857D01*
X40745Y187916D01*
X40621Y187979D01*
X40601Y187984D01*
X40583Y187992D01*
X40446Y188018D01*
X40311Y188049D01*
X40290Y188048D01*
X40271Y188052D01*
X40132Y188043D01*
X39993Y188039D01*
X39973Y188034D01*
X39953Y188032D01*
X39821Y187990D01*
X39687Y187951D01*
X39670Y187941D01*
X39651Y187934D01*
X39533Y187860D01*
X39413Y187789D01*
X39392Y187771D01*
X39382Y187764D01*
X39368Y187749D01*
X39293Y187683D01*
X37460Y185851D01*
X29635Y182609D01*
X21165Y182609D01*
X13340Y185851D01*
X7351Y191840D01*
X4983Y197557D01*
X4948Y197617D01*
X4922Y197682D01*
X4870Y197755D01*
X4825Y197833D01*
X4776Y197883D01*
X4736Y197939D01*
X4666Y197997D01*
X4604Y198061D01*
X4544Y198098D01*
X4491Y198142D01*
X4409Y198181D01*
X4333Y198228D01*
X4266Y198248D01*
X4203Y198278D01*
X4115Y198295D01*
X4029Y198321D01*
X3959Y198324D01*
X3890Y198338D01*
X3801Y198332D01*
X3711Y198336D01*
X3643Y198322D01*
X3573Y198318D01*
X3488Y198290D01*
X3400Y198272D01*
X3337Y198241D01*
X3271Y198220D01*
X3195Y198172D01*
X3114Y198132D01*
X3061Y198087D01*
X3002Y198050D01*
X2940Y197984D01*
X2872Y197926D01*
X2832Y197869D01*
X2784Y197818D01*
X2741Y197739D01*
X2689Y197666D01*
X2664Y197601D01*
X2630Y197540D01*
X2608Y197453D01*
X2576Y197368D01*
X2568Y197299D01*
X2551Y197232D01*
X2541Y197071D01*
X2541Y160733D01*
X2558Y160596D01*
X2571Y160457D01*
X2578Y160437D01*
X2581Y160417D01*
X2632Y160289D01*
X2679Y160157D01*
X2690Y160141D01*
X2698Y160122D01*
X2779Y160009D01*
X2857Y159894D01*
X2873Y159881D01*
X2884Y159864D01*
X2992Y159776D01*
X3096Y159684D01*
X3114Y159675D01*
X3129Y159662D01*
X3255Y159602D01*
X3379Y159539D01*
X3399Y159535D01*
X3417Y159526D01*
X3553Y159500D01*
X3689Y159469D01*
X3710Y159470D01*
X3729Y159466D01*
X3868Y159475D01*
X4007Y159479D01*
X4027Y159485D01*
X4047Y159486D01*
X4179Y159529D01*
X4313Y159568D01*
X4330Y159578D01*
X4349Y159584D01*
X4467Y159659D01*
X4587Y159729D01*
X4608Y159748D01*
X4618Y159754D01*
X4632Y159769D01*
X4707Y159835D01*
X6688Y161816D01*
X11757Y163916D01*
X17243Y163916D01*
X22312Y161816D01*
X26191Y157937D01*
X28291Y152868D01*
X28291Y147382D01*
X26191Y142313D01*
X22312Y138434D01*
X20145Y137536D01*
X20102Y137512D01*
X20055Y137495D01*
X19964Y137433D01*
X19869Y137379D01*
X19833Y137344D01*
X19792Y137316D01*
X19720Y137234D01*
X19641Y137158D01*
X19615Y137115D01*
X19582Y137078D01*
X19532Y136980D01*
X19474Y136886D01*
X19460Y136839D01*
X19437Y136795D01*
X19413Y136687D01*
X19381Y136582D01*
X19378Y136533D01*
X19367Y136484D01*
X19371Y136374D01*
X19366Y136265D01*
X19376Y136216D01*
X19377Y136167D01*
X19408Y136061D01*
X19430Y135953D01*
X19452Y135909D01*
X19466Y135861D01*
X19521Y135767D01*
X19570Y135668D01*
X19602Y135630D01*
X19627Y135587D01*
X19733Y135466D01*
X22512Y132688D01*
X24041Y128997D01*
X24041Y125003D01*
X22512Y121312D01*
X19688Y118488D01*
X15997Y116959D01*
X12003Y116959D01*
X8312Y118488D01*
X5488Y121312D01*
X4983Y122532D01*
X4948Y122593D01*
X4922Y122658D01*
X4870Y122730D01*
X4825Y122808D01*
X4777Y122859D01*
X4736Y122915D01*
X4666Y122972D01*
X4604Y123037D01*
X4544Y123073D01*
X4491Y123118D01*
X4409Y123156D01*
X4333Y123203D01*
X4266Y123224D01*
X4203Y123253D01*
X4115Y123270D01*
X4029Y123297D01*
X3959Y123300D01*
X3890Y123313D01*
X3801Y123308D01*
X3711Y123312D01*
X3643Y123298D01*
X3573Y123293D01*
X3488Y123266D01*
X3400Y123248D01*
X3337Y123217D01*
X3271Y123195D01*
X3195Y123147D01*
X3114Y123108D01*
X3061Y123063D01*
X3002Y123025D01*
X2940Y122960D01*
X2872Y122902D01*
X2832Y122845D01*
X2784Y122794D01*
X2741Y122715D01*
X2689Y122642D01*
X2664Y122576D01*
X2630Y122515D01*
X2608Y122428D01*
X2576Y122344D01*
X2568Y122275D01*
X2551Y122207D01*
X2541Y122047D01*
X2541Y107953D01*
X2549Y107884D01*
X2548Y107814D01*
X2569Y107727D01*
X2581Y107638D01*
X2606Y107573D01*
X2623Y107505D01*
X2665Y107426D01*
X2698Y107342D01*
X2739Y107286D01*
X2771Y107224D01*
X2832Y107158D01*
X2884Y107085D01*
X2938Y107040D01*
X2985Y106989D01*
X3060Y106939D01*
X3129Y106882D01*
X3193Y106852D01*
X3251Y106814D01*
X3336Y106785D01*
X3417Y106747D01*
X3486Y106733D01*
X3552Y106711D01*
X3641Y106704D01*
X3729Y106687D01*
X3799Y106691D01*
X3869Y106686D01*
X3957Y106701D01*
X4047Y106707D01*
X4113Y106728D01*
X4182Y106740D01*
X4264Y106777D01*
X4349Y106805D01*
X4408Y106842D01*
X4472Y106871D01*
X4542Y106927D01*
X4618Y106975D01*
X4666Y107026D01*
X4720Y107069D01*
X4775Y107141D01*
X4836Y107206D01*
X4870Y107267D01*
X4912Y107323D01*
X4983Y107468D01*
X5488Y108688D01*
X8312Y111512D01*
X12003Y113041D01*
X15997Y113041D01*
X19688Y111512D01*
X22512Y108688D01*
X24041Y104997D01*
X24041Y101003D01*
X22512Y97312D01*
X19733Y94534D01*
X19703Y94494D01*
X19666Y94461D01*
X19606Y94369D01*
X19539Y94282D01*
X19519Y94237D01*
X19492Y94195D01*
X19456Y94092D01*
X19412Y93991D01*
X19404Y93942D01*
X19388Y93895D01*
X19380Y93785D01*
X19362Y93677D01*
X19367Y93627D01*
X19363Y93578D01*
X19382Y93469D01*
X19392Y93360D01*
X19409Y93313D01*
X19417Y93264D01*
X19463Y93164D01*
X19500Y93061D01*
X19528Y93019D01*
X19548Y92974D01*
X19617Y92888D01*
X19678Y92798D01*
X19716Y92765D01*
X19747Y92726D01*
X19834Y92660D01*
X19917Y92587D01*
X19961Y92564D01*
X20001Y92535D01*
X20145Y92464D01*
X22312Y91566D01*
X26191Y87687D01*
X28291Y82618D01*
X28291Y77132D01*
X26191Y72063D01*
X22312Y68184D01*
X17243Y66084D01*
X11757Y66084D01*
X6688Y68184D01*
X4707Y70165D01*
X4598Y70250D01*
X4491Y70338D01*
X4472Y70347D01*
X4456Y70359D01*
X4328Y70415D01*
X4203Y70474D01*
X4183Y70478D01*
X4164Y70486D01*
X4026Y70508D01*
X3890Y70534D01*
X3870Y70532D01*
X3850Y70536D01*
X3711Y70523D01*
X3573Y70514D01*
X3554Y70508D01*
X3534Y70506D01*
X3402Y70459D01*
X3271Y70416D01*
X3253Y70405D01*
X3234Y70398D01*
X3119Y70320D01*
X3002Y70246D01*
X2988Y70231D01*
X2971Y70220D01*
X2879Y70115D01*
X2784Y70014D01*
X2774Y69996D01*
X2761Y69981D01*
X2697Y69857D01*
X2630Y69736D01*
X2625Y69716D01*
X2616Y69698D01*
X2586Y69562D01*
X2551Y69428D01*
X2549Y69400D01*
X2546Y69388D01*
X2547Y69367D01*
X2541Y69267D01*
X2541Y32929D01*
X2549Y32860D01*
X2548Y32790D01*
X2569Y32703D01*
X2581Y32614D01*
X2606Y32549D01*
X2623Y32481D01*
X2665Y32401D01*
X2698Y32318D01*
X2739Y32261D01*
X2771Y32200D01*
X2832Y32133D01*
X2884Y32061D01*
X2938Y32016D01*
X2985Y31964D01*
X3060Y31915D01*
X3129Y31858D01*
X3193Y31828D01*
X3251Y31790D01*
X3336Y31760D01*
X3417Y31722D01*
X3486Y31709D01*
X3552Y31686D01*
X3641Y31679D01*
X3729Y31662D01*
X3799Y31667D01*
X3869Y31661D01*
X3957Y31677D01*
X4047Y31682D01*
X4113Y31704D01*
X4182Y31716D01*
X4264Y31753D01*
X4349Y31780D01*
X4408Y31818D01*
X4472Y31846D01*
X4542Y31902D01*
X4618Y31950D01*
X4666Y32001D01*
X4720Y32045D01*
X4775Y32117D01*
X4836Y32182D01*
X4870Y32243D01*
X4912Y32299D01*
X4983Y32443D01*
X7351Y38160D01*
X13340Y44149D01*
X21165Y47391D01*
X29635Y47391D01*
X37460Y44149D01*
X43449Y38160D01*
X46691Y30335D01*
X46691Y21865D01*
X43449Y14040D01*
X37460Y8051D01*
X30053Y4983D01*
X29993Y4948D01*
X29928Y4922D01*
X29855Y4870D01*
X29777Y4825D01*
X29727Y4776D01*
X29671Y4736D01*
X29613Y4666D01*
X29549Y4604D01*
X29512Y4544D01*
X29468Y4491D01*
X29429Y4409D01*
X29383Y4333D01*
X29362Y4266D01*
X29332Y4203D01*
X29315Y4115D01*
X29289Y4029D01*
X29286Y3959D01*
X29272Y3890D01*
X29278Y3801D01*
X29274Y3711D01*
X29288Y3643D01*
X29292Y3573D01*
X29320Y3488D01*
X29338Y3400D01*
X29369Y3337D01*
X29390Y3271D01*
X29438Y3195D01*
X29478Y3114D01*
X29523Y3061D01*
X29560Y3002D01*
X29626Y2940D01*
X29684Y2872D01*
X29741Y2832D01*
X29792Y2784D01*
X29871Y2741D01*
X29944Y2689D01*
X30009Y2664D01*
X30071Y2630D01*
X30157Y2608D01*
X30242Y2576D01*
X30311Y2568D01*
X30378Y2551D01*
X30539Y2541D01*
X157612Y2541D01*
X157691Y2551D01*
G37*
%LPC*%
G36*
X479608Y188859D02*
X479608Y188859D01*
X474080Y191149D01*
X469849Y195380D01*
X467559Y200908D01*
X467559Y206892D01*
X469849Y212420D01*
X474080Y216651D01*
X479608Y218941D01*
X485592Y218941D01*
X491120Y216651D01*
X495351Y212420D01*
X497641Y206892D01*
X497641Y200908D01*
X495351Y195380D01*
X491120Y191149D01*
X485592Y188859D01*
X479608Y188859D01*
G37*
%LPD*%
%LPC*%
G36*
X479608Y11059D02*
X479608Y11059D01*
X474080Y13349D01*
X469849Y17580D01*
X467559Y23108D01*
X467559Y29092D01*
X469849Y34620D01*
X474080Y38851D01*
X479608Y41141D01*
X485592Y41141D01*
X491120Y38851D01*
X495351Y34620D01*
X497641Y29092D01*
X497641Y23108D01*
X495351Y17580D01*
X491120Y13349D01*
X485592Y11059D01*
X479608Y11059D01*
G37*
%LPD*%
%LPC*%
G36*
X88212Y201509D02*
X88212Y201509D01*
X84907Y202878D01*
X82378Y205407D01*
X81009Y208712D01*
X81009Y212288D01*
X82378Y215593D01*
X84907Y218122D01*
X88212Y219491D01*
X91788Y219491D01*
X95093Y218122D01*
X97622Y215593D01*
X98827Y212683D01*
X98896Y212562D01*
X98961Y212439D01*
X98975Y212424D01*
X98985Y212406D01*
X99082Y212307D01*
X99175Y212204D01*
X99192Y212193D01*
X99206Y212178D01*
X99324Y212106D01*
X99441Y212029D01*
X99460Y212022D01*
X99477Y212012D01*
X99610Y211971D01*
X99742Y211926D01*
X99762Y211924D01*
X99781Y211918D01*
X99920Y211912D01*
X100059Y211901D01*
X100079Y211904D01*
X100099Y211903D01*
X100235Y211931D01*
X100372Y211955D01*
X100390Y211963D01*
X100410Y211967D01*
X100536Y212029D01*
X100662Y212086D01*
X100678Y212098D01*
X100696Y212107D01*
X100802Y212198D01*
X100910Y212284D01*
X100923Y212300D01*
X100938Y212313D01*
X101018Y212427D01*
X101102Y212538D01*
X101114Y212563D01*
X101121Y212573D01*
X101128Y212593D01*
X101173Y212683D01*
X102378Y215593D01*
X104907Y218122D01*
X108212Y219491D01*
X111788Y219491D01*
X115093Y218122D01*
X117622Y215593D01*
X118991Y212288D01*
X118991Y208712D01*
X117622Y205407D01*
X115093Y202878D01*
X111788Y201509D01*
X108212Y201509D01*
X104907Y202878D01*
X102378Y205407D01*
X101173Y208317D01*
X101104Y208438D01*
X101039Y208561D01*
X101025Y208576D01*
X101015Y208594D01*
X100918Y208693D01*
X100825Y208796D01*
X100808Y208807D01*
X100794Y208822D01*
X100675Y208895D01*
X100559Y208971D01*
X100540Y208978D01*
X100523Y208988D01*
X100390Y209029D01*
X100258Y209074D01*
X100238Y209076D01*
X100219Y209082D01*
X100080Y209088D01*
X99941Y209099D01*
X99921Y209096D01*
X99901Y209097D01*
X99765Y209069D01*
X99628Y209045D01*
X99609Y209037D01*
X99590Y209033D01*
X99464Y208971D01*
X99338Y208914D01*
X99322Y208902D01*
X99304Y208893D01*
X99198Y208803D01*
X99090Y208716D01*
X99077Y208700D01*
X99062Y208687D01*
X98982Y208573D01*
X98898Y208462D01*
X98886Y208437D01*
X98879Y208427D01*
X98872Y208407D01*
X98827Y208317D01*
X97622Y205407D01*
X95093Y202878D01*
X91788Y201509D01*
X88212Y201509D01*
G37*
%LPD*%
%LPC*%
G36*
X42727Y81834D02*
X42727Y81834D01*
X39450Y83192D01*
X36942Y85700D01*
X35584Y88977D01*
X35584Y92523D01*
X36942Y95800D01*
X39450Y98308D01*
X42727Y99666D01*
X46273Y99666D01*
X47904Y98990D01*
X48038Y98954D01*
X48171Y98913D01*
X48191Y98912D01*
X48211Y98906D01*
X48350Y98904D01*
X48489Y98898D01*
X48509Y98902D01*
X48529Y98901D01*
X48665Y98934D01*
X48800Y98962D01*
X48818Y98971D01*
X48838Y98975D01*
X48961Y99040D01*
X49086Y99102D01*
X49101Y99115D01*
X49119Y99124D01*
X49222Y99217D01*
X49328Y99308D01*
X49340Y99325D01*
X49355Y99338D01*
X49431Y99454D01*
X49511Y99568D01*
X49518Y99587D01*
X49529Y99604D01*
X49575Y99736D01*
X49624Y99865D01*
X49626Y99885D01*
X49633Y99905D01*
X49644Y100043D01*
X49659Y100181D01*
X49656Y100201D01*
X49658Y100222D01*
X49634Y100359D01*
X49615Y100496D01*
X49605Y100523D01*
X49603Y100535D01*
X49595Y100554D01*
X49563Y100649D01*
X49459Y100898D01*
X49459Y103102D01*
X50303Y105139D01*
X51861Y106697D01*
X53898Y107541D01*
X56102Y107541D01*
X58139Y106697D01*
X59697Y105139D01*
X60541Y103102D01*
X60541Y100898D01*
X59697Y98861D01*
X58139Y97303D01*
X56102Y96459D01*
X53685Y96459D01*
X53636Y96453D01*
X53586Y96455D01*
X53479Y96433D01*
X53369Y96419D01*
X53323Y96401D01*
X53275Y96391D01*
X53176Y96343D01*
X53074Y96302D01*
X53034Y96273D01*
X52989Y96251D01*
X52905Y96180D01*
X52816Y96116D01*
X52785Y96077D01*
X52747Y96045D01*
X52684Y95955D01*
X52614Y95871D01*
X52592Y95826D01*
X52564Y95785D01*
X52525Y95682D01*
X52478Y95583D01*
X52469Y95534D01*
X52451Y95488D01*
X52439Y95378D01*
X52418Y95271D01*
X52421Y95221D01*
X52416Y95172D01*
X52431Y95063D01*
X52438Y94953D01*
X52453Y94906D01*
X52460Y94857D01*
X52512Y94704D01*
X53416Y92523D01*
X53416Y88977D01*
X52058Y85700D01*
X49550Y83192D01*
X46273Y81834D01*
X42727Y81834D01*
G37*
%LPD*%
%LPC*%
G36*
X42727Y130334D02*
X42727Y130334D01*
X39450Y131692D01*
X36942Y134200D01*
X35584Y137477D01*
X35584Y141023D01*
X36942Y144300D01*
X39450Y146808D01*
X42727Y148166D01*
X46273Y148166D01*
X49550Y146808D01*
X52058Y144300D01*
X53416Y141023D01*
X53416Y137477D01*
X52058Y134200D01*
X49550Y131692D01*
X46273Y130334D01*
X42727Y130334D01*
G37*
%LPD*%
%LPC*%
G36*
X244119Y113261D02*
X244119Y113261D01*
X241459Y115921D01*
X241459Y119683D01*
X244119Y122343D01*
X244190Y122343D01*
X244308Y122358D01*
X244427Y122365D01*
X244465Y122378D01*
X244506Y122383D01*
X244616Y122426D01*
X244729Y122463D01*
X244764Y122485D01*
X244801Y122500D01*
X244897Y122569D01*
X244998Y122633D01*
X245026Y122663D01*
X245059Y122686D01*
X245135Y122778D01*
X245216Y122865D01*
X245236Y122900D01*
X245261Y122931D01*
X245312Y123039D01*
X245370Y123143D01*
X245380Y123183D01*
X245397Y123219D01*
X245419Y123336D01*
X245449Y123451D01*
X245453Y123511D01*
X245457Y123531D01*
X245455Y123552D01*
X245459Y123612D01*
X245459Y125881D01*
X248119Y128541D01*
X248190Y128541D01*
X248308Y128556D01*
X248427Y128563D01*
X248465Y128576D01*
X248506Y128581D01*
X248616Y128624D01*
X248729Y128661D01*
X248764Y128683D01*
X248801Y128698D01*
X248897Y128767D01*
X248998Y128831D01*
X249026Y128861D01*
X249059Y128884D01*
X249135Y128976D01*
X249216Y129063D01*
X249236Y129098D01*
X249261Y129129D01*
X249312Y129237D01*
X249370Y129341D01*
X249380Y129381D01*
X249397Y129417D01*
X249419Y129534D01*
X249449Y129649D01*
X249453Y129709D01*
X249457Y129729D01*
X249455Y129750D01*
X249459Y129810D01*
X249459Y131881D01*
X252119Y134541D01*
X253190Y134541D01*
X253308Y134556D01*
X253427Y134563D01*
X253465Y134576D01*
X253506Y134581D01*
X253616Y134624D01*
X253729Y134661D01*
X253764Y134683D01*
X253801Y134698D01*
X253897Y134767D01*
X253998Y134831D01*
X254026Y134861D01*
X254059Y134884D01*
X254135Y134976D01*
X254216Y135063D01*
X254236Y135098D01*
X254261Y135129D01*
X254312Y135237D01*
X254370Y135341D01*
X254380Y135381D01*
X254397Y135417D01*
X254419Y135534D01*
X254449Y135649D01*
X254453Y135709D01*
X254457Y135729D01*
X254457Y135731D01*
X254456Y135751D01*
X254459Y135810D01*
X254459Y137063D01*
X257119Y139723D01*
X260881Y139723D01*
X263541Y137063D01*
X263541Y133301D01*
X260881Y130641D01*
X259810Y130641D01*
X259692Y130626D01*
X259573Y130619D01*
X259535Y130606D01*
X259494Y130601D01*
X259384Y130558D01*
X259271Y130521D01*
X259236Y130499D01*
X259199Y130484D01*
X259103Y130415D01*
X259002Y130351D01*
X258974Y130321D01*
X258941Y130298D01*
X258865Y130206D01*
X258784Y130119D01*
X258764Y130084D01*
X258739Y130053D01*
X258688Y129945D01*
X258630Y129841D01*
X258620Y129801D01*
X258603Y129765D01*
X258581Y129648D01*
X258551Y129533D01*
X258547Y129473D01*
X258543Y129453D01*
X258545Y129432D01*
X258541Y129372D01*
X258541Y128119D01*
X255881Y125459D01*
X255810Y125459D01*
X255692Y125444D01*
X255573Y125437D01*
X255535Y125424D01*
X255494Y125419D01*
X255384Y125376D01*
X255271Y125339D01*
X255236Y125317D01*
X255199Y125302D01*
X255103Y125233D01*
X255002Y125169D01*
X254974Y125139D01*
X254941Y125116D01*
X254865Y125024D01*
X254784Y124937D01*
X254764Y124902D01*
X254739Y124871D01*
X254688Y124763D01*
X254630Y124659D01*
X254620Y124619D01*
X254603Y124583D01*
X254581Y124466D01*
X254551Y124351D01*
X254547Y124291D01*
X254543Y124271D01*
X254545Y124250D01*
X254541Y124190D01*
X254541Y122119D01*
X251881Y119459D01*
X251810Y119459D01*
X251692Y119444D01*
X251573Y119437D01*
X251535Y119424D01*
X251494Y119419D01*
X251384Y119376D01*
X251271Y119339D01*
X251236Y119317D01*
X251199Y119302D01*
X251103Y119233D01*
X251002Y119169D01*
X250974Y119139D01*
X250941Y119116D01*
X250865Y119024D01*
X250784Y118937D01*
X250764Y118902D01*
X250739Y118871D01*
X250688Y118763D01*
X250630Y118659D01*
X250620Y118619D01*
X250603Y118583D01*
X250581Y118466D01*
X250551Y118351D01*
X250547Y118291D01*
X250543Y118271D01*
X250545Y118250D01*
X250541Y118190D01*
X250541Y115921D01*
X247881Y113261D01*
X244119Y113261D01*
G37*
%LPD*%
%LPC*%
G36*
X192119Y91459D02*
X192119Y91459D01*
X189459Y94119D01*
X189459Y97881D01*
X189697Y98119D01*
X189770Y98213D01*
X189849Y98302D01*
X189867Y98338D01*
X189892Y98370D01*
X189939Y98479D01*
X189993Y98585D01*
X190002Y98625D01*
X190018Y98662D01*
X190037Y98779D01*
X190063Y98895D01*
X190062Y98936D01*
X190068Y98976D01*
X190057Y99095D01*
X190053Y99213D01*
X190042Y99252D01*
X190038Y99292D01*
X189998Y99405D01*
X189965Y99519D01*
X189944Y99554D01*
X189931Y99592D01*
X189864Y99690D01*
X189803Y99793D01*
X189764Y99838D01*
X189752Y99855D01*
X189737Y99868D01*
X189697Y99914D01*
X189459Y100151D01*
X189459Y103913D01*
X189697Y104150D01*
X189770Y104245D01*
X189849Y104334D01*
X189867Y104370D01*
X189892Y104402D01*
X189939Y104511D01*
X189993Y104617D01*
X190002Y104656D01*
X190018Y104694D01*
X190037Y104811D01*
X190063Y104927D01*
X190062Y104968D01*
X190068Y105008D01*
X190057Y105126D01*
X190053Y105245D01*
X190042Y105284D01*
X190038Y105324D01*
X189998Y105436D01*
X189965Y105551D01*
X189944Y105586D01*
X189931Y105624D01*
X189864Y105722D01*
X189803Y105825D01*
X189763Y105870D01*
X189752Y105887D01*
X189737Y105900D01*
X189697Y105945D01*
X189459Y106183D01*
X189459Y109945D01*
X192119Y112605D01*
X195881Y112605D01*
X198541Y109945D01*
X198541Y106183D01*
X198303Y105945D01*
X198230Y105851D01*
X198151Y105762D01*
X198133Y105726D01*
X198108Y105694D01*
X198061Y105585D01*
X198007Y105479D01*
X197998Y105439D01*
X197982Y105402D01*
X197963Y105285D01*
X197937Y105169D01*
X197938Y105128D01*
X197932Y105088D01*
X197943Y104969D01*
X197947Y104851D01*
X197958Y104812D01*
X197962Y104772D01*
X198002Y104659D01*
X198035Y104545D01*
X198056Y104510D01*
X198069Y104472D01*
X198136Y104374D01*
X198197Y104271D01*
X198236Y104226D01*
X198248Y104209D01*
X198263Y104196D01*
X198303Y104150D01*
X198541Y103913D01*
X198541Y100151D01*
X198303Y99914D01*
X198230Y99819D01*
X198151Y99730D01*
X198133Y99694D01*
X198108Y99662D01*
X198061Y99553D01*
X198007Y99447D01*
X197998Y99408D01*
X197982Y99370D01*
X197963Y99253D01*
X197937Y99137D01*
X197938Y99096D01*
X197932Y99056D01*
X197943Y98938D01*
X197947Y98819D01*
X197958Y98780D01*
X197962Y98740D01*
X198002Y98628D01*
X198035Y98513D01*
X198056Y98478D01*
X198069Y98440D01*
X198136Y98342D01*
X198197Y98239D01*
X198231Y98200D01*
X198234Y98196D01*
X198238Y98192D01*
X198248Y98177D01*
X198263Y98164D01*
X198303Y98119D01*
X198541Y97881D01*
X198541Y94119D01*
X195881Y91459D01*
X192119Y91459D01*
G37*
%LPD*%
%LPC*%
G36*
X187500Y176269D02*
X187500Y176269D01*
X183698Y176269D01*
X183772Y176544D01*
X184299Y177456D01*
X184313Y177471D01*
X184386Y177565D01*
X184465Y177654D01*
X184483Y177690D01*
X184508Y177722D01*
X184555Y177831D01*
X184609Y177937D01*
X184618Y177977D01*
X184634Y178014D01*
X184653Y178131D01*
X184679Y178248D01*
X184678Y178288D01*
X184684Y178328D01*
X184673Y178446D01*
X184669Y178565D01*
X184658Y178604D01*
X184654Y178644D01*
X184614Y178757D01*
X184581Y178871D01*
X184560Y178906D01*
X184547Y178944D01*
X184480Y179042D01*
X184419Y179145D01*
X184380Y179190D01*
X184368Y179207D01*
X184353Y179220D01*
X184313Y179266D01*
X183459Y180119D01*
X183459Y183881D01*
X186119Y186541D01*
X189881Y186541D01*
X192560Y183862D01*
X192563Y183807D01*
X192567Y183794D01*
X192571Y183750D01*
X192578Y183731D01*
X192581Y183711D01*
X192632Y183582D01*
X192679Y183451D01*
X192690Y183434D01*
X192698Y183415D01*
X192780Y183302D01*
X192857Y183188D01*
X192873Y183174D01*
X192884Y183158D01*
X192992Y183069D01*
X193096Y182977D01*
X193114Y182968D01*
X193129Y182955D01*
X193255Y182896D01*
X193379Y182833D01*
X193399Y182828D01*
X193417Y182820D01*
X193553Y182794D01*
X193689Y182763D01*
X193710Y182764D01*
X193729Y182760D01*
X193868Y182768D01*
X194007Y182773D01*
X194027Y182778D01*
X194047Y182780D01*
X194179Y182822D01*
X194313Y182861D01*
X194330Y182871D01*
X194349Y182878D01*
X194427Y182927D01*
X194438Y182931D01*
X194467Y182952D01*
X194587Y183023D01*
X194608Y183041D01*
X194618Y183048D01*
X194632Y183063D01*
X194692Y183115D01*
X194696Y183118D01*
X194697Y183120D01*
X194707Y183129D01*
X197119Y185541D01*
X200881Y185541D01*
X203541Y182881D01*
X203541Y179119D01*
X200881Y176459D01*
X197119Y176459D01*
X194441Y179137D01*
X194437Y179203D01*
X194432Y179220D01*
X194429Y179250D01*
X194422Y179269D01*
X194419Y179289D01*
X194368Y179418D01*
X194359Y179445D01*
X194339Y179506D01*
X194334Y179514D01*
X194321Y179549D01*
X194310Y179566D01*
X194302Y179585D01*
X194221Y179697D01*
X194177Y179762D01*
X194169Y179775D01*
X194167Y179776D01*
X194143Y179812D01*
X194127Y179826D01*
X194116Y179842D01*
X194008Y179931D01*
X193904Y180023D01*
X193886Y180032D01*
X193871Y180045D01*
X193745Y180104D01*
X193621Y180167D01*
X193601Y180172D01*
X193583Y180180D01*
X193446Y180206D01*
X193311Y180237D01*
X193290Y180236D01*
X193271Y180240D01*
X193195Y180235D01*
X193190Y180236D01*
X193183Y180236D01*
X193167Y180234D01*
X193132Y180232D01*
X192993Y180227D01*
X192973Y180222D01*
X192953Y180220D01*
X192884Y180198D01*
X192867Y180196D01*
X192823Y180178D01*
X192821Y180178D01*
X192687Y180139D01*
X192670Y180129D01*
X192651Y180122D01*
X192599Y180089D01*
X192572Y180079D01*
X192513Y180036D01*
X192413Y179977D01*
X192392Y179959D01*
X192382Y179952D01*
X192368Y179937D01*
X192326Y179900D01*
X192314Y179892D01*
X192309Y179886D01*
X192293Y179871D01*
X191089Y178667D01*
X191020Y178579D01*
X190945Y178495D01*
X190923Y178453D01*
X190894Y178416D01*
X190849Y178313D01*
X190797Y178213D01*
X190786Y178167D01*
X190767Y178124D01*
X190750Y178013D01*
X190724Y177904D01*
X190725Y177857D01*
X190718Y177810D01*
X190728Y177698D01*
X190730Y177586D01*
X190743Y177540D01*
X190747Y177493D01*
X190785Y177387D01*
X190816Y177279D01*
X190848Y177214D01*
X190855Y177194D01*
X190865Y177179D01*
X190887Y177135D01*
X191228Y176544D01*
X191302Y176269D01*
X187500Y176269D01*
X187500Y176269D01*
G37*
%LPD*%
%LPC*%
G36*
X368119Y50459D02*
X368119Y50459D01*
X365459Y53119D01*
X365459Y56881D01*
X367681Y59102D01*
X367754Y59197D01*
X367833Y59286D01*
X367851Y59322D01*
X367876Y59354D01*
X367923Y59463D01*
X367977Y59569D01*
X367986Y59608D01*
X368002Y59646D01*
X368021Y59763D01*
X368047Y59879D01*
X368046Y59920D01*
X368052Y59960D01*
X368041Y60078D01*
X368037Y60197D01*
X368026Y60236D01*
X368022Y60276D01*
X367982Y60389D01*
X367949Y60503D01*
X367928Y60537D01*
X367915Y60576D01*
X367848Y60674D01*
X367787Y60777D01*
X367747Y60822D01*
X367736Y60839D01*
X367721Y60852D01*
X367681Y60897D01*
X365459Y63119D01*
X365459Y66881D01*
X368119Y69541D01*
X371881Y69541D01*
X374541Y66881D01*
X374541Y63119D01*
X372319Y60897D01*
X372246Y60803D01*
X372167Y60714D01*
X372149Y60678D01*
X372124Y60646D01*
X372077Y60537D01*
X372023Y60431D01*
X372014Y60392D01*
X371998Y60354D01*
X371979Y60237D01*
X371953Y60121D01*
X371954Y60080D01*
X371948Y60040D01*
X371959Y59922D01*
X371963Y59803D01*
X371974Y59764D01*
X371978Y59724D01*
X372018Y59612D01*
X372051Y59497D01*
X372072Y59462D01*
X372085Y59424D01*
X372152Y59326D01*
X372213Y59223D01*
X372252Y59178D01*
X372264Y59161D01*
X372279Y59148D01*
X372319Y59102D01*
X374541Y56881D01*
X374541Y53119D01*
X371881Y50459D01*
X368119Y50459D01*
G37*
%LPD*%
%LPC*%
G36*
X393119Y50459D02*
X393119Y50459D01*
X390459Y53119D01*
X390459Y56881D01*
X392681Y59103D01*
X392754Y59197D01*
X392833Y59286D01*
X392851Y59322D01*
X392876Y59354D01*
X392923Y59463D01*
X392977Y59569D01*
X392986Y59608D01*
X393002Y59646D01*
X393021Y59763D01*
X393047Y59879D01*
X393046Y59920D01*
X393052Y59960D01*
X393041Y60078D01*
X393037Y60197D01*
X393026Y60236D01*
X393022Y60276D01*
X392982Y60388D01*
X392949Y60503D01*
X392928Y60538D01*
X392915Y60576D01*
X392848Y60674D01*
X392787Y60777D01*
X392748Y60822D01*
X392736Y60839D01*
X392721Y60852D01*
X392681Y60898D01*
X390459Y63119D01*
X390459Y66881D01*
X393119Y69541D01*
X396881Y69541D01*
X399541Y66881D01*
X399541Y63119D01*
X397319Y60898D01*
X397246Y60803D01*
X397167Y60714D01*
X397149Y60678D01*
X397124Y60646D01*
X397077Y60537D01*
X397023Y60431D01*
X397014Y60392D01*
X396998Y60354D01*
X396979Y60237D01*
X396953Y60121D01*
X396954Y60080D01*
X396948Y60040D01*
X396959Y59922D01*
X396963Y59803D01*
X396974Y59764D01*
X396978Y59724D01*
X397018Y59611D01*
X397051Y59497D01*
X397072Y59463D01*
X397085Y59424D01*
X397152Y59326D01*
X397213Y59223D01*
X397253Y59178D01*
X397264Y59161D01*
X397279Y59148D01*
X397319Y59103D01*
X399541Y56881D01*
X399541Y53119D01*
X396881Y50459D01*
X393119Y50459D01*
G37*
%LPD*%
%LPC*%
G36*
X184119Y112459D02*
X184119Y112459D01*
X181459Y115119D01*
X181459Y118881D01*
X184119Y121541D01*
X185190Y121541D01*
X185308Y121556D01*
X185427Y121563D01*
X185465Y121576D01*
X185506Y121581D01*
X185616Y121624D01*
X185729Y121661D01*
X185764Y121683D01*
X185801Y121698D01*
X185897Y121767D01*
X185998Y121831D01*
X186026Y121861D01*
X186059Y121884D01*
X186135Y121976D01*
X186216Y122063D01*
X186236Y122098D01*
X186261Y122129D01*
X186312Y122237D01*
X186370Y122341D01*
X186380Y122381D01*
X186397Y122417D01*
X186419Y122534D01*
X186449Y122649D01*
X186453Y122709D01*
X186457Y122729D01*
X186455Y122750D01*
X186459Y122810D01*
X186459Y126881D01*
X189119Y129541D01*
X192881Y129541D01*
X195541Y126881D01*
X195541Y123119D01*
X192881Y120459D01*
X191810Y120459D01*
X191692Y120444D01*
X191573Y120437D01*
X191535Y120424D01*
X191494Y120419D01*
X191384Y120376D01*
X191271Y120339D01*
X191236Y120317D01*
X191199Y120302D01*
X191103Y120233D01*
X191002Y120169D01*
X190974Y120139D01*
X190941Y120116D01*
X190865Y120024D01*
X190784Y119937D01*
X190764Y119902D01*
X190739Y119871D01*
X190688Y119763D01*
X190630Y119659D01*
X190620Y119619D01*
X190603Y119583D01*
X190581Y119466D01*
X190551Y119351D01*
X190547Y119291D01*
X190543Y119271D01*
X190545Y119250D01*
X190541Y119190D01*
X190541Y115119D01*
X187881Y112459D01*
X184119Y112459D01*
G37*
%LPD*%
%LPC*%
G36*
X218119Y165459D02*
X218119Y165459D01*
X215459Y168119D01*
X215459Y171881D01*
X216871Y173293D01*
X216956Y173402D01*
X217045Y173509D01*
X217053Y173528D01*
X217066Y173544D01*
X217121Y173672D01*
X217180Y173797D01*
X217184Y173817D01*
X217192Y173836D01*
X217214Y173974D01*
X217240Y174110D01*
X217239Y174130D01*
X217242Y174150D01*
X217229Y174289D01*
X217220Y174427D01*
X217214Y174446D01*
X217212Y174466D01*
X217165Y174598D01*
X217122Y174729D01*
X217112Y174747D01*
X217105Y174766D01*
X217027Y174881D01*
X216952Y174998D01*
X216937Y175012D01*
X216926Y175029D01*
X216822Y175121D01*
X216721Y175216D01*
X216703Y175226D01*
X216688Y175239D01*
X216564Y175303D01*
X216442Y175370D01*
X216423Y175375D01*
X216404Y175384D01*
X216269Y175414D01*
X216134Y175449D01*
X216106Y175451D01*
X216094Y175454D01*
X216074Y175453D01*
X215973Y175459D01*
X214019Y175459D01*
X211359Y178119D01*
X211359Y181881D01*
X214019Y184541D01*
X217781Y184541D01*
X220441Y181881D01*
X220441Y178119D01*
X219029Y176707D01*
X218944Y176597D01*
X218855Y176491D01*
X218847Y176472D01*
X218834Y176456D01*
X218779Y176328D01*
X218720Y176203D01*
X218716Y176183D01*
X218708Y176164D01*
X218686Y176026D01*
X218660Y175890D01*
X218661Y175870D01*
X218658Y175850D01*
X218671Y175711D01*
X218680Y175573D01*
X218686Y175554D01*
X218688Y175534D01*
X218735Y175402D01*
X218778Y175271D01*
X218788Y175253D01*
X218795Y175234D01*
X218873Y175119D01*
X218948Y175002D01*
X218963Y174988D01*
X218974Y174971D01*
X219078Y174879D01*
X219179Y174784D01*
X219197Y174774D01*
X219212Y174761D01*
X219336Y174697D01*
X219458Y174630D01*
X219477Y174625D01*
X219496Y174616D01*
X219631Y174586D01*
X219766Y174551D01*
X219794Y174549D01*
X219806Y174546D01*
X219826Y174547D01*
X219927Y174541D01*
X221881Y174541D01*
X224541Y171881D01*
X224541Y168119D01*
X221881Y165459D01*
X218119Y165459D01*
G37*
%LPD*%
%LPC*%
G36*
X23898Y54459D02*
X23898Y54459D01*
X21861Y55303D01*
X20303Y56861D01*
X19459Y58898D01*
X19459Y61102D01*
X20303Y63139D01*
X21861Y64697D01*
X23898Y65541D01*
X26102Y65541D01*
X28139Y64697D01*
X29697Y63139D01*
X30541Y61102D01*
X30541Y58898D01*
X29697Y56861D01*
X28139Y55303D01*
X26102Y54459D01*
X23898Y54459D01*
G37*
%LPD*%
%LPC*%
G36*
X69398Y135459D02*
X69398Y135459D01*
X67361Y136303D01*
X65803Y137861D01*
X64959Y139898D01*
X64959Y142102D01*
X65803Y144139D01*
X67361Y145697D01*
X69398Y146541D01*
X71602Y146541D01*
X73639Y145697D01*
X75197Y144139D01*
X76041Y142102D01*
X76041Y139898D01*
X75197Y137861D01*
X73639Y136303D01*
X71602Y135459D01*
X69398Y135459D01*
G37*
%LPD*%
%LPC*%
G36*
X70948Y50709D02*
X70948Y50709D01*
X69003Y51515D01*
X67515Y53003D01*
X66709Y54948D01*
X66709Y57052D01*
X67515Y58997D01*
X69003Y60485D01*
X70948Y61291D01*
X73052Y61291D01*
X74997Y60485D01*
X76485Y58997D01*
X77291Y57052D01*
X77291Y54948D01*
X76485Y53003D01*
X74997Y51515D01*
X73052Y50709D01*
X70948Y50709D01*
G37*
%LPD*%
%LPC*%
G36*
X51948Y10209D02*
X51948Y10209D01*
X50003Y11015D01*
X48515Y12503D01*
X47709Y14448D01*
X47709Y16552D01*
X48515Y18497D01*
X50003Y19985D01*
X51948Y20791D01*
X54052Y20791D01*
X55997Y19985D01*
X57485Y18497D01*
X58291Y16552D01*
X58291Y14448D01*
X57485Y12503D01*
X55997Y11015D01*
X54052Y10209D01*
X51948Y10209D01*
G37*
%LPD*%
%LPC*%
G36*
X132948Y10209D02*
X132948Y10209D01*
X131003Y11015D01*
X129515Y12503D01*
X128709Y14448D01*
X128709Y16552D01*
X129515Y18497D01*
X131003Y19985D01*
X132948Y20791D01*
X135052Y20791D01*
X136997Y19985D01*
X138485Y18497D01*
X139291Y16552D01*
X139291Y14448D01*
X138485Y12503D01*
X136997Y11015D01*
X135052Y10209D01*
X132948Y10209D01*
G37*
%LPD*%
%LPC*%
G36*
X368119Y170459D02*
X368119Y170459D01*
X365459Y173119D01*
X365459Y176881D01*
X368119Y179541D01*
X371881Y179541D01*
X374541Y176881D01*
X374541Y173119D01*
X371881Y170459D01*
X368119Y170459D01*
G37*
%LPD*%
%LPC*%
G36*
X393119Y170459D02*
X393119Y170459D01*
X390459Y173119D01*
X390459Y176881D01*
X393119Y179541D01*
X396881Y179541D01*
X399541Y176881D01*
X399541Y173119D01*
X396881Y170459D01*
X393119Y170459D01*
G37*
%LPD*%
%LPC*%
G36*
X11119Y168459D02*
X11119Y168459D01*
X8459Y171119D01*
X8459Y174881D01*
X11119Y177541D01*
X14881Y177541D01*
X17541Y174881D01*
X17541Y171119D01*
X14881Y168459D01*
X11119Y168459D01*
G37*
%LPD*%
%LPC*%
G36*
X124119Y36459D02*
X124119Y36459D01*
X121459Y39119D01*
X121459Y42881D01*
X124119Y45541D01*
X127881Y45541D01*
X130541Y42881D01*
X130541Y39119D01*
X127881Y36459D01*
X124119Y36459D01*
G37*
%LPD*%
%LPC*%
G36*
X318119Y160459D02*
X318119Y160459D01*
X315459Y163119D01*
X315459Y166881D01*
X318119Y169541D01*
X321881Y169541D01*
X324541Y166881D01*
X324541Y163119D01*
X321881Y160459D01*
X318119Y160459D01*
G37*
%LPD*%
%LPC*%
G36*
X393119Y150459D02*
X393119Y150459D01*
X390459Y153119D01*
X390459Y156881D01*
X393119Y159541D01*
X396881Y159541D01*
X399541Y156881D01*
X399541Y153119D01*
X396881Y150459D01*
X393119Y150459D01*
G37*
%LPD*%
%LPC*%
G36*
X368119Y150459D02*
X368119Y150459D01*
X365459Y153119D01*
X365459Y156881D01*
X368119Y159541D01*
X371881Y159541D01*
X374541Y156881D01*
X374541Y153119D01*
X371881Y150459D01*
X368119Y150459D01*
G37*
%LPD*%
%LPC*%
G36*
X156119Y140459D02*
X156119Y140459D01*
X153459Y143119D01*
X153459Y146881D01*
X156119Y149541D01*
X159881Y149541D01*
X162541Y146881D01*
X162541Y143119D01*
X159881Y140459D01*
X156119Y140459D01*
G37*
%LPD*%
%LPC*%
G36*
X205619Y140459D02*
X205619Y140459D01*
X202959Y143119D01*
X202959Y146881D01*
X205619Y149541D01*
X209381Y149541D01*
X212041Y146881D01*
X212041Y143119D01*
X209381Y140459D01*
X205619Y140459D01*
G37*
%LPD*%
%LPC*%
G36*
X187119Y132459D02*
X187119Y132459D01*
X184459Y135119D01*
X184459Y138881D01*
X187119Y141541D01*
X190881Y141541D01*
X193541Y138881D01*
X193541Y135119D01*
X190881Y132459D01*
X187119Y132459D01*
G37*
%LPD*%
%LPC*%
G36*
X368119Y130459D02*
X368119Y130459D01*
X365459Y133119D01*
X365459Y136881D01*
X368119Y139541D01*
X371881Y139541D01*
X374541Y136881D01*
X374541Y133119D01*
X371881Y130459D01*
X368119Y130459D01*
G37*
%LPD*%
%LPC*%
G36*
X393119Y130459D02*
X393119Y130459D01*
X390459Y133119D01*
X390459Y136881D01*
X393119Y139541D01*
X396881Y139541D01*
X399541Y136881D01*
X399541Y133119D01*
X396881Y130459D01*
X393119Y130459D01*
G37*
%LPD*%
%LPC*%
G36*
X303119Y125459D02*
X303119Y125459D01*
X300459Y128119D01*
X300459Y131881D01*
X303119Y134541D01*
X306881Y134541D01*
X309541Y131881D01*
X309541Y128119D01*
X306881Y125459D01*
X303119Y125459D01*
G37*
%LPD*%
%LPC*%
G36*
X208119Y102959D02*
X208119Y102959D01*
X205459Y105619D01*
X205459Y109381D01*
X208119Y112041D01*
X211881Y112041D01*
X214541Y109381D01*
X214541Y105619D01*
X211881Y102959D01*
X208119Y102959D01*
G37*
%LPD*%
%LPC*%
G36*
X170619Y110459D02*
X170619Y110459D01*
X167959Y113119D01*
X167959Y116881D01*
X170619Y119541D01*
X174381Y119541D01*
X177041Y116881D01*
X177041Y113119D01*
X174381Y110459D01*
X170619Y110459D01*
G37*
%LPD*%
%LPC*%
G36*
X368119Y110459D02*
X368119Y110459D01*
X365459Y113119D01*
X365459Y116881D01*
X368119Y119541D01*
X371881Y119541D01*
X374541Y116881D01*
X374541Y113119D01*
X371881Y110459D01*
X368119Y110459D01*
G37*
%LPD*%
%LPC*%
G36*
X393119Y110459D02*
X393119Y110459D01*
X390459Y113119D01*
X390459Y116881D01*
X393119Y119541D01*
X396881Y119541D01*
X399541Y116881D01*
X399541Y113119D01*
X396881Y110459D01*
X393119Y110459D01*
G37*
%LPD*%
%LPC*%
G36*
X297119Y108959D02*
X297119Y108959D01*
X294459Y111619D01*
X294459Y115381D01*
X297119Y118041D01*
X300881Y118041D01*
X303541Y115381D01*
X303541Y111619D01*
X300881Y108959D01*
X297119Y108959D01*
G37*
%LPD*%
%LPC*%
G36*
X112119Y104459D02*
X112119Y104459D01*
X109459Y107119D01*
X109459Y110881D01*
X112119Y113541D01*
X115881Y113541D01*
X118541Y110881D01*
X118541Y107119D01*
X115881Y104459D01*
X112119Y104459D01*
G37*
%LPD*%
%LPC*%
G36*
X124134Y88261D02*
X124134Y88261D01*
X121474Y90921D01*
X121474Y94683D01*
X124134Y97343D01*
X127896Y97343D01*
X130556Y94683D01*
X130556Y90921D01*
X127896Y88261D01*
X124134Y88261D01*
G37*
%LPD*%
%LPC*%
G36*
X239619Y92459D02*
X239619Y92459D01*
X236959Y95119D01*
X236959Y98881D01*
X239619Y101541D01*
X243381Y101541D01*
X246041Y98881D01*
X246041Y95119D01*
X243381Y92459D01*
X239619Y92459D01*
G37*
%LPD*%
%LPC*%
G36*
X156119Y81459D02*
X156119Y81459D01*
X153459Y84119D01*
X153459Y87881D01*
X156119Y90541D01*
X159881Y90541D01*
X162541Y87881D01*
X162541Y84119D01*
X159881Y81459D01*
X156119Y81459D01*
G37*
%LPD*%
%LPC*%
G36*
X289619Y57959D02*
X289619Y57959D01*
X286959Y60619D01*
X286959Y64381D01*
X289619Y67041D01*
X293381Y67041D01*
X296041Y64381D01*
X296041Y60619D01*
X293381Y57959D01*
X289619Y57959D01*
G37*
%LPD*%
%LPC*%
G36*
X150119Y40459D02*
X150119Y40459D01*
X147459Y43119D01*
X147459Y46881D01*
X150119Y49541D01*
X153881Y49541D01*
X156541Y46881D01*
X156541Y43119D01*
X153881Y40459D01*
X150119Y40459D01*
G37*
%LPD*%
%LPC*%
G36*
X167639Y15939D02*
X167639Y15939D01*
X167639Y24024D01*
X167650Y24023D01*
X169281Y23493D01*
X170808Y22715D01*
X172195Y21707D01*
X173407Y20495D01*
X174415Y19108D01*
X175193Y17581D01*
X175723Y15950D01*
X175724Y15939D01*
X167639Y15939D01*
G37*
%LPD*%
%LPC*%
G36*
X154476Y15939D02*
X154476Y15939D01*
X154477Y15950D01*
X155007Y17581D01*
X155785Y19108D01*
X156793Y20495D01*
X158005Y21707D01*
X159392Y22715D01*
X160919Y23493D01*
X162550Y24023D01*
X162561Y24024D01*
X162561Y15939D01*
X154476Y15939D01*
G37*
%LPD*%
%LPC*%
G36*
X110269Y56269D02*
X110269Y56269D01*
X110269Y59591D01*
X110386Y59568D01*
X111250Y59210D01*
X112028Y58690D01*
X112690Y58028D01*
X113210Y57250D01*
X113568Y56386D01*
X113591Y56269D01*
X110269Y56269D01*
G37*
%LPD*%
%LPC*%
G36*
X104409Y56269D02*
X104409Y56269D01*
X104432Y56386D01*
X104790Y57250D01*
X105310Y58028D01*
X105972Y58690D01*
X106750Y59210D01*
X107614Y59568D01*
X107731Y59591D01*
X107731Y56269D01*
X104409Y56269D01*
G37*
%LPD*%
%LPC*%
G36*
X110269Y53731D02*
X110269Y53731D01*
X113591Y53731D01*
X113568Y53614D01*
X113210Y52750D01*
X112690Y51972D01*
X112028Y51310D01*
X111250Y50790D01*
X110386Y50432D01*
X110269Y50409D01*
X110269Y53731D01*
G37*
%LPD*%
%LPC*%
G36*
X107614Y50432D02*
X107614Y50432D01*
X106750Y50790D01*
X105972Y51310D01*
X105310Y51972D01*
X104790Y52750D01*
X104432Y53614D01*
X104409Y53731D01*
X107731Y53731D01*
X107731Y50409D01*
X107614Y50432D01*
G37*
%LPD*%
%LPC*%
G36*
X321269Y106269D02*
X321269Y106269D01*
X321269Y108802D01*
X321544Y108728D01*
X322456Y108201D01*
X323201Y107456D01*
X323728Y106544D01*
X323802Y106269D01*
X321269Y106269D01*
G37*
%LPD*%
%LPC*%
G36*
X89269Y96269D02*
X89269Y96269D01*
X89269Y98802D01*
X89544Y98728D01*
X90456Y98201D01*
X91201Y97456D01*
X91728Y96544D01*
X91802Y96269D01*
X89269Y96269D01*
G37*
%LPD*%
%LPC*%
G36*
X127269Y79269D02*
X127269Y79269D01*
X127269Y81802D01*
X127544Y81728D01*
X128456Y81201D01*
X129201Y80456D01*
X129728Y79544D01*
X129802Y79269D01*
X127269Y79269D01*
G37*
%LPD*%
%LPC*%
G36*
X82769Y134269D02*
X82769Y134269D01*
X82769Y136802D01*
X83044Y136728D01*
X83956Y136201D01*
X84701Y135456D01*
X85228Y134544D01*
X85302Y134269D01*
X82769Y134269D01*
G37*
%LPD*%
%LPC*%
G36*
X188769Y51269D02*
X188769Y51269D01*
X188769Y53802D01*
X189044Y53728D01*
X189956Y53201D01*
X190701Y52456D01*
X191228Y51544D01*
X191302Y51269D01*
X188769Y51269D01*
G37*
%LPD*%
%LPC*%
G36*
X306269Y149269D02*
X306269Y149269D01*
X306269Y151802D01*
X306544Y151728D01*
X307456Y151201D01*
X308201Y150456D01*
X308728Y149544D01*
X308802Y149269D01*
X306269Y149269D01*
G37*
%LPD*%
%LPC*%
G36*
X84198Y96269D02*
X84198Y96269D01*
X84272Y96544D01*
X84799Y97456D01*
X85544Y98201D01*
X86456Y98728D01*
X86731Y98802D01*
X86731Y96269D01*
X84198Y96269D01*
G37*
%LPD*%
%LPC*%
G36*
X82769Y131731D02*
X82769Y131731D01*
X85302Y131731D01*
X85228Y131456D01*
X84701Y130544D01*
X83956Y129799D01*
X83044Y129272D01*
X82769Y129198D01*
X82769Y131731D01*
G37*
%LPD*%
%LPC*%
G36*
X89269Y93731D02*
X89269Y93731D01*
X91802Y93731D01*
X91728Y93456D01*
X91201Y92544D01*
X90456Y91799D01*
X89544Y91272D01*
X89269Y91198D01*
X89269Y93731D01*
G37*
%LPD*%
%LPC*%
G36*
X316198Y106269D02*
X316198Y106269D01*
X316272Y106544D01*
X316799Y107456D01*
X317544Y108201D01*
X318456Y108728D01*
X318731Y108802D01*
X318731Y106269D01*
X316198Y106269D01*
G37*
%LPD*%
%LPC*%
G36*
X122198Y79269D02*
X122198Y79269D01*
X122272Y79544D01*
X122799Y80456D01*
X123544Y81201D01*
X124456Y81728D01*
X124731Y81802D01*
X124731Y79269D01*
X122198Y79269D01*
G37*
%LPD*%
%LPC*%
G36*
X127269Y76731D02*
X127269Y76731D01*
X129802Y76731D01*
X129728Y76456D01*
X129201Y75544D01*
X128456Y74799D01*
X127544Y74272D01*
X127269Y74198D01*
X127269Y76731D01*
G37*
%LPD*%
%LPC*%
G36*
X77698Y134269D02*
X77698Y134269D01*
X77772Y134544D01*
X78299Y135456D01*
X79044Y136201D01*
X79956Y136728D01*
X80231Y136802D01*
X80231Y134269D01*
X77698Y134269D01*
G37*
%LPD*%
%LPC*%
G36*
X306269Y146731D02*
X306269Y146731D01*
X308802Y146731D01*
X308728Y146456D01*
X308201Y145544D01*
X307456Y144799D01*
X306544Y144272D01*
X306269Y144198D01*
X306269Y146731D01*
G37*
%LPD*%
%LPC*%
G36*
X183698Y51269D02*
X183698Y51269D01*
X183772Y51544D01*
X184299Y52456D01*
X185044Y53201D01*
X185956Y53728D01*
X186231Y53802D01*
X186231Y51269D01*
X183698Y51269D01*
G37*
%LPD*%
%LPC*%
G36*
X188769Y173731D02*
X188769Y173731D01*
X191302Y173731D01*
X191228Y173456D01*
X190701Y172544D01*
X189956Y171799D01*
X189044Y171272D01*
X188769Y171198D01*
X188769Y173731D01*
G37*
%LPD*%
%LPC*%
G36*
X321269Y103731D02*
X321269Y103731D01*
X323802Y103731D01*
X323728Y103456D01*
X323201Y102544D01*
X322456Y101799D01*
X321544Y101272D01*
X321269Y101198D01*
X321269Y103731D01*
G37*
%LPD*%
%LPC*%
G36*
X188769Y48731D02*
X188769Y48731D01*
X191302Y48731D01*
X191228Y48456D01*
X190701Y47544D01*
X189956Y46799D01*
X189044Y46272D01*
X188769Y46198D01*
X188769Y48731D01*
G37*
%LPD*%
%LPC*%
G36*
X301198Y149269D02*
X301198Y149269D01*
X301272Y149544D01*
X301799Y150456D01*
X302544Y151201D01*
X303456Y151728D01*
X303731Y151802D01*
X303731Y149269D01*
X301198Y149269D01*
G37*
%LPD*%
%LPC*%
G36*
X185956Y171272D02*
X185956Y171272D01*
X185044Y171799D01*
X184299Y172544D01*
X183772Y173456D01*
X183698Y173731D01*
X186231Y173731D01*
X186231Y171198D01*
X185956Y171272D01*
G37*
%LPD*%
%LPC*%
G36*
X86456Y91272D02*
X86456Y91272D01*
X85544Y91799D01*
X84799Y92544D01*
X84272Y93456D01*
X84198Y93731D01*
X86731Y93731D01*
X86731Y91198D01*
X86456Y91272D01*
G37*
%LPD*%
%LPC*%
G36*
X124456Y74272D02*
X124456Y74272D01*
X123544Y74799D01*
X122799Y75544D01*
X122272Y76456D01*
X122198Y76731D01*
X124731Y76731D01*
X124731Y74198D01*
X124456Y74272D01*
G37*
%LPD*%
%LPC*%
G36*
X79956Y129272D02*
X79956Y129272D01*
X79044Y129799D01*
X78299Y130544D01*
X77772Y131456D01*
X77698Y131731D01*
X80231Y131731D01*
X80231Y129198D01*
X79956Y129272D01*
G37*
%LPD*%
%LPC*%
G36*
X303456Y144272D02*
X303456Y144272D01*
X302544Y144799D01*
X301799Y145544D01*
X301272Y146456D01*
X301198Y146731D01*
X303731Y146731D01*
X303731Y144198D01*
X303456Y144272D01*
G37*
%LPD*%
%LPC*%
G36*
X185956Y46272D02*
X185956Y46272D01*
X185044Y46799D01*
X184299Y47544D01*
X183772Y48456D01*
X183698Y48731D01*
X186231Y48731D01*
X186231Y46198D01*
X185956Y46272D01*
G37*
%LPD*%
%LPC*%
G36*
X318456Y101272D02*
X318456Y101272D01*
X317544Y101799D01*
X316799Y102544D01*
X316272Y103456D01*
X316198Y103731D01*
X318731Y103731D01*
X318731Y101198D01*
X318456Y101272D01*
G37*
%LPD*%
D10*
X14500Y150125D03*
X14500Y79875D03*
D11*
X44500Y139250D03*
X44500Y90750D03*
D12*
X90000Y210500D03*
X110000Y210500D03*
D13*
X165100Y216600D03*
X190500Y216600D03*
X215900Y216600D03*
X241300Y216600D03*
X266700Y216600D03*
X292100Y216600D03*
X317500Y216600D03*
X342900Y216600D03*
X368300Y216600D03*
X393700Y216600D03*
X419100Y216600D03*
X444500Y216600D03*
X165100Y13400D03*
X190500Y13400D03*
X215900Y13400D03*
X241300Y13400D03*
X266700Y13400D03*
X292100Y13400D03*
X317500Y13400D03*
X342900Y13400D03*
X368300Y13400D03*
X393700Y13400D03*
X419100Y13400D03*
X444500Y13400D03*
D14*
X25400Y26100D03*
X25400Y203900D03*
D15*
X55000Y102000D03*
D16*
X320000Y165000D03*
X370000Y115000D03*
X395000Y65000D03*
X370000Y175000D03*
X395000Y55000D03*
X370000Y55000D03*
X395000Y115000D03*
X395000Y135000D03*
X395000Y155000D03*
X395000Y175000D03*
X370000Y155000D03*
X370000Y135000D03*
X370000Y65000D03*
X320000Y185000D03*
D15*
X25000Y60000D03*
D17*
X72000Y56000D03*
X134000Y15500D03*
X53000Y15500D03*
D16*
X291500Y62500D03*
X152000Y45000D03*
X210000Y107500D03*
X126015Y92802D03*
X158000Y86000D03*
X189000Y137000D03*
X188000Y182000D03*
X299000Y113500D03*
X305000Y130000D03*
X114000Y109000D03*
X126000Y41000D03*
X172500Y115000D03*
X186000Y117000D03*
X158000Y145000D03*
X191000Y125000D03*
X207500Y145000D03*
X220000Y170000D03*
X241500Y97000D03*
X246000Y117802D03*
X250000Y124000D03*
X254000Y130000D03*
X259000Y135182D03*
X199000Y181000D03*
X215900Y180000D03*
X231000Y188000D03*
X254000Y193182D03*
X118000Y166000D03*
D18*
X118000Y189000D01*
X132000Y203000D01*
X317500Y205500D02*
X317500Y216600D01*
X315000Y203000D02*
X132000Y203000D01*
X315000Y203000D02*
X317500Y205500D01*
D16*
X250000Y178000D03*
X194000Y102032D03*
X194000Y108064D03*
X194000Y96000D03*
X112818Y159000D03*
D18*
X118329Y159000D02*
X124000Y164672D01*
X124000Y188874D02*
X133794Y198668D01*
X391000Y198668D01*
X393700Y201368D01*
X393700Y216600D01*
X118329Y159000D02*
X112818Y159000D01*
X124000Y164672D02*
X124000Y188874D01*
D16*
X106786Y153000D03*
D18*
X118455Y153000D01*
X128332Y162877D02*
X128332Y187079D01*
X128332Y162877D02*
X118455Y153000D01*
X128332Y187079D02*
X135589Y194336D01*
X250000Y188000D02*
X259000Y188000D01*
X265336Y194336D01*
X419100Y201100D02*
X419100Y216600D01*
X243664Y194336D02*
X135589Y194336D01*
X243664Y194336D02*
X250000Y188000D01*
X265336Y194336D02*
X412336Y194336D01*
X419100Y201100D01*
D16*
X320000Y105000D03*
D17*
X109000Y55000D03*
D16*
X187500Y50000D03*
X187500Y175000D03*
X305000Y148000D03*
X88000Y95000D03*
X81500Y133000D03*
X126000Y78000D03*
D15*
X47000Y188000D03*
X70500Y141000D03*
D19*
X14000Y127000D03*
X14000Y103000D03*
D16*
X13000Y173000D03*
M02*
