G04 EAGLE Gerber RS-274X export*
G75*
%MOMM*%
%FSLAX34Y34*%
%LPD*%
%INBottom Copper*%
%IPPOS*%
%AMOC8*
5,1,8,0,0,1.08239X$1,22.5*%
G01*
%ADD10R,1.250000X2.000000*%
%ADD11C,0.500000*%
%ADD12C,0.050000*%
%ADD13R,0.900000X0.700000*%
%ADD14R,1.000000X1.100000*%
%ADD15R,1.100000X1.000000*%
%ADD16R,0.700000X0.900000*%
%ADD17R,1.092200X1.143000*%
%ADD18R,2.250000X2.250000*%
%ADD19C,1.275000*%
%ADD20R,1.290000X1.290000*%
%ADD21C,1.290000*%
%ADD22C,1.778000*%
%ADD23R,0.600000X0.700000*%
%ADD24R,0.700000X0.600000*%
%ADD25R,1.500000X1.000000*%
%ADD26C,0.090000*%
%ADD27R,0.558800X1.270000*%
%ADD28R,0.304800X0.711200*%
%ADD29C,3.750000*%
%ADD30C,0.600000*%
%ADD31C,0.400000*%
%ADD32C,0.400000*%
%ADD33C,0.550000*%
%ADD34C,0.254000*%
%ADD35C,0.100000*%
%ADD36C,0.230000*%
%ADD37C,0.210000*%
%ADD38C,1.500000*%

G36*
X409064Y45010D02*
X409064Y45010D01*
X409128Y45009D01*
X409203Y45030D01*
X409279Y45041D01*
X409338Y45067D01*
X409400Y45084D01*
X409466Y45125D01*
X409536Y45157D01*
X409585Y45199D01*
X409640Y45232D01*
X409692Y45290D01*
X409750Y45340D01*
X409786Y45394D01*
X409829Y45442D01*
X409862Y45511D01*
X409905Y45576D01*
X409924Y45638D01*
X409952Y45695D01*
X409963Y45765D01*
X409987Y45846D01*
X409988Y45931D01*
X409999Y46000D01*
X409999Y90950D01*
X409990Y91014D01*
X409991Y91078D01*
X409970Y91153D01*
X409959Y91229D01*
X409933Y91288D01*
X409916Y91350D01*
X409875Y91416D01*
X409843Y91486D01*
X409801Y91535D01*
X409768Y91590D01*
X409710Y91642D01*
X409660Y91700D01*
X409606Y91736D01*
X409558Y91779D01*
X409489Y91812D01*
X409424Y91855D01*
X409362Y91874D01*
X409305Y91902D01*
X409235Y91913D01*
X409154Y91937D01*
X409069Y91938D01*
X409000Y91949D01*
X408500Y91949D01*
X408436Y91940D01*
X408372Y91941D01*
X408297Y91920D01*
X408221Y91909D01*
X408162Y91883D01*
X408100Y91866D01*
X408034Y91825D01*
X407964Y91793D01*
X407915Y91751D01*
X407860Y91718D01*
X407808Y91660D01*
X407750Y91610D01*
X407714Y91556D01*
X407671Y91508D01*
X407638Y91439D01*
X407595Y91374D01*
X407576Y91312D01*
X407548Y91255D01*
X407537Y91185D01*
X407513Y91104D01*
X407512Y91019D01*
X407501Y90950D01*
X407501Y90671D01*
X406329Y89499D01*
X395671Y89499D01*
X395457Y89714D01*
X395405Y89753D01*
X395360Y89799D01*
X395293Y89837D01*
X395231Y89883D01*
X395171Y89906D01*
X395115Y89938D01*
X395040Y89955D01*
X394967Y89983D01*
X394903Y89988D01*
X394841Y90003D01*
X394763Y89999D01*
X394686Y90005D01*
X394623Y89991D01*
X394559Y89988D01*
X394486Y89963D01*
X394410Y89947D01*
X394353Y89917D01*
X394292Y89896D01*
X394236Y89854D01*
X394161Y89815D01*
X394100Y89755D01*
X394043Y89714D01*
X393829Y89499D01*
X386171Y89499D01*
X385707Y89964D01*
X385655Y90002D01*
X385610Y90049D01*
X385543Y90087D01*
X385481Y90133D01*
X385421Y90156D01*
X385365Y90188D01*
X385290Y90205D01*
X385217Y90233D01*
X385153Y90238D01*
X385090Y90253D01*
X385013Y90249D01*
X384936Y90255D01*
X384873Y90241D01*
X384809Y90238D01*
X384736Y90213D01*
X384660Y90197D01*
X384603Y90167D01*
X384542Y90146D01*
X384486Y90104D01*
X384411Y90065D01*
X384350Y90005D01*
X384293Y89964D01*
X383829Y89499D01*
X376171Y89499D01*
X375207Y90464D01*
X375155Y90502D01*
X375110Y90549D01*
X375043Y90587D01*
X374981Y90633D01*
X374921Y90656D01*
X374865Y90688D01*
X374790Y90705D01*
X374717Y90733D01*
X374653Y90738D01*
X374590Y90753D01*
X374513Y90749D01*
X374436Y90755D01*
X374373Y90741D01*
X374309Y90738D01*
X374236Y90713D01*
X374160Y90697D01*
X374103Y90667D01*
X374042Y90646D01*
X373986Y90604D01*
X373911Y90565D01*
X373850Y90505D01*
X373793Y90464D01*
X372829Y89499D01*
X362171Y89499D01*
X360999Y90671D01*
X360999Y90950D01*
X360990Y91014D01*
X360991Y91078D01*
X360970Y91153D01*
X360959Y91229D01*
X360933Y91288D01*
X360916Y91350D01*
X360875Y91416D01*
X360843Y91486D01*
X360801Y91535D01*
X360768Y91590D01*
X360710Y91642D01*
X360660Y91700D01*
X360606Y91736D01*
X360558Y91779D01*
X360489Y91812D01*
X360424Y91855D01*
X360362Y91874D01*
X360305Y91902D01*
X360235Y91913D01*
X360154Y91937D01*
X360069Y91938D01*
X360000Y91949D01*
X358736Y91949D01*
X351949Y98736D01*
X351949Y178322D01*
X351936Y178417D01*
X351931Y178514D01*
X351916Y178557D01*
X351909Y178602D01*
X351870Y178689D01*
X351838Y178780D01*
X351813Y178814D01*
X351793Y178859D01*
X351710Y178956D01*
X351657Y179029D01*
X349029Y181657D01*
X348952Y181714D01*
X348881Y181779D01*
X348840Y181799D01*
X348803Y181826D01*
X348713Y181860D01*
X348627Y181902D01*
X348585Y181908D01*
X348540Y181925D01*
X348412Y181935D01*
X348322Y181949D01*
X346500Y181949D01*
X346436Y181940D01*
X346372Y181941D01*
X346297Y181920D01*
X346221Y181909D01*
X346162Y181883D01*
X346100Y181866D01*
X346034Y181825D01*
X345964Y181793D01*
X345915Y181751D01*
X345860Y181718D01*
X345808Y181660D01*
X345750Y181610D01*
X345714Y181556D01*
X345671Y181508D01*
X345638Y181439D01*
X345595Y181374D01*
X345576Y181312D01*
X345548Y181255D01*
X345537Y181185D01*
X345513Y181104D01*
X345512Y181019D01*
X345501Y180950D01*
X345501Y179171D01*
X344329Y177999D01*
X327671Y177999D01*
X326499Y179171D01*
X326499Y190829D01*
X327671Y192001D01*
X344329Y192001D01*
X345501Y190829D01*
X345501Y189050D01*
X345510Y188986D01*
X345509Y188922D01*
X345530Y188847D01*
X345541Y188771D01*
X345567Y188712D01*
X345584Y188650D01*
X345625Y188584D01*
X345657Y188514D01*
X345699Y188465D01*
X345732Y188410D01*
X345790Y188358D01*
X345840Y188300D01*
X345894Y188264D01*
X345942Y188221D01*
X346011Y188188D01*
X346076Y188145D01*
X346138Y188126D01*
X346195Y188098D01*
X346265Y188087D01*
X346346Y188063D01*
X346431Y188062D01*
X346500Y188051D01*
X351264Y188051D01*
X358051Y181264D01*
X358051Y101678D01*
X358064Y101583D01*
X358069Y101486D01*
X358084Y101443D01*
X358091Y101398D01*
X358130Y101311D01*
X358162Y101220D01*
X358187Y101186D01*
X358207Y101141D01*
X358290Y101044D01*
X358343Y100971D01*
X359786Y99529D01*
X359837Y99490D01*
X359882Y99444D01*
X359950Y99406D01*
X360011Y99359D01*
X360072Y99337D01*
X360128Y99305D01*
X360203Y99287D01*
X360275Y99260D01*
X360339Y99255D01*
X360402Y99240D01*
X360479Y99244D01*
X360557Y99238D01*
X360619Y99251D01*
X360684Y99254D01*
X360757Y99280D01*
X360833Y99296D01*
X360889Y99326D01*
X360950Y99347D01*
X361007Y99388D01*
X361082Y99428D01*
X361142Y99487D01*
X361199Y99529D01*
X362171Y100501D01*
X372829Y100501D01*
X373793Y99536D01*
X373845Y99497D01*
X373890Y99451D01*
X373957Y99413D01*
X374019Y99367D01*
X374079Y99344D01*
X374135Y99312D01*
X374210Y99295D01*
X374283Y99267D01*
X374347Y99262D01*
X374409Y99247D01*
X374487Y99251D01*
X374564Y99245D01*
X374627Y99259D01*
X374691Y99262D01*
X374764Y99287D01*
X374840Y99303D01*
X374897Y99333D01*
X374958Y99354D01*
X375014Y99396D01*
X375089Y99435D01*
X375150Y99495D01*
X375207Y99536D01*
X376171Y100501D01*
X383829Y100501D01*
X384293Y100036D01*
X384345Y99997D01*
X384390Y99951D01*
X384457Y99913D01*
X384519Y99867D01*
X384579Y99844D01*
X384635Y99812D01*
X384710Y99795D01*
X384783Y99767D01*
X384847Y99762D01*
X384909Y99747D01*
X384987Y99751D01*
X385064Y99745D01*
X385127Y99759D01*
X385191Y99762D01*
X385264Y99787D01*
X385340Y99803D01*
X385397Y99833D01*
X385458Y99854D01*
X385514Y99896D01*
X385589Y99935D01*
X385650Y99995D01*
X385707Y100036D01*
X386171Y100501D01*
X393829Y100501D01*
X394043Y100286D01*
X394095Y100247D01*
X394140Y100201D01*
X394207Y100163D01*
X394269Y100117D01*
X394329Y100094D01*
X394385Y100062D01*
X394460Y100045D01*
X394533Y100017D01*
X394597Y100012D01*
X394660Y99997D01*
X394737Y100001D01*
X394814Y99995D01*
X394877Y100009D01*
X394941Y100012D01*
X395014Y100037D01*
X395090Y100053D01*
X395147Y100083D01*
X395208Y100104D01*
X395264Y100146D01*
X395339Y100185D01*
X395400Y100245D01*
X395457Y100286D01*
X395671Y100501D01*
X406329Y100501D01*
X407501Y99329D01*
X407501Y99050D01*
X407510Y98986D01*
X407509Y98922D01*
X407530Y98847D01*
X407541Y98771D01*
X407567Y98712D01*
X407584Y98650D01*
X407625Y98584D01*
X407657Y98514D01*
X407699Y98465D01*
X407732Y98410D01*
X407790Y98358D01*
X407840Y98300D01*
X407894Y98264D01*
X407942Y98221D01*
X408011Y98188D01*
X408076Y98145D01*
X408138Y98126D01*
X408195Y98098D01*
X408265Y98087D01*
X408346Y98063D01*
X408431Y98062D01*
X408500Y98051D01*
X409000Y98051D01*
X409064Y98060D01*
X409128Y98059D01*
X409203Y98080D01*
X409279Y98091D01*
X409338Y98117D01*
X409400Y98134D01*
X409466Y98175D01*
X409536Y98207D01*
X409585Y98249D01*
X409640Y98282D01*
X409692Y98340D01*
X409750Y98390D01*
X409786Y98444D01*
X409829Y98492D01*
X409862Y98561D01*
X409905Y98626D01*
X409924Y98688D01*
X409952Y98745D01*
X409963Y98815D01*
X409987Y98896D01*
X409988Y98981D01*
X409999Y99050D01*
X409999Y194000D01*
X409990Y194064D01*
X409991Y194128D01*
X409970Y194203D01*
X409959Y194279D01*
X409933Y194338D01*
X409916Y194400D01*
X409875Y194466D01*
X409843Y194536D01*
X409801Y194585D01*
X409768Y194640D01*
X409710Y194692D01*
X409660Y194750D01*
X409606Y194786D01*
X409558Y194829D01*
X409489Y194862D01*
X409424Y194905D01*
X409362Y194924D01*
X409305Y194952D01*
X409235Y194963D01*
X409154Y194987D01*
X409069Y194988D01*
X409000Y194999D01*
X310000Y194999D01*
X309936Y194990D01*
X309872Y194991D01*
X309797Y194970D01*
X309721Y194959D01*
X309662Y194933D01*
X309600Y194916D01*
X309534Y194875D01*
X309464Y194843D01*
X309415Y194801D01*
X309360Y194768D01*
X309308Y194710D01*
X309250Y194660D01*
X309214Y194606D01*
X309171Y194558D01*
X309138Y194489D01*
X309095Y194424D01*
X309076Y194362D01*
X309048Y194305D01*
X309037Y194235D01*
X309013Y194154D01*
X309012Y194069D01*
X309001Y194000D01*
X309001Y155000D01*
X309010Y154936D01*
X309009Y154872D01*
X309030Y154797D01*
X309041Y154721D01*
X309067Y154662D01*
X309084Y154600D01*
X309125Y154534D01*
X309157Y154464D01*
X309199Y154415D01*
X309232Y154360D01*
X309290Y154308D01*
X309340Y154250D01*
X309394Y154214D01*
X309442Y154171D01*
X309511Y154138D01*
X309576Y154095D01*
X309638Y154076D01*
X309695Y154048D01*
X309765Y154037D01*
X309846Y154013D01*
X309931Y154012D01*
X310000Y154001D01*
X344001Y154001D01*
X344001Y152788D01*
X344014Y152693D01*
X344019Y152597D01*
X344034Y152554D01*
X344041Y152509D01*
X344080Y152421D01*
X344112Y152330D01*
X344137Y152296D01*
X344157Y152252D01*
X344240Y152154D01*
X344293Y152081D01*
X345533Y150842D01*
X345533Y139158D01*
X344293Y137919D01*
X344236Y137842D01*
X344171Y137771D01*
X344151Y137730D01*
X344124Y137693D01*
X344090Y137603D01*
X344048Y137517D01*
X344042Y137475D01*
X344025Y137429D01*
X344015Y137302D01*
X344001Y137212D01*
X344001Y132788D01*
X344014Y132693D01*
X344019Y132597D01*
X344034Y132554D01*
X344041Y132509D01*
X344080Y132421D01*
X344112Y132330D01*
X344137Y132296D01*
X344157Y132252D01*
X344240Y132154D01*
X344293Y132081D01*
X345533Y130842D01*
X345533Y119158D01*
X344293Y117919D01*
X344236Y117842D01*
X344171Y117771D01*
X344151Y117730D01*
X344124Y117693D01*
X344090Y117603D01*
X344048Y117517D01*
X344042Y117475D01*
X344025Y117429D01*
X344015Y117302D01*
X344001Y117212D01*
X344001Y112788D01*
X344014Y112693D01*
X344019Y112597D01*
X344034Y112554D01*
X344041Y112509D01*
X344080Y112421D01*
X344112Y112330D01*
X344137Y112296D01*
X344157Y112252D01*
X344240Y112154D01*
X344293Y112081D01*
X345533Y110842D01*
X345533Y99158D01*
X344293Y97919D01*
X344236Y97842D01*
X344171Y97771D01*
X344151Y97730D01*
X344124Y97693D01*
X344090Y97603D01*
X344048Y97517D01*
X344042Y97475D01*
X344025Y97429D01*
X344015Y97302D01*
X344001Y97212D01*
X344001Y92788D01*
X344014Y92693D01*
X344019Y92597D01*
X344034Y92554D01*
X344041Y92509D01*
X344080Y92421D01*
X344112Y92330D01*
X344137Y92296D01*
X344157Y92252D01*
X344240Y92154D01*
X344293Y92081D01*
X345533Y90842D01*
X345533Y79158D01*
X344293Y77919D01*
X344236Y77842D01*
X344171Y77771D01*
X344151Y77730D01*
X344124Y77693D01*
X344090Y77603D01*
X344048Y77517D01*
X344042Y77475D01*
X344025Y77429D01*
X344015Y77302D01*
X344001Y77212D01*
X344001Y72788D01*
X344014Y72693D01*
X344019Y72597D01*
X344034Y72554D01*
X344041Y72509D01*
X344080Y72421D01*
X344112Y72330D01*
X344137Y72296D01*
X344157Y72252D01*
X344240Y72154D01*
X344293Y72081D01*
X345533Y70842D01*
X345533Y59158D01*
X344293Y57919D01*
X344236Y57842D01*
X344171Y57771D01*
X344151Y57730D01*
X344124Y57693D01*
X344090Y57603D01*
X344048Y57517D01*
X344042Y57475D01*
X344025Y57429D01*
X344015Y57302D01*
X344001Y57212D01*
X344001Y52788D01*
X344014Y52693D01*
X344019Y52597D01*
X344034Y52554D01*
X344041Y52509D01*
X344080Y52421D01*
X344112Y52330D01*
X344137Y52296D01*
X344157Y52252D01*
X344240Y52154D01*
X344293Y52081D01*
X345533Y50842D01*
X345533Y46000D01*
X345542Y45936D01*
X345541Y45872D01*
X345562Y45797D01*
X345573Y45721D01*
X345599Y45662D01*
X345616Y45600D01*
X345657Y45534D01*
X345689Y45464D01*
X345731Y45415D01*
X345764Y45360D01*
X345822Y45308D01*
X345872Y45250D01*
X345926Y45214D01*
X345974Y45171D01*
X346043Y45138D01*
X346108Y45095D01*
X346170Y45076D01*
X346227Y45048D01*
X346297Y45037D01*
X346378Y45013D01*
X346463Y45012D01*
X346532Y45001D01*
X409000Y45001D01*
X409064Y45010D01*
G37*
%LPC*%
G36*
X337999Y166999D02*
X337999Y166999D01*
X337999Y172001D01*
X343763Y172001D01*
X344272Y171864D01*
X344729Y171601D01*
X345101Y171229D01*
X345364Y170772D01*
X345501Y170263D01*
X345501Y166999D01*
X337999Y166999D01*
G37*
%LPD*%
%LPC*%
G36*
X326499Y166999D02*
X326499Y166999D01*
X326499Y170263D01*
X326636Y170772D01*
X326899Y171229D01*
X327271Y171601D01*
X327728Y171864D01*
X328237Y172001D01*
X334001Y172001D01*
X334001Y166999D01*
X326499Y166999D01*
G37*
%LPD*%
%LPC*%
G36*
X337999Y157999D02*
X337999Y157999D01*
X337999Y163001D01*
X345501Y163001D01*
X345501Y159737D01*
X345364Y159228D01*
X345101Y158771D01*
X344729Y158399D01*
X344272Y158136D01*
X343763Y157999D01*
X337999Y157999D01*
G37*
%LPD*%
%LPC*%
G36*
X328237Y157999D02*
X328237Y157999D01*
X327728Y158136D01*
X327271Y158399D01*
X326899Y158771D01*
X326636Y159228D01*
X326499Y159737D01*
X326499Y163001D01*
X334001Y163001D01*
X334001Y157999D01*
X328237Y157999D01*
G37*
%LPD*%
%LPC*%
G36*
X369249Y83749D02*
X369249Y83749D01*
X369249Y87501D01*
X372263Y87501D01*
X372772Y87364D01*
X373229Y87101D01*
X373601Y86729D01*
X373864Y86272D01*
X374001Y85763D01*
X374001Y83749D01*
X369249Y83749D01*
G37*
%LPD*%
%LPC*%
G36*
X402749Y83749D02*
X402749Y83749D01*
X402749Y87501D01*
X405763Y87501D01*
X406272Y87364D01*
X406729Y87101D01*
X407101Y86729D01*
X407364Y86272D01*
X407501Y85763D01*
X407501Y83749D01*
X402749Y83749D01*
G37*
%LPD*%
%LPC*%
G36*
X360999Y83749D02*
X360999Y83749D01*
X360999Y85763D01*
X361136Y86272D01*
X361399Y86729D01*
X361771Y87101D01*
X362228Y87364D01*
X362737Y87501D01*
X365751Y87501D01*
X365751Y83749D01*
X360999Y83749D01*
G37*
%LPD*%
%LPC*%
G36*
X394499Y83749D02*
X394499Y83749D01*
X394499Y85763D01*
X394636Y86272D01*
X394899Y86729D01*
X395271Y87101D01*
X395728Y87364D01*
X396237Y87501D01*
X399251Y87501D01*
X399251Y83749D01*
X394499Y83749D01*
G37*
%LPD*%
%LPC*%
G36*
X402749Y76499D02*
X402749Y76499D01*
X402749Y80251D01*
X407501Y80251D01*
X407501Y78237D01*
X407364Y77728D01*
X407101Y77271D01*
X406729Y76899D01*
X406272Y76636D01*
X405763Y76499D01*
X402749Y76499D01*
G37*
%LPD*%
%LPC*%
G36*
X369249Y76499D02*
X369249Y76499D01*
X369249Y80251D01*
X374001Y80251D01*
X374001Y78237D01*
X373864Y77728D01*
X373601Y77271D01*
X373229Y76899D01*
X372772Y76636D01*
X372263Y76499D01*
X369249Y76499D01*
G37*
%LPD*%
%LPC*%
G36*
X362737Y76499D02*
X362737Y76499D01*
X362228Y76636D01*
X361771Y76899D01*
X361399Y77271D01*
X361136Y77728D01*
X360999Y78237D01*
X360999Y80251D01*
X365751Y80251D01*
X365751Y76499D01*
X362737Y76499D01*
G37*
%LPD*%
%LPC*%
G36*
X396237Y76499D02*
X396237Y76499D01*
X395728Y76636D01*
X395271Y76899D01*
X394899Y77271D01*
X394636Y77728D01*
X394499Y78237D01*
X394499Y80251D01*
X399251Y80251D01*
X399251Y76499D01*
X396237Y76499D01*
G37*
%LPD*%
%LPC*%
G36*
X320999Y185999D02*
X320999Y185999D01*
X320999Y188874D01*
X321544Y188728D01*
X322457Y188201D01*
X323201Y187457D01*
X323728Y186544D01*
X323874Y185999D01*
X320999Y185999D01*
G37*
%LPD*%
%LPC*%
G36*
X395999Y175999D02*
X395999Y175999D01*
X395999Y178874D01*
X396544Y178728D01*
X397457Y178201D01*
X398201Y177457D01*
X398728Y176544D01*
X398874Y175999D01*
X395999Y175999D01*
G37*
%LPD*%
%LPC*%
G36*
X370999Y155999D02*
X370999Y155999D01*
X370999Y158874D01*
X371544Y158728D01*
X372457Y158201D01*
X373201Y157457D01*
X373728Y156544D01*
X373874Y155999D01*
X370999Y155999D01*
G37*
%LPD*%
%LPC*%
G36*
X395999Y155999D02*
X395999Y155999D01*
X395999Y158874D01*
X396544Y158728D01*
X397457Y158201D01*
X398201Y157457D01*
X398728Y156544D01*
X398874Y155999D01*
X395999Y155999D01*
G37*
%LPD*%
%LPC*%
G36*
X370999Y175999D02*
X370999Y175999D01*
X370999Y178874D01*
X371544Y178728D01*
X372457Y178201D01*
X373201Y177457D01*
X373728Y176544D01*
X373874Y175999D01*
X370999Y175999D01*
G37*
%LPD*%
%LPC*%
G36*
X395999Y135999D02*
X395999Y135999D01*
X395999Y138874D01*
X396544Y138728D01*
X397457Y138201D01*
X398201Y137457D01*
X398728Y136544D01*
X398874Y135999D01*
X395999Y135999D01*
G37*
%LPD*%
%LPC*%
G36*
X370999Y115999D02*
X370999Y115999D01*
X370999Y118874D01*
X371544Y118728D01*
X372457Y118201D01*
X373201Y117457D01*
X373728Y116544D01*
X373874Y115999D01*
X370999Y115999D01*
G37*
%LPD*%
%LPC*%
G36*
X320999Y165999D02*
X320999Y165999D01*
X320999Y168874D01*
X321544Y168728D01*
X322457Y168201D01*
X323201Y167457D01*
X323728Y166544D01*
X323874Y165999D01*
X320999Y165999D01*
G37*
%LPD*%
%LPC*%
G36*
X395999Y115999D02*
X395999Y115999D01*
X395999Y118874D01*
X396544Y118728D01*
X397457Y118201D01*
X398201Y117457D01*
X398728Y116544D01*
X398874Y115999D01*
X395999Y115999D01*
G37*
%LPD*%
%LPC*%
G36*
X370999Y135999D02*
X370999Y135999D01*
X370999Y138874D01*
X371544Y138728D01*
X372457Y138201D01*
X373201Y137457D01*
X373728Y136544D01*
X373874Y135999D01*
X370999Y135999D01*
G37*
%LPD*%
%LPC*%
G36*
X395999Y65999D02*
X395999Y65999D01*
X395999Y68874D01*
X396544Y68728D01*
X397457Y68201D01*
X398201Y67457D01*
X398728Y66544D01*
X398874Y65999D01*
X395999Y65999D01*
G37*
%LPD*%
%LPC*%
G36*
X370999Y65999D02*
X370999Y65999D01*
X370999Y68874D01*
X371544Y68728D01*
X372457Y68201D01*
X373201Y67457D01*
X373728Y66544D01*
X373874Y65999D01*
X370999Y65999D01*
G37*
%LPD*%
%LPC*%
G36*
X395999Y55999D02*
X395999Y55999D01*
X395999Y58874D01*
X396544Y58728D01*
X397457Y58201D01*
X398201Y57457D01*
X398728Y56544D01*
X398874Y55999D01*
X395999Y55999D01*
G37*
%LPD*%
%LPC*%
G36*
X370999Y55999D02*
X370999Y55999D01*
X370999Y58874D01*
X371544Y58728D01*
X372457Y58201D01*
X373201Y57457D01*
X373728Y56544D01*
X373874Y55999D01*
X370999Y55999D01*
G37*
%LPD*%
%LPC*%
G36*
X320999Y164001D02*
X320999Y164001D01*
X323874Y164001D01*
X323728Y163456D01*
X323201Y162543D01*
X322457Y161799D01*
X321544Y161272D01*
X320999Y161126D01*
X320999Y164001D01*
G37*
%LPD*%
%LPC*%
G36*
X391126Y155999D02*
X391126Y155999D01*
X391272Y156544D01*
X391799Y157457D01*
X392543Y158201D01*
X393456Y158728D01*
X394001Y158874D01*
X394001Y155999D01*
X391126Y155999D01*
G37*
%LPD*%
%LPC*%
G36*
X366126Y155999D02*
X366126Y155999D01*
X366272Y156544D01*
X366799Y157457D01*
X367543Y158201D01*
X368456Y158728D01*
X369001Y158874D01*
X369001Y155999D01*
X366126Y155999D01*
G37*
%LPD*%
%LPC*%
G36*
X370999Y154001D02*
X370999Y154001D01*
X373874Y154001D01*
X373728Y153456D01*
X373201Y152543D01*
X372457Y151799D01*
X371544Y151272D01*
X370999Y151126D01*
X370999Y154001D01*
G37*
%LPD*%
%LPC*%
G36*
X395999Y134001D02*
X395999Y134001D01*
X398874Y134001D01*
X398728Y133456D01*
X398201Y132543D01*
X397457Y131799D01*
X396544Y131272D01*
X395999Y131126D01*
X395999Y134001D01*
G37*
%LPD*%
%LPC*%
G36*
X395999Y154001D02*
X395999Y154001D01*
X398874Y154001D01*
X398728Y153456D01*
X398201Y152543D01*
X397457Y151799D01*
X396544Y151272D01*
X395999Y151126D01*
X395999Y154001D01*
G37*
%LPD*%
%LPC*%
G36*
X366126Y135999D02*
X366126Y135999D01*
X366272Y136544D01*
X366799Y137457D01*
X367543Y138201D01*
X368456Y138728D01*
X369001Y138874D01*
X369001Y135999D01*
X366126Y135999D01*
G37*
%LPD*%
%LPC*%
G36*
X391126Y135999D02*
X391126Y135999D01*
X391272Y136544D01*
X391799Y137457D01*
X392543Y138201D01*
X393456Y138728D01*
X394001Y138874D01*
X394001Y135999D01*
X391126Y135999D01*
G37*
%LPD*%
%LPC*%
G36*
X370999Y114001D02*
X370999Y114001D01*
X373874Y114001D01*
X373728Y113456D01*
X373201Y112543D01*
X372457Y111799D01*
X371544Y111272D01*
X370999Y111126D01*
X370999Y114001D01*
G37*
%LPD*%
%LPC*%
G36*
X370999Y134001D02*
X370999Y134001D01*
X373874Y134001D01*
X373728Y133456D01*
X373201Y132543D01*
X372457Y131799D01*
X371544Y131272D01*
X370999Y131126D01*
X370999Y134001D01*
G37*
%LPD*%
%LPC*%
G36*
X391126Y115999D02*
X391126Y115999D01*
X391272Y116544D01*
X391799Y117457D01*
X392543Y118201D01*
X393456Y118728D01*
X394001Y118874D01*
X394001Y115999D01*
X391126Y115999D01*
G37*
%LPD*%
%LPC*%
G36*
X366126Y115999D02*
X366126Y115999D01*
X366272Y116544D01*
X366799Y117457D01*
X367543Y118201D01*
X368456Y118728D01*
X369001Y118874D01*
X369001Y115999D01*
X366126Y115999D01*
G37*
%LPD*%
%LPC*%
G36*
X395999Y114001D02*
X395999Y114001D01*
X398874Y114001D01*
X398728Y113456D01*
X398201Y112543D01*
X397457Y111799D01*
X396544Y111272D01*
X395999Y111126D01*
X395999Y114001D01*
G37*
%LPD*%
%LPC*%
G36*
X316126Y185999D02*
X316126Y185999D01*
X316272Y186544D01*
X316799Y187457D01*
X317543Y188201D01*
X318456Y188728D01*
X319001Y188874D01*
X319001Y185999D01*
X316126Y185999D01*
G37*
%LPD*%
%LPC*%
G36*
X320999Y184001D02*
X320999Y184001D01*
X323874Y184001D01*
X323728Y183456D01*
X323201Y182543D01*
X322457Y181799D01*
X321544Y181272D01*
X320999Y181126D01*
X320999Y184001D01*
G37*
%LPD*%
%LPC*%
G36*
X366126Y175999D02*
X366126Y175999D01*
X366272Y176544D01*
X366799Y177457D01*
X367543Y178201D01*
X368456Y178728D01*
X369001Y178874D01*
X369001Y175999D01*
X366126Y175999D01*
G37*
%LPD*%
%LPC*%
G36*
X391126Y175999D02*
X391126Y175999D01*
X391272Y176544D01*
X391799Y177457D01*
X392543Y178201D01*
X393456Y178728D01*
X394001Y178874D01*
X394001Y175999D01*
X391126Y175999D01*
G37*
%LPD*%
%LPC*%
G36*
X370999Y174001D02*
X370999Y174001D01*
X373874Y174001D01*
X373728Y173456D01*
X373201Y172543D01*
X372457Y171799D01*
X371544Y171272D01*
X370999Y171126D01*
X370999Y174001D01*
G37*
%LPD*%
%LPC*%
G36*
X366126Y65999D02*
X366126Y65999D01*
X366272Y66544D01*
X366799Y67457D01*
X367543Y68201D01*
X368456Y68728D01*
X369001Y68874D01*
X369001Y65999D01*
X366126Y65999D01*
G37*
%LPD*%
%LPC*%
G36*
X391126Y65999D02*
X391126Y65999D01*
X391272Y66544D01*
X391799Y67457D01*
X392543Y68201D01*
X393456Y68728D01*
X394001Y68874D01*
X394001Y65999D01*
X391126Y65999D01*
G37*
%LPD*%
%LPC*%
G36*
X395999Y64001D02*
X395999Y64001D01*
X398874Y64001D01*
X398728Y63456D01*
X398201Y62543D01*
X397457Y61799D01*
X396544Y61272D01*
X395999Y61126D01*
X395999Y64001D01*
G37*
%LPD*%
%LPC*%
G36*
X370999Y64001D02*
X370999Y64001D01*
X373874Y64001D01*
X373728Y63456D01*
X373201Y62543D01*
X372457Y61799D01*
X371544Y61272D01*
X370999Y61126D01*
X370999Y64001D01*
G37*
%LPD*%
%LPC*%
G36*
X395999Y174001D02*
X395999Y174001D01*
X398874Y174001D01*
X398728Y173456D01*
X398201Y172543D01*
X397457Y171799D01*
X396544Y171272D01*
X395999Y171126D01*
X395999Y174001D01*
G37*
%LPD*%
%LPC*%
G36*
X316126Y165999D02*
X316126Y165999D01*
X316272Y166544D01*
X316799Y167457D01*
X317543Y168201D01*
X318456Y168728D01*
X319001Y168874D01*
X319001Y165999D01*
X316126Y165999D01*
G37*
%LPD*%
%LPC*%
G36*
X366126Y55999D02*
X366126Y55999D01*
X366272Y56544D01*
X366799Y57457D01*
X367543Y58201D01*
X368456Y58728D01*
X369001Y58874D01*
X369001Y55999D01*
X366126Y55999D01*
G37*
%LPD*%
%LPC*%
G36*
X391126Y55999D02*
X391126Y55999D01*
X391272Y56544D01*
X391799Y57457D01*
X392543Y58201D01*
X393456Y58728D01*
X394001Y58874D01*
X394001Y55999D01*
X391126Y55999D01*
G37*
%LPD*%
%LPC*%
G36*
X395999Y54001D02*
X395999Y54001D01*
X398874Y54001D01*
X398728Y53456D01*
X398201Y52543D01*
X397457Y51799D01*
X396544Y51272D01*
X395999Y51126D01*
X395999Y54001D01*
G37*
%LPD*%
%LPC*%
G36*
X370999Y54001D02*
X370999Y54001D01*
X373874Y54001D01*
X373728Y53456D01*
X373201Y52543D01*
X372457Y51799D01*
X371544Y51272D01*
X370999Y51126D01*
X370999Y54001D01*
G37*
%LPD*%
%LPC*%
G36*
X393456Y111272D02*
X393456Y111272D01*
X392543Y111799D01*
X391799Y112543D01*
X391272Y113456D01*
X391126Y114001D01*
X394001Y114001D01*
X394001Y111126D01*
X393456Y111272D01*
G37*
%LPD*%
%LPC*%
G36*
X368456Y151272D02*
X368456Y151272D01*
X367543Y151799D01*
X366799Y152543D01*
X366272Y153456D01*
X366126Y154001D01*
X369001Y154001D01*
X369001Y151126D01*
X368456Y151272D01*
G37*
%LPD*%
%LPC*%
G36*
X318456Y161272D02*
X318456Y161272D01*
X317543Y161799D01*
X316799Y162543D01*
X316272Y163456D01*
X316126Y164001D01*
X319001Y164001D01*
X319001Y161126D01*
X318456Y161272D01*
G37*
%LPD*%
%LPC*%
G36*
X393456Y61272D02*
X393456Y61272D01*
X392543Y61799D01*
X391799Y62543D01*
X391272Y63456D01*
X391126Y64001D01*
X394001Y64001D01*
X394001Y61126D01*
X393456Y61272D01*
G37*
%LPD*%
%LPC*%
G36*
X393456Y171272D02*
X393456Y171272D01*
X392543Y171799D01*
X391799Y172543D01*
X391272Y173456D01*
X391126Y174001D01*
X394001Y174001D01*
X394001Y171126D01*
X393456Y171272D01*
G37*
%LPD*%
%LPC*%
G36*
X368456Y61272D02*
X368456Y61272D01*
X367543Y61799D01*
X366799Y62543D01*
X366272Y63456D01*
X366126Y64001D01*
X369001Y64001D01*
X369001Y61126D01*
X368456Y61272D01*
G37*
%LPD*%
%LPC*%
G36*
X368456Y171272D02*
X368456Y171272D01*
X367543Y171799D01*
X366799Y172543D01*
X366272Y173456D01*
X366126Y174001D01*
X369001Y174001D01*
X369001Y171126D01*
X368456Y171272D01*
G37*
%LPD*%
%LPC*%
G36*
X318456Y181272D02*
X318456Y181272D01*
X317543Y181799D01*
X316799Y182543D01*
X316272Y183456D01*
X316126Y184001D01*
X319001Y184001D01*
X319001Y181126D01*
X318456Y181272D01*
G37*
%LPD*%
%LPC*%
G36*
X393456Y131272D02*
X393456Y131272D01*
X392543Y131799D01*
X391799Y132543D01*
X391272Y133456D01*
X391126Y134001D01*
X394001Y134001D01*
X394001Y131126D01*
X393456Y131272D01*
G37*
%LPD*%
%LPC*%
G36*
X368456Y131272D02*
X368456Y131272D01*
X367543Y131799D01*
X366799Y132543D01*
X366272Y133456D01*
X366126Y134001D01*
X369001Y134001D01*
X369001Y131126D01*
X368456Y131272D01*
G37*
%LPD*%
%LPC*%
G36*
X368456Y111272D02*
X368456Y111272D01*
X367543Y111799D01*
X366799Y112543D01*
X366272Y113456D01*
X366126Y114001D01*
X369001Y114001D01*
X369001Y111126D01*
X368456Y111272D01*
G37*
%LPD*%
%LPC*%
G36*
X393456Y51272D02*
X393456Y51272D01*
X392543Y51799D01*
X391799Y52543D01*
X391272Y53456D01*
X391126Y54001D01*
X394001Y54001D01*
X394001Y51126D01*
X393456Y51272D01*
G37*
%LPD*%
%LPC*%
G36*
X393456Y151272D02*
X393456Y151272D01*
X392543Y151799D01*
X391799Y152543D01*
X391272Y153456D01*
X391126Y154001D01*
X394001Y154001D01*
X394001Y151126D01*
X393456Y151272D01*
G37*
%LPD*%
%LPC*%
G36*
X368456Y51272D02*
X368456Y51272D01*
X367543Y51799D01*
X366799Y52543D01*
X366272Y53456D01*
X366126Y54001D01*
X369001Y54001D01*
X369001Y51126D01*
X368456Y51272D01*
G37*
%LPD*%
%LPC*%
G36*
X335999Y164999D02*
X335999Y164999D01*
X335999Y165001D01*
X336001Y165001D01*
X336001Y164999D01*
X335999Y164999D01*
G37*
%LPD*%
D10*
X426250Y95000D03*
X493750Y95000D03*
D11*
X497500Y105000D02*
X497500Y152500D01*
X431500Y152500D01*
X431500Y127500D01*
D12*
X479751Y129750D02*
X479748Y125250D01*
X479748Y125251D02*
X431752Y125251D01*
X431749Y129750D01*
X431748Y129751D01*
X479752Y129751D01*
X479752Y129277D01*
X431748Y129277D01*
X431749Y128803D01*
X479751Y128803D01*
X479751Y128329D01*
X431749Y128329D01*
X431750Y127855D01*
X479750Y127855D01*
X479750Y127381D01*
X431750Y127381D01*
X431751Y126907D01*
X479749Y126907D01*
X479749Y126433D01*
X431751Y126433D01*
X431751Y125959D01*
X479749Y125959D01*
X479748Y125485D01*
X431752Y125485D01*
D13*
X69000Y28500D03*
X69000Y15500D03*
X125000Y28500D03*
X125000Y15500D03*
D14*
X85000Y30500D03*
X85000Y13500D03*
D15*
X111500Y196500D03*
X128500Y196500D03*
X114500Y176000D03*
X131500Y176000D03*
D13*
X367500Y95000D03*
X367500Y82000D03*
X401000Y95000D03*
X401000Y82000D03*
D14*
X109000Y30500D03*
X109000Y13500D03*
D16*
X92500Y111000D03*
X105500Y111000D03*
D13*
X150500Y172000D03*
X150500Y185000D03*
D17*
X60000Y190633D03*
X60000Y221367D03*
D18*
X14500Y150125D03*
X14500Y79875D03*
D19*
X44500Y139250D03*
X44500Y90750D03*
D20*
X90000Y210500D03*
D21*
X110000Y210500D03*
D22*
X165100Y216600D03*
X190500Y216600D03*
X215900Y216600D03*
X241300Y216600D03*
X266700Y216600D03*
X292100Y216600D03*
X317500Y216600D03*
X342900Y216600D03*
X368300Y216600D03*
X393700Y216600D03*
X419100Y216600D03*
X444500Y216600D03*
X165100Y13400D03*
X190500Y13400D03*
X215900Y13400D03*
X241300Y13400D03*
X266700Y13400D03*
X292100Y13400D03*
X317500Y13400D03*
X342900Y13400D03*
X368300Y13400D03*
X393700Y13400D03*
X419100Y13400D03*
X444500Y13400D03*
D23*
X380000Y95000D03*
X390000Y95000D03*
X112000Y122000D03*
X102000Y122000D03*
X106000Y133000D03*
X96000Y133000D03*
X58500Y65500D03*
X68500Y65500D03*
D24*
X62000Y160000D03*
X62000Y170000D03*
D23*
X31000Y173000D03*
X41000Y173000D03*
D25*
X336000Y185000D03*
X336000Y165000D03*
X336000Y145000D03*
X336000Y125000D03*
X336000Y105000D03*
X336000Y85000D03*
X336000Y65000D03*
X336000Y45000D03*
X174000Y45000D03*
X174000Y65000D03*
X174000Y85000D03*
X174000Y105000D03*
X174000Y125000D03*
X174000Y145000D03*
X174000Y165000D03*
X174000Y185000D03*
D26*
X91450Y49050D02*
X91450Y43950D01*
X78850Y43950D01*
X78850Y49050D01*
X91450Y49050D01*
X91450Y44805D02*
X78850Y44805D01*
X78850Y45660D02*
X91450Y45660D01*
X91450Y46515D02*
X78850Y46515D01*
X78850Y47370D02*
X91450Y47370D01*
X91450Y48225D02*
X78850Y48225D01*
X91450Y53450D02*
X91450Y58550D01*
X91450Y53450D02*
X78850Y53450D01*
X78850Y58550D01*
X91450Y58550D01*
X91450Y54305D02*
X78850Y54305D01*
X78850Y55160D02*
X91450Y55160D01*
X91450Y56015D02*
X78850Y56015D01*
X78850Y56870D02*
X91450Y56870D01*
X91450Y57725D02*
X78850Y57725D01*
X91450Y62950D02*
X91450Y68050D01*
X91450Y62950D02*
X78850Y62950D01*
X78850Y68050D01*
X91450Y68050D01*
X91450Y63805D02*
X78850Y63805D01*
X78850Y64660D02*
X91450Y64660D01*
X91450Y65515D02*
X78850Y65515D01*
X78850Y66370D02*
X91450Y66370D01*
X91450Y67225D02*
X78850Y67225D01*
X115150Y68050D02*
X115150Y62950D01*
X102550Y62950D01*
X102550Y68050D01*
X115150Y68050D01*
X115150Y63805D02*
X102550Y63805D01*
X102550Y64660D02*
X115150Y64660D01*
X115150Y65515D02*
X102550Y65515D01*
X102550Y66370D02*
X115150Y66370D01*
X115150Y67225D02*
X102550Y67225D01*
X115150Y49050D02*
X115150Y43950D01*
X102550Y43950D01*
X102550Y49050D01*
X115150Y49050D01*
X115150Y44805D02*
X102550Y44805D01*
X102550Y45660D02*
X115150Y45660D01*
X115150Y46515D02*
X102550Y46515D01*
X102550Y47370D02*
X115150Y47370D01*
X115150Y48225D02*
X102550Y48225D01*
D27*
X79602Y185954D03*
X89000Y185954D03*
X98398Y185954D03*
X98398Y160046D03*
X79602Y160046D03*
D28*
X103000Y80507D03*
X95000Y80507D03*
X95000Y95493D03*
X103000Y95493D03*
D29*
X25400Y26100D03*
X25400Y203900D03*
D30*
X55000Y102000D03*
D31*
X320000Y165000D03*
X370000Y115000D03*
X395000Y65000D03*
X370000Y175000D03*
X395000Y55000D03*
X370000Y55000D03*
X395000Y115000D03*
X395000Y135000D03*
X395000Y155000D03*
X395000Y175000D03*
X370000Y155000D03*
X370000Y135000D03*
X370000Y65000D03*
X320000Y185000D03*
D30*
X25000Y60000D03*
D32*
X131500Y176000D02*
X128500Y179000D01*
X128500Y196500D01*
X128500Y206500D01*
X124500Y210500D02*
X110000Y210500D01*
X124500Y210500D02*
X128500Y206500D01*
X125000Y15500D02*
X111000Y15500D01*
X109000Y13500D01*
X83000Y15500D02*
X69000Y15500D01*
X83000Y15500D02*
X85000Y13500D01*
X85150Y56000D02*
X72000Y56000D01*
D33*
X72000Y56000D03*
D34*
X125000Y15500D02*
X134000Y15500D01*
D33*
X134000Y15500D03*
D34*
X69000Y15500D02*
X53000Y15500D01*
D33*
X53000Y15500D03*
D31*
X291500Y62500D03*
D34*
X174000Y45000D02*
X152000Y45000D01*
D31*
X152000Y45000D03*
X210000Y107500D03*
X126015Y92802D03*
X158000Y86000D03*
X189000Y137000D03*
D34*
X174000Y185000D02*
X150500Y185000D01*
D31*
X188000Y182000D03*
D34*
X177000Y182000D01*
X174000Y185000D01*
D31*
X299000Y113500D03*
X305000Y130000D03*
X114000Y109000D03*
D34*
X107500Y109000D01*
X105500Y111000D01*
X103000Y101000D02*
X103000Y95493D01*
X105500Y103500D02*
X105500Y111000D01*
X105500Y103500D02*
X103000Y101000D01*
D31*
X126000Y41000D03*
D35*
X151650Y138350D02*
X154456Y138350D01*
X156508Y137500D01*
X159492Y137500D01*
X161000Y138125D01*
X161000Y137722D01*
X163722Y135000D01*
X161000Y132278D01*
X161000Y117722D01*
X163722Y115000D01*
X161000Y112278D01*
X161000Y97722D01*
X163722Y95000D01*
X161000Y92278D01*
X161000Y89364D01*
X160763Y89601D01*
X159737Y90193D01*
X158592Y90500D01*
X158000Y90500D01*
X158000Y86000D01*
X158000Y86000D01*
X158000Y90500D01*
X157408Y90500D01*
X156263Y90193D01*
X155237Y89601D01*
X154399Y88763D01*
X153807Y87737D01*
X153500Y86592D01*
X153500Y86000D01*
X158000Y86000D01*
X158000Y86000D01*
X153500Y86000D01*
X153500Y85408D01*
X153807Y84263D01*
X154399Y83237D01*
X155237Y82399D01*
X156263Y81807D01*
X157408Y81500D01*
X158000Y81500D01*
X158000Y86000D01*
X158000Y86000D01*
X158000Y81500D01*
X158592Y81500D01*
X159737Y81807D01*
X160763Y82399D01*
X161000Y82636D01*
X161000Y77722D01*
X163722Y75000D01*
X161063Y72341D01*
X151650Y81755D01*
X151650Y138350D01*
X81272Y198550D02*
X78050Y201772D01*
X81272Y198550D02*
X90898Y198550D01*
X90898Y195376D01*
X90326Y194804D01*
X89500Y194804D01*
X89500Y186454D01*
X88500Y186454D01*
X88500Y194804D01*
X87674Y194804D01*
X84674Y197804D01*
X74530Y197804D01*
X74136Y197410D01*
X74136Y213867D01*
X76026Y213867D01*
X78050Y211843D01*
X78050Y201772D01*
X61500Y170500D02*
X56000Y170500D01*
X61500Y170500D02*
X61500Y169500D01*
X56000Y169500D01*
X56000Y168278D01*
X53000Y165278D01*
X53000Y154722D01*
X56222Y151500D01*
X67778Y151500D01*
X69628Y153350D01*
X71308Y153350D01*
X71308Y152415D01*
X68099Y149206D01*
X65685Y148206D01*
X63294Y145815D01*
X62000Y142691D01*
X62000Y139309D01*
X63000Y136895D01*
X63000Y89607D01*
X52142Y78748D01*
X51000Y75992D01*
X51000Y72278D01*
X50000Y71278D01*
X50000Y59722D01*
X51000Y58722D01*
X51000Y52008D01*
X52142Y49252D01*
X61252Y40142D01*
X64008Y39000D01*
X75222Y39000D01*
X74500Y38278D01*
X74500Y37500D01*
X62222Y37500D01*
X59000Y34278D01*
X59000Y22722D01*
X62066Y19656D01*
X62000Y19497D01*
X62000Y16000D01*
X68500Y16000D01*
X68500Y15000D01*
X62000Y15000D01*
X62000Y11503D01*
X62381Y10584D01*
X63084Y9881D01*
X64003Y9500D01*
X68500Y9500D01*
X68500Y15000D01*
X69500Y15000D01*
X69500Y9500D01*
X73997Y9500D01*
X74916Y9881D01*
X75619Y10584D01*
X76000Y11503D01*
X76000Y15000D01*
X69500Y15000D01*
X69500Y16000D01*
X76000Y16000D01*
X76000Y19497D01*
X75934Y19656D01*
X76750Y20472D01*
X77566Y19656D01*
X77500Y19497D01*
X77500Y14000D01*
X84500Y14000D01*
X84500Y13000D01*
X77500Y13000D01*
X77500Y7503D01*
X77881Y6584D01*
X78584Y5881D01*
X79503Y5500D01*
X84500Y5500D01*
X84500Y13000D01*
X85500Y13000D01*
X85500Y5500D01*
X90497Y5500D01*
X91416Y5881D01*
X92119Y6584D01*
X92500Y7503D01*
X92500Y13000D01*
X85500Y13000D01*
X85500Y14000D01*
X92500Y14000D01*
X92500Y19497D01*
X92434Y19656D01*
X95500Y22722D01*
X95500Y38278D01*
X94846Y38932D01*
X97000Y41085D01*
X99154Y38932D01*
X98500Y38278D01*
X98500Y22722D01*
X101566Y19656D01*
X101500Y19497D01*
X101500Y14000D01*
X108500Y14000D01*
X108500Y13000D01*
X101500Y13000D01*
X101500Y7503D01*
X101881Y6584D01*
X102584Y5881D01*
X103503Y5500D01*
X108500Y5500D01*
X108500Y13000D01*
X109500Y13000D01*
X109500Y5500D01*
X114497Y5500D01*
X115416Y5881D01*
X116119Y6584D01*
X116500Y7503D01*
X116500Y13000D01*
X109500Y13000D01*
X109500Y14000D01*
X116500Y14000D01*
X116500Y19497D01*
X116434Y19656D01*
X117250Y20472D01*
X118066Y19656D01*
X118000Y19497D01*
X118000Y16000D01*
X124500Y16000D01*
X124500Y15000D01*
X118000Y15000D01*
X118000Y11503D01*
X118381Y10584D01*
X119084Y9881D01*
X120003Y9500D01*
X124500Y9500D01*
X124500Y15000D01*
X125500Y15000D01*
X125500Y9500D01*
X129997Y9500D01*
X130916Y9881D01*
X131619Y10584D01*
X131696Y10768D01*
X131974Y10608D01*
X133309Y10250D01*
X133625Y10250D01*
X133625Y15125D01*
X134375Y15125D01*
X134375Y10250D01*
X134691Y10250D01*
X136026Y10608D01*
X137224Y11299D01*
X138201Y12276D01*
X138892Y13474D01*
X139250Y14809D01*
X139250Y15125D01*
X134375Y15125D01*
X134375Y15875D01*
X139250Y15875D01*
X139250Y16191D01*
X138892Y17526D01*
X138201Y18724D01*
X137224Y19701D01*
X136026Y20392D01*
X134691Y20750D01*
X134375Y20750D01*
X134375Y15875D01*
X133625Y15875D01*
X133625Y20750D01*
X133309Y20750D01*
X132925Y20647D01*
X135000Y22722D01*
X135000Y34278D01*
X131778Y37500D01*
X128864Y37500D01*
X129601Y38237D01*
X130193Y39263D01*
X130500Y40408D01*
X130500Y41000D01*
X126000Y41000D01*
X126000Y41000D01*
X130500Y41000D01*
X130500Y41592D01*
X130193Y42737D01*
X129601Y43763D01*
X128763Y44601D01*
X127737Y45193D01*
X126592Y45500D01*
X126000Y45500D01*
X126000Y41000D01*
X126000Y41000D01*
X126000Y45500D01*
X125408Y45500D01*
X124263Y45193D01*
X123237Y44601D01*
X122399Y43763D01*
X121807Y42737D01*
X121500Y41592D01*
X121500Y41000D01*
X126000Y41000D01*
X126000Y41000D01*
X121500Y41000D01*
X121500Y40408D01*
X121807Y39263D01*
X122399Y38237D01*
X123136Y37500D01*
X119500Y37500D01*
X119500Y38278D01*
X118696Y39082D01*
X121100Y41485D01*
X121100Y51515D01*
X117615Y55000D01*
X117250Y55000D01*
X117250Y56641D01*
X117101Y57000D01*
X117615Y57000D01*
X121100Y60485D01*
X121100Y70515D01*
X117615Y74000D01*
X112175Y74000D01*
X114274Y74869D01*
X118500Y79096D01*
X118500Y76508D01*
X119642Y73752D01*
X121752Y71642D01*
X124508Y70500D01*
X127492Y70500D01*
X130248Y71642D01*
X132358Y73752D01*
X133500Y76508D01*
X133500Y79492D01*
X132358Y82248D01*
X130248Y84358D01*
X127492Y85500D01*
X124904Y85500D01*
X126471Y87066D01*
X127029Y88415D01*
X127752Y88609D01*
X128778Y89201D01*
X129616Y90039D01*
X130208Y91065D01*
X130515Y92210D01*
X130515Y92802D01*
X127483Y92802D01*
X127483Y92802D01*
X130515Y92802D01*
X130515Y93394D01*
X130208Y94539D01*
X129616Y95565D01*
X128778Y96403D01*
X127752Y96995D01*
X127483Y97067D01*
X127483Y118490D01*
X126471Y120934D01*
X124600Y122804D01*
X120500Y126905D01*
X120500Y127778D01*
X119468Y128810D01*
X119468Y155456D01*
X120318Y157508D01*
X120318Y158842D01*
X122248Y159642D01*
X124358Y161752D01*
X125500Y164508D01*
X125500Y167492D01*
X125140Y168362D01*
X125344Y168566D01*
X125503Y168500D01*
X131000Y168500D01*
X131000Y175500D01*
X132000Y175500D01*
X132000Y168500D01*
X137497Y168500D01*
X138416Y168881D01*
X139119Y169584D01*
X139500Y170503D01*
X139500Y175500D01*
X132000Y175500D01*
X132000Y176500D01*
X139500Y176500D01*
X139500Y181497D01*
X139119Y182416D01*
X138416Y183119D01*
X137497Y183500D01*
X132000Y183500D01*
X132000Y176500D01*
X131000Y176500D01*
X131000Y183500D01*
X125503Y183500D01*
X125344Y183434D01*
X122278Y186500D01*
X119778Y186500D01*
X122344Y189066D01*
X122503Y189000D01*
X128000Y189000D01*
X128000Y196000D01*
X129000Y196000D01*
X129000Y189000D01*
X134497Y189000D01*
X135416Y189381D01*
X136119Y190084D01*
X136500Y191003D01*
X136500Y196000D01*
X129000Y196000D01*
X129000Y197000D01*
X136500Y197000D01*
X136500Y201997D01*
X136119Y202916D01*
X135416Y203619D01*
X134497Y204000D01*
X129000Y204000D01*
X129000Y197000D01*
X128000Y197000D01*
X128000Y204000D01*
X122503Y204000D01*
X122344Y203934D01*
X119278Y207000D01*
X118238Y207000D01*
X118606Y207889D01*
X118950Y209618D01*
X118950Y210000D01*
X110500Y210000D01*
X110500Y211000D01*
X118950Y211000D01*
X118950Y211382D01*
X118606Y213111D01*
X117931Y214739D01*
X116952Y216205D01*
X115705Y217452D01*
X114239Y218431D01*
X112611Y219106D01*
X110882Y219450D01*
X110500Y219450D01*
X110500Y211000D01*
X109500Y211000D01*
X109500Y219450D01*
X109118Y219450D01*
X107389Y219106D01*
X105761Y218431D01*
X104295Y217452D01*
X103048Y216205D01*
X102069Y214739D01*
X101950Y214453D01*
X101950Y219228D01*
X98728Y222450D01*
X88657Y222450D01*
X86607Y224500D01*
X152797Y224500D01*
X150710Y219462D01*
X150710Y213738D01*
X152901Y208449D01*
X156949Y204401D01*
X162238Y202210D01*
X167962Y202210D01*
X173251Y204401D01*
X177299Y208449D01*
X177800Y209658D01*
X178301Y208449D01*
X182349Y204401D01*
X185500Y203095D01*
X192350Y196245D01*
X192350Y184544D01*
X192090Y183916D01*
X191601Y184763D01*
X190763Y185601D01*
X189737Y186193D01*
X188592Y186500D01*
X188000Y186500D01*
X188000Y182500D01*
X188000Y182500D01*
X188000Y186500D01*
X187408Y186500D01*
X186263Y186193D01*
X185237Y185601D01*
X184399Y184763D01*
X184000Y184072D01*
X184000Y184500D01*
X174500Y184500D01*
X174500Y185500D01*
X184000Y185500D01*
X184000Y190497D01*
X183619Y191416D01*
X182916Y192119D01*
X181997Y192500D01*
X174500Y192500D01*
X174500Y185500D01*
X173500Y185500D01*
X173500Y192500D01*
X166003Y192500D01*
X165084Y192119D01*
X164381Y191416D01*
X164000Y190497D01*
X164000Y185500D01*
X173500Y185500D01*
X173500Y184500D01*
X164000Y184500D01*
X164000Y181770D01*
X159653Y181770D01*
X157438Y180852D01*
X157500Y181003D01*
X157500Y184500D01*
X151000Y184500D01*
X151000Y185500D01*
X157500Y185500D01*
X157500Y188997D01*
X157119Y189916D01*
X156416Y190619D01*
X155497Y191000D01*
X151000Y191000D01*
X151000Y185500D01*
X150000Y185500D01*
X150000Y191000D01*
X145503Y191000D01*
X144584Y190619D01*
X143881Y189916D01*
X143500Y188997D01*
X143500Y185500D01*
X150000Y185500D01*
X150000Y184500D01*
X143500Y184500D01*
X143500Y181003D01*
X143566Y180844D01*
X140500Y177778D01*
X140500Y166222D01*
X143722Y163000D01*
X157278Y163000D01*
X159622Y165344D01*
X161000Y165915D01*
X161000Y157722D01*
X163722Y155000D01*
X161000Y152278D01*
X161000Y151875D01*
X159492Y152500D01*
X156508Y152500D01*
X154456Y151650D01*
X146677Y151650D01*
X144233Y150638D01*
X141233Y147638D01*
X139362Y145767D01*
X138350Y143323D01*
X138350Y77677D01*
X139362Y75233D01*
X152415Y62180D01*
X155233Y59362D01*
X157677Y58350D01*
X161000Y58350D01*
X161000Y57722D01*
X164222Y54500D01*
X181393Y54500D01*
X181142Y54248D01*
X180418Y52500D01*
X174500Y52500D01*
X174500Y45500D01*
X173500Y45500D01*
X173500Y52500D01*
X166003Y52500D01*
X165084Y52119D01*
X164381Y51416D01*
X164000Y50497D01*
X164000Y45500D01*
X173500Y45500D01*
X173500Y44500D01*
X164000Y44500D01*
X164000Y39503D01*
X164381Y38584D01*
X165084Y37881D01*
X166003Y37500D01*
X173500Y37500D01*
X173500Y44500D01*
X174500Y44500D01*
X174500Y37500D01*
X181997Y37500D01*
X182916Y37881D01*
X183619Y38584D01*
X184000Y39503D01*
X184000Y43332D01*
X186008Y42500D01*
X188992Y42500D01*
X191748Y43642D01*
X193858Y45752D01*
X194032Y46171D01*
X194032Y27513D01*
X193362Y27790D01*
X187638Y27790D01*
X182349Y25599D01*
X178301Y21551D01*
X177800Y20342D01*
X177299Y21551D01*
X173251Y25599D01*
X167962Y27790D01*
X162238Y27790D01*
X156949Y25599D01*
X152901Y21551D01*
X150710Y16262D01*
X150710Y10538D01*
X152797Y5500D01*
X40617Y5500D01*
X40864Y5623D01*
X47217Y12592D01*
X47883Y14312D01*
X48108Y13474D01*
X48799Y12276D01*
X49776Y11299D01*
X50974Y10608D01*
X52309Y10250D01*
X52625Y10250D01*
X52625Y15125D01*
X53375Y15125D01*
X53375Y10250D01*
X53691Y10250D01*
X55026Y10608D01*
X56224Y11299D01*
X57201Y12276D01*
X57892Y13474D01*
X58250Y14809D01*
X58250Y15125D01*
X53375Y15125D01*
X53375Y15875D01*
X58250Y15875D01*
X58250Y16191D01*
X57892Y17526D01*
X57201Y18724D01*
X56224Y19701D01*
X55026Y20392D01*
X53691Y20750D01*
X53375Y20750D01*
X53375Y15875D01*
X52625Y15875D01*
X52625Y20750D01*
X52309Y20750D01*
X50974Y20392D01*
X50027Y19846D01*
X50623Y21385D01*
X50623Y30815D01*
X47217Y39608D01*
X40864Y46577D01*
X32422Y50780D01*
X23032Y51651D01*
X13962Y49070D01*
X6437Y43387D01*
X5500Y41874D01*
X5500Y63125D01*
X20453Y63125D01*
X19875Y62123D01*
X19500Y60724D01*
X19500Y60500D01*
X24500Y60500D01*
X24500Y59500D01*
X19500Y59500D01*
X19500Y59276D01*
X19875Y57877D01*
X20599Y56623D01*
X21623Y55599D01*
X22877Y54875D01*
X24276Y54500D01*
X24500Y54500D01*
X24500Y59500D01*
X25500Y59500D01*
X25500Y54500D01*
X25724Y54500D01*
X27123Y54875D01*
X28377Y55599D01*
X29401Y56623D01*
X30125Y57877D01*
X30500Y59276D01*
X30500Y59500D01*
X25500Y59500D01*
X25500Y60500D01*
X30500Y60500D01*
X30500Y60724D01*
X30125Y62123D01*
X29401Y63377D01*
X28841Y63938D01*
X31250Y66347D01*
X31250Y93403D01*
X28028Y96625D01*
X25430Y96625D01*
X27000Y100414D01*
X27000Y105586D01*
X25021Y110364D01*
X21364Y114021D01*
X19000Y115000D01*
X21364Y115979D01*
X25021Y119636D01*
X27000Y124414D01*
X27000Y129586D01*
X25430Y133375D01*
X28028Y133375D01*
X31250Y136597D01*
X31250Y163653D01*
X30903Y164000D01*
X46278Y164000D01*
X49500Y167222D01*
X49500Y172095D01*
X52491Y175086D01*
X57051Y175086D01*
X56381Y174416D01*
X56000Y173497D01*
X56000Y170500D01*
X56375Y141612D02*
X56375Y136888D01*
X56375Y141612D02*
X54567Y145977D01*
X51227Y149317D01*
X46862Y151125D01*
X42138Y151125D01*
X37773Y149317D01*
X34433Y145977D01*
X32625Y141612D01*
X32625Y136888D01*
X34433Y132523D01*
X37773Y129183D01*
X42138Y127375D01*
X46862Y127375D01*
X51227Y129183D01*
X54567Y132523D01*
X56375Y136888D01*
X55500Y107500D02*
X55500Y102500D01*
X54500Y102500D01*
X54500Y107500D01*
X54276Y107500D01*
X52877Y107125D01*
X51623Y106401D01*
X50599Y105377D01*
X49875Y104123D01*
X49500Y102724D01*
X49500Y102500D01*
X54500Y102500D01*
X54500Y101500D01*
X49578Y101500D01*
X46862Y102625D01*
X42138Y102625D01*
X37773Y100817D01*
X34433Y97477D01*
X32625Y93112D01*
X32625Y88388D01*
X34433Y84023D01*
X37773Y80683D01*
X42138Y78875D01*
X46862Y78875D01*
X51227Y80683D01*
X54567Y84023D01*
X56375Y88388D01*
X56375Y93112D01*
X54567Y97477D01*
X54500Y97544D01*
X54500Y101500D01*
X55500Y101500D01*
X55500Y96500D01*
X55724Y96500D01*
X57123Y96875D01*
X58377Y97599D01*
X59401Y98623D01*
X60125Y99877D01*
X60500Y101276D01*
X60500Y101500D01*
X55500Y101500D01*
X55500Y102500D01*
X60500Y102500D01*
X60500Y102724D01*
X60125Y104123D01*
X59401Y105377D01*
X58377Y106401D01*
X57123Y107125D01*
X55724Y107500D01*
X55500Y107500D01*
X152000Y49500D02*
X152000Y45000D01*
X152000Y45000D01*
X152000Y49500D01*
X151408Y49500D01*
X150263Y49193D01*
X149237Y48601D01*
X148399Y47763D01*
X147807Y46737D01*
X147500Y45592D01*
X147500Y45000D01*
X152000Y45000D01*
X152000Y45000D01*
X147500Y45000D01*
X147500Y44408D01*
X147807Y43263D01*
X148399Y42237D01*
X149237Y41399D01*
X150263Y40807D01*
X151408Y40500D01*
X152000Y40500D01*
X152000Y45000D01*
X152000Y45000D01*
X152000Y40500D01*
X152592Y40500D01*
X153737Y40807D01*
X154763Y41399D01*
X155601Y42237D01*
X156193Y43263D01*
X156500Y44408D01*
X156500Y45000D01*
X152000Y45000D01*
X152000Y45000D01*
X156500Y45000D01*
X156500Y45592D01*
X156193Y46737D01*
X155601Y47763D01*
X154763Y48601D01*
X153737Y49193D01*
X152592Y49500D01*
X152000Y49500D01*
X84674Y174104D02*
X74530Y174104D01*
X84674Y174104D02*
X87674Y177104D01*
X88500Y177104D01*
X88500Y185454D01*
X89500Y185454D01*
X89500Y177104D01*
X90326Y177104D01*
X92912Y174518D01*
X92040Y173646D01*
X90898Y170890D01*
X90898Y169468D01*
X90104Y168674D01*
X90104Y154500D01*
X87896Y154500D01*
X87896Y168674D01*
X84674Y171896D01*
X74530Y171896D01*
X71308Y168674D01*
X71308Y166650D01*
X69628Y166650D01*
X68000Y168278D01*
X68000Y169500D01*
X62500Y169500D01*
X62500Y170500D01*
X68000Y170500D01*
X68000Y173497D01*
X67619Y174416D01*
X66949Y175086D01*
X70102Y175086D01*
X72539Y176095D01*
X74530Y174104D01*
X77250Y56500D02*
X77250Y56375D01*
X77250Y56500D02*
X84650Y56500D01*
X84650Y55500D01*
X77250Y55500D01*
X77250Y55625D01*
X72375Y55625D01*
X72375Y56375D01*
X77250Y56375D01*
X197508Y173500D02*
X200492Y173500D01*
X203248Y174642D01*
X205358Y176752D01*
X206500Y179508D01*
X206500Y182492D01*
X205650Y184544D01*
X205650Y200323D01*
X204638Y202767D01*
X200827Y206577D01*
X202699Y208449D01*
X203200Y209658D01*
X203701Y208449D01*
X207749Y204401D01*
X209250Y203779D01*
X209250Y183544D01*
X208400Y181492D01*
X208400Y178508D01*
X209542Y175752D01*
X211652Y173642D01*
X213136Y173027D01*
X212500Y171492D01*
X212500Y168508D01*
X213642Y165752D01*
X215752Y163642D01*
X218508Y162500D01*
X221492Y162500D01*
X223544Y163350D01*
X277245Y163350D01*
X284350Y156245D01*
X284350Y131307D01*
X275688Y139970D01*
X273244Y140982D01*
X263807Y140982D01*
X263248Y141540D01*
X260492Y142682D01*
X257508Y142682D01*
X254752Y141540D01*
X252642Y139430D01*
X251704Y137167D01*
X249752Y136358D01*
X247642Y134248D01*
X246500Y131492D01*
X246500Y130668D01*
X245752Y130358D01*
X243642Y128248D01*
X242500Y125492D01*
X242500Y124470D01*
X241752Y124160D01*
X239642Y122050D01*
X238500Y119294D01*
X238500Y116310D01*
X239642Y113554D01*
X241752Y111444D01*
X244508Y110302D01*
X247492Y110302D01*
X249544Y111152D01*
X264350Y111152D01*
X264350Y100118D01*
X262658Y101747D01*
X261767Y102638D01*
X261706Y102663D01*
X261659Y102709D01*
X260486Y103168D01*
X259323Y103650D01*
X259257Y103650D01*
X259195Y103674D01*
X257937Y103650D01*
X245044Y103650D01*
X242992Y104500D01*
X240008Y104500D01*
X237252Y103358D01*
X235142Y101248D01*
X234000Y98492D01*
X234000Y95508D01*
X235142Y92752D01*
X237252Y90642D01*
X240008Y89500D01*
X242992Y89500D01*
X245044Y90350D01*
X255320Y90350D01*
X259350Y86471D01*
X259350Y25931D01*
X258549Y25599D01*
X254501Y21551D01*
X254000Y20342D01*
X253499Y21551D01*
X249451Y25599D01*
X247950Y26221D01*
X247950Y68023D01*
X246938Y70467D01*
X245067Y72338D01*
X245067Y72338D01*
X213134Y104270D01*
X213601Y104737D01*
X214193Y105763D01*
X214500Y106908D01*
X214500Y107500D01*
X210000Y107500D01*
X210000Y107500D01*
X214500Y107500D01*
X214500Y108092D01*
X214193Y109237D01*
X213601Y110263D01*
X212763Y111101D01*
X211737Y111693D01*
X210592Y112000D01*
X210000Y112000D01*
X210000Y107500D01*
X210000Y107500D01*
X210000Y112000D01*
X209408Y112000D01*
X208263Y111693D01*
X207237Y111101D01*
X206770Y110634D01*
X205574Y111831D01*
X205574Y111831D01*
X203703Y113702D01*
X201259Y114714D01*
X197544Y114714D01*
X195492Y115564D01*
X193500Y115564D01*
X193500Y117918D01*
X195248Y118642D01*
X197358Y120752D01*
X198500Y123508D01*
X198500Y126492D01*
X197358Y129248D01*
X195248Y131358D01*
X192492Y132500D01*
X189508Y132500D01*
X187456Y131650D01*
X187000Y131650D01*
X187000Y132278D01*
X184278Y135000D01*
X184751Y135472D01*
X184807Y135263D01*
X185399Y134237D01*
X186237Y133399D01*
X187263Y132807D01*
X188408Y132500D01*
X189000Y132500D01*
X189000Y137000D01*
X189000Y137000D01*
X189000Y132500D01*
X189592Y132500D01*
X190737Y132807D01*
X191763Y133399D01*
X192601Y134237D01*
X193193Y135263D01*
X193500Y136408D01*
X193500Y137000D01*
X189000Y137000D01*
X189000Y137000D01*
X193500Y137000D01*
X193500Y137592D01*
X193297Y138350D01*
X203956Y138350D01*
X206008Y137500D01*
X208992Y137500D01*
X211748Y138642D01*
X213858Y140752D01*
X215000Y143508D01*
X215000Y146492D01*
X213858Y149248D01*
X211748Y151358D01*
X208992Y152500D01*
X206008Y152500D01*
X203956Y151650D01*
X187000Y151650D01*
X187000Y152278D01*
X184278Y155000D01*
X187000Y157722D01*
X187000Y167500D01*
X188992Y167500D01*
X191748Y168642D01*
X193858Y170752D01*
X195000Y173508D01*
X195000Y174539D01*
X197508Y173500D01*
X128750Y15125D02*
X128750Y15000D01*
X125500Y15000D01*
X125500Y16000D01*
X128750Y16000D01*
X128750Y15875D01*
X133625Y15875D01*
X133625Y15125D01*
X128750Y15125D01*
X459036Y35860D02*
X463139Y42000D01*
X459036Y35860D02*
X459036Y35860D01*
X457095Y26100D01*
X457095Y26100D01*
X459036Y16340D01*
X459036Y16340D01*
X464565Y8065D01*
X464565Y8065D01*
X464565Y8065D01*
X468404Y5500D01*
X452708Y5500D01*
X453188Y5980D01*
X454242Y7430D01*
X455056Y9028D01*
X455610Y10733D01*
X455890Y12504D01*
X455890Y12900D01*
X445000Y12900D01*
X445000Y13900D01*
X455890Y13900D01*
X455890Y14296D01*
X455610Y16067D01*
X455056Y17772D01*
X454242Y19370D01*
X453188Y20820D01*
X451920Y22088D01*
X450470Y23142D01*
X448872Y23956D01*
X447167Y24510D01*
X445396Y24790D01*
X445000Y24790D01*
X445000Y13900D01*
X444000Y13900D01*
X444000Y24790D01*
X443604Y24790D01*
X441833Y24510D01*
X440128Y23956D01*
X438530Y23142D01*
X437080Y22088D01*
X435812Y20820D01*
X434758Y19370D01*
X433944Y17772D01*
X433470Y16311D01*
X431299Y21551D01*
X427251Y25599D01*
X421962Y27790D01*
X416238Y27790D01*
X410949Y25599D01*
X406901Y21551D01*
X406400Y20342D01*
X405899Y21551D01*
X401851Y25599D01*
X396562Y27790D01*
X390838Y27790D01*
X385549Y25599D01*
X381501Y21551D01*
X381000Y20342D01*
X380499Y21551D01*
X376451Y25599D01*
X374950Y26221D01*
X374950Y28023D01*
X373938Y30467D01*
X362767Y41638D01*
X361892Y42000D01*
X463139Y42000D01*
X298233Y79362D02*
X296362Y81233D01*
X298233Y79362D02*
X300677Y78350D01*
X323000Y78350D01*
X323000Y77722D01*
X325722Y75000D01*
X323000Y72278D01*
X323000Y57722D01*
X325722Y55000D01*
X323000Y52278D01*
X323000Y42650D01*
X310754Y42650D01*
X294384Y59020D01*
X295101Y59737D01*
X295693Y60763D01*
X296000Y61908D01*
X296000Y62500D01*
X292650Y62500D01*
X292650Y62500D01*
X296000Y62500D01*
X296000Y63092D01*
X295693Y64237D01*
X295101Y65263D01*
X294263Y66101D01*
X293237Y66693D01*
X292650Y66851D01*
X292650Y84946D01*
X296362Y81233D01*
X106802Y89563D02*
X105325Y89563D01*
X105940Y89818D01*
X106643Y90521D01*
X107024Y91440D01*
X107024Y95231D01*
X103262Y95231D01*
X103262Y95755D01*
X107024Y95755D01*
X107024Y99546D01*
X106643Y100465D01*
X105940Y101168D01*
X105021Y101549D01*
X103262Y101549D01*
X103262Y95755D01*
X102738Y95755D01*
X102738Y101549D01*
X101802Y101549D01*
X101770Y101581D01*
X101770Y102347D01*
X101142Y103864D01*
X101344Y104066D01*
X101503Y104000D01*
X105000Y104000D01*
X105000Y110500D01*
X106000Y110500D01*
X106000Y104000D01*
X109497Y104000D01*
X110416Y104381D01*
X111119Y105084D01*
X111247Y105393D01*
X112263Y104807D01*
X113408Y104500D01*
X114000Y104500D01*
X114000Y109000D01*
X114000Y109000D01*
X114000Y104500D01*
X114183Y104500D01*
X114183Y93588D01*
X108480Y87885D01*
X106802Y89563D01*
X100085Y55000D02*
X97000Y51915D01*
X94400Y54515D01*
X94400Y55500D01*
X85650Y55500D01*
X85650Y56500D01*
X94400Y56500D01*
X94400Y57485D01*
X97000Y60085D01*
X100085Y57000D01*
X100899Y57000D01*
X100750Y56641D01*
X100750Y55000D01*
X100085Y55000D01*
X351051Y204401D02*
X355099Y208449D01*
X355600Y209658D01*
X356101Y208449D01*
X360149Y204401D01*
X365438Y202210D01*
X371162Y202210D01*
X376451Y204401D01*
X380499Y208449D01*
X381000Y209658D01*
X381501Y208449D01*
X385549Y204401D01*
X390838Y202210D01*
X396562Y202210D01*
X401851Y204401D01*
X405899Y208449D01*
X406400Y209658D01*
X406901Y208449D01*
X410949Y204401D01*
X416238Y202210D01*
X421962Y202210D01*
X427251Y204401D01*
X431299Y208449D01*
X433470Y213689D01*
X433944Y212228D01*
X434758Y210630D01*
X435812Y209180D01*
X437080Y207912D01*
X438530Y206858D01*
X440128Y206044D01*
X441833Y205490D01*
X443604Y205210D01*
X444000Y205210D01*
X444000Y216100D01*
X445000Y216100D01*
X445000Y205210D01*
X445396Y205210D01*
X447167Y205490D01*
X448872Y206044D01*
X450470Y206858D01*
X451920Y207912D01*
X453188Y209180D01*
X454242Y210630D01*
X455056Y212228D01*
X455610Y213933D01*
X455890Y215704D01*
X455890Y216100D01*
X445000Y216100D01*
X445000Y217100D01*
X455890Y217100D01*
X455890Y217496D01*
X455610Y219267D01*
X455056Y220972D01*
X454242Y222570D01*
X453188Y224020D01*
X452708Y224500D01*
X468404Y224500D01*
X464565Y221935D01*
X464565Y221935D01*
X464565Y221935D01*
X459036Y213660D01*
X459036Y213660D01*
X457095Y203900D01*
X457095Y203900D01*
X459036Y194140D01*
X459036Y194140D01*
X464475Y186000D01*
X413000Y186000D01*
X413000Y198000D01*
X345404Y198000D01*
X346667Y199262D01*
X348538Y201133D01*
X349550Y203577D01*
X349550Y203779D01*
X351051Y204401D01*
X323000Y151000D02*
X323000Y137722D01*
X325722Y135000D01*
X323000Y132278D01*
X323000Y117722D01*
X325722Y115000D01*
X323000Y112278D01*
X323000Y111875D01*
X321492Y112500D01*
X318508Y112500D01*
X315752Y111358D01*
X313642Y109248D01*
X312500Y106492D01*
X312500Y103508D01*
X313642Y100752D01*
X315752Y98642D01*
X318508Y97500D01*
X321492Y97500D01*
X323000Y98125D01*
X323000Y97722D01*
X325722Y95000D01*
X323000Y92278D01*
X323000Y91650D01*
X304755Y91650D01*
X297650Y98755D01*
X297650Y109203D01*
X298408Y109000D01*
X299000Y109000D01*
X299000Y113500D01*
X299000Y113500D01*
X299000Y109000D01*
X299592Y109000D01*
X300737Y109307D01*
X301763Y109899D01*
X302601Y110737D01*
X303193Y111763D01*
X303500Y112908D01*
X303500Y113500D01*
X299000Y113500D01*
X299000Y113500D01*
X303500Y113500D01*
X303500Y114092D01*
X303193Y115237D01*
X302601Y116263D01*
X301763Y117101D01*
X300737Y117693D01*
X299592Y118000D01*
X299000Y118000D01*
X299000Y113500D01*
X299000Y113500D01*
X299000Y118000D01*
X298408Y118000D01*
X297650Y117797D01*
X297650Y146146D01*
X298642Y143752D01*
X300752Y141642D01*
X303508Y140500D01*
X306492Y140500D01*
X309248Y141642D01*
X311358Y143752D01*
X312500Y146508D01*
X312500Y149492D01*
X311875Y151000D01*
X323000Y151000D01*
X305000Y134500D02*
X305000Y130000D01*
X305000Y130000D01*
X305000Y134500D01*
X304408Y134500D01*
X303263Y134193D01*
X302237Y133601D01*
X301399Y132763D01*
X300807Y131737D01*
X300500Y130592D01*
X300500Y130000D01*
X305000Y130000D01*
X305000Y130000D01*
X300500Y130000D01*
X300500Y129408D01*
X300807Y128263D01*
X301399Y127237D01*
X302237Y126399D01*
X303263Y125807D01*
X304408Y125500D01*
X305000Y125500D01*
X305000Y130000D01*
X305000Y130000D01*
X305000Y125500D01*
X305592Y125500D01*
X306737Y125807D01*
X307763Y126399D01*
X308601Y127237D01*
X309193Y128263D01*
X309500Y129408D01*
X309500Y130000D01*
X305000Y130000D01*
X305000Y130000D01*
X309500Y130000D01*
X309500Y130592D01*
X309193Y131737D01*
X308601Y132763D01*
X307763Y133601D01*
X306737Y134193D01*
X305592Y134500D01*
X305000Y134500D01*
X77500Y8000D02*
X43031Y8000D01*
X84500Y8000D02*
X85500Y8000D01*
X92500Y8000D02*
X101500Y8000D01*
X108500Y8000D02*
X109500Y8000D01*
X116500Y8000D02*
X151761Y8000D01*
X454532Y8000D02*
X464663Y8000D01*
X49075Y12000D02*
X46677Y12000D01*
X52625Y12000D02*
X53375Y12000D01*
X56925Y12000D02*
X62000Y12000D01*
X68500Y12000D02*
X69500Y12000D01*
X76000Y12000D02*
X77500Y12000D01*
X84500Y12000D02*
X85500Y12000D01*
X92500Y12000D02*
X101500Y12000D01*
X108500Y12000D02*
X109500Y12000D01*
X116500Y12000D02*
X118000Y12000D01*
X124500Y12000D02*
X125500Y12000D01*
X133625Y12000D02*
X134375Y12000D01*
X137925Y12000D02*
X150710Y12000D01*
X455810Y12000D02*
X461936Y12000D01*
X53375Y16000D02*
X52625Y16000D01*
X58250Y16000D02*
X62000Y16000D01*
X76000Y16000D02*
X77500Y16000D01*
X92500Y16000D02*
X101500Y16000D01*
X116500Y16000D02*
X118000Y16000D01*
X133625Y16000D02*
X134375Y16000D01*
X139250Y16000D02*
X150710Y16000D01*
X444000Y16000D02*
X445000Y16000D01*
X455620Y16000D02*
X459263Y16000D01*
X50294Y20000D02*
X50087Y20000D01*
X52625Y20000D02*
X53375Y20000D01*
X55706Y20000D02*
X61722Y20000D01*
X76278Y20000D02*
X77222Y20000D01*
X92778Y20000D02*
X101222Y20000D01*
X116778Y20000D02*
X117722Y20000D01*
X133625Y20000D02*
X134375Y20000D01*
X136706Y20000D02*
X152258Y20000D01*
X431942Y20000D02*
X435216Y20000D01*
X444000Y20000D02*
X445000Y20000D01*
X453784Y20000D02*
X458308Y20000D01*
X59000Y24000D02*
X50623Y24000D01*
X95500Y24000D02*
X98500Y24000D01*
X135000Y24000D02*
X155350Y24000D01*
X174850Y24000D02*
X180750Y24000D01*
X251050Y24000D02*
X256950Y24000D01*
X378050Y24000D02*
X383950Y24000D01*
X403450Y24000D02*
X409350Y24000D01*
X428850Y24000D02*
X440265Y24000D01*
X444000Y24000D02*
X445000Y24000D01*
X448735Y24000D02*
X457513Y24000D01*
X59000Y28000D02*
X50623Y28000D01*
X95500Y28000D02*
X98500Y28000D01*
X135000Y28000D02*
X194032Y28000D01*
X247950Y28000D02*
X259350Y28000D01*
X374950Y28000D02*
X457473Y28000D01*
X59000Y32000D02*
X50164Y32000D01*
X95500Y32000D02*
X98500Y32000D01*
X135000Y32000D02*
X194032Y32000D01*
X247950Y32000D02*
X259350Y32000D01*
X372404Y32000D02*
X458269Y32000D01*
X60722Y36000D02*
X48614Y36000D01*
X95500Y36000D02*
X98500Y36000D01*
X133278Y36000D02*
X194032Y36000D01*
X247950Y36000D02*
X259350Y36000D01*
X368404Y36000D02*
X459130Y36000D01*
X61594Y40000D02*
X46859Y40000D01*
X95915Y40000D02*
X98085Y40000D01*
X119615Y40000D02*
X121609Y40000D01*
X130391Y40000D02*
X164000Y40000D01*
X173500Y40000D02*
X174500Y40000D01*
X184000Y40000D02*
X194032Y40000D01*
X247950Y40000D02*
X259350Y40000D01*
X364404Y40000D02*
X461803Y40000D01*
X7249Y44000D02*
X5500Y44000D01*
X43213Y44000D02*
X57393Y44000D01*
X121100Y44000D02*
X122636Y44000D01*
X126000Y44000D02*
X126000Y44000D01*
X129364Y44000D02*
X147609Y44000D01*
X152000Y44000D02*
X152000Y44000D01*
X156391Y44000D02*
X164000Y44000D01*
X173500Y44000D02*
X174500Y44000D01*
X192107Y44000D02*
X194032Y44000D01*
X247950Y44000D02*
X259350Y44000D01*
X309404Y44000D02*
X323000Y44000D01*
X12546Y48000D02*
X5500Y48000D01*
X38006Y48000D02*
X53393Y48000D01*
X121100Y48000D02*
X148636Y48000D01*
X152000Y48000D02*
X152000Y48000D01*
X155364Y48000D02*
X164000Y48000D01*
X173500Y48000D02*
X174500Y48000D01*
X247950Y48000D02*
X259350Y48000D01*
X305404Y48000D02*
X323000Y48000D01*
X51003Y52000D02*
X5500Y52000D01*
X96915Y52000D02*
X97085Y52000D01*
X120615Y52000D02*
X164964Y52000D01*
X173500Y52000D02*
X174500Y52000D01*
X247950Y52000D02*
X259350Y52000D01*
X301404Y52000D02*
X323000Y52000D01*
X21222Y56000D02*
X5500Y56000D01*
X24500Y56000D02*
X25500Y56000D01*
X28778Y56000D02*
X51000Y56000D01*
X72375Y56000D02*
X84650Y56000D01*
X85650Y56000D02*
X100750Y56000D01*
X117250Y56000D02*
X162722Y56000D01*
X247950Y56000D02*
X259350Y56000D01*
X297404Y56000D02*
X324722Y56000D01*
X24500Y60000D02*
X5500Y60000D01*
X25500Y60000D02*
X50000Y60000D01*
X96915Y60000D02*
X97085Y60000D01*
X120615Y60000D02*
X154595Y60000D01*
X247950Y60000D02*
X259350Y60000D01*
X295253Y60000D02*
X323000Y60000D01*
X50000Y64000D02*
X28903Y64000D01*
X121100Y64000D02*
X150595Y64000D01*
X247950Y64000D02*
X259350Y64000D01*
X295757Y64000D02*
X323000Y64000D01*
X50000Y68000D02*
X31250Y68000D01*
X121100Y68000D02*
X146595Y68000D01*
X247950Y68000D02*
X259350Y68000D01*
X292650Y68000D02*
X323000Y68000D01*
X50722Y72000D02*
X31250Y72000D01*
X119615Y72000D02*
X121393Y72000D01*
X130607Y72000D02*
X142595Y72000D01*
X245404Y72000D02*
X259350Y72000D01*
X292650Y72000D02*
X323000Y72000D01*
X51003Y76000D02*
X31250Y76000D01*
X115404Y76000D02*
X118710Y76000D01*
X133289Y76000D02*
X139045Y76000D01*
X157404Y76000D02*
X162722Y76000D01*
X241404Y76000D02*
X259350Y76000D01*
X292650Y76000D02*
X324722Y76000D01*
X39422Y80000D02*
X31250Y80000D01*
X49578Y80000D02*
X53393Y80000D01*
X133290Y80000D02*
X138350Y80000D01*
X153404Y80000D02*
X161000Y80000D01*
X237404Y80000D02*
X259350Y80000D01*
X292650Y80000D02*
X297595Y80000D01*
X34456Y84000D02*
X31250Y84000D01*
X54544Y84000D02*
X57393Y84000D01*
X130607Y84000D02*
X138350Y84000D01*
X151650Y84000D02*
X153959Y84000D01*
X158000Y84000D02*
X158000Y84000D01*
X233404Y84000D02*
X259350Y84000D01*
X292650Y84000D02*
X293595Y84000D01*
X32786Y88000D02*
X31250Y88000D01*
X56214Y88000D02*
X61393Y88000D01*
X108365Y88000D02*
X108596Y88000D01*
X126857Y88000D02*
X138350Y88000D01*
X151650Y88000D02*
X153959Y88000D01*
X158000Y88000D02*
X158000Y88000D01*
X229404Y88000D02*
X257761Y88000D01*
X32625Y92000D02*
X31250Y92000D01*
X56375Y92000D02*
X63000Y92000D01*
X107024Y92000D02*
X112596Y92000D01*
X130459Y92000D02*
X138350Y92000D01*
X151650Y92000D02*
X161000Y92000D01*
X225404Y92000D02*
X235893Y92000D01*
X304404Y92000D02*
X323000Y92000D01*
X33821Y96000D02*
X28653Y96000D01*
X55179Y96000D02*
X63000Y96000D01*
X102738Y96000D02*
X103262Y96000D01*
X107024Y96000D02*
X114183Y96000D01*
X129181Y96000D02*
X138350Y96000D01*
X151650Y96000D02*
X162722Y96000D01*
X221404Y96000D02*
X234000Y96000D01*
X300404Y96000D02*
X324722Y96000D01*
X36956Y100000D02*
X26828Y100000D01*
X54500Y100000D02*
X55500Y100000D01*
X60158Y100000D02*
X63000Y100000D01*
X102738Y100000D02*
X103262Y100000D01*
X106836Y100000D02*
X114183Y100000D01*
X127483Y100000D02*
X138350Y100000D01*
X151650Y100000D02*
X161000Y100000D01*
X217404Y100000D02*
X234625Y100000D01*
X297650Y100000D02*
X314393Y100000D01*
X49842Y104000D02*
X27000Y104000D01*
X54500Y104000D02*
X55500Y104000D01*
X60158Y104000D02*
X63000Y104000D01*
X101278Y104000D02*
X101503Y104000D01*
X105000Y104000D02*
X106000Y104000D01*
X109497Y104000D02*
X114183Y104000D01*
X127483Y104000D02*
X138350Y104000D01*
X151650Y104000D02*
X161000Y104000D01*
X213404Y104000D02*
X238801Y104000D01*
X244199Y104000D02*
X264350Y104000D01*
X297650Y104000D02*
X312500Y104000D01*
X63000Y108000D02*
X26000Y108000D01*
X105000Y108000D02*
X106000Y108000D01*
X114000Y108000D02*
X114000Y108000D01*
X127483Y108000D02*
X138350Y108000D01*
X151650Y108000D02*
X161000Y108000D01*
X210000Y108000D02*
X210000Y108000D01*
X214500Y108000D02*
X264350Y108000D01*
X297650Y108000D02*
X313125Y108000D01*
X63000Y112000D02*
X23385Y112000D01*
X127483Y112000D02*
X138350Y112000D01*
X151650Y112000D02*
X161000Y112000D01*
X205404Y112000D02*
X241195Y112000D01*
X299000Y112000D02*
X299000Y112000D01*
X303257Y112000D02*
X317301Y112000D01*
X322699Y112000D02*
X323000Y112000D01*
X63000Y116000D02*
X21385Y116000D01*
X127483Y116000D02*
X138350Y116000D01*
X151650Y116000D02*
X162722Y116000D01*
X193500Y116000D02*
X238628Y116000D01*
X299000Y116000D02*
X299000Y116000D01*
X302753Y116000D02*
X324722Y116000D01*
X63000Y120000D02*
X25172Y120000D01*
X126858Y120000D02*
X138350Y120000D01*
X151650Y120000D02*
X161000Y120000D01*
X196607Y120000D02*
X238793Y120000D01*
X297650Y120000D02*
X323000Y120000D01*
X63000Y124000D02*
X26828Y124000D01*
X123404Y124000D02*
X138350Y124000D01*
X151650Y124000D02*
X161000Y124000D01*
X198500Y124000D02*
X241591Y124000D01*
X297650Y124000D02*
X323000Y124000D01*
X40629Y128000D02*
X27000Y128000D01*
X48371Y128000D02*
X63000Y128000D01*
X120278Y128000D02*
X138350Y128000D01*
X151650Y128000D02*
X161000Y128000D01*
X197875Y128000D02*
X243539Y128000D01*
X297650Y128000D02*
X300959Y128000D01*
X305000Y128000D02*
X305000Y128000D01*
X309041Y128000D02*
X323000Y128000D01*
X34956Y132000D02*
X26000Y132000D01*
X54044Y132000D02*
X63000Y132000D01*
X119468Y132000D02*
X138350Y132000D01*
X151650Y132000D02*
X161000Y132000D01*
X187000Y132000D02*
X188301Y132000D01*
X193699Y132000D02*
X246711Y132000D01*
X283657Y132000D02*
X284350Y132000D01*
X297650Y132000D02*
X300959Y132000D01*
X305000Y132000D02*
X305000Y132000D01*
X309041Y132000D02*
X323000Y132000D01*
X32993Y136000D02*
X30653Y136000D01*
X56007Y136000D02*
X63000Y136000D01*
X119468Y136000D02*
X138350Y136000D01*
X151650Y136000D02*
X162722Y136000D01*
X189000Y136000D02*
X189000Y136000D01*
X193391Y136000D02*
X249393Y136000D01*
X279657Y136000D02*
X284350Y136000D01*
X297650Y136000D02*
X324722Y136000D01*
X32625Y140000D02*
X31250Y140000D01*
X56375Y140000D02*
X62000Y140000D01*
X119468Y140000D02*
X138350Y140000D01*
X213107Y140000D02*
X253211Y140000D01*
X275614Y140000D02*
X284350Y140000D01*
X297650Y140000D02*
X323000Y140000D01*
X33614Y144000D02*
X31250Y144000D01*
X55386Y144000D02*
X62542Y144000D01*
X119468Y144000D02*
X138631Y144000D01*
X215000Y144000D02*
X284350Y144000D01*
X297650Y144000D02*
X298539Y144000D01*
X311461Y144000D02*
X323000Y144000D01*
X36456Y148000D02*
X31250Y148000D01*
X52544Y148000D02*
X65479Y148000D01*
X119468Y148000D02*
X141596Y148000D01*
X214375Y148000D02*
X284350Y148000D01*
X312500Y148000D02*
X323000Y148000D01*
X55722Y152000D02*
X31250Y152000D01*
X68278Y152000D02*
X70893Y152000D01*
X119468Y152000D02*
X155301Y152000D01*
X160699Y152000D02*
X161000Y152000D01*
X187000Y152000D02*
X204801Y152000D01*
X210199Y152000D02*
X284350Y152000D01*
X53000Y156000D02*
X31250Y156000D01*
X87896Y156000D02*
X90104Y156000D01*
X119693Y156000D02*
X162722Y156000D01*
X185278Y156000D02*
X284350Y156000D01*
X53000Y160000D02*
X31250Y160000D01*
X87896Y160000D02*
X90104Y160000D01*
X122607Y160000D02*
X161000Y160000D01*
X187000Y160000D02*
X280595Y160000D01*
X53000Y164000D02*
X46278Y164000D01*
X87896Y164000D02*
X90104Y164000D01*
X125289Y164000D02*
X142722Y164000D01*
X158278Y164000D02*
X161000Y164000D01*
X187000Y164000D02*
X215393Y164000D01*
X55722Y168000D02*
X49500Y168000D01*
X68278Y168000D02*
X71308Y168000D01*
X87896Y168000D02*
X90104Y168000D01*
X125289Y168000D02*
X140500Y168000D01*
X190199Y168000D02*
X212710Y168000D01*
X56000Y172000D02*
X49500Y172000D01*
X68000Y172000D02*
X91358Y172000D01*
X131000Y172000D02*
X132000Y172000D01*
X139500Y172000D02*
X140500Y172000D01*
X194375Y172000D02*
X212711Y172000D01*
X72634Y176000D02*
X72308Y176000D01*
X86570Y176000D02*
X91430Y176000D01*
X132000Y176000D02*
X140500Y176000D01*
X204607Y176000D02*
X209439Y176000D01*
X89500Y180000D02*
X88500Y180000D01*
X131000Y180000D02*
X132000Y180000D01*
X139500Y180000D02*
X142722Y180000D01*
X206500Y180000D02*
X208400Y180000D01*
X89500Y184000D02*
X88500Y184000D01*
X124778Y184000D02*
X143500Y184000D01*
X157500Y184000D02*
X164000Y184000D01*
X188000Y184000D02*
X188000Y184000D01*
X192041Y184000D02*
X192125Y184000D01*
X205875Y184000D02*
X209250Y184000D01*
X89500Y188000D02*
X88500Y188000D01*
X121278Y188000D02*
X143500Y188000D01*
X150000Y188000D02*
X151000Y188000D01*
X157500Y188000D02*
X164000Y188000D01*
X173500Y188000D02*
X174500Y188000D01*
X184000Y188000D02*
X192350Y188000D01*
X205650Y188000D02*
X209250Y188000D01*
X413000Y188000D02*
X463139Y188000D01*
X89500Y192000D02*
X88500Y192000D01*
X128000Y192000D02*
X129000Y192000D01*
X136500Y192000D02*
X164964Y192000D01*
X173500Y192000D02*
X174500Y192000D01*
X183036Y192000D02*
X192350Y192000D01*
X205650Y192000D02*
X209250Y192000D01*
X413000Y192000D02*
X460466Y192000D01*
X90898Y196000D02*
X86478Y196000D01*
X136500Y196000D02*
X192350Y196000D01*
X205650Y196000D02*
X209250Y196000D01*
X413000Y196000D02*
X458666Y196000D01*
X79822Y200000D02*
X74136Y200000D01*
X128000Y200000D02*
X129000Y200000D01*
X136500Y200000D02*
X188595Y200000D01*
X205650Y200000D02*
X209250Y200000D01*
X347405Y200000D02*
X457871Y200000D01*
X78050Y204000D02*
X74136Y204000D01*
X122278Y204000D02*
X157916Y204000D01*
X172284Y204000D02*
X183316Y204000D01*
X203404Y204000D02*
X208716Y204000D01*
X350084Y204000D02*
X361116Y204000D01*
X375484Y204000D02*
X386516Y204000D01*
X400884Y204000D02*
X411916Y204000D01*
X426284Y204000D02*
X457115Y204000D01*
X78050Y208000D02*
X74136Y208000D01*
X118628Y208000D02*
X153349Y208000D01*
X176851Y208000D02*
X178749Y208000D01*
X202251Y208000D02*
X204149Y208000D01*
X354651Y208000D02*
X356549Y208000D01*
X380051Y208000D02*
X381949Y208000D01*
X405451Y208000D02*
X407349Y208000D01*
X430851Y208000D02*
X436992Y208000D01*
X444000Y208000D02*
X445000Y208000D01*
X452008Y208000D02*
X457911Y208000D01*
X77893Y212000D02*
X74136Y212000D01*
X109500Y212000D02*
X110500Y212000D01*
X118827Y212000D02*
X151430Y212000D01*
X432770Y212000D02*
X434061Y212000D01*
X444000Y212000D02*
X445000Y212000D01*
X454939Y212000D02*
X458706Y212000D01*
X102911Y216000D02*
X101950Y216000D01*
X109500Y216000D02*
X110500Y216000D01*
X117089Y216000D02*
X150710Y216000D01*
X444000Y216000D02*
X445000Y216000D01*
X455890Y216000D02*
X460600Y216000D01*
X150933Y220000D02*
X101178Y220000D01*
X455371Y220000D02*
X463273Y220000D01*
X152590Y224000D02*
X87107Y224000D01*
X453202Y224000D02*
X467656Y224000D01*
X8000Y63125D02*
X8000Y44567D01*
X12000Y47588D02*
X12000Y63125D01*
X16000Y63125D02*
X16000Y49650D01*
X20000Y50788D02*
X20000Y57660D01*
X20000Y59500D02*
X20000Y60500D01*
X20000Y62340D02*
X20000Y63125D01*
X20000Y114586D02*
X20000Y115414D01*
X24000Y54574D02*
X24000Y51561D01*
X24000Y59500D02*
X24000Y60500D01*
X24000Y111385D02*
X24000Y118615D01*
X28000Y55381D02*
X28000Y51190D01*
X28000Y59500D02*
X28000Y60500D01*
X28000Y96625D02*
X28000Y133375D01*
X32000Y164000D02*
X32000Y50820D01*
X36000Y48999D02*
X36000Y82456D01*
X36000Y99044D02*
X36000Y130956D01*
X36000Y147544D02*
X36000Y164000D01*
X40000Y79761D02*
X40000Y47007D01*
X40000Y101739D02*
X40000Y128261D01*
X40000Y150239D02*
X40000Y164000D01*
X44000Y9063D02*
X44000Y5500D01*
X44000Y43137D02*
X44000Y78875D01*
X44000Y102625D02*
X44000Y127375D01*
X44000Y151125D02*
X44000Y164000D01*
X48000Y13876D02*
X48000Y5500D01*
X48000Y37586D02*
X48000Y79346D01*
X48000Y102154D02*
X48000Y127846D01*
X48000Y150654D02*
X48000Y165722D01*
X52000Y10333D02*
X52000Y5500D01*
X52000Y20667D02*
X52000Y49594D01*
X52000Y78406D02*
X52000Y81456D01*
X52000Y101500D02*
X52000Y102500D01*
X52000Y106619D02*
X52000Y129956D01*
X52000Y148544D02*
X52000Y174596D01*
X56000Y11170D02*
X56000Y5500D01*
X56000Y15125D02*
X56000Y15875D01*
X56000Y19830D02*
X56000Y45393D01*
X56000Y82607D02*
X56000Y87483D01*
X56000Y94017D02*
X56000Y96574D01*
X56000Y101500D02*
X56000Y102500D01*
X56000Y107426D02*
X56000Y135983D01*
X56000Y142517D02*
X56000Y151722D01*
X56000Y169500D02*
X56000Y170500D01*
X56000Y173497D02*
X56000Y175086D01*
X60000Y21722D02*
X60000Y5500D01*
X60000Y35278D02*
X60000Y41393D01*
X60000Y86607D02*
X60000Y99660D01*
X60000Y101500D02*
X60000Y102500D01*
X60000Y104340D02*
X60000Y151500D01*
X60000Y169500D02*
X60000Y170500D01*
X64000Y9501D02*
X64000Y5500D01*
X64000Y15000D02*
X64000Y16000D01*
X64000Y37500D02*
X64000Y39003D01*
X64000Y146521D02*
X64000Y151500D01*
X64000Y169500D02*
X64000Y170500D01*
X68000Y9500D02*
X68000Y5500D01*
X68000Y15000D02*
X68000Y16000D01*
X68000Y37500D02*
X68000Y39000D01*
X68000Y149165D02*
X68000Y151722D01*
X68000Y168278D02*
X68000Y175086D01*
X72000Y9500D02*
X72000Y5500D01*
X72000Y15000D02*
X72000Y16000D01*
X72000Y37500D02*
X72000Y39000D01*
X72000Y169366D02*
X72000Y175872D01*
X76000Y19722D02*
X76000Y5500D01*
X76000Y55625D02*
X76000Y56375D01*
X76000Y171896D02*
X76000Y174104D01*
X76000Y197804D02*
X76000Y213867D01*
X80000Y5500D02*
X80000Y5500D01*
X80000Y13000D02*
X80000Y14000D01*
X80000Y55500D02*
X80000Y56500D01*
X80000Y171896D02*
X80000Y174104D01*
X80000Y197804D02*
X80000Y199822D01*
X84000Y5500D02*
X84000Y5500D01*
X84000Y13000D02*
X84000Y14000D01*
X84000Y55500D02*
X84000Y56500D01*
X84000Y171896D02*
X84000Y174104D01*
X84000Y197804D02*
X84000Y198550D01*
X88000Y5500D02*
X88000Y5500D01*
X88000Y13000D02*
X88000Y14000D01*
X88000Y55500D02*
X88000Y56500D01*
X88000Y154500D02*
X88000Y177104D01*
X88000Y194804D02*
X88000Y198550D01*
X88000Y223107D02*
X88000Y224500D01*
X92000Y6464D02*
X92000Y5500D01*
X92000Y13000D02*
X92000Y14000D01*
X92000Y55500D02*
X92000Y56500D01*
X92000Y173550D02*
X92000Y175430D01*
X92000Y222450D02*
X92000Y224500D01*
X96000Y40085D02*
X96000Y5500D01*
X96000Y52915D02*
X96000Y59085D01*
X96000Y222450D02*
X96000Y224500D01*
X100000Y21222D02*
X100000Y5500D01*
X100000Y54915D02*
X100000Y57085D01*
X100000Y221178D02*
X100000Y224500D01*
X104000Y5500D02*
X104000Y5500D01*
X104000Y13000D02*
X104000Y14000D01*
X104000Y95231D02*
X104000Y95755D01*
X104000Y101549D02*
X104000Y104000D01*
X104000Y217157D02*
X104000Y224500D01*
X108000Y5500D02*
X108000Y5500D01*
X108000Y13000D02*
X108000Y14000D01*
X108000Y88365D02*
X108000Y104000D01*
X108000Y219228D02*
X108000Y224500D01*
X112000Y5500D02*
X112000Y5500D01*
X112000Y13000D02*
X112000Y14000D01*
X112000Y91405D02*
X112000Y104959D01*
X112000Y210000D02*
X112000Y211000D01*
X112000Y219227D02*
X112000Y224500D01*
X116000Y6464D02*
X116000Y5500D01*
X116000Y13000D02*
X116000Y14000D01*
X116000Y74000D02*
X116000Y76596D01*
X116000Y210000D02*
X116000Y211000D01*
X116000Y217157D02*
X116000Y224500D01*
X120000Y9501D02*
X120000Y5500D01*
X120000Y15000D02*
X120000Y16000D01*
X120000Y37500D02*
X120000Y40385D01*
X120000Y52615D02*
X120000Y59385D01*
X120000Y71615D02*
X120000Y73393D01*
X120000Y128278D02*
X120000Y156740D01*
X120000Y186500D02*
X120000Y186722D01*
X120000Y206278D02*
X120000Y224500D01*
X124000Y9500D02*
X124000Y5500D01*
X124000Y15000D02*
X124000Y16000D01*
X124000Y41000D02*
X124000Y41000D01*
X124000Y45041D02*
X124000Y70711D01*
X124000Y123404D02*
X124000Y161393D01*
X124000Y184778D02*
X124000Y189000D01*
X124000Y204000D02*
X124000Y224500D01*
X128000Y9500D02*
X128000Y5500D01*
X128000Y15000D02*
X128000Y16000D01*
X128000Y41000D02*
X128000Y41000D01*
X128000Y45041D02*
X128000Y70710D01*
X128000Y85289D02*
X128000Y88752D01*
X128000Y92802D02*
X128000Y92802D01*
X128000Y96852D02*
X128000Y168500D01*
X128000Y183500D02*
X128000Y189000D01*
X128000Y204000D02*
X128000Y224500D01*
X132000Y10601D02*
X132000Y5500D01*
X132000Y15125D02*
X132000Y15875D01*
X132000Y37278D02*
X132000Y73393D01*
X132000Y82607D02*
X132000Y168500D01*
X132000Y183500D02*
X132000Y189000D01*
X132000Y196000D02*
X132000Y197000D01*
X132000Y204000D02*
X132000Y224500D01*
X136000Y10601D02*
X136000Y5500D01*
X136000Y15125D02*
X136000Y15875D01*
X136000Y20399D02*
X136000Y168500D01*
X136000Y175500D02*
X136000Y176500D01*
X136000Y183500D02*
X136000Y189964D01*
X136000Y196000D02*
X136000Y197000D01*
X136000Y203036D02*
X136000Y224500D01*
X140000Y74595D02*
X140000Y5500D01*
X140000Y146405D02*
X140000Y224500D01*
X144000Y70595D02*
X144000Y5500D01*
X144000Y150405D02*
X144000Y163000D01*
X144000Y184500D02*
X144000Y185500D01*
X144000Y190036D02*
X144000Y224500D01*
X148000Y42928D02*
X148000Y5500D01*
X148000Y45000D02*
X148000Y45000D01*
X148000Y47072D02*
X148000Y66595D01*
X148000Y151650D02*
X148000Y163000D01*
X148000Y184500D02*
X148000Y185500D01*
X148000Y191000D02*
X148000Y224500D01*
X152000Y7423D02*
X152000Y5500D01*
X152000Y19377D02*
X152000Y45000D01*
X152000Y62595D01*
X152000Y81404D02*
X152000Y138350D01*
X152000Y151650D02*
X152000Y163000D01*
X152000Y184500D02*
X152000Y185500D01*
X152000Y191000D02*
X152000Y210623D01*
X152000Y222577D02*
X152000Y224500D01*
X156000Y42928D02*
X156000Y24651D01*
X156000Y45000D02*
X156000Y45000D01*
X156000Y47072D02*
X156000Y59045D01*
X156000Y77404D02*
X156000Y81959D01*
X156000Y86000D02*
X156000Y86000D01*
X156000Y90041D02*
X156000Y137711D01*
X156000Y152290D02*
X156000Y163000D01*
X156000Y184500D02*
X156000Y185500D01*
X156000Y190792D02*
X156000Y205349D01*
X160000Y58350D02*
X160000Y26863D01*
X160000Y73404D02*
X160000Y81959D01*
X160000Y90041D02*
X160000Y137710D01*
X160000Y152289D02*
X160000Y165501D01*
X160000Y181770D02*
X160000Y203137D01*
X164000Y39503D02*
X164000Y27790D01*
X164000Y44500D02*
X164000Y45500D01*
X164000Y50497D02*
X164000Y54722D01*
X164000Y184500D02*
X164000Y185500D01*
X164000Y190497D02*
X164000Y202210D01*
X168000Y37500D02*
X168000Y27774D01*
X168000Y44500D02*
X168000Y45500D01*
X168000Y52500D02*
X168000Y54500D01*
X168000Y184500D02*
X168000Y185500D01*
X168000Y192500D02*
X168000Y202226D01*
X172000Y37500D02*
X172000Y26118D01*
X172000Y44500D02*
X172000Y45500D01*
X172000Y52500D02*
X172000Y54500D01*
X172000Y184500D02*
X172000Y185500D01*
X172000Y192500D02*
X172000Y203882D01*
X176000Y37500D02*
X176000Y22850D01*
X176000Y52500D02*
X176000Y54500D01*
X176000Y184500D02*
X176000Y185500D01*
X176000Y192500D02*
X176000Y207150D01*
X180000Y37500D02*
X180000Y23251D01*
X180000Y52500D02*
X180000Y54500D01*
X180000Y184500D02*
X180000Y185500D01*
X180000Y192500D02*
X180000Y206749D01*
X184000Y43332D02*
X184000Y26283D01*
X184000Y184072D02*
X184000Y203717D01*
X188000Y42500D02*
X188000Y27790D01*
X188000Y131875D02*
X188000Y132609D01*
X188000Y151650D02*
X188000Y167500D01*
X188000Y182500D02*
X188000Y200596D01*
X192000Y43893D02*
X192000Y27790D01*
X192000Y132500D02*
X192000Y133636D01*
X192000Y137000D02*
X192000Y137000D01*
X192000Y151650D02*
X192000Y168893D01*
X192000Y184072D02*
X192000Y196596D01*
X196000Y119393D02*
X196000Y115353D01*
X196000Y130607D02*
X196000Y138350D01*
X196000Y151650D02*
X196000Y174125D01*
X200000Y138350D02*
X200000Y114714D01*
X200000Y151650D02*
X200000Y173500D01*
X204000Y138332D02*
X204000Y113404D01*
X204000Y151668D02*
X204000Y175393D01*
X204000Y203404D02*
X204000Y208149D01*
X208000Y137500D02*
X208000Y111541D01*
X208000Y152500D02*
X208000Y204297D01*
X212000Y107500D02*
X212000Y107500D01*
X212000Y111541D02*
X212000Y138893D01*
X212000Y151107D02*
X212000Y173498D01*
X216000Y163539D02*
X216000Y101404D01*
X220000Y97404D02*
X220000Y162500D01*
X224000Y163350D02*
X224000Y93404D01*
X228000Y89404D02*
X228000Y163350D01*
X232000Y163350D02*
X232000Y85404D01*
X236000Y81404D02*
X236000Y91893D01*
X236000Y102107D02*
X236000Y163350D01*
X240000Y89503D02*
X240000Y77404D01*
X240000Y104497D02*
X240000Y113195D01*
X240000Y122409D02*
X240000Y163350D01*
X244000Y89918D02*
X244000Y73404D01*
X244000Y104082D02*
X244000Y110513D01*
X244000Y128607D02*
X244000Y163350D01*
X248000Y90350D02*
X248000Y26200D01*
X248000Y103650D02*
X248000Y110512D01*
X248000Y134607D02*
X248000Y163350D01*
X252000Y90350D02*
X252000Y23050D01*
X252000Y103650D02*
X252000Y111152D01*
X252000Y137881D02*
X252000Y163350D01*
X256000Y89695D02*
X256000Y23051D01*
X256000Y103650D02*
X256000Y111152D01*
X256000Y142057D02*
X256000Y163350D01*
X260000Y111152D02*
X260000Y103369D01*
X260000Y142682D02*
X260000Y163350D01*
X264000Y111152D02*
X264000Y100455D01*
X264000Y140982D02*
X264000Y163350D01*
X268000Y163350D02*
X268000Y140982D01*
X272000Y140982D02*
X272000Y163350D01*
X276000Y163350D02*
X276000Y139657D01*
X280000Y135657D02*
X280000Y160595D01*
X284000Y156595D02*
X284000Y131657D01*
X296000Y81596D02*
X296000Y57404D01*
X300000Y53404D02*
X300000Y78631D01*
X300000Y96404D02*
X300000Y109109D01*
X300000Y113500D02*
X300000Y113500D01*
X300000Y117891D02*
X300000Y142393D01*
X304000Y78350D02*
X304000Y49404D01*
X304000Y92404D02*
X304000Y125609D01*
X304000Y130000D02*
X304000Y130000D01*
X304000Y134391D02*
X304000Y140500D01*
X308000Y78350D02*
X308000Y45404D01*
X308000Y91650D02*
X308000Y126636D01*
X308000Y130000D02*
X308000Y130000D01*
X308000Y133364D02*
X308000Y141125D01*
X312000Y78350D02*
X312000Y42650D01*
X312000Y91650D02*
X312000Y145301D01*
X312000Y150699D02*
X312000Y151000D01*
X316000Y78350D02*
X316000Y42650D01*
X316000Y91650D02*
X316000Y98539D01*
X316000Y111461D02*
X316000Y151000D01*
X320000Y78350D02*
X320000Y42650D01*
X320000Y91650D02*
X320000Y97500D01*
X320000Y112500D02*
X320000Y151000D01*
X324000Y56722D02*
X324000Y53278D01*
X324000Y73278D02*
X324000Y76722D01*
X324000Y93278D02*
X324000Y96722D01*
X324000Y113278D02*
X324000Y116722D01*
X324000Y133278D02*
X324000Y136722D01*
X348000Y198000D02*
X348000Y200596D01*
X352000Y198000D02*
X352000Y205350D01*
X356000Y208692D02*
X356000Y198000D01*
X360000Y198000D02*
X360000Y204549D01*
X364000Y42000D02*
X364000Y40404D01*
X364000Y198000D02*
X364000Y202806D01*
X368000Y42000D02*
X368000Y36404D01*
X368000Y198000D02*
X368000Y202210D01*
X372000Y42000D02*
X372000Y32404D01*
X372000Y198000D02*
X372000Y202557D01*
X376000Y42000D02*
X376000Y25786D01*
X376000Y198000D02*
X376000Y204214D01*
X380000Y42000D02*
X380000Y22050D01*
X380000Y198000D02*
X380000Y207950D01*
X384000Y42000D02*
X384000Y24051D01*
X384000Y198000D02*
X384000Y205949D01*
X388000Y42000D02*
X388000Y26615D01*
X388000Y198000D02*
X388000Y203385D01*
X392000Y42000D02*
X392000Y27790D01*
X392000Y198000D02*
X392000Y202210D01*
X396000Y42000D02*
X396000Y27790D01*
X396000Y198000D02*
X396000Y202210D01*
X400000Y42000D02*
X400000Y26366D01*
X400000Y198000D02*
X400000Y203634D01*
X404000Y42000D02*
X404000Y23450D01*
X404000Y198000D02*
X404000Y206550D01*
X408000Y42000D02*
X408000Y22651D01*
X408000Y198000D02*
X408000Y207349D01*
X412000Y42000D02*
X412000Y26035D01*
X412000Y198000D02*
X412000Y203965D01*
X416000Y42000D02*
X416000Y27692D01*
X416000Y186000D02*
X416000Y202308D01*
X420000Y42000D02*
X420000Y27790D01*
X420000Y186000D02*
X420000Y202210D01*
X424000Y42000D02*
X424000Y26946D01*
X424000Y186000D02*
X424000Y203054D01*
X428000Y42000D02*
X428000Y24850D01*
X428000Y186000D02*
X428000Y205150D01*
X432000Y42000D02*
X432000Y19859D01*
X432000Y186000D02*
X432000Y210141D01*
X436000Y42000D02*
X436000Y21008D01*
X436000Y186000D02*
X436000Y208992D01*
X440000Y42000D02*
X440000Y23890D01*
X440000Y186000D02*
X440000Y206110D01*
X444000Y42000D02*
X444000Y13900D01*
X444000Y186000D02*
X444000Y216100D01*
X448000Y13900D02*
X448000Y12900D01*
X448000Y24239D02*
X448000Y42000D01*
X448000Y186000D02*
X448000Y205761D01*
X448000Y216100D02*
X448000Y217100D01*
X452000Y13900D02*
X452000Y12900D01*
X452000Y22008D02*
X452000Y42000D01*
X452000Y186000D02*
X452000Y207992D01*
X452000Y216100D02*
X452000Y217100D01*
X456000Y42000D02*
X456000Y5500D01*
X456000Y186000D02*
X456000Y224500D01*
X460000Y14898D02*
X460000Y5500D01*
X460000Y37302D02*
X460000Y42000D01*
X460000Y186000D02*
X460000Y192698D01*
X460000Y215102D02*
X460000Y224500D01*
X464000Y8911D02*
X464000Y5500D01*
X464000Y186000D02*
X464000Y186711D01*
X464000Y221089D02*
X464000Y224500D01*
X468000Y5770D02*
X468000Y5500D01*
X468000Y224230D02*
X468000Y224500D01*
D31*
X172500Y115000D03*
D36*
X172500Y106500D02*
X174000Y105000D01*
X172500Y106500D02*
X172500Y115000D01*
D31*
X186000Y117000D03*
D36*
X186000Y86000D01*
X185000Y85000D01*
X174000Y85000D01*
X174000Y65000D02*
X159000Y65000D01*
X156182Y67818D01*
D31*
X158000Y145000D03*
D36*
X148000Y145000D01*
X145000Y142000D01*
X145000Y79000D01*
X156182Y67818D01*
D31*
X191000Y125000D03*
D36*
X174000Y125000D01*
D31*
X207500Y145000D03*
D36*
X174000Y145000D01*
D31*
X220000Y170000D03*
D36*
X280000Y170000D01*
X291000Y159000D01*
X291000Y96000D01*
X302000Y85000D01*
X336000Y85000D01*
D31*
X241500Y97000D03*
D36*
X258000Y97000D01*
X266000Y89300D02*
X266000Y14400D01*
X266700Y13400D01*
X266000Y89300D02*
X258000Y97000D01*
D31*
X246000Y117802D03*
D36*
X269198Y117802D01*
X271000Y116000D01*
X271000Y54000D01*
X292100Y32900D02*
X292100Y13400D01*
X292100Y32900D02*
X271000Y54000D01*
D31*
X250000Y124000D03*
D36*
X270000Y124000D01*
X276000Y118000D01*
X276000Y55126D02*
X296432Y34694D01*
X296432Y34468D01*
X276000Y55126D02*
X276000Y118000D01*
X296432Y34468D02*
X317500Y13400D01*
D31*
X254000Y130000D03*
D36*
X270126Y130000D01*
X281000Y119126D01*
X342900Y25100D02*
X342900Y13400D01*
X281000Y56253D02*
X281000Y119126D01*
X281000Y56253D02*
X306253Y31000D01*
X337000Y31000D01*
X342900Y25100D01*
D31*
X259000Y135182D03*
D36*
X259850Y134332D01*
X271921Y134332D01*
X286000Y120253D01*
X286000Y58000D01*
X308000Y36000D01*
X368300Y26700D02*
X368300Y13400D01*
X359000Y36000D02*
X308000Y36000D01*
X359000Y36000D02*
X368300Y26700D01*
X190500Y207500D02*
X190500Y216600D01*
X199000Y199000D02*
X199000Y181000D01*
D31*
X199000Y181000D03*
D36*
X199000Y199000D02*
X190500Y207500D01*
X215900Y216600D02*
X215900Y180000D01*
D31*
X215900Y180000D03*
D36*
X241300Y191300D02*
X241300Y216600D01*
X241300Y191300D02*
X238000Y188000D01*
X231000Y188000D01*
D31*
X231000Y188000D03*
X254000Y193182D03*
D36*
X266700Y197700D02*
X266700Y216600D01*
X266700Y197700D02*
X262182Y193182D01*
X254000Y193182D01*
D31*
X118000Y166000D03*
X250000Y178000D03*
D36*
X250000Y182000D01*
X255000Y187000D01*
X281000Y187000D01*
X296000Y202000D01*
X340000Y202000D01*
X342900Y204900D01*
X342900Y216600D01*
D31*
X194000Y102032D03*
D36*
X194150Y102182D02*
X198147Y102182D01*
X194150Y102182D02*
X194000Y102032D01*
X198147Y102182D02*
X215900Y84429D01*
X215900Y13400D01*
D31*
X194000Y108064D03*
D36*
X199936Y108064D01*
X241300Y66700D02*
X241300Y13400D01*
X241300Y66700D02*
X199936Y108064D01*
D31*
X194000Y96000D03*
D36*
X200682Y89318D02*
X200682Y23582D01*
X190500Y13400D01*
X200682Y89318D02*
X194000Y96000D01*
D31*
X112818Y159000D03*
D36*
X112818Y122818D01*
X112000Y122000D01*
X116000Y122000D01*
X120833Y117167D01*
X120833Y90833D01*
X110507Y80507D02*
X103000Y80507D01*
X110507Y80507D02*
X120833Y90833D01*
D31*
X106786Y153000D03*
D36*
X106786Y141000D01*
X106786Y133786D01*
X106000Y133000D01*
X95000Y80507D02*
X85493Y80507D01*
X76000Y90000D01*
X76000Y136000D01*
X81000Y141000D02*
X106786Y141000D01*
X81000Y141000D02*
X76000Y136000D01*
D31*
X320000Y105000D03*
D34*
X336000Y105000D01*
D32*
X109000Y30500D02*
X108850Y30650D01*
X108850Y46500D01*
X111000Y28500D02*
X125000Y28500D01*
X111000Y28500D02*
X109000Y30500D01*
X108850Y46500D02*
X109000Y46650D01*
X109000Y55000D01*
D33*
X109000Y55000D03*
D31*
X187500Y50000D03*
D34*
X158000Y172000D02*
X150500Y172000D01*
X158000Y172000D02*
X161000Y175000D01*
D31*
X187500Y175000D03*
D34*
X161000Y175000D01*
D31*
X305000Y148000D03*
D34*
X95000Y101000D02*
X95000Y95493D01*
X92500Y103500D02*
X92500Y111000D01*
X92500Y103500D02*
X95000Y101000D01*
X95000Y95493D02*
X94507Y95000D01*
X88000Y95000D01*
D31*
X88000Y95000D03*
X81500Y133000D03*
X126000Y78000D03*
D34*
X96000Y133000D02*
X81500Y133000D01*
X81500Y125500D01*
X85000Y122000D02*
X102000Y122000D01*
X85000Y122000D02*
X81500Y125500D01*
D37*
X405000Y95000D02*
X426250Y95000D01*
X403500Y95000D02*
X390000Y95000D01*
X401000Y95000D02*
X403500Y95000D01*
X405000Y95000D01*
X360000Y95000D02*
X355000Y100000D01*
X355000Y180000D01*
X350000Y185000D01*
X336000Y185000D01*
X370000Y95000D02*
X380000Y95000D01*
X367500Y95000D02*
X360000Y95000D01*
X367500Y95000D02*
X370000Y95000D01*
D32*
X60000Y190633D02*
X49633Y190633D01*
D30*
X47000Y188000D03*
D32*
X105000Y176000D02*
X114500Y176000D01*
X105000Y176000D02*
X98398Y169398D01*
X98398Y160046D01*
X49633Y190633D02*
X47000Y188000D01*
X85150Y46500D02*
X85150Y30650D01*
X85000Y30500D01*
X83000Y28500D02*
X69000Y28500D01*
X83000Y28500D02*
X85000Y30500D01*
D30*
X70500Y141000D03*
D32*
X76500Y147000D01*
X98398Y150398D02*
X98398Y160046D01*
X95000Y147000D02*
X76500Y147000D01*
X95000Y147000D02*
X98398Y150398D01*
X85150Y46500D02*
X65500Y46500D01*
X58500Y53500D02*
X58500Y65500D01*
X58500Y53500D02*
X65500Y46500D01*
X58500Y65500D02*
X58500Y74500D01*
X70500Y86500D02*
X70500Y141000D01*
X70500Y86500D02*
X58500Y74500D01*
D38*
X14000Y127000D03*
X14000Y103000D03*
D34*
X68500Y65500D02*
X85150Y65500D01*
D32*
X79133Y221367D02*
X60000Y221367D01*
X79133Y221367D02*
X90000Y210500D01*
X98398Y196500D02*
X98398Y185954D01*
X98398Y196500D02*
X98398Y202102D01*
X90000Y210500D01*
X98398Y196500D02*
X111500Y196500D01*
D36*
X79602Y160046D02*
X79556Y160000D01*
X62000Y160000D01*
X41000Y173000D02*
X49736Y181736D01*
X72997Y185954D02*
X79602Y185954D01*
X68779Y181736D02*
X49736Y181736D01*
X68779Y181736D02*
X72997Y185954D01*
X31000Y173000D02*
X13000Y173000D01*
D31*
X13000Y173000D03*
M02*
