G04 EAGLE Gerber RS-274X export*
G75*
%MOMM*%
%FSLAX34Y34*%
%LPD*%
%INSilkscreen Bottom*%
%IPPOS*%
%AMOC8*
5,1,8,0,0,1.08239X$1,22.5*%
G01*
%ADD10C,0.200000*%
%ADD11C,0.152400*%
%ADD12C,0.076200*%
%ADD13C,0.609600*%
%ADD14C,0.127000*%


D10*
X412500Y80000D02*
X412502Y80099D01*
X412508Y80199D01*
X412518Y80298D01*
X412532Y80396D01*
X412549Y80494D01*
X412571Y80591D01*
X412596Y80687D01*
X412625Y80782D01*
X412658Y80876D01*
X412695Y80968D01*
X412735Y81059D01*
X412779Y81148D01*
X412827Y81236D01*
X412878Y81321D01*
X412932Y81404D01*
X412989Y81486D01*
X413050Y81564D01*
X413114Y81641D01*
X413180Y81714D01*
X413250Y81785D01*
X413322Y81853D01*
X413397Y81919D01*
X413475Y81981D01*
X413555Y82040D01*
X413637Y82096D01*
X413721Y82148D01*
X413808Y82197D01*
X413896Y82243D01*
X413986Y82285D01*
X414078Y82324D01*
X414171Y82359D01*
X414265Y82390D01*
X414361Y82417D01*
X414458Y82440D01*
X414555Y82460D01*
X414653Y82476D01*
X414752Y82488D01*
X414851Y82496D01*
X414950Y82500D01*
X415050Y82500D01*
X415149Y82496D01*
X415248Y82488D01*
X415347Y82476D01*
X415445Y82460D01*
X415542Y82440D01*
X415639Y82417D01*
X415735Y82390D01*
X415829Y82359D01*
X415922Y82324D01*
X416014Y82285D01*
X416104Y82243D01*
X416192Y82197D01*
X416279Y82148D01*
X416363Y82096D01*
X416445Y82040D01*
X416525Y81981D01*
X416603Y81919D01*
X416678Y81853D01*
X416750Y81785D01*
X416820Y81714D01*
X416886Y81641D01*
X416950Y81564D01*
X417011Y81486D01*
X417068Y81404D01*
X417122Y81321D01*
X417173Y81236D01*
X417221Y81148D01*
X417265Y81059D01*
X417305Y80968D01*
X417342Y80876D01*
X417375Y80782D01*
X417404Y80687D01*
X417429Y80591D01*
X417451Y80494D01*
X417468Y80396D01*
X417482Y80298D01*
X417492Y80199D01*
X417498Y80099D01*
X417500Y80000D01*
X417498Y79901D01*
X417492Y79801D01*
X417482Y79702D01*
X417468Y79604D01*
X417451Y79506D01*
X417429Y79409D01*
X417404Y79313D01*
X417375Y79218D01*
X417342Y79124D01*
X417305Y79032D01*
X417265Y78941D01*
X417221Y78852D01*
X417173Y78764D01*
X417122Y78679D01*
X417068Y78596D01*
X417011Y78514D01*
X416950Y78436D01*
X416886Y78359D01*
X416820Y78286D01*
X416750Y78215D01*
X416678Y78147D01*
X416603Y78081D01*
X416525Y78019D01*
X416445Y77960D01*
X416363Y77904D01*
X416279Y77852D01*
X416192Y77803D01*
X416104Y77757D01*
X416014Y77715D01*
X415922Y77676D01*
X415829Y77641D01*
X415735Y77610D01*
X415639Y77583D01*
X415542Y77560D01*
X415445Y77540D01*
X415347Y77524D01*
X415248Y77512D01*
X415149Y77504D01*
X415050Y77500D01*
X414950Y77500D01*
X414851Y77504D01*
X414752Y77512D01*
X414653Y77524D01*
X414555Y77540D01*
X414458Y77560D01*
X414361Y77583D01*
X414265Y77610D01*
X414171Y77641D01*
X414078Y77676D01*
X413986Y77715D01*
X413896Y77757D01*
X413808Y77803D01*
X413721Y77852D01*
X413637Y77904D01*
X413555Y77960D01*
X413475Y78019D01*
X413397Y78081D01*
X413322Y78147D01*
X413250Y78215D01*
X413180Y78286D01*
X413114Y78359D01*
X413050Y78436D01*
X412989Y78514D01*
X412932Y78596D01*
X412878Y78679D01*
X412827Y78764D01*
X412779Y78852D01*
X412735Y78941D01*
X412695Y79032D01*
X412658Y79124D01*
X412625Y79218D01*
X412596Y79313D01*
X412571Y79409D01*
X412549Y79506D01*
X412532Y79604D01*
X412518Y79702D01*
X412508Y79801D01*
X412502Y79901D01*
X412500Y80000D01*
D11*
X49840Y190252D02*
X49840Y221748D01*
X70160Y221748D02*
X70160Y190252D01*
D12*
X62653Y179295D02*
X58674Y179295D01*
X55689Y181616D01*
X58674Y179295D02*
X55689Y176973D01*
X58674Y179295D02*
X60000Y182942D01*
X58674Y179295D02*
X60000Y175647D01*
D13*
X200600Y45300D02*
X200602Y45409D01*
X200608Y45518D01*
X200618Y45626D01*
X200632Y45734D01*
X200649Y45842D01*
X200671Y45949D01*
X200696Y46055D01*
X200726Y46159D01*
X200759Y46263D01*
X200796Y46366D01*
X200836Y46467D01*
X200880Y46566D01*
X200928Y46664D01*
X200980Y46761D01*
X201034Y46855D01*
X201092Y46947D01*
X201154Y47037D01*
X201219Y47124D01*
X201286Y47210D01*
X201357Y47293D01*
X201431Y47373D01*
X201508Y47450D01*
X201587Y47525D01*
X201669Y47596D01*
X201754Y47665D01*
X201841Y47730D01*
X201930Y47793D01*
X202022Y47851D01*
X202116Y47907D01*
X202211Y47959D01*
X202309Y48008D01*
X202408Y48053D01*
X202509Y48095D01*
X202611Y48132D01*
X202714Y48166D01*
X202819Y48197D01*
X202925Y48223D01*
X203031Y48246D01*
X203139Y48264D01*
X203247Y48279D01*
X203355Y48290D01*
X203464Y48297D01*
X203573Y48300D01*
X203682Y48299D01*
X203791Y48294D01*
X203899Y48285D01*
X204007Y48272D01*
X204115Y48255D01*
X204222Y48235D01*
X204328Y48210D01*
X204433Y48182D01*
X204537Y48150D01*
X204640Y48114D01*
X204742Y48074D01*
X204842Y48031D01*
X204940Y47984D01*
X205037Y47934D01*
X205131Y47880D01*
X205224Y47822D01*
X205315Y47762D01*
X205403Y47698D01*
X205489Y47631D01*
X205572Y47561D01*
X205653Y47488D01*
X205731Y47412D01*
X205806Y47333D01*
X205879Y47251D01*
X205948Y47167D01*
X206014Y47081D01*
X206077Y46992D01*
X206137Y46901D01*
X206194Y46808D01*
X206247Y46713D01*
X206296Y46616D01*
X206342Y46517D01*
X206384Y46417D01*
X206423Y46315D01*
X206458Y46211D01*
X206489Y46107D01*
X206517Y46002D01*
X206540Y45895D01*
X206560Y45788D01*
X206576Y45680D01*
X206588Y45572D01*
X206596Y45463D01*
X206600Y45354D01*
X206600Y45246D01*
X206596Y45137D01*
X206588Y45028D01*
X206576Y44920D01*
X206560Y44812D01*
X206540Y44705D01*
X206517Y44598D01*
X206489Y44493D01*
X206458Y44389D01*
X206423Y44285D01*
X206384Y44183D01*
X206342Y44083D01*
X206296Y43984D01*
X206247Y43887D01*
X206194Y43792D01*
X206137Y43699D01*
X206077Y43608D01*
X206014Y43519D01*
X205948Y43433D01*
X205879Y43349D01*
X205806Y43267D01*
X205731Y43188D01*
X205653Y43112D01*
X205572Y43039D01*
X205489Y42969D01*
X205403Y42902D01*
X205315Y42838D01*
X205224Y42778D01*
X205131Y42720D01*
X205037Y42666D01*
X204940Y42616D01*
X204842Y42569D01*
X204742Y42526D01*
X204640Y42486D01*
X204537Y42450D01*
X204433Y42418D01*
X204328Y42390D01*
X204222Y42365D01*
X204115Y42345D01*
X204007Y42328D01*
X203899Y42315D01*
X203791Y42306D01*
X203682Y42301D01*
X203573Y42300D01*
X203464Y42303D01*
X203355Y42310D01*
X203247Y42321D01*
X203139Y42336D01*
X203031Y42354D01*
X202925Y42377D01*
X202819Y42403D01*
X202714Y42434D01*
X202611Y42468D01*
X202509Y42505D01*
X202408Y42547D01*
X202309Y42592D01*
X202211Y42641D01*
X202116Y42693D01*
X202022Y42749D01*
X201930Y42807D01*
X201841Y42870D01*
X201754Y42935D01*
X201669Y43004D01*
X201587Y43075D01*
X201508Y43150D01*
X201431Y43227D01*
X201357Y43307D01*
X201286Y43390D01*
X201219Y43476D01*
X201154Y43563D01*
X201092Y43653D01*
X201034Y43745D01*
X200980Y43839D01*
X200928Y43936D01*
X200880Y44034D01*
X200836Y44133D01*
X200796Y44234D01*
X200759Y44337D01*
X200726Y44441D01*
X200696Y44545D01*
X200671Y44651D01*
X200649Y44758D01*
X200632Y44866D01*
X200618Y44974D01*
X200608Y45082D01*
X200602Y45191D01*
X200600Y45300D01*
D14*
X174000Y38000D02*
X174000Y34000D01*
X336000Y34000D01*
X336000Y38000D01*
X174000Y192000D02*
X174000Y196000D01*
X336000Y196000D01*
X336000Y192000D01*
X105500Y40500D02*
X88500Y40500D01*
X88500Y71500D02*
X105500Y71500D01*
X88500Y71500D02*
X88500Y70500D01*
X105500Y70500D02*
X105500Y71500D01*
X105500Y41500D02*
X105500Y40500D01*
X88500Y40500D02*
X88500Y41500D01*
D10*
X76500Y39500D02*
X76502Y39563D01*
X76508Y39625D01*
X76518Y39687D01*
X76531Y39749D01*
X76549Y39809D01*
X76570Y39868D01*
X76595Y39926D01*
X76624Y39982D01*
X76656Y40036D01*
X76691Y40088D01*
X76729Y40137D01*
X76771Y40185D01*
X76815Y40229D01*
X76863Y40271D01*
X76912Y40309D01*
X76964Y40344D01*
X77018Y40376D01*
X77074Y40405D01*
X77132Y40430D01*
X77191Y40451D01*
X77251Y40469D01*
X77313Y40482D01*
X77375Y40492D01*
X77437Y40498D01*
X77500Y40500D01*
X77563Y40498D01*
X77625Y40492D01*
X77687Y40482D01*
X77749Y40469D01*
X77809Y40451D01*
X77868Y40430D01*
X77926Y40405D01*
X77982Y40376D01*
X78036Y40344D01*
X78088Y40309D01*
X78137Y40271D01*
X78185Y40229D01*
X78229Y40185D01*
X78271Y40137D01*
X78309Y40088D01*
X78344Y40036D01*
X78376Y39982D01*
X78405Y39926D01*
X78430Y39868D01*
X78451Y39809D01*
X78469Y39749D01*
X78482Y39687D01*
X78492Y39625D01*
X78498Y39563D01*
X78500Y39500D01*
X78498Y39437D01*
X78492Y39375D01*
X78482Y39313D01*
X78469Y39251D01*
X78451Y39191D01*
X78430Y39132D01*
X78405Y39074D01*
X78376Y39018D01*
X78344Y38964D01*
X78309Y38912D01*
X78271Y38863D01*
X78229Y38815D01*
X78185Y38771D01*
X78137Y38729D01*
X78088Y38691D01*
X78036Y38656D01*
X77982Y38624D01*
X77926Y38595D01*
X77868Y38570D01*
X77809Y38549D01*
X77749Y38531D01*
X77687Y38518D01*
X77625Y38508D01*
X77563Y38502D01*
X77500Y38500D01*
X77437Y38502D01*
X77375Y38508D01*
X77313Y38518D01*
X77251Y38531D01*
X77191Y38549D01*
X77132Y38570D01*
X77074Y38595D01*
X77018Y38624D01*
X76964Y38656D01*
X76912Y38691D01*
X76863Y38729D01*
X76815Y38771D01*
X76771Y38815D01*
X76729Y38863D01*
X76691Y38912D01*
X76656Y38964D01*
X76624Y39018D01*
X76595Y39074D01*
X76570Y39132D01*
X76549Y39191D01*
X76531Y39251D01*
X76518Y39313D01*
X76508Y39375D01*
X76502Y39437D01*
X76500Y39500D01*
D11*
X73506Y166904D02*
X73506Y179096D01*
X89856Y97144D02*
X89856Y78856D01*
X108144Y78856D02*
X108144Y97144D01*
X108144Y75808D02*
X108081Y75806D01*
X108019Y75800D01*
X107957Y75791D01*
X107896Y75777D01*
X107836Y75760D01*
X107777Y75739D01*
X107719Y75715D01*
X107663Y75687D01*
X107609Y75656D01*
X107557Y75621D01*
X107507Y75584D01*
X107460Y75543D01*
X107415Y75499D01*
X107372Y75453D01*
X107333Y75404D01*
X107297Y75353D01*
X107264Y75300D01*
X107235Y75245D01*
X107208Y75188D01*
X107186Y75130D01*
X107167Y75070D01*
X107152Y75009D01*
X107140Y74948D01*
X107132Y74886D01*
X107128Y74823D01*
X107128Y74761D01*
X107132Y74698D01*
X107140Y74636D01*
X107152Y74575D01*
X107167Y74514D01*
X107186Y74454D01*
X107208Y74396D01*
X107235Y74339D01*
X107264Y74284D01*
X107297Y74231D01*
X107333Y74180D01*
X107372Y74131D01*
X107415Y74085D01*
X107460Y74041D01*
X107507Y74000D01*
X107557Y73963D01*
X107609Y73928D01*
X107663Y73897D01*
X107719Y73869D01*
X107777Y73845D01*
X107836Y73824D01*
X107896Y73807D01*
X107957Y73793D01*
X108019Y73784D01*
X108081Y73778D01*
X108144Y73776D01*
X108207Y73778D01*
X108269Y73784D01*
X108331Y73793D01*
X108392Y73807D01*
X108452Y73824D01*
X108511Y73845D01*
X108569Y73869D01*
X108625Y73897D01*
X108679Y73928D01*
X108731Y73963D01*
X108781Y74000D01*
X108828Y74041D01*
X108873Y74085D01*
X108916Y74131D01*
X108955Y74180D01*
X108991Y74231D01*
X109024Y74284D01*
X109053Y74339D01*
X109080Y74396D01*
X109102Y74454D01*
X109121Y74514D01*
X109136Y74575D01*
X109148Y74636D01*
X109156Y74698D01*
X109160Y74761D01*
X109160Y74823D01*
X109156Y74886D01*
X109148Y74948D01*
X109136Y75009D01*
X109121Y75070D01*
X109102Y75130D01*
X109080Y75188D01*
X109053Y75245D01*
X109024Y75300D01*
X108991Y75353D01*
X108955Y75404D01*
X108916Y75453D01*
X108873Y75499D01*
X108828Y75543D01*
X108781Y75584D01*
X108731Y75621D01*
X108679Y75656D01*
X108625Y75687D01*
X108569Y75715D01*
X108511Y75739D01*
X108452Y75760D01*
X108392Y75777D01*
X108331Y75791D01*
X108269Y75800D01*
X108207Y75806D01*
X108144Y75808D01*
M02*
