G04 EAGLE Gerber RS-274X export*
G75*
%MOMM*%
%FSLAX34Y34*%
%LPD*%
%INSilkscreen Top*%
%IPPOS*%
%AMOC8*
5,1,8,0,0,1.08239X$1,22.5*%
G01*
%ADD10C,0.127000*%
%ADD11C,0.101600*%
%ADD12C,0.200000*%
%ADD13R,0.300000X0.150000*%
%ADD14R,0.300000X0.300000*%
%ADD15C,0.152400*%
%ADD16C,0.076200*%
%ADD17C,0.203200*%

G36*
X174407Y165929D02*
X174407Y165929D01*
X174409Y165928D01*
X174452Y165948D01*
X174496Y165966D01*
X174496Y165968D01*
X174498Y165969D01*
X174531Y166054D01*
X174531Y168594D01*
X174530Y168596D01*
X174531Y168598D01*
X174511Y168641D01*
X174493Y168685D01*
X174491Y168685D01*
X174490Y168687D01*
X174405Y168720D01*
X170595Y168720D01*
X170593Y168719D01*
X170591Y168720D01*
X170548Y168700D01*
X170504Y168682D01*
X170504Y168680D01*
X170502Y168679D01*
X170469Y168594D01*
X170469Y166054D01*
X170470Y166052D01*
X170469Y166050D01*
X170489Y166007D01*
X170507Y165963D01*
X170509Y165963D01*
X170510Y165961D01*
X170595Y165928D01*
X174405Y165928D01*
X174407Y165929D01*
G37*
G36*
X233596Y130470D02*
X233596Y130470D01*
X233598Y130469D01*
X233641Y130489D01*
X233685Y130507D01*
X233685Y130509D01*
X233687Y130510D01*
X233720Y130595D01*
X233720Y134405D01*
X233719Y134407D01*
X233720Y134409D01*
X233700Y134452D01*
X233682Y134496D01*
X233680Y134496D01*
X233679Y134498D01*
X233594Y134531D01*
X231054Y134531D01*
X231052Y134530D01*
X231050Y134531D01*
X231007Y134511D01*
X230963Y134493D01*
X230963Y134491D01*
X230961Y134490D01*
X230928Y134405D01*
X230928Y130595D01*
X230929Y130593D01*
X230928Y130591D01*
X230948Y130548D01*
X230966Y130504D01*
X230968Y130504D01*
X230969Y130502D01*
X231054Y130469D01*
X233594Y130469D01*
X233596Y130470D01*
G37*
G36*
X128948Y115470D02*
X128948Y115470D01*
X128950Y115469D01*
X128993Y115489D01*
X129037Y115507D01*
X129037Y115509D01*
X129039Y115510D01*
X129072Y115595D01*
X129072Y119405D01*
X129071Y119407D01*
X129072Y119409D01*
X129052Y119452D01*
X129034Y119496D01*
X129032Y119496D01*
X129031Y119498D01*
X128946Y119531D01*
X126406Y119531D01*
X126404Y119530D01*
X126402Y119531D01*
X126359Y119511D01*
X126315Y119493D01*
X126315Y119491D01*
X126313Y119490D01*
X126280Y119405D01*
X126280Y115595D01*
X126281Y115593D01*
X126280Y115591D01*
X126300Y115548D01*
X126318Y115504D01*
X126320Y115504D01*
X126321Y115502D01*
X126406Y115469D01*
X128946Y115469D01*
X128948Y115470D01*
G37*
G36*
X169407Y61281D02*
X169407Y61281D01*
X169409Y61280D01*
X169452Y61300D01*
X169496Y61318D01*
X169496Y61320D01*
X169498Y61321D01*
X169531Y61406D01*
X169531Y63946D01*
X169530Y63948D01*
X169531Y63950D01*
X169511Y63993D01*
X169493Y64037D01*
X169491Y64037D01*
X169490Y64039D01*
X169405Y64072D01*
X165595Y64072D01*
X165593Y64071D01*
X165591Y64072D01*
X165548Y64052D01*
X165504Y64034D01*
X165504Y64032D01*
X165502Y64031D01*
X165469Y63946D01*
X165469Y61406D01*
X165470Y61404D01*
X165469Y61402D01*
X165489Y61359D01*
X165507Y61315D01*
X165509Y61315D01*
X165510Y61313D01*
X165595Y61280D01*
X169405Y61280D01*
X169407Y61281D01*
G37*
D10*
X152024Y203365D02*
X154267Y196635D01*
X156510Y203365D01*
X159997Y200374D02*
X161866Y200374D01*
X161866Y200373D02*
X161951Y200371D01*
X162036Y200365D01*
X162120Y200356D01*
X162205Y200342D01*
X162288Y200325D01*
X162370Y200304D01*
X162452Y200279D01*
X162532Y200250D01*
X162611Y200218D01*
X162688Y200183D01*
X162763Y200143D01*
X162837Y200101D01*
X162909Y200055D01*
X162978Y200006D01*
X163046Y199954D01*
X163110Y199899D01*
X163172Y199841D01*
X163232Y199780D01*
X163289Y199716D01*
X163342Y199650D01*
X163393Y199582D01*
X163440Y199511D01*
X163485Y199439D01*
X163525Y199364D01*
X163563Y199287D01*
X163597Y199209D01*
X163627Y199130D01*
X163654Y199049D01*
X163677Y198967D01*
X163696Y198884D01*
X163711Y198801D01*
X163723Y198716D01*
X163731Y198632D01*
X163735Y198547D01*
X163735Y198461D01*
X163731Y198376D01*
X163723Y198292D01*
X163711Y198207D01*
X163696Y198124D01*
X163677Y198041D01*
X163654Y197959D01*
X163627Y197878D01*
X163597Y197799D01*
X163563Y197721D01*
X163525Y197644D01*
X163485Y197570D01*
X163440Y197497D01*
X163393Y197426D01*
X163342Y197358D01*
X163289Y197292D01*
X163232Y197228D01*
X163172Y197167D01*
X163110Y197109D01*
X163046Y197054D01*
X162978Y197002D01*
X162909Y196953D01*
X162837Y196907D01*
X162763Y196865D01*
X162688Y196825D01*
X162611Y196790D01*
X162532Y196758D01*
X162452Y196729D01*
X162370Y196704D01*
X162288Y196683D01*
X162205Y196666D01*
X162120Y196652D01*
X162036Y196643D01*
X161951Y196637D01*
X161866Y196635D01*
X159997Y196635D01*
X159997Y203365D01*
X161866Y203365D01*
X161942Y203363D01*
X162017Y203357D01*
X162093Y203348D01*
X162167Y203334D01*
X162241Y203317D01*
X162314Y203296D01*
X162386Y203272D01*
X162456Y203244D01*
X162525Y203212D01*
X162592Y203177D01*
X162657Y203139D01*
X162721Y203097D01*
X162782Y203052D01*
X162840Y203004D01*
X162897Y202953D01*
X162950Y202900D01*
X163001Y202843D01*
X163049Y202785D01*
X163094Y202724D01*
X163136Y202660D01*
X163174Y202595D01*
X163209Y202528D01*
X163241Y202459D01*
X163269Y202389D01*
X163293Y202317D01*
X163314Y202244D01*
X163331Y202170D01*
X163345Y202096D01*
X163354Y202020D01*
X163360Y201945D01*
X163362Y201869D01*
X163360Y201793D01*
X163354Y201718D01*
X163345Y201642D01*
X163331Y201568D01*
X163314Y201494D01*
X163293Y201421D01*
X163269Y201349D01*
X163241Y201279D01*
X163209Y201210D01*
X163174Y201143D01*
X163136Y201078D01*
X163094Y201014D01*
X163049Y200953D01*
X163001Y200895D01*
X162950Y200838D01*
X162897Y200785D01*
X162840Y200734D01*
X162782Y200686D01*
X162721Y200641D01*
X162657Y200599D01*
X162592Y200561D01*
X162525Y200526D01*
X162456Y200494D01*
X162386Y200466D01*
X162314Y200442D01*
X162241Y200421D01*
X162167Y200404D01*
X162093Y200390D01*
X162017Y200381D01*
X161942Y200375D01*
X161866Y200373D01*
X167038Y198504D02*
X167038Y203365D01*
X167038Y198504D02*
X167040Y198419D01*
X167046Y198334D01*
X167055Y198250D01*
X167069Y198165D01*
X167086Y198082D01*
X167107Y198000D01*
X167132Y197918D01*
X167161Y197838D01*
X167193Y197759D01*
X167228Y197682D01*
X167268Y197607D01*
X167310Y197533D01*
X167356Y197461D01*
X167405Y197392D01*
X167457Y197324D01*
X167512Y197260D01*
X167570Y197198D01*
X167631Y197138D01*
X167695Y197081D01*
X167761Y197028D01*
X167829Y196977D01*
X167900Y196930D01*
X167973Y196885D01*
X168047Y196845D01*
X168124Y196807D01*
X168202Y196773D01*
X168281Y196743D01*
X168362Y196716D01*
X168444Y196693D01*
X168527Y196674D01*
X168610Y196659D01*
X168695Y196647D01*
X168779Y196639D01*
X168864Y196635D01*
X168950Y196635D01*
X169035Y196639D01*
X169119Y196647D01*
X169204Y196659D01*
X169287Y196674D01*
X169370Y196693D01*
X169452Y196716D01*
X169533Y196743D01*
X169612Y196773D01*
X169690Y196807D01*
X169767Y196845D01*
X169842Y196885D01*
X169914Y196930D01*
X169985Y196977D01*
X170053Y197028D01*
X170119Y197081D01*
X170183Y197138D01*
X170244Y197198D01*
X170302Y197260D01*
X170357Y197324D01*
X170409Y197392D01*
X170458Y197461D01*
X170504Y197533D01*
X170546Y197607D01*
X170586Y197682D01*
X170621Y197759D01*
X170653Y197838D01*
X170682Y197918D01*
X170707Y198000D01*
X170728Y198082D01*
X170745Y198165D01*
X170759Y198250D01*
X170768Y198334D01*
X170774Y198419D01*
X170776Y198504D01*
X170776Y203365D01*
X176481Y196635D02*
X176557Y196637D01*
X176632Y196643D01*
X176708Y196652D01*
X176782Y196666D01*
X176856Y196683D01*
X176929Y196704D01*
X177001Y196728D01*
X177071Y196756D01*
X177140Y196788D01*
X177207Y196823D01*
X177272Y196861D01*
X177336Y196903D01*
X177397Y196948D01*
X177455Y196996D01*
X177512Y197047D01*
X177565Y197100D01*
X177616Y197157D01*
X177664Y197215D01*
X177709Y197276D01*
X177751Y197340D01*
X177789Y197405D01*
X177824Y197472D01*
X177856Y197541D01*
X177884Y197611D01*
X177908Y197683D01*
X177929Y197756D01*
X177946Y197830D01*
X177960Y197904D01*
X177969Y197980D01*
X177975Y198055D01*
X177977Y198131D01*
X176481Y196635D02*
X176373Y196637D01*
X176264Y196642D01*
X176156Y196652D01*
X176049Y196665D01*
X175941Y196681D01*
X175835Y196702D01*
X175729Y196726D01*
X175624Y196753D01*
X175520Y196785D01*
X175418Y196819D01*
X175316Y196858D01*
X175216Y196899D01*
X175118Y196944D01*
X175021Y196993D01*
X174925Y197045D01*
X174832Y197100D01*
X174740Y197158D01*
X174651Y197219D01*
X174564Y197283D01*
X174479Y197351D01*
X174396Y197421D01*
X174316Y197494D01*
X174238Y197570D01*
X174424Y201869D02*
X174426Y201945D01*
X174432Y202020D01*
X174441Y202096D01*
X174455Y202170D01*
X174472Y202244D01*
X174493Y202317D01*
X174517Y202389D01*
X174545Y202459D01*
X174577Y202528D01*
X174612Y202595D01*
X174650Y202660D01*
X174692Y202724D01*
X174737Y202785D01*
X174785Y202843D01*
X174836Y202900D01*
X174889Y202953D01*
X174946Y203004D01*
X175004Y203052D01*
X175065Y203097D01*
X175129Y203139D01*
X175194Y203177D01*
X175261Y203212D01*
X175330Y203244D01*
X175400Y203272D01*
X175472Y203296D01*
X175545Y203317D01*
X175619Y203334D01*
X175693Y203348D01*
X175769Y203357D01*
X175844Y203363D01*
X175920Y203365D01*
X176020Y203363D01*
X176120Y203358D01*
X176220Y203349D01*
X176320Y203336D01*
X176419Y203320D01*
X176517Y203301D01*
X176614Y203278D01*
X176711Y203251D01*
X176807Y203221D01*
X176901Y203188D01*
X176994Y203151D01*
X177086Y203111D01*
X177177Y203068D01*
X177266Y203021D01*
X177353Y202971D01*
X177438Y202919D01*
X177521Y202863D01*
X177602Y202804D01*
X175172Y200560D02*
X175108Y200600D01*
X175046Y200643D01*
X174987Y200689D01*
X174930Y200737D01*
X174875Y200789D01*
X174823Y200843D01*
X174774Y200900D01*
X174727Y200959D01*
X174684Y201020D01*
X174643Y201083D01*
X174606Y201148D01*
X174572Y201215D01*
X174541Y201284D01*
X174514Y201354D01*
X174490Y201425D01*
X174470Y201497D01*
X174454Y201571D01*
X174441Y201645D01*
X174431Y201719D01*
X174426Y201794D01*
X174424Y201869D01*
X177228Y199440D02*
X177292Y199400D01*
X177354Y199357D01*
X177413Y199311D01*
X177470Y199263D01*
X177525Y199211D01*
X177577Y199157D01*
X177626Y199100D01*
X177673Y199041D01*
X177716Y198980D01*
X177757Y198917D01*
X177794Y198852D01*
X177828Y198785D01*
X177859Y198716D01*
X177886Y198646D01*
X177910Y198575D01*
X177930Y198503D01*
X177946Y198429D01*
X177959Y198355D01*
X177969Y198281D01*
X177974Y198206D01*
X177976Y198131D01*
X177229Y199439D02*
X175172Y200561D01*
X185411Y203365D02*
X185411Y196635D01*
X185411Y203365D02*
X187280Y203365D01*
X187364Y203363D01*
X187448Y203357D01*
X187531Y203348D01*
X187614Y203335D01*
X187696Y203318D01*
X187777Y203298D01*
X187858Y203274D01*
X187937Y203246D01*
X188015Y203215D01*
X188091Y203180D01*
X188166Y203142D01*
X188239Y203100D01*
X188310Y203056D01*
X188379Y203008D01*
X188445Y202957D01*
X188510Y202903D01*
X188572Y202847D01*
X188631Y202788D01*
X188687Y202726D01*
X188741Y202661D01*
X188792Y202595D01*
X188840Y202526D01*
X188884Y202455D01*
X188926Y202382D01*
X188964Y202307D01*
X188999Y202231D01*
X189030Y202153D01*
X189058Y202074D01*
X189082Y201993D01*
X189102Y201912D01*
X189119Y201830D01*
X189132Y201747D01*
X189141Y201664D01*
X189147Y201580D01*
X189149Y201496D01*
X189149Y198504D01*
X189147Y198420D01*
X189141Y198336D01*
X189132Y198253D01*
X189119Y198170D01*
X189102Y198088D01*
X189082Y198007D01*
X189058Y197926D01*
X189030Y197847D01*
X188999Y197769D01*
X188964Y197693D01*
X188926Y197618D01*
X188884Y197545D01*
X188840Y197474D01*
X188792Y197405D01*
X188741Y197339D01*
X188687Y197274D01*
X188631Y197212D01*
X188572Y197153D01*
X188510Y197097D01*
X188445Y197043D01*
X188379Y196992D01*
X188310Y196944D01*
X188239Y196900D01*
X188166Y196858D01*
X188091Y196820D01*
X188015Y196785D01*
X187937Y196754D01*
X187858Y196726D01*
X187777Y196702D01*
X187696Y196682D01*
X187614Y196665D01*
X187531Y196652D01*
X187448Y196643D01*
X187364Y196637D01*
X187280Y196635D01*
X185411Y196635D01*
X192851Y200000D02*
X192853Y200148D01*
X192859Y200296D01*
X192869Y200443D01*
X192883Y200591D01*
X192900Y200738D01*
X192922Y200884D01*
X192947Y201030D01*
X192977Y201175D01*
X193010Y201319D01*
X193047Y201462D01*
X193088Y201604D01*
X193133Y201746D01*
X193181Y201885D01*
X193233Y202024D01*
X193289Y202161D01*
X193349Y202296D01*
X193412Y202430D01*
X193412Y202431D02*
X193437Y202498D01*
X193465Y202563D01*
X193497Y202627D01*
X193532Y202690D01*
X193570Y202750D01*
X193611Y202808D01*
X193655Y202865D01*
X193702Y202918D01*
X193752Y202970D01*
X193804Y203018D01*
X193859Y203064D01*
X193916Y203107D01*
X193975Y203147D01*
X194037Y203184D01*
X194100Y203218D01*
X194164Y203248D01*
X194230Y203275D01*
X194298Y203299D01*
X194367Y203319D01*
X194436Y203336D01*
X194506Y203348D01*
X194577Y203358D01*
X194649Y203363D01*
X194720Y203365D01*
X194791Y203363D01*
X194863Y203358D01*
X194934Y203348D01*
X195004Y203336D01*
X195073Y203319D01*
X195142Y203299D01*
X195210Y203275D01*
X195276Y203248D01*
X195340Y203218D01*
X195403Y203184D01*
X195465Y203147D01*
X195524Y203107D01*
X195581Y203064D01*
X195636Y203018D01*
X195688Y202970D01*
X195738Y202918D01*
X195785Y202865D01*
X195829Y202808D01*
X195870Y202750D01*
X195908Y202689D01*
X195943Y202627D01*
X195975Y202563D01*
X196003Y202497D01*
X196028Y202430D01*
X196029Y202430D02*
X196092Y202296D01*
X196152Y202161D01*
X196208Y202024D01*
X196260Y201885D01*
X196308Y201746D01*
X196353Y201605D01*
X196394Y201462D01*
X196431Y201319D01*
X196464Y201175D01*
X196494Y201030D01*
X196519Y200884D01*
X196541Y200738D01*
X196558Y200591D01*
X196572Y200443D01*
X196582Y200296D01*
X196588Y200148D01*
X196590Y200000D01*
X192851Y200000D02*
X192853Y199852D01*
X192859Y199704D01*
X192869Y199557D01*
X192883Y199409D01*
X192900Y199262D01*
X192922Y199116D01*
X192947Y198970D01*
X192977Y198825D01*
X193010Y198681D01*
X193047Y198538D01*
X193088Y198396D01*
X193133Y198255D01*
X193181Y198115D01*
X193233Y197976D01*
X193289Y197839D01*
X193349Y197704D01*
X193412Y197570D01*
X193412Y197569D02*
X193437Y197502D01*
X193465Y197437D01*
X193497Y197373D01*
X193532Y197310D01*
X193570Y197250D01*
X193611Y197192D01*
X193655Y197135D01*
X193702Y197082D01*
X193752Y197030D01*
X193804Y196982D01*
X193859Y196936D01*
X193916Y196893D01*
X193975Y196853D01*
X194037Y196816D01*
X194100Y196782D01*
X194164Y196752D01*
X194230Y196725D01*
X194298Y196701D01*
X194367Y196681D01*
X194436Y196664D01*
X194506Y196652D01*
X194577Y196642D01*
X194649Y196637D01*
X194720Y196635D01*
X196028Y197570D02*
X196091Y197704D01*
X196151Y197839D01*
X196207Y197976D01*
X196259Y198115D01*
X196307Y198254D01*
X196352Y198395D01*
X196393Y198538D01*
X196430Y198681D01*
X196463Y198825D01*
X196493Y198970D01*
X196518Y199116D01*
X196540Y199262D01*
X196557Y199409D01*
X196571Y199557D01*
X196581Y199704D01*
X196587Y199852D01*
X196589Y200000D01*
X196028Y197569D02*
X196003Y197502D01*
X195975Y197437D01*
X195943Y197373D01*
X195908Y197310D01*
X195870Y197250D01*
X195829Y197192D01*
X195785Y197135D01*
X195738Y197082D01*
X195688Y197030D01*
X195636Y196982D01*
X195581Y196936D01*
X195524Y196893D01*
X195465Y196853D01*
X195403Y196816D01*
X195340Y196782D01*
X195276Y196752D01*
X195210Y196725D01*
X195142Y196701D01*
X195073Y196681D01*
X195004Y196664D01*
X194934Y196652D01*
X194863Y196642D01*
X194791Y196637D01*
X194720Y196635D01*
X193224Y198131D02*
X196216Y201869D01*
X210411Y203365D02*
X210411Y196635D01*
X210411Y203365D02*
X212280Y203365D01*
X212364Y203363D01*
X212448Y203357D01*
X212531Y203348D01*
X212614Y203335D01*
X212696Y203318D01*
X212777Y203298D01*
X212858Y203274D01*
X212937Y203246D01*
X213015Y203215D01*
X213091Y203180D01*
X213166Y203142D01*
X213239Y203100D01*
X213310Y203056D01*
X213379Y203008D01*
X213445Y202957D01*
X213510Y202903D01*
X213572Y202847D01*
X213631Y202788D01*
X213687Y202726D01*
X213741Y202661D01*
X213792Y202595D01*
X213840Y202526D01*
X213884Y202455D01*
X213926Y202382D01*
X213964Y202307D01*
X213999Y202231D01*
X214030Y202153D01*
X214058Y202074D01*
X214082Y201993D01*
X214102Y201912D01*
X214119Y201830D01*
X214132Y201747D01*
X214141Y201664D01*
X214147Y201580D01*
X214149Y201496D01*
X214149Y198504D01*
X214147Y198420D01*
X214141Y198336D01*
X214132Y198253D01*
X214119Y198170D01*
X214102Y198088D01*
X214082Y198007D01*
X214058Y197926D01*
X214030Y197847D01*
X213999Y197769D01*
X213964Y197693D01*
X213926Y197618D01*
X213884Y197545D01*
X213840Y197474D01*
X213792Y197405D01*
X213741Y197339D01*
X213687Y197274D01*
X213631Y197212D01*
X213572Y197153D01*
X213510Y197097D01*
X213445Y197043D01*
X213379Y196992D01*
X213310Y196944D01*
X213239Y196900D01*
X213166Y196858D01*
X213091Y196820D01*
X213015Y196785D01*
X212937Y196754D01*
X212858Y196726D01*
X212777Y196702D01*
X212696Y196682D01*
X212614Y196665D01*
X212531Y196652D01*
X212448Y196643D01*
X212364Y196637D01*
X212280Y196635D01*
X210411Y196635D01*
X217851Y201869D02*
X219720Y203365D01*
X219720Y196635D01*
X217851Y196635D02*
X221589Y196635D01*
X235411Y196635D02*
X235411Y203365D01*
X237280Y203365D01*
X237364Y203363D01*
X237448Y203357D01*
X237531Y203348D01*
X237614Y203335D01*
X237696Y203318D01*
X237777Y203298D01*
X237858Y203274D01*
X237937Y203246D01*
X238015Y203215D01*
X238091Y203180D01*
X238166Y203142D01*
X238239Y203100D01*
X238310Y203056D01*
X238379Y203008D01*
X238445Y202957D01*
X238510Y202903D01*
X238572Y202847D01*
X238631Y202788D01*
X238687Y202726D01*
X238741Y202661D01*
X238792Y202595D01*
X238840Y202526D01*
X238884Y202455D01*
X238926Y202382D01*
X238964Y202307D01*
X238999Y202231D01*
X239030Y202153D01*
X239058Y202074D01*
X239082Y201993D01*
X239102Y201912D01*
X239119Y201830D01*
X239132Y201747D01*
X239141Y201664D01*
X239147Y201580D01*
X239149Y201496D01*
X239149Y198504D01*
X239147Y198420D01*
X239141Y198336D01*
X239132Y198253D01*
X239119Y198170D01*
X239102Y198088D01*
X239082Y198007D01*
X239058Y197926D01*
X239030Y197847D01*
X238999Y197769D01*
X238964Y197693D01*
X238926Y197618D01*
X238884Y197545D01*
X238840Y197474D01*
X238792Y197405D01*
X238741Y197339D01*
X238687Y197274D01*
X238631Y197212D01*
X238572Y197153D01*
X238510Y197097D01*
X238445Y197043D01*
X238379Y196992D01*
X238310Y196944D01*
X238239Y196900D01*
X238166Y196858D01*
X238091Y196820D01*
X238015Y196785D01*
X237937Y196754D01*
X237858Y196726D01*
X237777Y196702D01*
X237696Y196682D01*
X237614Y196665D01*
X237531Y196652D01*
X237448Y196643D01*
X237364Y196637D01*
X237280Y196635D01*
X235411Y196635D01*
X244907Y203366D02*
X244987Y203364D01*
X245067Y203358D01*
X245147Y203349D01*
X245226Y203336D01*
X245304Y203319D01*
X245381Y203298D01*
X245457Y203273D01*
X245533Y203245D01*
X245606Y203214D01*
X245678Y203179D01*
X245749Y203141D01*
X245817Y203099D01*
X245883Y203054D01*
X245947Y203006D01*
X246009Y202955D01*
X246068Y202901D01*
X246125Y202844D01*
X246179Y202785D01*
X246230Y202723D01*
X246278Y202659D01*
X246323Y202593D01*
X246365Y202525D01*
X246403Y202454D01*
X246438Y202382D01*
X246469Y202309D01*
X246497Y202233D01*
X246522Y202157D01*
X246543Y202080D01*
X246560Y202002D01*
X246573Y201923D01*
X246582Y201843D01*
X246588Y201763D01*
X246590Y201683D01*
X244907Y203365D02*
X244816Y203363D01*
X244726Y203357D01*
X244636Y203348D01*
X244546Y203335D01*
X244457Y203318D01*
X244369Y203297D01*
X244282Y203273D01*
X244195Y203245D01*
X244111Y203213D01*
X244027Y203178D01*
X243945Y203139D01*
X243865Y203097D01*
X243786Y203052D01*
X243710Y203003D01*
X243635Y202951D01*
X243563Y202897D01*
X243493Y202839D01*
X243426Y202778D01*
X243361Y202715D01*
X243299Y202649D01*
X243240Y202580D01*
X243184Y202509D01*
X243131Y202436D01*
X243081Y202360D01*
X243034Y202282D01*
X242990Y202203D01*
X242950Y202122D01*
X242913Y202039D01*
X242880Y201955D01*
X242850Y201869D01*
X246028Y200374D02*
X246086Y200432D01*
X246141Y200492D01*
X246193Y200554D01*
X246242Y200619D01*
X246289Y200685D01*
X246332Y200754D01*
X246372Y200825D01*
X246409Y200897D01*
X246443Y200971D01*
X246473Y201047D01*
X246500Y201123D01*
X246524Y201201D01*
X246543Y201280D01*
X246560Y201360D01*
X246573Y201440D01*
X246582Y201521D01*
X246587Y201602D01*
X246589Y201683D01*
X246029Y200374D02*
X242851Y196635D01*
X246589Y196635D01*
X261411Y196635D02*
X261411Y203365D01*
X263280Y203365D01*
X263364Y203363D01*
X263448Y203357D01*
X263531Y203348D01*
X263614Y203335D01*
X263696Y203318D01*
X263777Y203298D01*
X263858Y203274D01*
X263937Y203246D01*
X264015Y203215D01*
X264091Y203180D01*
X264166Y203142D01*
X264239Y203100D01*
X264310Y203056D01*
X264379Y203008D01*
X264445Y202957D01*
X264510Y202903D01*
X264572Y202847D01*
X264631Y202788D01*
X264687Y202726D01*
X264741Y202661D01*
X264792Y202595D01*
X264840Y202526D01*
X264884Y202455D01*
X264926Y202382D01*
X264964Y202307D01*
X264999Y202231D01*
X265030Y202153D01*
X265058Y202074D01*
X265082Y201993D01*
X265102Y201912D01*
X265119Y201830D01*
X265132Y201747D01*
X265141Y201664D01*
X265147Y201580D01*
X265149Y201496D01*
X265149Y198504D01*
X265147Y198420D01*
X265141Y198336D01*
X265132Y198253D01*
X265119Y198170D01*
X265102Y198088D01*
X265082Y198007D01*
X265058Y197926D01*
X265030Y197847D01*
X264999Y197769D01*
X264964Y197693D01*
X264926Y197618D01*
X264884Y197545D01*
X264840Y197474D01*
X264792Y197405D01*
X264741Y197339D01*
X264687Y197274D01*
X264631Y197212D01*
X264572Y197153D01*
X264510Y197097D01*
X264445Y197043D01*
X264379Y196992D01*
X264310Y196944D01*
X264239Y196900D01*
X264166Y196858D01*
X264091Y196820D01*
X264015Y196785D01*
X263937Y196754D01*
X263858Y196726D01*
X263777Y196702D01*
X263696Y196682D01*
X263614Y196665D01*
X263531Y196652D01*
X263448Y196643D01*
X263364Y196637D01*
X263280Y196635D01*
X261411Y196635D01*
X268851Y196635D02*
X271094Y196635D01*
X271170Y196637D01*
X271245Y196643D01*
X271321Y196652D01*
X271395Y196666D01*
X271469Y196683D01*
X271542Y196704D01*
X271614Y196728D01*
X271684Y196756D01*
X271753Y196788D01*
X271820Y196823D01*
X271885Y196861D01*
X271949Y196903D01*
X272010Y196948D01*
X272068Y196996D01*
X272125Y197047D01*
X272178Y197100D01*
X272229Y197157D01*
X272277Y197215D01*
X272322Y197276D01*
X272364Y197340D01*
X272402Y197405D01*
X272437Y197472D01*
X272469Y197541D01*
X272497Y197611D01*
X272521Y197683D01*
X272542Y197756D01*
X272559Y197830D01*
X272573Y197904D01*
X272582Y197980D01*
X272588Y198055D01*
X272590Y198131D01*
X272589Y198131D02*
X272589Y198878D01*
X272590Y198878D02*
X272588Y198954D01*
X272582Y199029D01*
X272573Y199105D01*
X272559Y199179D01*
X272542Y199253D01*
X272521Y199326D01*
X272497Y199398D01*
X272469Y199468D01*
X272437Y199537D01*
X272402Y199604D01*
X272364Y199669D01*
X272322Y199733D01*
X272277Y199794D01*
X272229Y199852D01*
X272178Y199909D01*
X272125Y199962D01*
X272068Y200013D01*
X272010Y200061D01*
X271949Y200106D01*
X271885Y200148D01*
X271820Y200186D01*
X271753Y200221D01*
X271684Y200253D01*
X271614Y200281D01*
X271542Y200305D01*
X271469Y200326D01*
X271395Y200343D01*
X271321Y200357D01*
X271245Y200366D01*
X271170Y200372D01*
X271094Y200374D01*
X268851Y200374D01*
X268851Y203365D01*
X272589Y203365D01*
X286411Y203365D02*
X286411Y196635D01*
X286411Y203365D02*
X288280Y203365D01*
X288364Y203363D01*
X288448Y203357D01*
X288531Y203348D01*
X288614Y203335D01*
X288696Y203318D01*
X288777Y203298D01*
X288858Y203274D01*
X288937Y203246D01*
X289015Y203215D01*
X289091Y203180D01*
X289166Y203142D01*
X289239Y203100D01*
X289310Y203056D01*
X289379Y203008D01*
X289445Y202957D01*
X289510Y202903D01*
X289572Y202847D01*
X289631Y202788D01*
X289687Y202726D01*
X289741Y202661D01*
X289792Y202595D01*
X289840Y202526D01*
X289884Y202455D01*
X289926Y202382D01*
X289964Y202307D01*
X289999Y202231D01*
X290030Y202153D01*
X290058Y202074D01*
X290082Y201993D01*
X290102Y201912D01*
X290119Y201830D01*
X290132Y201747D01*
X290141Y201664D01*
X290147Y201580D01*
X290149Y201496D01*
X290149Y198504D01*
X290147Y198420D01*
X290141Y198336D01*
X290132Y198253D01*
X290119Y198170D01*
X290102Y198088D01*
X290082Y198007D01*
X290058Y197926D01*
X290030Y197847D01*
X289999Y197769D01*
X289964Y197693D01*
X289926Y197618D01*
X289884Y197545D01*
X289840Y197474D01*
X289792Y197405D01*
X289741Y197339D01*
X289687Y197274D01*
X289631Y197212D01*
X289572Y197153D01*
X289510Y197097D01*
X289445Y197043D01*
X289379Y196992D01*
X289310Y196944D01*
X289239Y196900D01*
X289166Y196858D01*
X289091Y196820D01*
X289015Y196785D01*
X288937Y196754D01*
X288858Y196726D01*
X288777Y196702D01*
X288696Y196682D01*
X288614Y196665D01*
X288531Y196652D01*
X288448Y196643D01*
X288364Y196637D01*
X288280Y196635D01*
X286411Y196635D01*
X293851Y200374D02*
X296094Y200374D01*
X296170Y200372D01*
X296245Y200366D01*
X296321Y200357D01*
X296395Y200343D01*
X296469Y200326D01*
X296542Y200305D01*
X296614Y200281D01*
X296684Y200253D01*
X296753Y200221D01*
X296820Y200186D01*
X296885Y200148D01*
X296949Y200106D01*
X297010Y200061D01*
X297068Y200013D01*
X297125Y199962D01*
X297178Y199909D01*
X297229Y199852D01*
X297277Y199794D01*
X297322Y199733D01*
X297364Y199669D01*
X297402Y199604D01*
X297437Y199537D01*
X297469Y199468D01*
X297497Y199398D01*
X297521Y199326D01*
X297542Y199253D01*
X297559Y199179D01*
X297573Y199105D01*
X297582Y199029D01*
X297588Y198954D01*
X297590Y198878D01*
X297589Y198878D02*
X297589Y198504D01*
X297587Y198419D01*
X297581Y198334D01*
X297572Y198250D01*
X297558Y198165D01*
X297541Y198082D01*
X297520Y198000D01*
X297495Y197918D01*
X297466Y197838D01*
X297434Y197759D01*
X297399Y197682D01*
X297359Y197607D01*
X297317Y197533D01*
X297271Y197461D01*
X297222Y197392D01*
X297170Y197324D01*
X297115Y197260D01*
X297057Y197198D01*
X296996Y197138D01*
X296932Y197081D01*
X296866Y197028D01*
X296798Y196977D01*
X296727Y196930D01*
X296655Y196885D01*
X296580Y196845D01*
X296503Y196807D01*
X296425Y196773D01*
X296346Y196743D01*
X296265Y196716D01*
X296183Y196693D01*
X296100Y196674D01*
X296017Y196659D01*
X295932Y196647D01*
X295848Y196639D01*
X295763Y196635D01*
X295677Y196635D01*
X295592Y196639D01*
X295508Y196647D01*
X295423Y196659D01*
X295340Y196674D01*
X295257Y196693D01*
X295175Y196716D01*
X295094Y196743D01*
X295015Y196773D01*
X294937Y196807D01*
X294860Y196845D01*
X294786Y196885D01*
X294713Y196930D01*
X294642Y196977D01*
X294574Y197028D01*
X294508Y197081D01*
X294444Y197138D01*
X294383Y197198D01*
X294325Y197260D01*
X294270Y197324D01*
X294218Y197392D01*
X294169Y197461D01*
X294123Y197533D01*
X294081Y197607D01*
X294041Y197682D01*
X294006Y197759D01*
X293974Y197838D01*
X293945Y197918D01*
X293920Y198000D01*
X293899Y198082D01*
X293882Y198165D01*
X293868Y198250D01*
X293859Y198334D01*
X293853Y198419D01*
X293851Y198504D01*
X293851Y200374D01*
X293853Y200483D01*
X293859Y200592D01*
X293869Y200701D01*
X293883Y200809D01*
X293901Y200917D01*
X293923Y201024D01*
X293948Y201131D01*
X293978Y201236D01*
X294011Y201340D01*
X294048Y201442D01*
X294089Y201544D01*
X294134Y201644D01*
X294182Y201742D01*
X294234Y201838D01*
X294289Y201932D01*
X294348Y202024D01*
X294409Y202114D01*
X294475Y202202D01*
X294543Y202287D01*
X294614Y202370D01*
X294689Y202450D01*
X294766Y202527D01*
X294846Y202602D01*
X294929Y202673D01*
X295014Y202741D01*
X295102Y202807D01*
X295192Y202868D01*
X295284Y202927D01*
X295378Y202982D01*
X295474Y203034D01*
X295572Y203082D01*
X295672Y203127D01*
X295774Y203168D01*
X295876Y203205D01*
X295980Y203238D01*
X296085Y203268D01*
X296192Y203293D01*
X296299Y203315D01*
X296406Y203333D01*
X296515Y203347D01*
X296624Y203357D01*
X296733Y203363D01*
X296842Y203365D01*
X312411Y203365D02*
X312411Y196635D01*
X312411Y203365D02*
X314280Y203365D01*
X314364Y203363D01*
X314448Y203357D01*
X314531Y203348D01*
X314614Y203335D01*
X314696Y203318D01*
X314777Y203298D01*
X314858Y203274D01*
X314937Y203246D01*
X315015Y203215D01*
X315091Y203180D01*
X315166Y203142D01*
X315239Y203100D01*
X315310Y203056D01*
X315379Y203008D01*
X315445Y202957D01*
X315510Y202903D01*
X315572Y202847D01*
X315631Y202788D01*
X315687Y202726D01*
X315741Y202661D01*
X315792Y202595D01*
X315840Y202526D01*
X315884Y202455D01*
X315926Y202382D01*
X315964Y202307D01*
X315999Y202231D01*
X316030Y202153D01*
X316058Y202074D01*
X316082Y201993D01*
X316102Y201912D01*
X316119Y201830D01*
X316132Y201747D01*
X316141Y201664D01*
X316147Y201580D01*
X316149Y201496D01*
X316149Y198504D01*
X316147Y198420D01*
X316141Y198336D01*
X316132Y198253D01*
X316119Y198170D01*
X316102Y198088D01*
X316082Y198007D01*
X316058Y197926D01*
X316030Y197847D01*
X315999Y197769D01*
X315964Y197693D01*
X315926Y197618D01*
X315884Y197545D01*
X315840Y197474D01*
X315792Y197405D01*
X315741Y197339D01*
X315687Y197274D01*
X315631Y197212D01*
X315572Y197153D01*
X315510Y197097D01*
X315445Y197043D01*
X315379Y196992D01*
X315310Y196944D01*
X315239Y196900D01*
X315166Y196858D01*
X315091Y196820D01*
X315015Y196785D01*
X314937Y196754D01*
X314858Y196726D01*
X314777Y196702D01*
X314696Y196682D01*
X314614Y196665D01*
X314531Y196652D01*
X314448Y196643D01*
X314364Y196637D01*
X314280Y196635D01*
X312411Y196635D01*
X319851Y202617D02*
X319851Y203365D01*
X323589Y203365D01*
X321720Y196635D01*
X337411Y196635D02*
X337411Y203365D01*
X339280Y203365D01*
X339364Y203363D01*
X339448Y203357D01*
X339531Y203348D01*
X339614Y203335D01*
X339696Y203318D01*
X339777Y203298D01*
X339858Y203274D01*
X339937Y203246D01*
X340015Y203215D01*
X340091Y203180D01*
X340166Y203142D01*
X340239Y203100D01*
X340310Y203056D01*
X340379Y203008D01*
X340445Y202957D01*
X340510Y202903D01*
X340572Y202847D01*
X340631Y202788D01*
X340687Y202726D01*
X340741Y202661D01*
X340792Y202595D01*
X340840Y202526D01*
X340884Y202455D01*
X340926Y202382D01*
X340964Y202307D01*
X340999Y202231D01*
X341030Y202153D01*
X341058Y202074D01*
X341082Y201993D01*
X341102Y201912D01*
X341119Y201830D01*
X341132Y201747D01*
X341141Y201664D01*
X341147Y201580D01*
X341149Y201496D01*
X341149Y198504D01*
X341147Y198420D01*
X341141Y198336D01*
X341132Y198253D01*
X341119Y198170D01*
X341102Y198088D01*
X341082Y198007D01*
X341058Y197926D01*
X341030Y197847D01*
X340999Y197769D01*
X340964Y197693D01*
X340926Y197618D01*
X340884Y197545D01*
X340840Y197474D01*
X340792Y197405D01*
X340741Y197339D01*
X340687Y197274D01*
X340631Y197212D01*
X340572Y197153D01*
X340510Y197097D01*
X340445Y197043D01*
X340379Y196992D01*
X340310Y196944D01*
X340239Y196900D01*
X340166Y196858D01*
X340091Y196820D01*
X340015Y196785D01*
X339937Y196754D01*
X339858Y196726D01*
X339777Y196702D01*
X339696Y196682D01*
X339614Y196665D01*
X339531Y196652D01*
X339448Y196643D01*
X339364Y196637D01*
X339280Y196635D01*
X337411Y196635D01*
X346346Y199626D02*
X348589Y199626D01*
X346346Y199626D02*
X346270Y199628D01*
X346195Y199634D01*
X346119Y199643D01*
X346045Y199657D01*
X345971Y199674D01*
X345898Y199695D01*
X345826Y199719D01*
X345756Y199747D01*
X345687Y199779D01*
X345620Y199814D01*
X345555Y199852D01*
X345491Y199894D01*
X345430Y199939D01*
X345372Y199987D01*
X345315Y200038D01*
X345262Y200091D01*
X345211Y200148D01*
X345163Y200206D01*
X345118Y200267D01*
X345076Y200331D01*
X345038Y200396D01*
X345003Y200463D01*
X344971Y200532D01*
X344943Y200602D01*
X344919Y200674D01*
X344898Y200747D01*
X344881Y200821D01*
X344867Y200895D01*
X344858Y200971D01*
X344852Y201046D01*
X344850Y201122D01*
X344851Y201122D02*
X344851Y201496D01*
X344853Y201581D01*
X344859Y201666D01*
X344868Y201750D01*
X344882Y201835D01*
X344899Y201918D01*
X344920Y202000D01*
X344945Y202082D01*
X344974Y202162D01*
X345006Y202241D01*
X345041Y202318D01*
X345081Y202393D01*
X345123Y202467D01*
X345169Y202539D01*
X345218Y202608D01*
X345270Y202676D01*
X345325Y202740D01*
X345383Y202802D01*
X345444Y202862D01*
X345508Y202919D01*
X345574Y202972D01*
X345642Y203023D01*
X345713Y203070D01*
X345786Y203115D01*
X345860Y203155D01*
X345937Y203193D01*
X346015Y203227D01*
X346094Y203257D01*
X346175Y203284D01*
X346257Y203307D01*
X346340Y203326D01*
X346423Y203341D01*
X346508Y203353D01*
X346592Y203361D01*
X346677Y203365D01*
X346763Y203365D01*
X346848Y203361D01*
X346932Y203353D01*
X347017Y203341D01*
X347100Y203326D01*
X347183Y203307D01*
X347265Y203284D01*
X347346Y203257D01*
X347425Y203227D01*
X347503Y203193D01*
X347580Y203155D01*
X347655Y203115D01*
X347727Y203070D01*
X347798Y203023D01*
X347866Y202972D01*
X347932Y202919D01*
X347996Y202862D01*
X348057Y202802D01*
X348115Y202740D01*
X348170Y202676D01*
X348222Y202608D01*
X348271Y202539D01*
X348317Y202467D01*
X348359Y202393D01*
X348399Y202318D01*
X348434Y202241D01*
X348466Y202162D01*
X348495Y202082D01*
X348520Y202000D01*
X348541Y201918D01*
X348558Y201835D01*
X348572Y201750D01*
X348581Y201666D01*
X348587Y201581D01*
X348589Y201496D01*
X348589Y199626D01*
X348587Y199519D01*
X348581Y199413D01*
X348572Y199306D01*
X348559Y199200D01*
X348541Y199095D01*
X348521Y198990D01*
X348496Y198886D01*
X348468Y198783D01*
X348436Y198681D01*
X348400Y198581D01*
X348361Y198481D01*
X348319Y198383D01*
X348273Y198287D01*
X348223Y198193D01*
X348170Y198100D01*
X348114Y198009D01*
X348055Y197920D01*
X347992Y197834D01*
X347927Y197749D01*
X347858Y197667D01*
X347787Y197588D01*
X347713Y197511D01*
X347636Y197437D01*
X347557Y197366D01*
X347475Y197297D01*
X347390Y197232D01*
X347304Y197169D01*
X347215Y197110D01*
X347124Y197054D01*
X347031Y197001D01*
X346937Y196951D01*
X346840Y196905D01*
X346743Y196863D01*
X346643Y196824D01*
X346543Y196788D01*
X346441Y196756D01*
X346338Y196728D01*
X346234Y196703D01*
X346129Y196683D01*
X346024Y196665D01*
X345918Y196652D01*
X345811Y196643D01*
X345705Y196637D01*
X345598Y196635D01*
X359811Y196635D02*
X359811Y203365D01*
X361680Y203365D01*
X361764Y203363D01*
X361848Y203357D01*
X361931Y203348D01*
X362014Y203335D01*
X362096Y203318D01*
X362177Y203298D01*
X362258Y203274D01*
X362337Y203246D01*
X362415Y203215D01*
X362491Y203180D01*
X362566Y203142D01*
X362639Y203100D01*
X362710Y203056D01*
X362779Y203008D01*
X362845Y202957D01*
X362910Y202903D01*
X362972Y202847D01*
X363031Y202788D01*
X363087Y202726D01*
X363141Y202661D01*
X363192Y202595D01*
X363240Y202526D01*
X363284Y202455D01*
X363326Y202382D01*
X363364Y202307D01*
X363399Y202231D01*
X363430Y202153D01*
X363458Y202074D01*
X363482Y201993D01*
X363502Y201912D01*
X363519Y201830D01*
X363532Y201747D01*
X363541Y201664D01*
X363547Y201580D01*
X363549Y201496D01*
X363549Y198504D01*
X363547Y198420D01*
X363541Y198336D01*
X363532Y198253D01*
X363519Y198170D01*
X363502Y198088D01*
X363482Y198007D01*
X363458Y197926D01*
X363430Y197847D01*
X363399Y197769D01*
X363364Y197693D01*
X363326Y197618D01*
X363284Y197545D01*
X363240Y197474D01*
X363192Y197405D01*
X363141Y197339D01*
X363087Y197274D01*
X363031Y197212D01*
X362972Y197153D01*
X362910Y197097D01*
X362845Y197043D01*
X362779Y196992D01*
X362710Y196944D01*
X362639Y196900D01*
X362566Y196858D01*
X362491Y196820D01*
X362415Y196785D01*
X362337Y196754D01*
X362258Y196726D01*
X362177Y196702D01*
X362096Y196682D01*
X362014Y196665D01*
X361931Y196652D01*
X361848Y196643D01*
X361764Y196637D01*
X361680Y196635D01*
X359811Y196635D01*
X367251Y201869D02*
X369120Y203365D01*
X369120Y196635D01*
X367251Y196635D02*
X370989Y196635D01*
X374451Y200000D02*
X374453Y200148D01*
X374459Y200296D01*
X374469Y200443D01*
X374483Y200591D01*
X374500Y200738D01*
X374522Y200884D01*
X374547Y201030D01*
X374577Y201175D01*
X374610Y201319D01*
X374647Y201462D01*
X374688Y201604D01*
X374733Y201746D01*
X374781Y201885D01*
X374833Y202024D01*
X374889Y202161D01*
X374949Y202296D01*
X375012Y202430D01*
X375012Y202431D02*
X375037Y202498D01*
X375065Y202563D01*
X375097Y202627D01*
X375132Y202690D01*
X375170Y202750D01*
X375211Y202808D01*
X375255Y202865D01*
X375302Y202918D01*
X375352Y202970D01*
X375404Y203018D01*
X375459Y203064D01*
X375516Y203107D01*
X375575Y203147D01*
X375637Y203184D01*
X375700Y203218D01*
X375764Y203248D01*
X375830Y203275D01*
X375898Y203299D01*
X375967Y203319D01*
X376036Y203336D01*
X376106Y203348D01*
X376177Y203358D01*
X376249Y203363D01*
X376320Y203365D01*
X376391Y203363D01*
X376463Y203358D01*
X376534Y203348D01*
X376604Y203336D01*
X376673Y203319D01*
X376742Y203299D01*
X376810Y203275D01*
X376876Y203248D01*
X376940Y203218D01*
X377003Y203184D01*
X377065Y203147D01*
X377124Y203107D01*
X377181Y203064D01*
X377236Y203018D01*
X377288Y202970D01*
X377338Y202918D01*
X377385Y202865D01*
X377429Y202808D01*
X377470Y202750D01*
X377508Y202689D01*
X377543Y202627D01*
X377575Y202563D01*
X377603Y202497D01*
X377628Y202430D01*
X377629Y202430D02*
X377692Y202296D01*
X377752Y202161D01*
X377808Y202024D01*
X377860Y201885D01*
X377908Y201746D01*
X377953Y201605D01*
X377994Y201462D01*
X378031Y201319D01*
X378064Y201175D01*
X378094Y201030D01*
X378119Y200884D01*
X378141Y200738D01*
X378158Y200591D01*
X378172Y200443D01*
X378182Y200296D01*
X378188Y200148D01*
X378190Y200000D01*
X374451Y200000D02*
X374453Y199852D01*
X374459Y199704D01*
X374469Y199557D01*
X374483Y199409D01*
X374500Y199262D01*
X374522Y199116D01*
X374547Y198970D01*
X374577Y198825D01*
X374610Y198681D01*
X374647Y198538D01*
X374688Y198396D01*
X374733Y198255D01*
X374781Y198115D01*
X374833Y197976D01*
X374889Y197839D01*
X374949Y197704D01*
X375012Y197570D01*
X375012Y197569D02*
X375037Y197502D01*
X375065Y197437D01*
X375097Y197373D01*
X375132Y197310D01*
X375170Y197250D01*
X375211Y197192D01*
X375255Y197135D01*
X375302Y197082D01*
X375352Y197030D01*
X375404Y196982D01*
X375459Y196936D01*
X375516Y196893D01*
X375575Y196853D01*
X375637Y196816D01*
X375700Y196782D01*
X375764Y196752D01*
X375830Y196725D01*
X375898Y196701D01*
X375967Y196681D01*
X376036Y196664D01*
X376106Y196652D01*
X376177Y196642D01*
X376249Y196637D01*
X376320Y196635D01*
X377628Y197570D02*
X377691Y197704D01*
X377751Y197839D01*
X377807Y197976D01*
X377859Y198115D01*
X377907Y198254D01*
X377952Y198395D01*
X377993Y198538D01*
X378030Y198681D01*
X378063Y198825D01*
X378093Y198970D01*
X378118Y199116D01*
X378140Y199262D01*
X378157Y199409D01*
X378171Y199557D01*
X378181Y199704D01*
X378187Y199852D01*
X378189Y200000D01*
X377628Y197569D02*
X377603Y197502D01*
X377575Y197437D01*
X377543Y197373D01*
X377508Y197310D01*
X377470Y197250D01*
X377429Y197192D01*
X377385Y197135D01*
X377338Y197082D01*
X377288Y197030D01*
X377236Y196982D01*
X377181Y196936D01*
X377124Y196893D01*
X377065Y196853D01*
X377003Y196816D01*
X376940Y196782D01*
X376876Y196752D01*
X376810Y196725D01*
X376742Y196701D01*
X376673Y196681D01*
X376604Y196664D01*
X376534Y196652D01*
X376463Y196642D01*
X376391Y196637D01*
X376320Y196635D01*
X374824Y198131D02*
X377816Y201869D01*
X386867Y196635D02*
X386943Y196637D01*
X387018Y196643D01*
X387094Y196652D01*
X387168Y196666D01*
X387242Y196683D01*
X387315Y196704D01*
X387387Y196728D01*
X387457Y196756D01*
X387526Y196788D01*
X387593Y196823D01*
X387658Y196861D01*
X387722Y196903D01*
X387783Y196948D01*
X387841Y196996D01*
X387898Y197047D01*
X387951Y197100D01*
X388002Y197157D01*
X388050Y197215D01*
X388095Y197276D01*
X388137Y197340D01*
X388175Y197405D01*
X388210Y197472D01*
X388242Y197541D01*
X388270Y197611D01*
X388294Y197683D01*
X388315Y197756D01*
X388332Y197830D01*
X388346Y197904D01*
X388355Y197980D01*
X388361Y198055D01*
X388363Y198131D01*
X386867Y196635D02*
X386759Y196637D01*
X386650Y196642D01*
X386542Y196652D01*
X386435Y196665D01*
X386327Y196681D01*
X386221Y196702D01*
X386115Y196726D01*
X386010Y196753D01*
X385906Y196785D01*
X385804Y196819D01*
X385702Y196858D01*
X385602Y196899D01*
X385504Y196944D01*
X385407Y196993D01*
X385311Y197045D01*
X385218Y197100D01*
X385126Y197158D01*
X385037Y197219D01*
X384950Y197283D01*
X384865Y197351D01*
X384782Y197421D01*
X384702Y197494D01*
X384624Y197570D01*
X384810Y201869D02*
X384812Y201945D01*
X384818Y202020D01*
X384827Y202096D01*
X384841Y202170D01*
X384858Y202244D01*
X384879Y202317D01*
X384903Y202389D01*
X384931Y202459D01*
X384963Y202528D01*
X384998Y202595D01*
X385036Y202660D01*
X385078Y202724D01*
X385123Y202785D01*
X385171Y202843D01*
X385222Y202900D01*
X385275Y202953D01*
X385332Y203004D01*
X385390Y203052D01*
X385451Y203097D01*
X385515Y203139D01*
X385580Y203177D01*
X385647Y203212D01*
X385716Y203244D01*
X385786Y203272D01*
X385858Y203296D01*
X385931Y203317D01*
X386005Y203334D01*
X386079Y203348D01*
X386155Y203357D01*
X386230Y203363D01*
X386306Y203365D01*
X386406Y203363D01*
X386506Y203358D01*
X386606Y203349D01*
X386706Y203336D01*
X386805Y203320D01*
X386903Y203301D01*
X387000Y203278D01*
X387097Y203251D01*
X387193Y203221D01*
X387287Y203188D01*
X387380Y203151D01*
X387472Y203111D01*
X387563Y203068D01*
X387652Y203021D01*
X387739Y202971D01*
X387824Y202919D01*
X387907Y202863D01*
X387988Y202804D01*
X385559Y200560D02*
X385495Y200600D01*
X385433Y200643D01*
X385374Y200689D01*
X385317Y200737D01*
X385262Y200789D01*
X385210Y200843D01*
X385161Y200900D01*
X385114Y200959D01*
X385071Y201020D01*
X385030Y201083D01*
X384993Y201148D01*
X384959Y201215D01*
X384928Y201284D01*
X384901Y201354D01*
X384877Y201425D01*
X384857Y201497D01*
X384841Y201571D01*
X384828Y201645D01*
X384818Y201719D01*
X384813Y201794D01*
X384811Y201869D01*
X387615Y199440D02*
X387679Y199400D01*
X387741Y199357D01*
X387800Y199311D01*
X387857Y199263D01*
X387912Y199211D01*
X387964Y199157D01*
X388013Y199100D01*
X388060Y199041D01*
X388103Y198980D01*
X388144Y198917D01*
X388181Y198852D01*
X388215Y198785D01*
X388246Y198716D01*
X388273Y198646D01*
X388297Y198575D01*
X388317Y198503D01*
X388333Y198429D01*
X388346Y198355D01*
X388356Y198281D01*
X388361Y198206D01*
X388363Y198131D01*
X387615Y199439D02*
X385558Y200561D01*
X391824Y203365D02*
X391824Y196635D01*
X391824Y203365D02*
X393693Y203365D01*
X393777Y203363D01*
X393861Y203357D01*
X393944Y203348D01*
X394027Y203335D01*
X394109Y203318D01*
X394190Y203298D01*
X394271Y203274D01*
X394350Y203246D01*
X394428Y203215D01*
X394504Y203180D01*
X394579Y203142D01*
X394652Y203100D01*
X394723Y203056D01*
X394792Y203008D01*
X394858Y202957D01*
X394923Y202903D01*
X394985Y202847D01*
X395044Y202788D01*
X395100Y202726D01*
X395154Y202661D01*
X395205Y202595D01*
X395253Y202526D01*
X395297Y202455D01*
X395339Y202382D01*
X395377Y202307D01*
X395412Y202231D01*
X395443Y202153D01*
X395471Y202074D01*
X395495Y201993D01*
X395515Y201912D01*
X395532Y201830D01*
X395545Y201747D01*
X395554Y201664D01*
X395560Y201580D01*
X395562Y201496D01*
X395563Y201496D02*
X395563Y198504D01*
X395562Y198504D02*
X395560Y198420D01*
X395554Y198336D01*
X395545Y198253D01*
X395532Y198170D01*
X395515Y198088D01*
X395495Y198007D01*
X395471Y197926D01*
X395443Y197847D01*
X395412Y197769D01*
X395377Y197693D01*
X395339Y197618D01*
X395297Y197545D01*
X395253Y197474D01*
X395205Y197405D01*
X395154Y197339D01*
X395100Y197274D01*
X395044Y197212D01*
X394985Y197153D01*
X394923Y197097D01*
X394858Y197043D01*
X394792Y196992D01*
X394723Y196944D01*
X394652Y196900D01*
X394579Y196858D01*
X394504Y196820D01*
X394428Y196785D01*
X394350Y196754D01*
X394271Y196726D01*
X394190Y196702D01*
X394109Y196682D01*
X394027Y196665D01*
X393944Y196652D01*
X393861Y196643D01*
X393777Y196637D01*
X393693Y196635D01*
X391824Y196635D01*
X398890Y196635D02*
X401133Y203365D01*
X403376Y196635D01*
X402816Y198318D02*
X399451Y198318D01*
X413137Y196635D02*
X413213Y196637D01*
X413288Y196643D01*
X413364Y196652D01*
X413438Y196666D01*
X413512Y196683D01*
X413585Y196704D01*
X413657Y196728D01*
X413727Y196756D01*
X413796Y196788D01*
X413863Y196823D01*
X413928Y196861D01*
X413992Y196903D01*
X414053Y196948D01*
X414111Y196996D01*
X414168Y197047D01*
X414221Y197100D01*
X414272Y197157D01*
X414320Y197215D01*
X414365Y197276D01*
X414407Y197340D01*
X414445Y197405D01*
X414480Y197472D01*
X414512Y197541D01*
X414540Y197611D01*
X414564Y197683D01*
X414585Y197756D01*
X414602Y197830D01*
X414616Y197904D01*
X414625Y197980D01*
X414631Y198055D01*
X414633Y198131D01*
X413137Y196635D02*
X413029Y196637D01*
X412920Y196642D01*
X412812Y196652D01*
X412705Y196665D01*
X412597Y196681D01*
X412491Y196702D01*
X412385Y196726D01*
X412280Y196753D01*
X412176Y196785D01*
X412074Y196819D01*
X411972Y196858D01*
X411872Y196899D01*
X411774Y196944D01*
X411677Y196993D01*
X411581Y197045D01*
X411488Y197100D01*
X411396Y197158D01*
X411307Y197219D01*
X411220Y197283D01*
X411135Y197351D01*
X411052Y197421D01*
X410972Y197494D01*
X410894Y197570D01*
X411080Y201869D02*
X411082Y201945D01*
X411088Y202020D01*
X411097Y202096D01*
X411111Y202170D01*
X411128Y202244D01*
X411149Y202317D01*
X411173Y202389D01*
X411201Y202459D01*
X411233Y202528D01*
X411268Y202595D01*
X411306Y202660D01*
X411348Y202724D01*
X411393Y202785D01*
X411441Y202843D01*
X411492Y202900D01*
X411545Y202953D01*
X411602Y203004D01*
X411660Y203052D01*
X411721Y203097D01*
X411785Y203139D01*
X411850Y203177D01*
X411917Y203212D01*
X411986Y203244D01*
X412056Y203272D01*
X412128Y203296D01*
X412201Y203317D01*
X412275Y203334D01*
X412349Y203348D01*
X412425Y203357D01*
X412500Y203363D01*
X412576Y203365D01*
X412676Y203363D01*
X412776Y203358D01*
X412876Y203349D01*
X412976Y203336D01*
X413075Y203320D01*
X413173Y203301D01*
X413270Y203278D01*
X413367Y203251D01*
X413463Y203221D01*
X413557Y203188D01*
X413650Y203151D01*
X413742Y203111D01*
X413833Y203068D01*
X413922Y203021D01*
X414009Y202971D01*
X414094Y202919D01*
X414177Y202863D01*
X414258Y202804D01*
X411829Y200560D02*
X411765Y200600D01*
X411703Y200643D01*
X411644Y200689D01*
X411587Y200737D01*
X411532Y200789D01*
X411480Y200843D01*
X411431Y200900D01*
X411384Y200959D01*
X411341Y201020D01*
X411300Y201083D01*
X411263Y201148D01*
X411229Y201215D01*
X411198Y201284D01*
X411171Y201354D01*
X411147Y201425D01*
X411127Y201497D01*
X411111Y201571D01*
X411098Y201645D01*
X411088Y201719D01*
X411083Y201794D01*
X411081Y201869D01*
X413885Y199440D02*
X413949Y199400D01*
X414011Y199357D01*
X414070Y199311D01*
X414127Y199263D01*
X414182Y199211D01*
X414234Y199157D01*
X414283Y199100D01*
X414330Y199041D01*
X414373Y198980D01*
X414414Y198917D01*
X414451Y198852D01*
X414485Y198785D01*
X414516Y198716D01*
X414543Y198646D01*
X414567Y198575D01*
X414587Y198503D01*
X414603Y198429D01*
X414616Y198355D01*
X414626Y198281D01*
X414631Y198206D01*
X414633Y198131D01*
X413885Y199439D02*
X411829Y200561D01*
X419318Y196635D02*
X420814Y196635D01*
X419318Y196635D02*
X419242Y196637D01*
X419167Y196643D01*
X419091Y196652D01*
X419017Y196666D01*
X418943Y196683D01*
X418870Y196704D01*
X418798Y196728D01*
X418728Y196756D01*
X418659Y196788D01*
X418592Y196823D01*
X418527Y196861D01*
X418463Y196903D01*
X418402Y196948D01*
X418344Y196996D01*
X418287Y197047D01*
X418234Y197100D01*
X418183Y197157D01*
X418135Y197215D01*
X418090Y197276D01*
X418048Y197340D01*
X418010Y197405D01*
X417975Y197472D01*
X417943Y197541D01*
X417915Y197611D01*
X417891Y197683D01*
X417870Y197756D01*
X417853Y197830D01*
X417839Y197904D01*
X417830Y197980D01*
X417824Y198055D01*
X417822Y198131D01*
X417823Y198131D02*
X417823Y201869D01*
X417822Y201869D02*
X417824Y201945D01*
X417830Y202020D01*
X417839Y202096D01*
X417853Y202170D01*
X417870Y202244D01*
X417891Y202317D01*
X417915Y202389D01*
X417943Y202459D01*
X417975Y202528D01*
X418010Y202595D01*
X418048Y202660D01*
X418090Y202724D01*
X418135Y202785D01*
X418183Y202843D01*
X418234Y202900D01*
X418287Y202953D01*
X418344Y203004D01*
X418402Y203052D01*
X418463Y203097D01*
X418527Y203139D01*
X418592Y203177D01*
X418659Y203212D01*
X418728Y203244D01*
X418798Y203272D01*
X418870Y203296D01*
X418943Y203317D01*
X419017Y203334D01*
X419091Y203348D01*
X419167Y203357D01*
X419242Y203363D01*
X419318Y203365D01*
X420814Y203365D01*
X424115Y203365D02*
X424115Y196635D01*
X427106Y196635D01*
X438068Y200374D02*
X439189Y200374D01*
X439189Y196635D01*
X436946Y196635D01*
X436870Y196637D01*
X436795Y196643D01*
X436719Y196652D01*
X436645Y196666D01*
X436571Y196683D01*
X436498Y196704D01*
X436426Y196728D01*
X436356Y196756D01*
X436287Y196788D01*
X436220Y196823D01*
X436155Y196861D01*
X436091Y196903D01*
X436030Y196948D01*
X435972Y196996D01*
X435915Y197047D01*
X435862Y197100D01*
X435811Y197157D01*
X435763Y197215D01*
X435718Y197276D01*
X435676Y197340D01*
X435638Y197405D01*
X435603Y197472D01*
X435571Y197541D01*
X435543Y197611D01*
X435519Y197683D01*
X435498Y197756D01*
X435481Y197830D01*
X435467Y197904D01*
X435458Y197980D01*
X435452Y198055D01*
X435450Y198131D01*
X435451Y198131D02*
X435451Y201869D01*
X435450Y201869D02*
X435452Y201945D01*
X435458Y202020D01*
X435467Y202096D01*
X435481Y202170D01*
X435498Y202244D01*
X435519Y202317D01*
X435543Y202389D01*
X435571Y202459D01*
X435603Y202528D01*
X435638Y202595D01*
X435676Y202660D01*
X435718Y202724D01*
X435763Y202785D01*
X435811Y202843D01*
X435862Y202900D01*
X435915Y202953D01*
X435972Y203004D01*
X436030Y203052D01*
X436091Y203097D01*
X436155Y203139D01*
X436220Y203177D01*
X436287Y203212D01*
X436356Y203244D01*
X436426Y203272D01*
X436498Y203296D01*
X436571Y203317D01*
X436645Y203334D01*
X436719Y203348D01*
X436795Y203357D01*
X436870Y203363D01*
X436946Y203365D01*
X439189Y203365D01*
X443131Y203365D02*
X443131Y196635D01*
X446869Y196635D02*
X443131Y203365D01*
X446869Y203365D02*
X446869Y196635D01*
X450811Y196635D02*
X450811Y203365D01*
X452680Y203365D01*
X452764Y203363D01*
X452848Y203357D01*
X452931Y203348D01*
X453014Y203335D01*
X453096Y203318D01*
X453177Y203298D01*
X453258Y203274D01*
X453337Y203246D01*
X453415Y203215D01*
X453491Y203180D01*
X453566Y203142D01*
X453639Y203100D01*
X453710Y203056D01*
X453779Y203008D01*
X453845Y202957D01*
X453910Y202903D01*
X453972Y202847D01*
X454031Y202788D01*
X454087Y202726D01*
X454141Y202661D01*
X454192Y202595D01*
X454240Y202526D01*
X454284Y202455D01*
X454326Y202382D01*
X454364Y202307D01*
X454399Y202231D01*
X454430Y202153D01*
X454458Y202074D01*
X454482Y201993D01*
X454502Y201912D01*
X454519Y201830D01*
X454532Y201747D01*
X454541Y201664D01*
X454547Y201580D01*
X454549Y201496D01*
X454549Y198504D01*
X454547Y198420D01*
X454541Y198336D01*
X454532Y198253D01*
X454519Y198170D01*
X454502Y198088D01*
X454482Y198007D01*
X454458Y197926D01*
X454430Y197847D01*
X454399Y197769D01*
X454364Y197693D01*
X454326Y197618D01*
X454284Y197545D01*
X454240Y197474D01*
X454192Y197405D01*
X454141Y197339D01*
X454087Y197274D01*
X454031Y197212D01*
X453972Y197153D01*
X453910Y197097D01*
X453845Y197043D01*
X453779Y196992D01*
X453710Y196944D01*
X453639Y196900D01*
X453566Y196858D01*
X453491Y196820D01*
X453415Y196785D01*
X453337Y196754D01*
X453258Y196726D01*
X453177Y196702D01*
X453096Y196682D01*
X453014Y196665D01*
X452931Y196652D01*
X452848Y196643D01*
X452764Y196637D01*
X452680Y196635D01*
X450811Y196635D01*
D11*
X159600Y25508D02*
X158216Y25508D01*
X159600Y25508D02*
X159674Y25510D01*
X159747Y25516D01*
X159820Y25526D01*
X159893Y25539D01*
X159964Y25557D01*
X160035Y25578D01*
X160104Y25603D01*
X160172Y25632D01*
X160238Y25664D01*
X160303Y25700D01*
X160365Y25739D01*
X160425Y25781D01*
X160483Y25827D01*
X160539Y25875D01*
X160592Y25926D01*
X160642Y25981D01*
X160689Y26037D01*
X160733Y26096D01*
X160773Y26158D01*
X160811Y26221D01*
X160845Y26287D01*
X160875Y26354D01*
X160902Y26422D01*
X160925Y26492D01*
X160944Y26564D01*
X160960Y26636D01*
X160972Y26708D01*
X160980Y26782D01*
X160984Y26855D01*
X160984Y26929D01*
X160980Y27002D01*
X160972Y27076D01*
X160960Y27148D01*
X160944Y27220D01*
X160925Y27292D01*
X160902Y27362D01*
X160875Y27430D01*
X160845Y27497D01*
X160811Y27563D01*
X160773Y27626D01*
X160733Y27688D01*
X160689Y27747D01*
X160642Y27803D01*
X160592Y27858D01*
X160539Y27909D01*
X160483Y27957D01*
X160425Y28003D01*
X160365Y28045D01*
X160303Y28084D01*
X160238Y28120D01*
X160172Y28152D01*
X160104Y28181D01*
X160035Y28206D01*
X159964Y28227D01*
X159893Y28245D01*
X159820Y28258D01*
X159747Y28268D01*
X159674Y28274D01*
X159600Y28276D01*
X159877Y30492D02*
X158216Y30492D01*
X159877Y30492D02*
X159943Y30490D01*
X160008Y30484D01*
X160073Y30475D01*
X160137Y30461D01*
X160201Y30444D01*
X160263Y30423D01*
X160324Y30398D01*
X160383Y30370D01*
X160440Y30338D01*
X160496Y30303D01*
X160549Y30265D01*
X160600Y30223D01*
X160649Y30179D01*
X160695Y30132D01*
X160737Y30082D01*
X160777Y30030D01*
X160814Y29975D01*
X160847Y29919D01*
X160877Y29861D01*
X160904Y29800D01*
X160927Y29739D01*
X160946Y29676D01*
X160961Y29612D01*
X160973Y29548D01*
X160981Y29482D01*
X160985Y29417D01*
X160985Y29351D01*
X160981Y29286D01*
X160973Y29220D01*
X160961Y29156D01*
X160946Y29092D01*
X160927Y29029D01*
X160904Y28968D01*
X160877Y28907D01*
X160847Y28849D01*
X160814Y28793D01*
X160777Y28738D01*
X160737Y28686D01*
X160695Y28636D01*
X160649Y28589D01*
X160600Y28545D01*
X160549Y28503D01*
X160496Y28465D01*
X160440Y28430D01*
X160383Y28398D01*
X160324Y28370D01*
X160263Y28345D01*
X160201Y28324D01*
X160137Y28307D01*
X160073Y28293D01*
X160008Y28284D01*
X159943Y28278D01*
X159877Y28276D01*
X159877Y28277D02*
X158769Y28277D01*
X163339Y30492D02*
X165000Y25508D01*
X166661Y30492D01*
X169016Y25508D02*
X170400Y25508D01*
X170474Y25510D01*
X170547Y25516D01*
X170620Y25526D01*
X170693Y25539D01*
X170764Y25557D01*
X170835Y25578D01*
X170904Y25603D01*
X170972Y25632D01*
X171038Y25664D01*
X171103Y25700D01*
X171165Y25739D01*
X171225Y25781D01*
X171283Y25827D01*
X171339Y25875D01*
X171392Y25926D01*
X171442Y25981D01*
X171489Y26037D01*
X171533Y26096D01*
X171573Y26158D01*
X171611Y26221D01*
X171645Y26287D01*
X171675Y26354D01*
X171702Y26422D01*
X171725Y26492D01*
X171744Y26564D01*
X171760Y26636D01*
X171772Y26708D01*
X171780Y26782D01*
X171784Y26855D01*
X171784Y26929D01*
X171780Y27002D01*
X171772Y27076D01*
X171760Y27148D01*
X171744Y27220D01*
X171725Y27292D01*
X171702Y27362D01*
X171675Y27430D01*
X171645Y27497D01*
X171611Y27563D01*
X171573Y27626D01*
X171533Y27688D01*
X171489Y27747D01*
X171442Y27803D01*
X171392Y27858D01*
X171339Y27909D01*
X171283Y27957D01*
X171225Y28003D01*
X171165Y28045D01*
X171103Y28084D01*
X171038Y28120D01*
X170972Y28152D01*
X170904Y28181D01*
X170835Y28206D01*
X170764Y28227D01*
X170693Y28245D01*
X170620Y28258D01*
X170547Y28268D01*
X170474Y28274D01*
X170400Y28276D01*
X170677Y30492D02*
X169016Y30492D01*
X170677Y30492D02*
X170743Y30490D01*
X170808Y30484D01*
X170873Y30475D01*
X170937Y30461D01*
X171001Y30444D01*
X171063Y30423D01*
X171124Y30398D01*
X171183Y30370D01*
X171240Y30338D01*
X171296Y30303D01*
X171349Y30265D01*
X171400Y30223D01*
X171449Y30179D01*
X171495Y30132D01*
X171537Y30082D01*
X171577Y30030D01*
X171614Y29975D01*
X171647Y29919D01*
X171677Y29861D01*
X171704Y29800D01*
X171727Y29739D01*
X171746Y29676D01*
X171761Y29612D01*
X171773Y29548D01*
X171781Y29482D01*
X171785Y29417D01*
X171785Y29351D01*
X171781Y29286D01*
X171773Y29220D01*
X171761Y29156D01*
X171746Y29092D01*
X171727Y29029D01*
X171704Y28968D01*
X171677Y28907D01*
X171647Y28849D01*
X171614Y28793D01*
X171577Y28738D01*
X171537Y28686D01*
X171495Y28636D01*
X171449Y28589D01*
X171400Y28545D01*
X171349Y28503D01*
X171296Y28465D01*
X171240Y28430D01*
X171183Y28398D01*
X171124Y28370D01*
X171063Y28345D01*
X171001Y28324D01*
X170937Y28307D01*
X170873Y28293D01*
X170808Y28284D01*
X170743Y28278D01*
X170677Y28276D01*
X170677Y28277D02*
X169569Y28277D01*
X182367Y30492D02*
X182367Y25508D01*
X184028Y27723D02*
X182367Y30492D01*
X184028Y27723D02*
X185690Y30492D01*
X185690Y25508D01*
X188888Y25508D02*
X188888Y30492D01*
X188335Y25508D02*
X189442Y25508D01*
X189442Y30492D02*
X188335Y30492D01*
X193305Y25508D02*
X193369Y25510D01*
X193434Y25515D01*
X193497Y25525D01*
X193560Y25538D01*
X193623Y25555D01*
X193684Y25575D01*
X193744Y25599D01*
X193802Y25626D01*
X193859Y25656D01*
X193914Y25690D01*
X193967Y25727D01*
X194017Y25767D01*
X194065Y25810D01*
X194111Y25856D01*
X194154Y25904D01*
X194194Y25954D01*
X194231Y26007D01*
X194265Y26062D01*
X194295Y26119D01*
X194322Y26177D01*
X194346Y26237D01*
X194366Y26298D01*
X194383Y26360D01*
X194396Y26424D01*
X194406Y26487D01*
X194411Y26552D01*
X194413Y26616D01*
X193305Y25508D02*
X193213Y25510D01*
X193120Y25515D01*
X193028Y25524D01*
X192937Y25537D01*
X192846Y25553D01*
X192756Y25573D01*
X192667Y25597D01*
X192578Y25624D01*
X192491Y25654D01*
X192405Y25688D01*
X192320Y25725D01*
X192237Y25766D01*
X192156Y25809D01*
X192077Y25856D01*
X191999Y25906D01*
X191923Y25960D01*
X191850Y26016D01*
X191779Y26074D01*
X191710Y26136D01*
X191643Y26200D01*
X191782Y29384D02*
X191784Y29448D01*
X191789Y29513D01*
X191799Y29576D01*
X191812Y29640D01*
X191829Y29702D01*
X191849Y29763D01*
X191873Y29823D01*
X191900Y29881D01*
X191930Y29938D01*
X191964Y29993D01*
X192001Y30046D01*
X192041Y30096D01*
X192084Y30144D01*
X192130Y30190D01*
X192178Y30233D01*
X192228Y30273D01*
X192281Y30310D01*
X192336Y30344D01*
X192393Y30374D01*
X192451Y30401D01*
X192511Y30425D01*
X192572Y30445D01*
X192634Y30462D01*
X192698Y30475D01*
X192761Y30485D01*
X192826Y30490D01*
X192890Y30492D01*
X192979Y30490D01*
X193068Y30484D01*
X193157Y30475D01*
X193245Y30461D01*
X193332Y30444D01*
X193419Y30424D01*
X193504Y30399D01*
X193589Y30371D01*
X193672Y30339D01*
X193754Y30304D01*
X193834Y30265D01*
X193913Y30223D01*
X193989Y30177D01*
X194064Y30129D01*
X194136Y30077D01*
X192336Y28415D02*
X192281Y28449D01*
X192228Y28487D01*
X192177Y28528D01*
X192129Y28571D01*
X192084Y28617D01*
X192041Y28666D01*
X192001Y28717D01*
X191964Y28770D01*
X191930Y28826D01*
X191900Y28883D01*
X191872Y28942D01*
X191849Y29002D01*
X191828Y29064D01*
X191812Y29127D01*
X191799Y29190D01*
X191789Y29255D01*
X191784Y29319D01*
X191782Y29384D01*
X193859Y27585D02*
X193914Y27551D01*
X193967Y27513D01*
X194018Y27472D01*
X194066Y27429D01*
X194111Y27383D01*
X194154Y27334D01*
X194194Y27283D01*
X194231Y27230D01*
X194265Y27174D01*
X194295Y27117D01*
X194323Y27058D01*
X194346Y26998D01*
X194367Y26936D01*
X194383Y26873D01*
X194396Y26810D01*
X194406Y26745D01*
X194411Y26681D01*
X194413Y26616D01*
X193859Y27585D02*
X192336Y28415D01*
X196864Y29108D02*
X196864Y26892D01*
X196864Y29108D02*
X196866Y29182D01*
X196872Y29255D01*
X196882Y29328D01*
X196895Y29401D01*
X196913Y29472D01*
X196934Y29543D01*
X196959Y29612D01*
X196988Y29680D01*
X197020Y29746D01*
X197056Y29811D01*
X197095Y29873D01*
X197137Y29933D01*
X197183Y29991D01*
X197231Y30047D01*
X197282Y30100D01*
X197337Y30150D01*
X197393Y30197D01*
X197452Y30241D01*
X197514Y30281D01*
X197577Y30319D01*
X197643Y30353D01*
X197710Y30383D01*
X197778Y30410D01*
X197848Y30433D01*
X197920Y30452D01*
X197992Y30468D01*
X198064Y30480D01*
X198138Y30488D01*
X198211Y30492D01*
X198285Y30492D01*
X198358Y30488D01*
X198432Y30480D01*
X198504Y30468D01*
X198576Y30452D01*
X198648Y30433D01*
X198718Y30410D01*
X198786Y30383D01*
X198853Y30353D01*
X198919Y30319D01*
X198982Y30281D01*
X199044Y30241D01*
X199103Y30197D01*
X199159Y30150D01*
X199214Y30100D01*
X199265Y30047D01*
X199313Y29991D01*
X199359Y29933D01*
X199401Y29873D01*
X199440Y29811D01*
X199476Y29746D01*
X199508Y29680D01*
X199537Y29612D01*
X199562Y29543D01*
X199583Y29472D01*
X199601Y29401D01*
X199614Y29328D01*
X199624Y29255D01*
X199630Y29182D01*
X199632Y29108D01*
X199633Y29108D02*
X199633Y26892D01*
X199632Y26892D02*
X199630Y26818D01*
X199624Y26745D01*
X199614Y26672D01*
X199601Y26599D01*
X199583Y26528D01*
X199562Y26457D01*
X199537Y26388D01*
X199508Y26320D01*
X199476Y26254D01*
X199440Y26189D01*
X199401Y26127D01*
X199359Y26067D01*
X199313Y26009D01*
X199265Y25953D01*
X199214Y25900D01*
X199159Y25850D01*
X199103Y25803D01*
X199044Y25759D01*
X198982Y25719D01*
X198919Y25681D01*
X198853Y25647D01*
X198786Y25617D01*
X198718Y25590D01*
X198648Y25567D01*
X198576Y25548D01*
X198504Y25532D01*
X198432Y25520D01*
X198358Y25512D01*
X198285Y25508D01*
X198211Y25508D01*
X198138Y25512D01*
X198064Y25520D01*
X197992Y25532D01*
X197920Y25548D01*
X197848Y25567D01*
X197778Y25590D01*
X197710Y25617D01*
X197643Y25647D01*
X197577Y25681D01*
X197514Y25719D01*
X197452Y25759D01*
X197393Y25803D01*
X197337Y25850D01*
X197282Y25900D01*
X197231Y25953D01*
X197183Y26009D01*
X197137Y26067D01*
X197095Y26127D01*
X197056Y26189D01*
X197020Y26254D01*
X196988Y26320D01*
X196959Y26388D01*
X196934Y26457D01*
X196913Y26528D01*
X196895Y26599D01*
X196882Y26672D01*
X196872Y26745D01*
X196866Y26818D01*
X196864Y26892D01*
X211265Y25508D02*
X211329Y25510D01*
X211394Y25515D01*
X211457Y25525D01*
X211520Y25538D01*
X211583Y25555D01*
X211644Y25575D01*
X211704Y25599D01*
X211762Y25626D01*
X211819Y25656D01*
X211874Y25690D01*
X211927Y25727D01*
X211977Y25767D01*
X212025Y25810D01*
X212071Y25856D01*
X212114Y25904D01*
X212154Y25954D01*
X212191Y26007D01*
X212225Y26062D01*
X212255Y26119D01*
X212282Y26177D01*
X212306Y26237D01*
X212326Y26298D01*
X212343Y26360D01*
X212356Y26424D01*
X212366Y26487D01*
X212371Y26552D01*
X212373Y26616D01*
X211265Y25508D02*
X211173Y25510D01*
X211080Y25515D01*
X210988Y25524D01*
X210897Y25537D01*
X210806Y25553D01*
X210716Y25573D01*
X210627Y25597D01*
X210538Y25624D01*
X210451Y25654D01*
X210365Y25688D01*
X210280Y25725D01*
X210197Y25766D01*
X210116Y25809D01*
X210037Y25856D01*
X209959Y25906D01*
X209883Y25960D01*
X209810Y26016D01*
X209739Y26074D01*
X209670Y26136D01*
X209603Y26200D01*
X209741Y29384D02*
X209743Y29448D01*
X209748Y29513D01*
X209758Y29576D01*
X209771Y29640D01*
X209788Y29702D01*
X209808Y29763D01*
X209832Y29823D01*
X209859Y29881D01*
X209889Y29938D01*
X209923Y29993D01*
X209960Y30046D01*
X210000Y30096D01*
X210043Y30144D01*
X210089Y30190D01*
X210137Y30233D01*
X210187Y30273D01*
X210240Y30310D01*
X210295Y30344D01*
X210352Y30374D01*
X210410Y30401D01*
X210470Y30425D01*
X210531Y30445D01*
X210593Y30462D01*
X210657Y30475D01*
X210720Y30485D01*
X210785Y30490D01*
X210849Y30492D01*
X210938Y30490D01*
X211027Y30484D01*
X211116Y30475D01*
X211204Y30461D01*
X211291Y30444D01*
X211378Y30424D01*
X211463Y30399D01*
X211548Y30371D01*
X211631Y30339D01*
X211713Y30304D01*
X211793Y30265D01*
X211872Y30223D01*
X211948Y30177D01*
X212023Y30129D01*
X212095Y30077D01*
X210296Y28415D02*
X210241Y28449D01*
X210188Y28487D01*
X210137Y28528D01*
X210089Y28571D01*
X210044Y28617D01*
X210001Y28666D01*
X209961Y28717D01*
X209924Y28770D01*
X209890Y28826D01*
X209860Y28883D01*
X209832Y28942D01*
X209809Y29002D01*
X209788Y29064D01*
X209772Y29127D01*
X209759Y29190D01*
X209749Y29255D01*
X209744Y29319D01*
X209742Y29384D01*
X211818Y27585D02*
X211873Y27551D01*
X211926Y27513D01*
X211977Y27472D01*
X212025Y27429D01*
X212070Y27383D01*
X212113Y27334D01*
X212153Y27283D01*
X212190Y27230D01*
X212224Y27174D01*
X212254Y27117D01*
X212282Y27058D01*
X212305Y26998D01*
X212326Y26936D01*
X212342Y26873D01*
X212355Y26810D01*
X212365Y26745D01*
X212370Y26681D01*
X212372Y26616D01*
X211818Y27585D02*
X210295Y28415D01*
X215906Y25508D02*
X217014Y25508D01*
X215906Y25508D02*
X215842Y25510D01*
X215777Y25515D01*
X215714Y25525D01*
X215650Y25538D01*
X215588Y25555D01*
X215527Y25575D01*
X215467Y25599D01*
X215409Y25626D01*
X215352Y25656D01*
X215297Y25690D01*
X215244Y25727D01*
X215194Y25767D01*
X215146Y25810D01*
X215100Y25856D01*
X215057Y25904D01*
X215017Y25954D01*
X214980Y26007D01*
X214946Y26062D01*
X214916Y26119D01*
X214889Y26177D01*
X214865Y26237D01*
X214845Y26298D01*
X214828Y26360D01*
X214815Y26424D01*
X214805Y26487D01*
X214800Y26552D01*
X214798Y26616D01*
X214799Y26616D02*
X214799Y29384D01*
X214798Y29384D02*
X214800Y29448D01*
X214805Y29513D01*
X214815Y29576D01*
X214828Y29640D01*
X214845Y29702D01*
X214865Y29763D01*
X214889Y29823D01*
X214916Y29881D01*
X214946Y29938D01*
X214980Y29993D01*
X215017Y30046D01*
X215057Y30096D01*
X215100Y30144D01*
X215146Y30190D01*
X215194Y30233D01*
X215244Y30273D01*
X215297Y30310D01*
X215352Y30344D01*
X215409Y30374D01*
X215467Y30401D01*
X215527Y30425D01*
X215588Y30445D01*
X215650Y30462D01*
X215714Y30475D01*
X215777Y30485D01*
X215842Y30490D01*
X215906Y30492D01*
X217014Y30492D01*
X219628Y30492D02*
X219628Y25508D01*
X219628Y27446D02*
X222397Y30492D01*
X220735Y28554D02*
X222397Y25508D01*
D10*
X230304Y26635D02*
X230304Y33365D01*
X232548Y29626D01*
X234791Y33365D01*
X234791Y26635D01*
X238598Y28504D02*
X238598Y31496D01*
X238599Y31496D02*
X238601Y31581D01*
X238607Y31666D01*
X238616Y31750D01*
X238630Y31835D01*
X238647Y31918D01*
X238668Y32000D01*
X238693Y32082D01*
X238722Y32162D01*
X238754Y32241D01*
X238789Y32318D01*
X238829Y32393D01*
X238871Y32467D01*
X238917Y32539D01*
X238966Y32608D01*
X239018Y32676D01*
X239073Y32740D01*
X239131Y32802D01*
X239192Y32862D01*
X239256Y32919D01*
X239322Y32972D01*
X239390Y33023D01*
X239461Y33070D01*
X239534Y33115D01*
X239608Y33155D01*
X239685Y33193D01*
X239763Y33227D01*
X239842Y33257D01*
X239923Y33284D01*
X240005Y33307D01*
X240088Y33326D01*
X240171Y33341D01*
X240256Y33353D01*
X240340Y33361D01*
X240425Y33365D01*
X240511Y33365D01*
X240596Y33361D01*
X240680Y33353D01*
X240765Y33341D01*
X240848Y33326D01*
X240931Y33307D01*
X241013Y33284D01*
X241094Y33257D01*
X241173Y33227D01*
X241251Y33193D01*
X241328Y33155D01*
X241403Y33115D01*
X241475Y33070D01*
X241546Y33023D01*
X241614Y32972D01*
X241680Y32919D01*
X241744Y32862D01*
X241805Y32802D01*
X241863Y32740D01*
X241918Y32676D01*
X241970Y32608D01*
X242019Y32539D01*
X242065Y32467D01*
X242107Y32393D01*
X242147Y32318D01*
X242182Y32241D01*
X242214Y32162D01*
X242243Y32082D01*
X242268Y32000D01*
X242289Y31918D01*
X242306Y31835D01*
X242320Y31750D01*
X242329Y31666D01*
X242335Y31581D01*
X242337Y31496D01*
X242337Y28504D01*
X242335Y28419D01*
X242329Y28334D01*
X242320Y28250D01*
X242306Y28165D01*
X242289Y28082D01*
X242268Y28000D01*
X242243Y27918D01*
X242214Y27838D01*
X242182Y27759D01*
X242147Y27682D01*
X242107Y27607D01*
X242065Y27533D01*
X242019Y27461D01*
X241970Y27392D01*
X241918Y27324D01*
X241863Y27260D01*
X241805Y27198D01*
X241744Y27138D01*
X241680Y27081D01*
X241614Y27028D01*
X241546Y26977D01*
X241475Y26930D01*
X241403Y26885D01*
X241328Y26845D01*
X241251Y26807D01*
X241173Y26773D01*
X241094Y26743D01*
X241013Y26716D01*
X240931Y26693D01*
X240848Y26674D01*
X240765Y26659D01*
X240680Y26647D01*
X240596Y26639D01*
X240511Y26635D01*
X240425Y26635D01*
X240340Y26639D01*
X240256Y26647D01*
X240171Y26659D01*
X240088Y26674D01*
X240005Y26693D01*
X239923Y26716D01*
X239842Y26743D01*
X239763Y26773D01*
X239685Y26807D01*
X239608Y26845D01*
X239534Y26885D01*
X239461Y26930D01*
X239390Y26977D01*
X239322Y27028D01*
X239256Y27081D01*
X239192Y27138D01*
X239131Y27198D01*
X239073Y27260D01*
X239018Y27324D01*
X238966Y27392D01*
X238917Y27461D01*
X238871Y27533D01*
X238829Y27607D01*
X238789Y27682D01*
X238754Y27759D01*
X238722Y27838D01*
X238693Y27918D01*
X238668Y28000D01*
X238647Y28082D01*
X238630Y28165D01*
X238616Y28250D01*
X238607Y28334D01*
X238601Y28419D01*
X238599Y28504D01*
X247802Y26635D02*
X247878Y26637D01*
X247953Y26643D01*
X248029Y26652D01*
X248103Y26666D01*
X248177Y26683D01*
X248250Y26704D01*
X248322Y26728D01*
X248392Y26756D01*
X248461Y26788D01*
X248528Y26823D01*
X248593Y26861D01*
X248657Y26903D01*
X248718Y26948D01*
X248776Y26996D01*
X248833Y27047D01*
X248886Y27100D01*
X248937Y27157D01*
X248985Y27215D01*
X249030Y27276D01*
X249072Y27340D01*
X249110Y27405D01*
X249145Y27472D01*
X249177Y27541D01*
X249205Y27611D01*
X249229Y27683D01*
X249250Y27756D01*
X249267Y27830D01*
X249281Y27904D01*
X249290Y27980D01*
X249296Y28055D01*
X249298Y28131D01*
X247802Y26635D02*
X247694Y26637D01*
X247585Y26642D01*
X247477Y26652D01*
X247370Y26665D01*
X247262Y26681D01*
X247156Y26702D01*
X247050Y26726D01*
X246945Y26753D01*
X246841Y26785D01*
X246739Y26819D01*
X246637Y26858D01*
X246537Y26899D01*
X246439Y26944D01*
X246342Y26993D01*
X246246Y27045D01*
X246153Y27100D01*
X246061Y27158D01*
X245972Y27219D01*
X245885Y27283D01*
X245800Y27351D01*
X245717Y27421D01*
X245637Y27494D01*
X245559Y27570D01*
X245745Y31869D02*
X245747Y31945D01*
X245753Y32020D01*
X245762Y32096D01*
X245776Y32170D01*
X245793Y32244D01*
X245814Y32317D01*
X245838Y32389D01*
X245866Y32459D01*
X245898Y32528D01*
X245933Y32595D01*
X245971Y32660D01*
X246013Y32724D01*
X246058Y32785D01*
X246106Y32843D01*
X246157Y32900D01*
X246210Y32953D01*
X246267Y33004D01*
X246325Y33052D01*
X246386Y33097D01*
X246450Y33139D01*
X246515Y33177D01*
X246582Y33212D01*
X246651Y33244D01*
X246721Y33272D01*
X246793Y33296D01*
X246866Y33317D01*
X246940Y33334D01*
X247014Y33348D01*
X247090Y33357D01*
X247165Y33363D01*
X247241Y33365D01*
X247341Y33363D01*
X247441Y33358D01*
X247541Y33349D01*
X247641Y33336D01*
X247740Y33320D01*
X247838Y33301D01*
X247935Y33278D01*
X248032Y33251D01*
X248128Y33221D01*
X248222Y33188D01*
X248315Y33151D01*
X248407Y33111D01*
X248498Y33068D01*
X248587Y33021D01*
X248674Y32971D01*
X248759Y32919D01*
X248842Y32863D01*
X248923Y32804D01*
X246493Y30560D02*
X246429Y30600D01*
X246367Y30643D01*
X246308Y30689D01*
X246251Y30737D01*
X246196Y30789D01*
X246144Y30843D01*
X246095Y30900D01*
X246048Y30959D01*
X246005Y31020D01*
X245964Y31083D01*
X245927Y31148D01*
X245893Y31215D01*
X245862Y31284D01*
X245835Y31354D01*
X245811Y31425D01*
X245791Y31497D01*
X245775Y31571D01*
X245762Y31645D01*
X245752Y31719D01*
X245747Y31794D01*
X245745Y31869D01*
X248549Y29440D02*
X248613Y29400D01*
X248675Y29357D01*
X248734Y29311D01*
X248791Y29263D01*
X248846Y29211D01*
X248898Y29157D01*
X248947Y29100D01*
X248994Y29041D01*
X249037Y28980D01*
X249078Y28917D01*
X249115Y28852D01*
X249149Y28785D01*
X249180Y28716D01*
X249207Y28646D01*
X249231Y28575D01*
X249251Y28503D01*
X249267Y28429D01*
X249280Y28355D01*
X249290Y28281D01*
X249295Y28206D01*
X249297Y28131D01*
X248549Y29439D02*
X246493Y30561D01*
X252948Y33365D02*
X252948Y26635D01*
X252200Y26635D02*
X253696Y26635D01*
X253696Y33365D02*
X252200Y33365D01*
X261344Y26635D02*
X263587Y33365D01*
X265830Y26635D01*
X265269Y28318D02*
X261904Y28318D01*
X268918Y30000D02*
X268920Y30148D01*
X268926Y30296D01*
X268936Y30443D01*
X268950Y30591D01*
X268967Y30738D01*
X268989Y30884D01*
X269014Y31030D01*
X269044Y31175D01*
X269077Y31319D01*
X269114Y31462D01*
X269155Y31604D01*
X269200Y31746D01*
X269248Y31885D01*
X269300Y32024D01*
X269356Y32161D01*
X269416Y32296D01*
X269479Y32430D01*
X269479Y32431D02*
X269504Y32498D01*
X269532Y32563D01*
X269564Y32627D01*
X269599Y32690D01*
X269637Y32750D01*
X269678Y32808D01*
X269722Y32865D01*
X269769Y32918D01*
X269819Y32970D01*
X269871Y33018D01*
X269926Y33064D01*
X269983Y33107D01*
X270042Y33147D01*
X270104Y33184D01*
X270167Y33218D01*
X270231Y33248D01*
X270297Y33275D01*
X270365Y33299D01*
X270434Y33319D01*
X270503Y33336D01*
X270573Y33348D01*
X270644Y33358D01*
X270716Y33363D01*
X270787Y33365D01*
X270858Y33363D01*
X270930Y33358D01*
X271001Y33348D01*
X271071Y33336D01*
X271140Y33319D01*
X271209Y33299D01*
X271277Y33275D01*
X271343Y33248D01*
X271407Y33218D01*
X271470Y33184D01*
X271532Y33147D01*
X271591Y33107D01*
X271648Y33064D01*
X271703Y33018D01*
X271755Y32970D01*
X271805Y32918D01*
X271852Y32865D01*
X271896Y32808D01*
X271937Y32750D01*
X271975Y32689D01*
X272010Y32627D01*
X272042Y32563D01*
X272070Y32497D01*
X272095Y32430D01*
X272096Y32430D02*
X272159Y32296D01*
X272219Y32161D01*
X272275Y32024D01*
X272327Y31885D01*
X272375Y31746D01*
X272420Y31605D01*
X272461Y31462D01*
X272498Y31319D01*
X272531Y31175D01*
X272561Y31030D01*
X272586Y30884D01*
X272608Y30738D01*
X272625Y30591D01*
X272639Y30443D01*
X272649Y30296D01*
X272655Y30148D01*
X272657Y30000D01*
X268918Y30000D02*
X268920Y29852D01*
X268926Y29704D01*
X268936Y29557D01*
X268950Y29409D01*
X268967Y29262D01*
X268989Y29116D01*
X269014Y28970D01*
X269044Y28825D01*
X269077Y28681D01*
X269114Y28538D01*
X269155Y28396D01*
X269200Y28255D01*
X269248Y28115D01*
X269300Y27976D01*
X269356Y27839D01*
X269416Y27704D01*
X269479Y27570D01*
X269479Y27569D02*
X269504Y27502D01*
X269532Y27437D01*
X269564Y27373D01*
X269599Y27310D01*
X269637Y27250D01*
X269678Y27192D01*
X269722Y27135D01*
X269769Y27082D01*
X269819Y27030D01*
X269871Y26982D01*
X269926Y26936D01*
X269983Y26893D01*
X270042Y26853D01*
X270104Y26816D01*
X270167Y26782D01*
X270231Y26752D01*
X270297Y26725D01*
X270365Y26701D01*
X270434Y26681D01*
X270503Y26664D01*
X270573Y26652D01*
X270644Y26642D01*
X270716Y26637D01*
X270787Y26635D01*
X272095Y27570D02*
X272158Y27704D01*
X272218Y27839D01*
X272274Y27976D01*
X272326Y28115D01*
X272374Y28254D01*
X272419Y28395D01*
X272460Y28538D01*
X272497Y28681D01*
X272530Y28825D01*
X272560Y28970D01*
X272585Y29116D01*
X272607Y29262D01*
X272624Y29409D01*
X272638Y29557D01*
X272648Y29704D01*
X272654Y29852D01*
X272656Y30000D01*
X272095Y27569D02*
X272070Y27502D01*
X272042Y27437D01*
X272010Y27373D01*
X271975Y27310D01*
X271937Y27250D01*
X271896Y27192D01*
X271852Y27135D01*
X271805Y27082D01*
X271755Y27030D01*
X271703Y26982D01*
X271648Y26936D01*
X271591Y26893D01*
X271532Y26853D01*
X271470Y26816D01*
X271407Y26782D01*
X271343Y26752D01*
X271277Y26725D01*
X271209Y26701D01*
X271140Y26681D01*
X271071Y26664D01*
X271001Y26652D01*
X270930Y26642D01*
X270858Y26637D01*
X270787Y26635D01*
X269291Y28131D02*
X272283Y31869D01*
X286344Y26635D02*
X288587Y33365D01*
X290830Y26635D01*
X290269Y28318D02*
X286904Y28318D01*
X293918Y31869D02*
X295787Y33365D01*
X295787Y26635D01*
X293918Y26635D02*
X297656Y26635D01*
X312344Y26635D02*
X314587Y33365D01*
X316830Y26635D01*
X316269Y28318D02*
X312904Y28318D01*
X321974Y33366D02*
X322054Y33364D01*
X322134Y33358D01*
X322214Y33349D01*
X322293Y33336D01*
X322371Y33319D01*
X322448Y33298D01*
X322524Y33273D01*
X322600Y33245D01*
X322673Y33214D01*
X322745Y33179D01*
X322816Y33141D01*
X322884Y33099D01*
X322950Y33054D01*
X323014Y33006D01*
X323076Y32955D01*
X323135Y32901D01*
X323192Y32844D01*
X323246Y32785D01*
X323297Y32723D01*
X323345Y32659D01*
X323390Y32593D01*
X323432Y32525D01*
X323470Y32454D01*
X323505Y32382D01*
X323536Y32309D01*
X323564Y32233D01*
X323589Y32157D01*
X323610Y32080D01*
X323627Y32002D01*
X323640Y31923D01*
X323649Y31843D01*
X323655Y31763D01*
X323657Y31683D01*
X321974Y33365D02*
X321883Y33363D01*
X321793Y33357D01*
X321703Y33348D01*
X321613Y33335D01*
X321524Y33318D01*
X321436Y33297D01*
X321349Y33273D01*
X321262Y33245D01*
X321178Y33213D01*
X321094Y33178D01*
X321012Y33139D01*
X320932Y33097D01*
X320853Y33052D01*
X320777Y33003D01*
X320702Y32951D01*
X320630Y32897D01*
X320560Y32839D01*
X320493Y32778D01*
X320428Y32715D01*
X320366Y32649D01*
X320307Y32580D01*
X320251Y32509D01*
X320198Y32436D01*
X320148Y32360D01*
X320101Y32282D01*
X320057Y32203D01*
X320017Y32122D01*
X319980Y32039D01*
X319947Y31955D01*
X319917Y31869D01*
X323095Y30374D02*
X323153Y30432D01*
X323208Y30492D01*
X323260Y30554D01*
X323309Y30619D01*
X323356Y30685D01*
X323399Y30754D01*
X323439Y30825D01*
X323476Y30897D01*
X323510Y30971D01*
X323540Y31047D01*
X323567Y31123D01*
X323591Y31201D01*
X323610Y31280D01*
X323627Y31360D01*
X323640Y31440D01*
X323649Y31521D01*
X323654Y31602D01*
X323656Y31683D01*
X323096Y30374D02*
X319918Y26635D01*
X323656Y26635D01*
X337344Y26635D02*
X339587Y33365D01*
X341830Y26635D01*
X341269Y28318D02*
X337904Y28318D01*
X344918Y26635D02*
X346787Y26635D01*
X346872Y26637D01*
X346957Y26643D01*
X347041Y26652D01*
X347126Y26666D01*
X347209Y26683D01*
X347291Y26704D01*
X347373Y26729D01*
X347453Y26758D01*
X347532Y26790D01*
X347609Y26825D01*
X347684Y26865D01*
X347758Y26907D01*
X347830Y26953D01*
X347899Y27002D01*
X347967Y27054D01*
X348031Y27109D01*
X348093Y27167D01*
X348153Y27228D01*
X348210Y27292D01*
X348263Y27358D01*
X348314Y27426D01*
X348361Y27497D01*
X348406Y27569D01*
X348446Y27644D01*
X348484Y27721D01*
X348518Y27799D01*
X348548Y27878D01*
X348575Y27959D01*
X348598Y28041D01*
X348617Y28124D01*
X348632Y28207D01*
X348644Y28292D01*
X348652Y28376D01*
X348656Y28461D01*
X348656Y28547D01*
X348652Y28632D01*
X348644Y28716D01*
X348632Y28801D01*
X348617Y28884D01*
X348598Y28967D01*
X348575Y29049D01*
X348548Y29130D01*
X348518Y29209D01*
X348484Y29287D01*
X348446Y29364D01*
X348406Y29438D01*
X348361Y29511D01*
X348314Y29582D01*
X348263Y29650D01*
X348210Y29716D01*
X348153Y29780D01*
X348093Y29841D01*
X348031Y29899D01*
X347967Y29954D01*
X347899Y30006D01*
X347830Y30055D01*
X347758Y30101D01*
X347684Y30143D01*
X347609Y30183D01*
X347532Y30218D01*
X347453Y30250D01*
X347373Y30279D01*
X347291Y30304D01*
X347209Y30325D01*
X347126Y30342D01*
X347041Y30356D01*
X346957Y30365D01*
X346872Y30371D01*
X346787Y30373D01*
X347161Y33365D02*
X344918Y33365D01*
X347161Y33365D02*
X347237Y33363D01*
X347312Y33357D01*
X347388Y33348D01*
X347462Y33334D01*
X347536Y33317D01*
X347609Y33296D01*
X347681Y33272D01*
X347751Y33244D01*
X347820Y33212D01*
X347887Y33177D01*
X347952Y33139D01*
X348016Y33097D01*
X348077Y33052D01*
X348135Y33004D01*
X348192Y32953D01*
X348245Y32900D01*
X348296Y32843D01*
X348344Y32785D01*
X348389Y32724D01*
X348431Y32660D01*
X348469Y32595D01*
X348504Y32528D01*
X348536Y32459D01*
X348564Y32389D01*
X348588Y32317D01*
X348609Y32244D01*
X348626Y32170D01*
X348640Y32096D01*
X348649Y32020D01*
X348655Y31945D01*
X348657Y31869D01*
X348655Y31793D01*
X348649Y31718D01*
X348640Y31642D01*
X348626Y31568D01*
X348609Y31494D01*
X348588Y31421D01*
X348564Y31349D01*
X348536Y31279D01*
X348504Y31210D01*
X348469Y31143D01*
X348431Y31078D01*
X348389Y31014D01*
X348344Y30953D01*
X348296Y30895D01*
X348245Y30838D01*
X348192Y30785D01*
X348135Y30734D01*
X348077Y30686D01*
X348016Y30641D01*
X347952Y30599D01*
X347887Y30561D01*
X347820Y30526D01*
X347751Y30494D01*
X347681Y30466D01*
X347609Y30442D01*
X347536Y30421D01*
X347462Y30404D01*
X347388Y30390D01*
X347312Y30381D01*
X347237Y30375D01*
X347161Y30373D01*
X347161Y30374D02*
X345665Y30374D01*
X362344Y26635D02*
X364587Y33365D01*
X366830Y26635D01*
X366269Y28318D02*
X362904Y28318D01*
X369918Y28131D02*
X371413Y33365D01*
X369918Y28131D02*
X373656Y28131D01*
X372535Y29626D02*
X372535Y26635D01*
X389344Y26635D02*
X391587Y33365D01*
X393830Y26635D01*
X393269Y28318D02*
X389904Y28318D01*
X396918Y26635D02*
X399161Y26635D01*
X399237Y26637D01*
X399312Y26643D01*
X399388Y26652D01*
X399462Y26666D01*
X399536Y26683D01*
X399609Y26704D01*
X399681Y26728D01*
X399751Y26756D01*
X399820Y26788D01*
X399887Y26823D01*
X399952Y26861D01*
X400016Y26903D01*
X400077Y26948D01*
X400135Y26996D01*
X400192Y27047D01*
X400245Y27100D01*
X400296Y27157D01*
X400344Y27215D01*
X400389Y27276D01*
X400431Y27340D01*
X400469Y27405D01*
X400504Y27472D01*
X400536Y27541D01*
X400564Y27611D01*
X400588Y27683D01*
X400609Y27756D01*
X400626Y27830D01*
X400640Y27904D01*
X400649Y27980D01*
X400655Y28055D01*
X400657Y28131D01*
X400656Y28131D02*
X400656Y28878D01*
X400657Y28878D02*
X400655Y28954D01*
X400649Y29029D01*
X400640Y29105D01*
X400626Y29179D01*
X400609Y29253D01*
X400588Y29326D01*
X400564Y29398D01*
X400536Y29468D01*
X400504Y29537D01*
X400469Y29604D01*
X400431Y29669D01*
X400389Y29733D01*
X400344Y29794D01*
X400296Y29852D01*
X400245Y29909D01*
X400192Y29962D01*
X400135Y30013D01*
X400077Y30061D01*
X400016Y30106D01*
X399952Y30148D01*
X399887Y30186D01*
X399820Y30221D01*
X399751Y30253D01*
X399681Y30281D01*
X399609Y30305D01*
X399536Y30326D01*
X399462Y30343D01*
X399388Y30357D01*
X399312Y30366D01*
X399237Y30372D01*
X399161Y30374D01*
X396918Y30374D01*
X396918Y33365D01*
X400656Y33365D01*
X408990Y33365D02*
X406747Y26635D01*
X411234Y26635D02*
X408990Y33365D01*
X407308Y28318D02*
X410673Y28318D01*
X414630Y26635D02*
X414630Y33365D01*
X416499Y33365D01*
X416584Y33363D01*
X416669Y33357D01*
X416753Y33348D01*
X416838Y33334D01*
X416921Y33317D01*
X417003Y33296D01*
X417085Y33271D01*
X417165Y33242D01*
X417244Y33210D01*
X417321Y33175D01*
X417396Y33135D01*
X417470Y33093D01*
X417542Y33047D01*
X417611Y32998D01*
X417679Y32946D01*
X417743Y32891D01*
X417805Y32833D01*
X417865Y32772D01*
X417922Y32708D01*
X417975Y32642D01*
X418026Y32574D01*
X418073Y32503D01*
X418118Y32430D01*
X418158Y32356D01*
X418196Y32279D01*
X418230Y32201D01*
X418260Y32122D01*
X418287Y32041D01*
X418310Y31959D01*
X418329Y31876D01*
X418344Y31793D01*
X418356Y31708D01*
X418364Y31624D01*
X418368Y31539D01*
X418368Y31453D01*
X418364Y31368D01*
X418356Y31284D01*
X418344Y31199D01*
X418329Y31116D01*
X418310Y31033D01*
X418287Y30951D01*
X418260Y30870D01*
X418230Y30791D01*
X418196Y30713D01*
X418158Y30636D01*
X418118Y30561D01*
X418073Y30489D01*
X418026Y30418D01*
X417975Y30350D01*
X417922Y30284D01*
X417865Y30220D01*
X417805Y30159D01*
X417743Y30101D01*
X417679Y30046D01*
X417611Y29994D01*
X417542Y29945D01*
X417470Y29899D01*
X417396Y29857D01*
X417321Y29817D01*
X417244Y29782D01*
X417165Y29750D01*
X417085Y29721D01*
X417003Y29696D01*
X416921Y29675D01*
X416838Y29658D01*
X416753Y29644D01*
X416669Y29635D01*
X416584Y29629D01*
X416499Y29627D01*
X416499Y29626D02*
X414630Y29626D01*
X416873Y29626D02*
X418369Y26635D01*
X422022Y26635D02*
X425013Y26635D01*
X422022Y26635D02*
X422022Y33365D01*
X425013Y33365D01*
X424265Y30374D02*
X422022Y30374D01*
X428262Y33365D02*
X428262Y26635D01*
X428262Y33365D02*
X431253Y33365D01*
X431253Y30374D02*
X428262Y30374D01*
X438068Y30374D02*
X439189Y30374D01*
X439189Y26635D01*
X436946Y26635D01*
X436870Y26637D01*
X436795Y26643D01*
X436719Y26652D01*
X436645Y26666D01*
X436571Y26683D01*
X436498Y26704D01*
X436426Y26728D01*
X436356Y26756D01*
X436287Y26788D01*
X436220Y26823D01*
X436155Y26861D01*
X436091Y26903D01*
X436030Y26948D01*
X435972Y26996D01*
X435915Y27047D01*
X435862Y27100D01*
X435811Y27157D01*
X435763Y27215D01*
X435718Y27276D01*
X435676Y27340D01*
X435638Y27405D01*
X435603Y27472D01*
X435571Y27541D01*
X435543Y27611D01*
X435519Y27683D01*
X435498Y27756D01*
X435481Y27830D01*
X435467Y27904D01*
X435458Y27980D01*
X435452Y28055D01*
X435450Y28131D01*
X435451Y28131D02*
X435451Y31869D01*
X435450Y31869D02*
X435452Y31945D01*
X435458Y32020D01*
X435467Y32096D01*
X435481Y32170D01*
X435498Y32244D01*
X435519Y32317D01*
X435543Y32389D01*
X435571Y32459D01*
X435603Y32528D01*
X435638Y32595D01*
X435676Y32660D01*
X435718Y32724D01*
X435763Y32785D01*
X435811Y32843D01*
X435862Y32900D01*
X435915Y32953D01*
X435972Y33004D01*
X436030Y33052D01*
X436091Y33097D01*
X436155Y33139D01*
X436220Y33177D01*
X436287Y33212D01*
X436356Y33244D01*
X436426Y33272D01*
X436498Y33296D01*
X436571Y33317D01*
X436645Y33334D01*
X436719Y33348D01*
X436795Y33357D01*
X436870Y33363D01*
X436946Y33365D01*
X439189Y33365D01*
X443131Y33365D02*
X443131Y26635D01*
X446869Y26635D02*
X443131Y33365D01*
X446869Y33365D02*
X446869Y26635D01*
X450811Y26635D02*
X450811Y33365D01*
X452680Y33365D01*
X452764Y33363D01*
X452848Y33357D01*
X452931Y33348D01*
X453014Y33335D01*
X453096Y33318D01*
X453177Y33298D01*
X453258Y33274D01*
X453337Y33246D01*
X453415Y33215D01*
X453491Y33180D01*
X453566Y33142D01*
X453639Y33100D01*
X453710Y33056D01*
X453779Y33008D01*
X453845Y32957D01*
X453910Y32903D01*
X453972Y32847D01*
X454031Y32788D01*
X454087Y32726D01*
X454141Y32661D01*
X454192Y32595D01*
X454240Y32526D01*
X454284Y32455D01*
X454326Y32382D01*
X454364Y32307D01*
X454399Y32231D01*
X454430Y32153D01*
X454458Y32074D01*
X454482Y31993D01*
X454502Y31912D01*
X454519Y31830D01*
X454532Y31747D01*
X454541Y31664D01*
X454547Y31580D01*
X454549Y31496D01*
X454549Y28504D01*
X454547Y28420D01*
X454541Y28336D01*
X454532Y28253D01*
X454519Y28170D01*
X454502Y28088D01*
X454482Y28007D01*
X454458Y27926D01*
X454430Y27847D01*
X454399Y27769D01*
X454364Y27693D01*
X454326Y27618D01*
X454284Y27545D01*
X454240Y27474D01*
X454192Y27405D01*
X454141Y27339D01*
X454087Y27274D01*
X454031Y27212D01*
X453972Y27153D01*
X453910Y27097D01*
X453845Y27043D01*
X453779Y26992D01*
X453710Y26944D01*
X453639Y26900D01*
X453566Y26858D01*
X453491Y26820D01*
X453415Y26785D01*
X453337Y26754D01*
X453258Y26726D01*
X453177Y26702D01*
X453096Y26682D01*
X453014Y26665D01*
X452931Y26652D01*
X452848Y26643D01*
X452764Y26637D01*
X452680Y26635D01*
X450811Y26635D01*
X64500Y108250D02*
X64502Y108294D01*
X64508Y108338D01*
X64518Y108381D01*
X64531Y108423D01*
X64548Y108464D01*
X64569Y108503D01*
X64593Y108540D01*
X64620Y108575D01*
X64650Y108607D01*
X64683Y108637D01*
X64719Y108663D01*
X64756Y108687D01*
X64796Y108706D01*
X64837Y108723D01*
X64880Y108735D01*
X64923Y108744D01*
X64967Y108749D01*
X65011Y108750D01*
X65055Y108747D01*
X65099Y108740D01*
X65142Y108729D01*
X65184Y108715D01*
X65224Y108697D01*
X65263Y108675D01*
X65299Y108651D01*
X65333Y108623D01*
X65365Y108592D01*
X65394Y108558D01*
X65420Y108522D01*
X65442Y108484D01*
X65461Y108444D01*
X65476Y108402D01*
X65488Y108360D01*
X65496Y108316D01*
X65500Y108272D01*
X65500Y108228D01*
X65496Y108184D01*
X65488Y108140D01*
X65476Y108098D01*
X65461Y108056D01*
X65442Y108016D01*
X65420Y107978D01*
X65394Y107942D01*
X65365Y107908D01*
X65333Y107877D01*
X65299Y107849D01*
X65263Y107825D01*
X65224Y107803D01*
X65184Y107785D01*
X65142Y107771D01*
X65099Y107760D01*
X65055Y107753D01*
X65011Y107750D01*
X64967Y107751D01*
X64923Y107756D01*
X64880Y107765D01*
X64837Y107777D01*
X64796Y107794D01*
X64756Y107813D01*
X64719Y107837D01*
X64683Y107863D01*
X64650Y107893D01*
X64620Y107925D01*
X64593Y107960D01*
X64569Y107997D01*
X64548Y108036D01*
X64531Y108077D01*
X64518Y108119D01*
X64508Y108162D01*
X64502Y108206D01*
X64500Y108250D01*
X43500Y152500D02*
X30500Y152500D01*
X43500Y152500D02*
X43500Y149500D01*
X43500Y80000D02*
X43500Y77500D01*
D12*
X49960Y128000D02*
X49962Y128063D01*
X49968Y128125D01*
X49978Y128187D01*
X49991Y128249D01*
X50009Y128309D01*
X50030Y128368D01*
X50055Y128426D01*
X50084Y128482D01*
X50116Y128536D01*
X50151Y128588D01*
X50189Y128637D01*
X50231Y128685D01*
X50275Y128729D01*
X50323Y128771D01*
X50372Y128809D01*
X50424Y128844D01*
X50478Y128876D01*
X50534Y128905D01*
X50592Y128930D01*
X50651Y128951D01*
X50711Y128969D01*
X50773Y128982D01*
X50835Y128992D01*
X50897Y128998D01*
X50960Y129000D01*
X51023Y128998D01*
X51085Y128992D01*
X51147Y128982D01*
X51209Y128969D01*
X51269Y128951D01*
X51328Y128930D01*
X51386Y128905D01*
X51442Y128876D01*
X51496Y128844D01*
X51548Y128809D01*
X51597Y128771D01*
X51645Y128729D01*
X51689Y128685D01*
X51731Y128637D01*
X51769Y128588D01*
X51804Y128536D01*
X51836Y128482D01*
X51865Y128426D01*
X51890Y128368D01*
X51911Y128309D01*
X51929Y128249D01*
X51942Y128187D01*
X51952Y128125D01*
X51958Y128063D01*
X51960Y128000D01*
X51958Y127937D01*
X51952Y127875D01*
X51942Y127813D01*
X51929Y127751D01*
X51911Y127691D01*
X51890Y127632D01*
X51865Y127574D01*
X51836Y127518D01*
X51804Y127464D01*
X51769Y127412D01*
X51731Y127363D01*
X51689Y127315D01*
X51645Y127271D01*
X51597Y127229D01*
X51548Y127191D01*
X51496Y127156D01*
X51442Y127124D01*
X51386Y127095D01*
X51328Y127070D01*
X51269Y127049D01*
X51209Y127031D01*
X51147Y127018D01*
X51085Y127008D01*
X51023Y127002D01*
X50960Y127000D01*
X50897Y127002D01*
X50835Y127008D01*
X50773Y127018D01*
X50711Y127031D01*
X50651Y127049D01*
X50592Y127070D01*
X50534Y127095D01*
X50478Y127124D01*
X50424Y127156D01*
X50372Y127191D01*
X50323Y127229D01*
X50275Y127271D01*
X50231Y127315D01*
X50189Y127363D01*
X50151Y127412D01*
X50116Y127464D01*
X50084Y127518D01*
X50055Y127574D01*
X50030Y127632D01*
X50009Y127691D01*
X49991Y127751D01*
X49978Y127813D01*
X49968Y127875D01*
X49962Y127937D01*
X49960Y128000D01*
D10*
X43500Y77500D02*
X30500Y77500D01*
X70500Y182500D02*
X129500Y182500D01*
X70500Y182500D02*
X70500Y227500D01*
X129500Y227500D01*
X129500Y182500D01*
D12*
X63000Y210000D02*
X63002Y210063D01*
X63008Y210125D01*
X63018Y210187D01*
X63031Y210249D01*
X63049Y210309D01*
X63070Y210368D01*
X63095Y210426D01*
X63124Y210482D01*
X63156Y210536D01*
X63191Y210588D01*
X63229Y210637D01*
X63271Y210685D01*
X63315Y210729D01*
X63363Y210771D01*
X63412Y210809D01*
X63464Y210844D01*
X63518Y210876D01*
X63574Y210905D01*
X63632Y210930D01*
X63691Y210951D01*
X63751Y210969D01*
X63813Y210982D01*
X63875Y210992D01*
X63937Y210998D01*
X64000Y211000D01*
X64063Y210998D01*
X64125Y210992D01*
X64187Y210982D01*
X64249Y210969D01*
X64309Y210951D01*
X64368Y210930D01*
X64426Y210905D01*
X64482Y210876D01*
X64536Y210844D01*
X64588Y210809D01*
X64637Y210771D01*
X64685Y210729D01*
X64729Y210685D01*
X64771Y210637D01*
X64809Y210588D01*
X64844Y210536D01*
X64876Y210482D01*
X64905Y210426D01*
X64930Y210368D01*
X64951Y210309D01*
X64969Y210249D01*
X64982Y210187D01*
X64992Y210125D01*
X64998Y210063D01*
X65000Y210000D01*
X64998Y209937D01*
X64992Y209875D01*
X64982Y209813D01*
X64969Y209751D01*
X64951Y209691D01*
X64930Y209632D01*
X64905Y209574D01*
X64876Y209518D01*
X64844Y209464D01*
X64809Y209412D01*
X64771Y209363D01*
X64729Y209315D01*
X64685Y209271D01*
X64637Y209229D01*
X64588Y209191D01*
X64536Y209156D01*
X64482Y209124D01*
X64426Y209095D01*
X64368Y209070D01*
X64309Y209049D01*
X64249Y209031D01*
X64187Y209018D01*
X64125Y209008D01*
X64063Y209002D01*
X64000Y209000D01*
X63937Y209002D01*
X63875Y209008D01*
X63813Y209018D01*
X63751Y209031D01*
X63691Y209049D01*
X63632Y209070D01*
X63574Y209095D01*
X63518Y209124D01*
X63464Y209156D01*
X63412Y209191D01*
X63363Y209229D01*
X63315Y209271D01*
X63271Y209315D01*
X63229Y209363D01*
X63191Y209412D01*
X63156Y209464D01*
X63124Y209518D01*
X63095Y209574D01*
X63070Y209632D01*
X63049Y209691D01*
X63031Y209751D01*
X63018Y209813D01*
X63008Y209875D01*
X63002Y209937D01*
X63000Y210000D01*
D13*
X34500Y167000D03*
X34500Y179000D03*
D14*
X34500Y173000D03*
D10*
X72500Y34000D02*
X97500Y34000D01*
X97500Y6000D02*
X72500Y6000D01*
D15*
X212258Y151322D02*
X216322Y151322D01*
X143678Y151322D02*
X143678Y147258D01*
X143678Y78678D02*
X147742Y78678D01*
X216322Y78678D02*
X216322Y82742D01*
X216322Y147258D02*
X216322Y151322D01*
X147742Y151322D02*
X143678Y151322D01*
X143678Y82742D02*
X143678Y78678D01*
X212258Y78678D02*
X216322Y78678D01*
D16*
X236677Y78565D02*
X236677Y82544D01*
X234356Y85529D01*
X236677Y82544D02*
X238999Y85529D01*
X236677Y82544D02*
X233030Y81218D01*
X236677Y82544D02*
X240325Y81218D01*
D10*
X265000Y66500D02*
X265000Y59500D01*
X250000Y59500D02*
X250000Y66500D01*
D17*
X5400Y26100D02*
X5406Y26591D01*
X5424Y27081D01*
X5454Y27571D01*
X5496Y28060D01*
X5550Y28548D01*
X5616Y29035D01*
X5694Y29519D01*
X5784Y30002D01*
X5886Y30482D01*
X5999Y30960D01*
X6124Y31434D01*
X6261Y31906D01*
X6409Y32374D01*
X6569Y32838D01*
X6740Y33298D01*
X6922Y33754D01*
X7116Y34205D01*
X7320Y34651D01*
X7536Y35092D01*
X7762Y35528D01*
X7998Y35958D01*
X8245Y36382D01*
X8503Y36800D01*
X8771Y37211D01*
X9048Y37616D01*
X9336Y38014D01*
X9633Y38405D01*
X9940Y38788D01*
X10256Y39163D01*
X10581Y39531D01*
X10915Y39891D01*
X11258Y40242D01*
X11609Y40585D01*
X11969Y40919D01*
X12337Y41244D01*
X12712Y41560D01*
X13095Y41867D01*
X13486Y42164D01*
X13884Y42452D01*
X14289Y42729D01*
X14700Y42997D01*
X15118Y43255D01*
X15542Y43502D01*
X15972Y43738D01*
X16408Y43964D01*
X16849Y44180D01*
X17295Y44384D01*
X17746Y44578D01*
X18202Y44760D01*
X18662Y44931D01*
X19126Y45091D01*
X19594Y45239D01*
X20066Y45376D01*
X20540Y45501D01*
X21018Y45614D01*
X21498Y45716D01*
X21981Y45806D01*
X22465Y45884D01*
X22952Y45950D01*
X23440Y46004D01*
X23929Y46046D01*
X24419Y46076D01*
X24909Y46094D01*
X25400Y46100D01*
X25891Y46094D01*
X26381Y46076D01*
X26871Y46046D01*
X27360Y46004D01*
X27848Y45950D01*
X28335Y45884D01*
X28819Y45806D01*
X29302Y45716D01*
X29782Y45614D01*
X30260Y45501D01*
X30734Y45376D01*
X31206Y45239D01*
X31674Y45091D01*
X32138Y44931D01*
X32598Y44760D01*
X33054Y44578D01*
X33505Y44384D01*
X33951Y44180D01*
X34392Y43964D01*
X34828Y43738D01*
X35258Y43502D01*
X35682Y43255D01*
X36100Y42997D01*
X36511Y42729D01*
X36916Y42452D01*
X37314Y42164D01*
X37705Y41867D01*
X38088Y41560D01*
X38463Y41244D01*
X38831Y40919D01*
X39191Y40585D01*
X39542Y40242D01*
X39885Y39891D01*
X40219Y39531D01*
X40544Y39163D01*
X40860Y38788D01*
X41167Y38405D01*
X41464Y38014D01*
X41752Y37616D01*
X42029Y37211D01*
X42297Y36800D01*
X42555Y36382D01*
X42802Y35958D01*
X43038Y35528D01*
X43264Y35092D01*
X43480Y34651D01*
X43684Y34205D01*
X43878Y33754D01*
X44060Y33298D01*
X44231Y32838D01*
X44391Y32374D01*
X44539Y31906D01*
X44676Y31434D01*
X44801Y30960D01*
X44914Y30482D01*
X45016Y30002D01*
X45106Y29519D01*
X45184Y29035D01*
X45250Y28548D01*
X45304Y28060D01*
X45346Y27571D01*
X45376Y27081D01*
X45394Y26591D01*
X45400Y26100D01*
X45394Y25609D01*
X45376Y25119D01*
X45346Y24629D01*
X45304Y24140D01*
X45250Y23652D01*
X45184Y23165D01*
X45106Y22681D01*
X45016Y22198D01*
X44914Y21718D01*
X44801Y21240D01*
X44676Y20766D01*
X44539Y20294D01*
X44391Y19826D01*
X44231Y19362D01*
X44060Y18902D01*
X43878Y18446D01*
X43684Y17995D01*
X43480Y17549D01*
X43264Y17108D01*
X43038Y16672D01*
X42802Y16242D01*
X42555Y15818D01*
X42297Y15400D01*
X42029Y14989D01*
X41752Y14584D01*
X41464Y14186D01*
X41167Y13795D01*
X40860Y13412D01*
X40544Y13037D01*
X40219Y12669D01*
X39885Y12309D01*
X39542Y11958D01*
X39191Y11615D01*
X38831Y11281D01*
X38463Y10956D01*
X38088Y10640D01*
X37705Y10333D01*
X37314Y10036D01*
X36916Y9748D01*
X36511Y9471D01*
X36100Y9203D01*
X35682Y8945D01*
X35258Y8698D01*
X34828Y8462D01*
X34392Y8236D01*
X33951Y8020D01*
X33505Y7816D01*
X33054Y7622D01*
X32598Y7440D01*
X32138Y7269D01*
X31674Y7109D01*
X31206Y6961D01*
X30734Y6824D01*
X30260Y6699D01*
X29782Y6586D01*
X29302Y6484D01*
X28819Y6394D01*
X28335Y6316D01*
X27848Y6250D01*
X27360Y6196D01*
X26871Y6154D01*
X26381Y6124D01*
X25891Y6106D01*
X25400Y6100D01*
X24909Y6106D01*
X24419Y6124D01*
X23929Y6154D01*
X23440Y6196D01*
X22952Y6250D01*
X22465Y6316D01*
X21981Y6394D01*
X21498Y6484D01*
X21018Y6586D01*
X20540Y6699D01*
X20066Y6824D01*
X19594Y6961D01*
X19126Y7109D01*
X18662Y7269D01*
X18202Y7440D01*
X17746Y7622D01*
X17295Y7816D01*
X16849Y8020D01*
X16408Y8236D01*
X15972Y8462D01*
X15542Y8698D01*
X15118Y8945D01*
X14700Y9203D01*
X14289Y9471D01*
X13884Y9748D01*
X13486Y10036D01*
X13095Y10333D01*
X12712Y10640D01*
X12337Y10956D01*
X11969Y11281D01*
X11609Y11615D01*
X11258Y11958D01*
X10915Y12309D01*
X10581Y12669D01*
X10256Y13037D01*
X9940Y13412D01*
X9633Y13795D01*
X9336Y14186D01*
X9048Y14584D01*
X8771Y14989D01*
X8503Y15400D01*
X8245Y15818D01*
X7998Y16242D01*
X7762Y16672D01*
X7536Y17108D01*
X7320Y17549D01*
X7116Y17995D01*
X6922Y18446D01*
X6740Y18902D01*
X6569Y19362D01*
X6409Y19826D01*
X6261Y20294D01*
X6124Y20766D01*
X5999Y21240D01*
X5886Y21718D01*
X5784Y22198D01*
X5694Y22681D01*
X5616Y23165D01*
X5550Y23652D01*
X5496Y24140D01*
X5454Y24629D01*
X5424Y25119D01*
X5406Y25609D01*
X5400Y26100D01*
X5400Y203900D02*
X5406Y204391D01*
X5424Y204881D01*
X5454Y205371D01*
X5496Y205860D01*
X5550Y206348D01*
X5616Y206835D01*
X5694Y207319D01*
X5784Y207802D01*
X5886Y208282D01*
X5999Y208760D01*
X6124Y209234D01*
X6261Y209706D01*
X6409Y210174D01*
X6569Y210638D01*
X6740Y211098D01*
X6922Y211554D01*
X7116Y212005D01*
X7320Y212451D01*
X7536Y212892D01*
X7762Y213328D01*
X7998Y213758D01*
X8245Y214182D01*
X8503Y214600D01*
X8771Y215011D01*
X9048Y215416D01*
X9336Y215814D01*
X9633Y216205D01*
X9940Y216588D01*
X10256Y216963D01*
X10581Y217331D01*
X10915Y217691D01*
X11258Y218042D01*
X11609Y218385D01*
X11969Y218719D01*
X12337Y219044D01*
X12712Y219360D01*
X13095Y219667D01*
X13486Y219964D01*
X13884Y220252D01*
X14289Y220529D01*
X14700Y220797D01*
X15118Y221055D01*
X15542Y221302D01*
X15972Y221538D01*
X16408Y221764D01*
X16849Y221980D01*
X17295Y222184D01*
X17746Y222378D01*
X18202Y222560D01*
X18662Y222731D01*
X19126Y222891D01*
X19594Y223039D01*
X20066Y223176D01*
X20540Y223301D01*
X21018Y223414D01*
X21498Y223516D01*
X21981Y223606D01*
X22465Y223684D01*
X22952Y223750D01*
X23440Y223804D01*
X23929Y223846D01*
X24419Y223876D01*
X24909Y223894D01*
X25400Y223900D01*
X25891Y223894D01*
X26381Y223876D01*
X26871Y223846D01*
X27360Y223804D01*
X27848Y223750D01*
X28335Y223684D01*
X28819Y223606D01*
X29302Y223516D01*
X29782Y223414D01*
X30260Y223301D01*
X30734Y223176D01*
X31206Y223039D01*
X31674Y222891D01*
X32138Y222731D01*
X32598Y222560D01*
X33054Y222378D01*
X33505Y222184D01*
X33951Y221980D01*
X34392Y221764D01*
X34828Y221538D01*
X35258Y221302D01*
X35682Y221055D01*
X36100Y220797D01*
X36511Y220529D01*
X36916Y220252D01*
X37314Y219964D01*
X37705Y219667D01*
X38088Y219360D01*
X38463Y219044D01*
X38831Y218719D01*
X39191Y218385D01*
X39542Y218042D01*
X39885Y217691D01*
X40219Y217331D01*
X40544Y216963D01*
X40860Y216588D01*
X41167Y216205D01*
X41464Y215814D01*
X41752Y215416D01*
X42029Y215011D01*
X42297Y214600D01*
X42555Y214182D01*
X42802Y213758D01*
X43038Y213328D01*
X43264Y212892D01*
X43480Y212451D01*
X43684Y212005D01*
X43878Y211554D01*
X44060Y211098D01*
X44231Y210638D01*
X44391Y210174D01*
X44539Y209706D01*
X44676Y209234D01*
X44801Y208760D01*
X44914Y208282D01*
X45016Y207802D01*
X45106Y207319D01*
X45184Y206835D01*
X45250Y206348D01*
X45304Y205860D01*
X45346Y205371D01*
X45376Y204881D01*
X45394Y204391D01*
X45400Y203900D01*
X45394Y203409D01*
X45376Y202919D01*
X45346Y202429D01*
X45304Y201940D01*
X45250Y201452D01*
X45184Y200965D01*
X45106Y200481D01*
X45016Y199998D01*
X44914Y199518D01*
X44801Y199040D01*
X44676Y198566D01*
X44539Y198094D01*
X44391Y197626D01*
X44231Y197162D01*
X44060Y196702D01*
X43878Y196246D01*
X43684Y195795D01*
X43480Y195349D01*
X43264Y194908D01*
X43038Y194472D01*
X42802Y194042D01*
X42555Y193618D01*
X42297Y193200D01*
X42029Y192789D01*
X41752Y192384D01*
X41464Y191986D01*
X41167Y191595D01*
X40860Y191212D01*
X40544Y190837D01*
X40219Y190469D01*
X39885Y190109D01*
X39542Y189758D01*
X39191Y189415D01*
X38831Y189081D01*
X38463Y188756D01*
X38088Y188440D01*
X37705Y188133D01*
X37314Y187836D01*
X36916Y187548D01*
X36511Y187271D01*
X36100Y187003D01*
X35682Y186745D01*
X35258Y186498D01*
X34828Y186262D01*
X34392Y186036D01*
X33951Y185820D01*
X33505Y185616D01*
X33054Y185422D01*
X32598Y185240D01*
X32138Y185069D01*
X31674Y184909D01*
X31206Y184761D01*
X30734Y184624D01*
X30260Y184499D01*
X29782Y184386D01*
X29302Y184284D01*
X28819Y184194D01*
X28335Y184116D01*
X27848Y184050D01*
X27360Y183996D01*
X26871Y183954D01*
X26381Y183924D01*
X25891Y183906D01*
X25400Y183900D01*
X24909Y183906D01*
X24419Y183924D01*
X23929Y183954D01*
X23440Y183996D01*
X22952Y184050D01*
X22465Y184116D01*
X21981Y184194D01*
X21498Y184284D01*
X21018Y184386D01*
X20540Y184499D01*
X20066Y184624D01*
X19594Y184761D01*
X19126Y184909D01*
X18662Y185069D01*
X18202Y185240D01*
X17746Y185422D01*
X17295Y185616D01*
X16849Y185820D01*
X16408Y186036D01*
X15972Y186262D01*
X15542Y186498D01*
X15118Y186745D01*
X14700Y187003D01*
X14289Y187271D01*
X13884Y187548D01*
X13486Y187836D01*
X13095Y188133D01*
X12712Y188440D01*
X12337Y188756D01*
X11969Y189081D01*
X11609Y189415D01*
X11258Y189758D01*
X10915Y190109D01*
X10581Y190469D01*
X10256Y190837D01*
X9940Y191212D01*
X9633Y191595D01*
X9336Y191986D01*
X9048Y192384D01*
X8771Y192789D01*
X8503Y193200D01*
X8245Y193618D01*
X7998Y194042D01*
X7762Y194472D01*
X7536Y194908D01*
X7320Y195349D01*
X7116Y195795D01*
X6922Y196246D01*
X6740Y196702D01*
X6569Y197162D01*
X6409Y197626D01*
X6261Y198094D01*
X6124Y198566D01*
X5999Y199040D01*
X5886Y199518D01*
X5784Y199998D01*
X5694Y200481D01*
X5616Y200965D01*
X5550Y201452D01*
X5496Y201940D01*
X5454Y202429D01*
X5424Y202919D01*
X5406Y203409D01*
X5400Y203900D01*
M02*
