G04 EAGLE Gerber RS-274X export*
G75*
%MOMM*%
%FSLAX34Y34*%
%LPD*%
%INSoldermask Bottom*%
%IPPOS*%
%AMOC8*
5,1,8,0,0,1.08239X$1,22.5*%
G01*
%ADD10C,2.601600*%
%ADD11R,1.351600X2.101600*%
%ADD12R,1.001600X0.801600*%
%ADD13R,1.101600X1.201600*%
%ADD14R,1.201600X1.101600*%
%ADD15R,0.801600X1.001600*%
%ADD16R,1.193800X1.244600*%
%ADD17R,2.351600X2.351600*%
%ADD18C,1.376600*%
%ADD19R,1.391600X1.391600*%
%ADD20C,1.391600*%
%ADD21C,1.879600*%
%ADD22R,0.701600X0.801600*%
%ADD23R,0.801600X0.701600*%
%ADD24R,1.601600X1.101600*%
%ADD25C,0.189431*%
%ADD26R,0.660400X1.371600*%
%ADD27R,0.406400X0.812800*%
%ADD28C,3.851600*%
%ADD29C,1.601600*%


D10*
X482600Y203900D03*
X482600Y26100D03*
D11*
X426250Y95000D03*
X493750Y95000D03*
D12*
X69000Y28500D03*
X69000Y15500D03*
X125000Y28500D03*
X125000Y15500D03*
D13*
X85000Y30500D03*
X85000Y13500D03*
D14*
X111500Y196500D03*
X128500Y196500D03*
X114500Y176000D03*
X131500Y176000D03*
D12*
X367500Y95000D03*
X367500Y82000D03*
X401000Y95000D03*
X401000Y82000D03*
D13*
X109000Y30500D03*
X109000Y13500D03*
D15*
X92500Y111000D03*
X105500Y111000D03*
D12*
X150500Y172000D03*
X150500Y185000D03*
D16*
X60000Y190633D03*
X60000Y221367D03*
D17*
X14500Y150125D03*
X14500Y79875D03*
D18*
X44500Y139250D03*
X44500Y90750D03*
D19*
X90000Y210500D03*
D20*
X110000Y210500D03*
D21*
X165100Y216600D03*
X190500Y216600D03*
X215900Y216600D03*
X241300Y216600D03*
X266700Y216600D03*
X292100Y216600D03*
X317500Y216600D03*
X342900Y216600D03*
X368300Y216600D03*
X393700Y216600D03*
X419100Y216600D03*
X444500Y216600D03*
X165100Y13400D03*
X190500Y13400D03*
X215900Y13400D03*
X241300Y13400D03*
X266700Y13400D03*
X292100Y13400D03*
X317500Y13400D03*
X342900Y13400D03*
X368300Y13400D03*
X393700Y13400D03*
X419100Y13400D03*
X444500Y13400D03*
D22*
X380000Y95000D03*
X390000Y95000D03*
X112000Y122000D03*
X102000Y122000D03*
X106000Y133000D03*
X96000Y133000D03*
X58500Y65500D03*
X68500Y65500D03*
D23*
X62000Y160000D03*
X62000Y170000D03*
D22*
X31000Y173000D03*
X41000Y173000D03*
D24*
X336000Y185000D03*
X336000Y165000D03*
X336000Y145000D03*
X336000Y125000D03*
X336000Y105000D03*
X336000Y85000D03*
X336000Y65000D03*
X336000Y45000D03*
X174000Y45000D03*
X174000Y65000D03*
X174000Y85000D03*
X174000Y105000D03*
X174000Y125000D03*
X174000Y145000D03*
X174000Y165000D03*
X174000Y185000D03*
D25*
X91461Y49061D02*
X91461Y43939D01*
X78839Y43939D01*
X78839Y49061D01*
X91461Y49061D01*
X91461Y45738D02*
X78839Y45738D01*
X78839Y47537D02*
X91461Y47537D01*
X91461Y53439D02*
X91461Y58561D01*
X91461Y53439D02*
X78839Y53439D01*
X78839Y58561D01*
X91461Y58561D01*
X91461Y55238D02*
X78839Y55238D01*
X78839Y57037D02*
X91461Y57037D01*
X91461Y62939D02*
X91461Y68061D01*
X91461Y62939D02*
X78839Y62939D01*
X78839Y68061D01*
X91461Y68061D01*
X91461Y64738D02*
X78839Y64738D01*
X78839Y66537D02*
X91461Y66537D01*
X115161Y68061D02*
X115161Y62939D01*
X102539Y62939D01*
X102539Y68061D01*
X115161Y68061D01*
X115161Y64738D02*
X102539Y64738D01*
X102539Y66537D02*
X115161Y66537D01*
X115161Y49061D02*
X115161Y43939D01*
X102539Y43939D01*
X102539Y49061D01*
X115161Y49061D01*
X115161Y45738D02*
X102539Y45738D01*
X102539Y47537D02*
X115161Y47537D01*
D26*
X79602Y185954D03*
X89000Y185954D03*
X98398Y185954D03*
X98398Y160046D03*
X79602Y160046D03*
D27*
X103000Y80507D03*
X95000Y80507D03*
X95000Y95493D03*
X103000Y95493D03*
D28*
X25400Y26100D03*
X25400Y203900D03*
D29*
X14000Y127000D03*
X14000Y103000D03*
M02*
