M48
;GenerationSoftware,Autodesk,EAGLE,9.6.2*%
;CreationDate,2021-01-16T17:11:04Z*%
FMAT,2
ICI,OFF
METRIC,TZ,000.000
T9C0.200
T8C0.350
T7C0.400
T6C0.850
T5C0.860
T4C1.000
T3C1.016
T2C1.500
T1C2.500
%
G90
M71
T1
X48260Y2610
X2540Y20390
X2540Y2610
X48260Y20390
T2
X1450Y15012
X1450Y7987
T3
X16510Y1340
X21590Y1340
X24130Y1340
X26670Y1340
X29210Y1340
X36830Y21660
X19050Y21660
X31750Y1340
X34290Y1340
X39370Y1340
X41910Y1340
X44450Y1340
X19050Y1340
X24130Y21660
X16510Y21660
X21590Y21660
X36830Y1340
X26670Y21660
X29210Y21660
X31750Y21660
X34290Y21660
X39370Y21660
X41910Y21660
X44450Y21660
T4
X1400Y10300
X1400Y12700
T5
X9000Y21050
X11000Y21050
T6
X4450Y13925
X4450Y9075
T7
X7050Y14100
X2500Y6000
X4700Y18800
X5500Y10200
T8
X5300Y1550
X7200Y5600
X10900Y5500
X13400Y1550
T9
X25400Y19318
X11800Y16600
X25000Y17800
X19400Y10203
X19400Y10806
X37000Y13500
X11282Y15900
X10679Y15300
X32000Y10500
X32000Y16500
X18750Y5000
X18750Y17500
X30500Y14800
X8800Y9500
X8150Y13300
X12600Y7800
X37000Y11500
X19400Y9600
X39500Y6500
X37000Y17500
X1300Y17300
X39500Y5500
X37000Y5500
X39500Y11500
X39500Y13500
X39500Y15500
X39500Y17500
X37000Y15500
X37000Y6500
X32000Y18500
X29150Y6250
X15200Y4500
X21000Y10750
X12602Y9280
X15800Y8600
X18900Y13700
X18800Y18200
X29900Y11350
X30500Y13000
X11400Y10900
X12600Y4100
X17250Y11500
X24600Y11780
X18600Y11700
X15800Y14500
X19100Y12500
X20750Y14500
X22000Y17000
X24150Y9700
X25000Y12400
X25400Y13000
X25900Y13518
X19900Y18100
X21590Y18000
X23100Y18800
M30